<?xml version="1.0" standalone="no"?>
<!DOCTYPE svg PUBLIC "-//W3C//DTD SVG 1.1//EN" "http://www.w3.org/Graphics/SVG/1.1/DTD/svg11.dtd" >
<svg xmlns="http://www.w3.org/2000/svg" xmlns:xlink="http://www.w3.org/1999/xlink" version="1.1">
<metadata></metadata>
<defs>
<font id="fedra_sans_promedium" horiz-adv-x="1228" >
<font-face units-per-em="2048" ascent="1597" descent="-451" />
<missing-glyph horiz-adv-x="481" />
<glyph horiz-adv-x="0" />
<glyph horiz-adv-x="682" />
<glyph unicode=" "  horiz-adv-x="481" />
<glyph unicode="&#x09;" horiz-adv-x="481" />
<glyph unicode="&#xa0;" horiz-adv-x="481" />
<glyph unicode="!" horiz-adv-x="630" d="M168 0v254h285v-254h-285zM174 768v680h272v-680l-14 -354h-242z" />
<glyph unicode="&#x22;" horiz-adv-x="874" d="M100 1544h260l-18 -489h-225zM514 1544h260l-18 -489h-226z" />
<glyph unicode="#" horiz-adv-x="1300" d="M55 248v215h191l12 213h-203v215h221l15 270h256l-17 -270h277l14 270h256l-16 -270h170v-215h-187l-12 -213h199v-215h-211l-14 -248h-256l14 248h-277l-14 -248h-254l12 248h-176zM500 463h278l13 213h-277z" />
<glyph unicode="$" horiz-adv-x="1116" d="M90 59l76 199q100 -32 175 -45.5t171 -13.5q225 0 225 114q0 13 -4 25t-13.5 22.5t-19 19t-26.5 17.5t-29.5 15.5t-35.5 15t-37 13.5t-40.5 14t-39.5 14q-44 16 -73 27t-71 31t-69.5 38.5t-58.5 46.5t-49 58t-30 70.5t-12 86.5q0 123 90.5 195t235.5 96l-4 221h202 l-4 -213q90 -3 156.5 -17t155.5 -46l-62 -191q-176 46 -313 46q-176 0 -176 -91q0 -20 12.5 -39t27 -31.5t48 -28.5t52.5 -24t63 -25q12 -5 18 -7q164 -61 232 -102q163 -98 163 -246q0 -75 -30 -134.5t-83 -98.5t-119 -62.5t-145 -34.5l6 -197h-204l4 189q-220 5 -365 73z " />
<glyph unicode="%" horiz-adv-x="1695" d="M72 1094q0 170 104 269t256 99q75 0 137.5 -18.5t114.5 -58t81.5 -110t29.5 -165.5q0 -168 -107 -265t-262 -97q-73 0 -135 19.5t-112 59.5t-78.5 108t-28.5 159zM184 242l1155 1089l144 -149l-1153 -1090zM301 1094q0 -83 31 -119.5t94 -36.5q62 0 100.5 44t38.5 128 q0 164 -133 164q-56 0 -93.5 -42.5t-37.5 -137.5zM901 324q0 170 105.5 269t257.5 99q75 0 137.5 -18.5t114.5 -58t81 -110t29 -165.5q0 -168 -107 -264t-262 -96q-58 0 -109.5 11.5t-97 38t-78.5 65.5t-52 97.5t-19 131.5zM1133 324q0 -83 30.5 -118.5t93.5 -35.5 q62 0 101 43t39 127q0 164 -133 164q-56 0 -93.5 -42.5t-37.5 -137.5z" />
<glyph unicode="&#x26;" horiz-adv-x="1452" d="M98 360q0 66 20.5 124.5t60.5 107.5t84.5 88t105.5 80q-84 196 -84 342q0 49 12.5 98t41.5 96.5t71.5 83.5t107.5 58t144 22q95 0 169 -26t118 -70.5t66.5 -100t22.5 -118.5q0 -57 -21.5 -109t-46 -86.5t-82 -78.5t-89 -64t-107.5 -65l-45 -27q82 -138 215 -249 t287.5 -177.5t312.5 -85.5l-28 -215q-268 9 -514 141q-85 -75 -167 -111t-204 -36q-451 0 -451 378zM362 375q0 -83 55 -128.5t140 -45.5q80 0 172 55q-86 64 -148 136.5t-118 168.5q-50 -49 -75.5 -92t-25.5 -94zM522 1116q0 -96 37 -225q11 7 44.5 27.5t49.5 31t44.5 30 t44 34.5t33 34t25 38t7.5 38q0 61 -39 99.5t-104 38.5q-63 0 -102.5 -41.5t-39.5 -104.5z" />
<glyph unicode="'" horiz-adv-x="475" d="M100 1544h275l-19 -489h-239z" />
<glyph unicode="(" horiz-adv-x="780" d="M94 582q0 113 17 220t46 191t66 161t78.5 134.5t83 106t78.5 81.5t66 56.5t46 33.5l17 11l170 -180q-8 -5 -22.5 -16t-55 -48.5t-77.5 -81t-82.5 -115t-78 -149.5t-55 -184t-22.5 -219q0 -114 21.5 -223t56 -192.5t76 -158t82.5 -126.5t75.5 -90.5t55.5 -56.5l22 -18 l-168 -178q-10 7 -28 21t-69.5 63.5t-98.5 105.5t-104 148t-98.5 191.5t-69.5 234.5t-28 277z" />
<glyph unicode=")" horiz-adv-x="780" d="M18 1397l170 180q10 -6 28 -18t70 -56t99 -95t104.5 -137.5t98.5 -182t69.5 -229t28.5 -277.5q0 -142 -27.5 -276.5t-71 -235.5t-96.5 -190t-106 -149.5t-96.5 -104.5t-70.5 -64l-28 -21l-170 178q8 6 22 18.5t55 55.5t78 91t82 125.5t77.5 159.5t55 191.5t22.5 223.5 q0 113 -21.5 219t-56.5 184.5t-77 148t-84 116t-77 80.5t-56 50z" />
<glyph unicode="*" horiz-adv-x="868" d="M80 1100l201 78l65 -115l-172 -135zM80 1294l96 172l174 -137l-67 -119zM346 829l29 209h145l25 -209h-199zM350 1559h199l-27 -211h-145zM549 1057l67 119l203 -82l-96 -172zM549 1327l172 135l94 -172l-201 -78z" />
<glyph unicode="+" d="M84 518v211l420 -6v428h213l-8 -432l438 10v-211l-434 2l4 -422h-213v422z" />
<glyph unicode="," horiz-adv-x="700" d="M154 -266q26 57 41.5 147t15.5 168v223h287v-129q0 -236 -107 -409h-237z" />
<glyph unicode="-" horiz-adv-x="755" d="M72 475v223h610v-223h-610z" />
<glyph unicode="." horiz-adv-x="700" d="M203 0v276h307v-276h-307z" />
<glyph unicode="/" horiz-adv-x="884" d="M82 -127l477 1702h244l-477 -1702h-244z" />
<glyph unicode="0" horiz-adv-x="1406" d="M100 549q0 285 160.5 441.5t458.5 156.5q290 0 439 -152.5t149 -416.5q0 -299 -163.5 -451t-449.5 -152q-290 0 -442 144t-152 430zM379 553q0 -172 90 -261t233 -89q145 0 235.5 95t90.5 273q0 165 -83.5 257t-233.5 92q-156 0 -244 -94t-88 -273z" />
<glyph unicode="1" horiz-adv-x="792" d="M39 913v215l565 17v-1145h-276v913h-289z" />
<glyph unicode="2" horiz-adv-x="1103" d="M88 0v225q31 24 115.5 82.5t157 111t149 115.5t121.5 122t45 104q0 89 -56 125.5t-159 36.5q-132 0 -275 -62l-69 199q50 31 153.5 59.5t202.5 28.5q109 0 193.5 -22t136 -57.5t84 -86t45 -102t12.5 -111.5q0 -266 -510 -547h567v-221h-913z" />
<glyph unicode="3" horiz-adv-x="1038" d="M29 -289l53 221q163 -47 309 -47q134 0 203.5 42.5t69.5 152.5q0 112 -70.5 169t-220.5 75q-27 4 -84 4v190q14 1 71 6q120 17 180 71t60 150q0 90 -66.5 131.5t-166.5 41.5q-65 0 -125.5 -13.5t-91.5 -27.5l-68 192q151 74 338 74q195 0 321.5 -93.5t126.5 -269.5 q0 -71 -20.5 -129t-55.5 -96.5t-70 -62.5t-75 -41q58 -21 107.5 -52.5t92.5 -76t68 -106.5t25 -134q0 -114 -43 -199t-118.5 -133.5t-167 -72t-199.5 -23.5q-231 0 -383 57z" />
<glyph unicode="4" horiz-adv-x="1222" d="M27 59v189l499 868h416v-833h215v-224h-215v-391h-272v391h-643zM283 283h387v684z" />
<glyph unicode="5" horiz-adv-x="1120" d="M109 -303l65 223q165 -41 326 -41q122 0 194 60.5t72 160.5q0 240 -266 240q-117 0 -340 -21v797h813v-221h-549v-344q47 4 129 4q226 0 356.5 -113.5t130.5 -320.5q0 -150 -71 -258.5t-191.5 -162.5t-275.5 -54q-114 0 -222 14.5t-171 36.5z" />
<glyph unicode="6" horiz-adv-x="1230" d="M84 627q0 409 180.5 622t493.5 213q166 0 274 -41l-59 -213q-105 25 -217 25q-400 0 -400 -619q0 -227 61.5 -321t221.5 -94q102 0 162.5 72.5t60.5 187.5q0 133 -65 195.5t-179 62.5q-93 0 -210 -31l6 207q113 37 231 37q237 0 363.5 -113.5t126.5 -337.5 q0 -158 -69.5 -274t-183.5 -173t-257 -57q-132 0 -230.5 36t-169 113t-106 202.5t-35.5 300.5z" />
<glyph unicode="7" horiz-adv-x="1003" d="M23 870v246h940v-192l-641 -1301l-240 80l604 1167h-663z" />
<glyph unicode="8" horiz-adv-x="1218" d="M88 352q0 75 23 138t66.5 112t91.5 85t112 71q-112 72 -175 154t-63 192q0 179 131.5 269.5t350.5 90.5q209 0 334.5 -99t125.5 -243q0 -62 -21 -116t-61.5 -98t-85 -77.5t-104.5 -68.5q70 -38 120 -72t98.5 -81t73.5 -105.5t25 -126.5q0 -197 -144 -299.5t-384 -102.5 q-150 0 -263 39t-182 125.5t-69 212.5zM356 389q0 -87 62 -147t196 -60q123 0 182.5 59t59.5 154q0 38 -19.5 72t-63 68t-80 56.5t-103.5 59.5q-114 -63 -174 -123t-60 -139zM410 1081q0 -67 50 -119.5t144 -103.5q100 51 153.5 102.5t53.5 122.5q0 81 -47 129t-143 48 q-108 0 -159.5 -49t-51.5 -130z" />
<glyph unicode="9" horiz-adv-x="1234" d="M98 653q0 118 40.5 212.5t111 155.5t163.5 93.5t199 32.5q259 0 400 -162.5t141 -488.5q0 -426 -177 -631t-507 -205q-158 0 -270 41l61 215q110 -27 211 -27q96 0 168 30.5t117 83.5t72.5 135t38 173.5t10.5 210.5q0 205 -64.5 302.5t-214.5 97.5q-103 0 -164 -68 t-61 -182q0 -144 63.5 -202t181.5 -58q97 0 211 32l-4 -206q-106 -37 -237 -37q-490 0 -490 452z" />
<glyph unicode=":" horiz-adv-x="700" d="M193 0v276h309v-276h-309zM193 842v276h309v-276h-309z" />
<glyph unicode=";" horiz-adv-x="700" d="M139 -266q35 68 50.5 148.5t15.5 140.5v249h299v-172q0 -211 -121 -366h-244zM199 842v276h307v-276h-307z" />
<glyph unicode="&#x3c;" d="M178 500v243l852 404v-234l-637 -292l637 -277v-233z" />
<glyph unicode="=" d="M125 483h960l5 -211h-963zM125 967h960l5 -211h-963z" />
<glyph unicode="&#x3e;" d="M178 111v233l635 277l-635 292v234l852 -404v-243z" />
<glyph unicode="?" horiz-adv-x="829" d="M125 1227l49 227q96 -7 175 -23t154.5 -48t127 -77.5t83 -116t31.5 -159.5q0 -60 -24 -117t-60.5 -98.5t-79 -84t-79 -75.5t-60.5 -70t-24 -71q0 -66 16 -115l-221 -37q-35 80 -35 168q0 53 15.5 102.5t40.5 88t55.5 73.5t60.5 64t55 55.5t40.5 53.5t15.5 51 q0 94 -76 144t-260 65zM205 0v254h280v-254h-280z" />
<glyph unicode="@" horiz-adv-x="1619" d="M59 547q0 195 47 351t129 261.5t197 175.5t245 101.5t279 31.5q277 0 431.5 -149.5t154.5 -454.5q0 -137 -39 -247t-106.5 -180.5t-156 -108t-189.5 -37.5q-87 0 -137.5 34t-53.5 87q-31 -43 -90 -78t-104 -35q-112 0 -172 62t-60 217q0 190 115 314t305 124 q139 0 268 -51l-47 -390q-9 -79 41 -79q31 0 63.5 20.5t63.5 61.5t50.5 116.5t19.5 171.5q0 214 -94.5 308t-274.5 94q-104 0 -197 -23.5t-177 -77t-145 -134t-96.5 -202t-35.5 -272.5q0 -263 122.5 -379.5t352.5 -116.5q122 0 336 29l29 -186q-111 -34 -190 -45t-193 -11 q-350 0 -520.5 168t-170.5 529zM670 600q0 -50 12 -77t45 -27q16 0 30.5 3t24.5 6t22 10t17.5 11t16.5 12.5t14 10.5l39 299q-4 0 -16 1t-17 1q-87 0 -137.5 -68t-50.5 -182z" />
<glyph unicode="A" horiz-adv-x="1476" d="M25 0l565 1448h362l502 -1448h-291l-159 469h-521l-178 -469h-280zM561 676h375l-176 594z" />
<glyph unicode="B" horiz-adv-x="1366" d="M186 0v1448h465q256 0 384 -97.5t128 -285.5q0 -172 -166 -281v-4q19 -7 35.5 -14t45.5 -23t52.5 -33.5t50.5 -46t45 -60t30 -76t12 -93.5q0 -99 -30 -176.5t-94.5 -136t-173 -90t-257.5 -31.5h-527zM467 221h205q154 0 234.5 46.5t80.5 158.5q0 121 -86 167t-268 46 h-166v-418zM467 838h160q138 0 198 42.5t60 149.5q0 109 -69.5 156t-213.5 47h-135v-395z" />
<glyph unicode="C" horiz-adv-x="1376" d="M98 715q0 365 198 559t576 194q252 0 439 -82l-74 -208q-76 22 -107.5 29.5t-100.5 17t-152 10.5h-7q-102 0 -187 -29q-88 -30 -155.5 -89.5t-105 -157t-37.5 -224.5q0 -171 70 -290.5t188 -175.5t275 -56q178 0 337 47l62 -215q-190 -68 -436 -68q-378 0 -580.5 195 t-202.5 543z" />
<glyph unicode="D" horiz-adv-x="1583" d="M186 0v1448h469q185 0 335.5 -44t261.5 -130.5t172 -225t61 -319.5q0 -368 -213 -548.5t-604 -180.5h-482zM463 221h227q514 0 514 488q0 259 -140.5 388.5t-414.5 129.5h-186v-1006z" />
<glyph unicode="E" d="M186 0v1448h897v-221h-618v-396h573v-208h-573v-402h665v-221h-944z" />
<glyph unicode="F" horiz-adv-x="1210" d="M186 0v1448h951v-221h-672v-432h627v-209h-627v-586h-279z" />
<glyph unicode="G" horiz-adv-x="1480" d="M98 715q0 371 201.5 562t583.5 191q105 0 192.5 -14t132 -28.5t103.5 -39.5l-76 -208q-10 3 -45 12.5t-46 12.5t-41 10t-48 9.5t-48 6.5t-60 5t-66 1q-106 0 -193.5 -28.5t-156.5 -86.5t-107.5 -156.5t-38.5 -228.5q0 -132 41 -233.5t114 -163.5t166.5 -93.5t204.5 -31.5 q31 0 148 12v490h278v-660q-116 -41 -222.5 -59.5t-240.5 -18.5q-363 0 -569.5 193t-206.5 545z" />
<glyph unicode="H" horiz-adv-x="1613" d="M186 0v1448h279v-612h684v612h278v-1448h-278v618h-684v-618h-279z" />
<glyph unicode="I" horiz-adv-x="651" d="M186 0v1448h279v-1448h-279z" />
<glyph unicode="J" horiz-adv-x="651" d="M-111 -195q122 67 186 137t87.5 153t23.5 214v1139h281v-1135q0 -71 -3.5 -126t-15.5 -118t-33 -113t-56.5 -102.5t-84.5 -95t-120 -83t-160 -72.5z" />
<glyph unicode="K" horiz-adv-x="1415" d="M186 0v1448h279v-1448h-279zM471 760v33l541 655h356l-592 -674l627 -774h-359z" />
<glyph unicode="L" horiz-adv-x="1120" d="M186 0v1448h279v-1223h629v-225h-908z" />
<glyph unicode="M" horiz-adv-x="1988" d="M186 0v1448h357l430 -1217l489 1217h342v-1448h-280v727l8 297l-399 -1024h-334l-353 1038l19 -311v-727h-279z" />
<glyph unicode="N" horiz-adv-x="1619" d="M186 0v1448h342l633 -1112l-8 170v942h281v-1448h-359l-618 1090l8 -177v-913h-279z" />
<glyph unicode="O" horiz-adv-x="1710" d="M98 727q0 341 211 542t568 201q185 0 327 -56t230.5 -157.5t133 -236t44.5 -297.5q0 -346 -203.5 -547t-570.5 -201q-357 0 -548.5 201.5t-191.5 550.5zM381 729q0 -111 27.5 -205t82.5 -168t145.5 -115.5t207.5 -41.5q101 0 182 26.5t137 73t93 113t54 144.5t17 169 q0 234 -120 378t-349 144q-121 0 -214 -39t-149.5 -109.5t-85 -163.5t-28.5 -206z" />
<glyph unicode="P" horiz-adv-x="1277" d="M186 0v1448h529q237 0 380.5 -130.5t143.5 -361.5q0 -104 -40.5 -194.5t-117.5 -159.5t-199 -109t-274 -40h-98v219h111q162 0 245.5 73t83.5 203q0 136 -66.5 207.5t-213.5 71.5h-203v-1227h-281z" />
<glyph unicode="Q" horiz-adv-x="1726" d="M98 727q0 341 211 542t568 201q185 0 327 -56t230.5 -157.5t133 -236t44.5 -297.5q0 -346 -203.5 -547t-570.5 -201q-357 0 -548.5 201.5t-191.5 550.5zM381 729q0 -111 27.5 -205t82.5 -168t145.5 -115.5t207.5 -41.5q101 0 182 26.5t137 73t93 113t54 144.5t17 169 q0 234 -120 378t-349 144q-121 0 -214 -39t-149.5 -109.5t-85 -163.5t-28.5 -206zM821 -68q72 0 141 -7.5t103 -14.5t95.5 -22.5t74.5 -18.5q60 -17 127.5 -25t113.5 -9t138 -1v-203h-53h-62.5t-59.5 1t-67.5 3.5t-61.5 6.5t-66 10.5t-58 15.5q-18 4 -76.5 19.5t-79.5 20 t-63.5 13t-75.5 11t-70 2.5v198z" />
<glyph unicode="R" horiz-adv-x="1501" d="M186 0v1448h529q240 0 382 -115t142 -340q0 -127 -62 -230t-186 -163l178 -221q62 -75 136.5 -119t173.5 -70l-62 -215q-150 7 -273 81t-233 212l-202 267q-51 -7 -101 -7h-141v-528h-281zM467 733h154q329 0 329 250q0 131 -65 187.5t-215 56.5h-203v-494z" />
<glyph unicode="S" horiz-adv-x="1189" d="M78 74l82 207q96 -37 177 -53.5t189 -16.5q134 0 212.5 44.5t78.5 135.5q0 45 -24 82t-64 64.5t-92.5 52t-110 49t-115 51.5t-110 64t-92.5 82t-64 109t-24 142q0 95 41 169.5t110 119.5t154 68.5t180 23.5q96 0 178 -14t127 -30t109 -44l-80 -198q-65 21 -100 30.5 t-97.5 19t-128.5 9.5q-110 0 -165.5 -39t-55.5 -110q0 -49 39 -90t101 -73t137 -65t150.5 -74t137.5 -91t101 -126t39 -170q0 -88 -31 -160t-84.5 -121t-126.5 -82t-154.5 -48t-171.5 -15q-273 0 -452 97z" />
<glyph unicode="T" horiz-adv-x="1243" d="M12 1225v223h1219v-223h-469v-1225h-281v1225h-469z" />
<glyph unicode="U" horiz-adv-x="1613" d="M172 557v891h285v-879q0 -186 93 -274t261 -88q356 0 356 407v834h275v-840q0 -141 -37.5 -253t-98 -182.5t-144.5 -116.5t-170 -64.5t-181 -18.5q-99 0 -187 17t-172.5 59t-145 107t-97.5 167.5t-37 233.5z" />
<glyph unicode="V" horiz-adv-x="1447" d="M4 1448h297l397 -1237l461 1237h283l-565 -1448h-367z" />
<glyph unicode="W" horiz-adv-x="2134" d="M27 1448h274l279 -1272l358 918l-123 354h279l407 -1264l340 1264h266l-426 -1448h-364l-273 801l-301 -801h-370z" />
<glyph unicode="X" horiz-adv-x="1353" d="M14 0l516 752l-446 696h319l289 -483l309 483h312l-473 -692l485 -756h-324l-323 543l-348 -543h-316z" />
<glyph unicode="Y" horiz-adv-x="1343" d="M4 1448h322l340 -713l362 713h311l-544 -944v-504h-281v498z" />
<glyph unicode="Z" horiz-adv-x="1200" d="M59 0v201l703 1013h-649v234h987v-186l-711 -1029h754v-233h-1084z" />
<glyph unicode="[" horiz-adv-x="733" d="M164 -451v1995h479v-227h-205v-1540h205v-228h-479z" />
<glyph unicode="\" horiz-adv-x="884" d="M82 1575h244l477 -1702h-244z" />
<glyph unicode="]" horiz-adv-x="733" d="M133 -223h205v1540h-205v227h479v-1995h-479v228z" />
<glyph unicode="^" horiz-adv-x="1114" d="M70 602l344 846h313l322 -846h-267l-215 641l-237 -641h-260z" />
<glyph unicode="_" horiz-adv-x="1046" d="M0 -158h1047v-223h-1047v223z" />
<glyph unicode="`" horiz-adv-x="1183" d="M332 1473l96 194l449 -254l-86 -168z" />
<glyph unicode="a" horiz-adv-x="1239" d="M82 311q0 81 28.5 143t73.5 98t108 59t123 31t128 9l221 2v99q0 93 -54 126t-182 33q-110 0 -311 -49l-55 203q212 80 416 80q235 0 343.5 -77t108.5 -255v-545q0 -36 26.5 -51t76.5 -18l-13 -209h-59q-65 0 -119 10.5t-98 40.5t-56 76q-37 -27 -64 -44.5t-74 -41.5 t-100 -36.5t-110 -12.5q-172 0 -265 84.5t-93 244.5zM346 332q0 -69 43 -102t113 -33q42 0 89.5 11.5t108 34t64.5 23.5v221l-207 -8q-98 -2 -154.5 -40.5t-56.5 -106.5z" />
<glyph unicode="b" horiz-adv-x="1257" d="M160 45v1499h270v-1325q108 -24 178 -24q98 0 169 55t106 145.5t35 204.5q0 173 -61 256.5t-216 83.5q-81 0 -170 -29l-16 191q117 45 235 45q506 0 506 -533q0 -139 -32.5 -248.5t-87.5 -181t-132.5 -118.5t-161.5 -66.5t-180 -19.5q-110 0 -200.5 11t-134.5 22.5 t-107 31.5z" />
<glyph unicode="c" horiz-adv-x="1069" d="M92 565q0 266 156 424t422 158q201 0 338 -72l-74 -203q-70 27 -122 38.5t-134 11.5q-136 0 -221.5 -87.5t-85.5 -269.5q0 -98 15.5 -162.5t55 -112t109.5 -68.5t178 -21q32 0 65.5 3t54 6t57 9.5t52.5 9.5l39 -211q-66 -15 -91.5 -20t-81.5 -11.5t-113 -6.5 q-332 0 -475.5 136.5t-143.5 448.5z" />
<glyph unicode="d" horiz-adv-x="1277" d="M92 569q0 141 45 252.5t124.5 181.5t183.5 107t225 37q79 0 176 -19v416h272v-1544h-272v90q-37 -31 -65 -50.5t-83 -38.5t-118 -19q-71 0 -134 13.5t-130 53t-114.5 102t-78.5 170t-31 248.5zM365 563q0 -187 71.5 -270.5t190.5 -83.5q88 0 219 72v626q-94 23 -172 23 q-158 0 -233.5 -100t-75.5 -267z" />
<glyph unicode="e" horiz-adv-x="1179" d="M92 541q0 604 547 604q455 0 455 -563v-99h-729q0 -72 18 -124t48 -83t77 -49t95.5 -24t113.5 -6q73 0 303 45l43 -211q-178 -56 -395 -56q-110 0 -195.5 16.5t-158.5 56.5t-121 104t-74.5 162t-26.5 227zM371 666h442v10q0 123 -50 197q-52 77 -151 77q-104 0 -168 -74 t-73 -210z" />
<glyph unicode="f" horiz-adv-x="753" d="M20 922v196h164v78q0 399 414 399q105 0 190 -26l-45 -217q-62 10 -133 10q-78 0 -114.5 -44.5t-36.5 -135.5v-64h239v-196h-239v-1330h-275v1330h-164z" />
<glyph unicode="g" horiz-adv-x="1280" d="M92 553q0 143 46.5 257.5t127 187t186.5 111t228 38.5q178 0 438 -51v-1129q0 -110 -45 -195t-120.5 -134t-164.5 -73t-188 -24q-199 0 -426 58l45 221q200 -45 340 -45q57 0 96.5 4t79 17t62 37t37 64.5t14.5 98.5v59q-93 -73 -211 -73q-61 0 -111.5 5t-108 20t-103 40 t-88.5 69t-71.5 102.5t-45.5 144t-17 190.5zM365 551q0 -192 73 -274t215 -82q93 0 193 49v655q-104 23 -168 23q-160 0 -236.5 -99.5t-76.5 -271.5z" />
<glyph unicode="h" horiz-adv-x="1325" d="M160 0v1544h272v-545q204 150 375 150q72 0 128 -13t93.5 -33t64.5 -55t41.5 -68t22.5 -82.5t10 -89.5t2 -97v-711h-268v680q0 132 -36.5 181.5t-145.5 49.5q-110 0 -287 -90v-821h-272z" />
<glyph unicode="i" horiz-adv-x="591" d="M100 1466l193 193l194 -193l-194 -194zM160 0v1118h272v-1118h-272z" />
<glyph unicode="j" horiz-adv-x="591" d="M-209 -416l51 215q4 -1 32 -6t67 -9.5t63 -4.5q87 0 121.5 48t34.5 163v1128h272v-1130q0 -107 -23 -186.5t-60.5 -127.5t-94 -77t-114.5 -39.5t-132 -10.5q-108 0 -217 37zM100 1466l193 193l194 -193l-194 -194z" />
<glyph unicode="k" horiz-adv-x="1185" d="M160 0v1544h272v-913l387 485h299l-432 -516l184 -221q69 -80 134 -126.5t147 -68.5l-37 -207q-62 4 -106.5 12t-101 29t-110 64.5t-104.5 110.5l-260 337v-530h-272z" />
<glyph unicode="l" horiz-adv-x="591" d="M160 0v1544h272v-1544h-272z" />
<glyph unicode="m" horiz-adv-x="2004" d="M160 0v1118h272v-121q79 64 174.5 107t188.5 43q235 0 311 -168q78 69 180.5 118.5t210.5 49.5q100 0 170.5 -29.5t105.5 -67.5t53.5 -107t21.5 -113.5t3 -120.5v-709h-272v678q0 122 -37 176.5t-139 54.5q-123 0 -268 -92q6 -52 6 -106v-711h-271v678q0 127 -35 178 t-137 51q-62 0 -134 -26t-132 -64v-817h-272z" />
<glyph unicode="n" horiz-adv-x="1325" d="M160 0v1118h272v-119q206 148 375 148q72 0 128 -13t94 -33t65 -54.5t41.5 -67.5t23 -82.5t10.5 -89.5t2 -98v-709h-270v678q0 132 -36.5 181.5t-145.5 49.5q-125 0 -287 -88v-821h-272z" />
<glyph unicode="o" horiz-adv-x="1286" d="M92 549q0 279 152.5 438.5t404.5 159.5q274 0 409.5 -152.5t135.5 -435.5q0 -188 -73.5 -321.5t-198.5 -198t-289 -64.5q-258 0 -399.5 152.5t-141.5 421.5zM367 557q0 -362 280 -362q79 0 133.5 27.5t83.5 79.5t41.5 114t12.5 143q0 371 -275 371q-78 0 -134 -30.5 t-86 -84.5t-43 -117.5t-13 -140.5z" />
<glyph unicode="p" horiz-adv-x="1286" d="M160 -451v1569h270v-84q55 41 134.5 76t152.5 35q232 0 355.5 -132.5t123.5 -408.5q0 -136 -32.5 -244t-87.5 -178t-132 -116.5t-161.5 -66t-180.5 -19.5q-54 0 -172 10v-441h-270zM430 207q11 -1 42.5 -6t66 -8t71.5 -3q146 0 228 109.5t82 282.5q0 167 -65 250t-216 83 q-22 0 -46 -4t-50 -12.5t-42 -14.5t-42 -16.5t-29 -11.5v-649z" />
<glyph unicode="q" horiz-adv-x="1280" d="M92 571q0 138 45 249t124.5 181.5t183.5 108t225 37.5q145 0 239 -14t209 -46v-1538h-272v494q-105 -61 -238 -61q-516 0 -516 589zM362 565q0 -354 269 -354q108 0 215 41v655q-108 21 -172 21q-108 0 -179.5 -48t-102 -127.5t-30.5 -187.5z" />
<glyph unicode="r" horiz-adv-x="864" d="M160 0v1118h272v-149q48 68 127 120t174 52q87 0 146 -19l-39 -225q-64 12 -144 12q-79 0 -151 -38t-113 -89v-782h-272z" />
<glyph unicode="s" horiz-adv-x="1011" d="M86 23l33 210q234 -36 317 -36q226 0 226 114q0 30 -24 54.5t-64 40.5t-90.5 35t-103.5 36.5t-103.5 47t-90.5 65.5t-64 93t-24 128q0 108 62 186t159.5 114t217.5 36q177 0 335 -57l-45 -203q-6 1 -18 4q-151 35 -250 37h-22q-86 0 -126 -31t-40 -72q0 -36 31 -64 t80 -48.5t108.5 -41.5t119.5 -49.5t109 -65t80 -96t31 -134.5q0 -81 -31 -144t-79 -101t-112.5 -63t-124 -34t-120.5 -9q-210 0 -377 48z" />
<glyph unicode="t" horiz-adv-x="915" d="M37 909v209h164v230h270v-230h348v-209h-348v-573q0 -82 31.5 -104.5t126.5 -22.5q31 0 84.5 6t88 11t44.5 7l31 -217q-123 -39 -244 -39h-5q-61 0 -92 1t-84 7.5t-82 19.5t-66.5 39t-56 63t-32.5 94.5t-14 132.5v575h-164z" />
<glyph unicode="u" horiz-adv-x="1323" d="M156 416v702h272v-672q0 -129 34.5 -180t139.5 -51q130 0 291 88v815h272v-1118h-272v121q-204 -146 -377 -146q-70 0 -125.5 13t-93 33.5t-64 55.5t-41.5 69t-23.5 83t-10.5 89.5t-2 97.5z" />
<glyph unicode="v" horiz-adv-x="1198" d="M25 1118h294l205 -667l64 -230l69 232l230 665h284l-419 -1118h-340z" />
<glyph unicode="w" horiz-adv-x="1830" d="M25 1118h286l199 -901l242 901h329l209 -901l238 901h278l-352 -1118h-342l-168 688l-35 174l-43 -172l-186 -690h-346z" />
<glyph unicode="x" horiz-adv-x="1169" d="M25 0l403 571l-377 547h316l217 -375l219 375h309l-375 -545l408 -573h-328l-233 399l-238 -399h-321z" />
<glyph unicode="y" horiz-adv-x="1185" d="M25 1118h292l213 -715l52 -188l59 186l244 717h276l-547 -1569h-262l152 451h-105z" />
<glyph unicode="z" horiz-adv-x="1062" d="M80 0v190l575 705h-534v223h854v-184l-572 -713h580v-221h-903z" />
<glyph unicode="{" horiz-adv-x="747" d="M74 451v217q84 0 124 43t35 94l-40 401q-9 83 7 146.5t51.5 105.5t92.5 69t125 38.5t152 11.5h92v-229h-82q-89 0 -130 -44.5t-32 -119.5l41 -361q24 -197 -139 -260v-4q78 -35 115 -97t24 -165l-41 -360q-8 -73 32 -117.5t130 -44.5h82v-230h-92q-106 0 -185.5 18 t-140.5 59t-87.5 115.5t-14.5 180.5l40 393q5 51 -35 95.5t-124 44.5z" />
<glyph unicode="|" horiz-adv-x="577" d="M152 -451v1995h274v-1995h-274z" />
<glyph unicode="}" horiz-adv-x="747" d="M68 -225h82q90 0 130 44.5t31 117.5l-43 360q-21 189 142 262v4q-164 62 -142 260l43 361q9 75 -31.5 119.5t-129.5 44.5h-82v229h92q106 0 186 -19t140 -60.5t86.5 -115.5t15.5 -176l-41 -401q-5 -50 35.5 -93.5t124.5 -43.5v-217q-84 0 -124.5 -44.5t-35.5 -95.5 l41 -393q12 -106 -14.5 -180.5t-87.5 -115.5t-140.5 -59t-185.5 -18h-92v230z" />
<glyph unicode="~" horiz-adv-x="1167" d="M86 756q147 166 301 166q66 0 124 -19.5t93.5 -43t82.5 -43t93 -19.5q60 0 90 11q41 15 88 56l129 -159q-49 -72 -138.5 -125.5t-170.5 -53.5q-64 0 -125.5 19t-100.5 42.5t-87 42.5t-88 19q-86 0 -164 -65z" />
<glyph unicode="&#xa2;" horiz-adv-x="1101" d="M94 567q0 207 108 331t314 161l-6 170h252l-4 -162q117 -10 213 -61l-72 -195q-74 23 -114.5 30t-118.5 7q-133 0 -213 -67t-80 -218q0 -65 8.5 -110t30.5 -82t61 -58.5t99 -33t145 -11.5q30 0 60 2t47.5 4.5t55 8t56.5 8.5l41 -207q-134 -31 -219 -35l6 -164h-252l4 176 q-233 32 -327.5 146.5t-94.5 359.5z" />
<glyph unicode="&#xa3;" horiz-adv-x="1056" d="M94 426v209h178q0 44 -3 76.5t-3 60.5q0 60 10.5 111t28.5 89t47 68.5t60 52t74.5 37t84 24.5t93.5 14.5t98.5 7.5t103.5 2l13 -226q-179 -15 -231 -30q-77 -24 -97 -85q-9 -30 -8 -75q3 -87 2 -127h325v-209h-352q-6 -74 -30.5 -120.5t-69.5 -86.5h543v-219h-840v199 q67 34 105 97t38 130h-170z" />
<glyph unicode="&#xa5;" horiz-adv-x="1331" d="M96 61v222h428v63l-71 129h-357v221h234l-232 422h295l269 -545l284 545h289l-248 -422h248v-221h-383l-70 -125v-67h453v-222h-455v-61h-256v61h-428z" />
<glyph unicode="&#xa8;" horiz-adv-x="866" d="M41 1466l162 164l162 -164l-162 -163zM514 1466l164 164l162 -164l-162 -163z" />
<glyph unicode="&#xa9;" horiz-adv-x="1701" d="M127 563q0 170 54.5 307.5t152.5 230.5t235.5 143t302.5 50q171 0 305.5 -55t221 -153.5t131.5 -232.5t45 -294q0 -337 -198 -536t-543 -199q-221 0 -381.5 93t-243 259t-82.5 387zM285 565q0 -125 36 -234.5t103.5 -194t175.5 -133t242 -48.5q141 0 251.5 46t180.5 128 t106.5 191.5t36.5 240.5q0 266 -150.5 434t-412.5 168q-182 0 -312 -79t-193.5 -212.5t-63.5 -306.5zM473 561q0 189 109.5 302.5t304.5 113.5q164 0 256 -57l-51 -140q-55 22 -97.5 28.5t-105.5 6.5q-106 0 -173 -60.5t-67 -185.5q0 -123 72.5 -186.5t187.5 -63.5 q103 0 191 29l47 -147q-65 -27 -120.5 -38t-135.5 -11q-194 0 -306 115t-112 294z" />
<glyph unicode="&#xab;" horiz-adv-x="1001" d="M47 557l246 459l205 -70l-185 -389l183 -379l-203 -84zM494 557l245 459l205 -70l-184 -389l182 -379l-203 -84z" />
<glyph unicode="&#xad;" horiz-adv-x="755" d="M72 475v223h610v-223h-610z" />
<glyph unicode="&#xae;" horiz-adv-x="1701" d="M127 932q0 225 94.5 391.5t262 253t386.5 86.5q171 0 306.5 -55.5t222 -154.5t131.5 -232.5t45 -292.5q0 -335 -198.5 -535t-540.5 -200q-221 0 -382.5 93.5t-244 259.5t-82.5 386zM285 934q0 -125 36 -234.5t103.5 -194t175.5 -133t242 -48.5q141 0 251.5 46t180.5 128 t106.5 191.5t36.5 240.5q0 266 -150.5 434t-412.5 168q-182 0 -312 -79t-193.5 -212.5t-63.5 -306.5zM571 551v792h283q299 0 299 -249q0 -155 -137 -215q13 -16 39 -51.5t41 -53t39.5 -42.5t52 -41t59.5 -27l-33 -123q-141 9 -241 123q-14 14 -38 45.5t-51.5 69.5t-35.5 48 q-12 -2 -47 -2h-56v-274h-174zM745 963h62q84 0 124 27.5t40 96.5q0 64 -33 91.5t-104 27.5h-89v-243z" />
<glyph unicode="&#xb4;" horiz-adv-x="1183" d="M338 1413l448 254l97 -194l-463 -228z" />
<glyph unicode="&#xb8;" horiz-adv-x="948" d="M299 -385q82 51 105 73q37 37 38 76q0 42 -32 132h223q43 -88 43 -156q0 -167 -283 -287z" />
<glyph unicode="&#xbb;" horiz-adv-x="1001" d="M47 946l205 70l246 -459l-246 -463l-201 84l180 379zM494 946l204 70l244 -459l-244 -463l-200 84l178 379z" />
<glyph unicode="&#x2c6;" horiz-adv-x="1126" d="M143 1415l398 250l389 -254l-111 -154l-280 181l-277 -178z" />
<glyph unicode="&#x2da;" horiz-adv-x="1118" d="M279 1458q0 63 24 113t64 80.5t88.5 46.5t101.5 16q37 0 74 -7t75.5 -25.5t67.5 -46t47.5 -72.5t18.5 -101q0 -120 -79.5 -182.5t-197.5 -62.5q-43 0 -82 7t-76.5 25t-65 44.5t-44 69t-16.5 95.5zM430 1464q0 -57 34.5 -91t94.5 -34t93 32t36 89q0 54 -37 87.5t-92 33.5 q-129 0 -129 -117z" />
<glyph unicode="&#x2dc;" horiz-adv-x="1126" d="M172 1458q120 139 264 139q52 0 99 -18.5t85 -37.5t68 -19q46 0 81.5 12.5t84.5 40.5l94 -127q-127 -141 -270 -141q-53 0 -136.5 38.5t-123.5 38.5q-78 0 -142 -55z" />
<glyph unicode="&#x400;" d="M186 0v1448h897v-221h-618v-396h573v-208h-573v-402h665v-221h-944zM303 1638l51 222l518 -146l-45 -188z" />
<glyph unicode="&#x401;" d="M186 0v1448h897v-221h-618v-396h573v-208h-573v-402h665v-221h-944zM227 1690l170 172l172 -172l-172 -172zM700 1690l172 172l170 -172l-170 -172z" />
<glyph unicode="&#x402;" horiz-adv-x="1636" d="M12 1225v223h1207v-223h-521v-381q201 74 363 74q240 0 358.5 -129t118.5 -351q0 -503 -506 -889l-141 185l21 18q20 17 34 29t42.5 40t49.5 52.5t50.5 63t50.5 75t44 85.5t37 97.5t23.5 108t9.5 119.5q0 133 -66 205.5t-190 72.5q-153 0 -299 -73v-627h-278v1225h-408z " />
<glyph unicode="&#x403;" horiz-adv-x="1210" d="M186 0v1448h951v-221h-672v-1227h-279zM434 1714l514 146l53 -222l-524 -112z" />
<glyph unicode="&#x404;" horiz-adv-x="1376" d="M98 715q0 365 198 558t576 193q256 0 439 -80l-74 -208q-76 22 -107.5 29.5t-100.5 16.5t-152 9q-196 2 -327.5 -98t-158.5 -301h705v-209h-701q30 -203 170.5 -306.5t352.5 -103.5q185 0 337 45l62 -215q-182 -65 -436 -65q-379 0 -581 193.5t-202 541.5z" />
<glyph unicode="&#x405;" horiz-adv-x="1189" d="M78 74l82 207q96 -37 177 -53.5t189 -16.5q134 0 212.5 44.5t78.5 135.5q0 45 -24 82t-64 64.5t-92.5 52t-110 49t-115 51.5t-110 64t-92.5 82t-64 109t-24 142q0 95 41 169.5t110 119.5t154 68.5t180 23.5q96 0 178 -14t127 -30t109 -44l-80 -198q-65 21 -100 30.5 t-97.5 19t-128.5 9.5q-110 0 -165.5 -39t-55.5 -110q0 -49 39 -90t101 -73t137 -65t150.5 -74t137.5 -91t101 -126t39 -170q0 -88 -31 -160t-84.5 -121t-126.5 -82t-154.5 -48t-171.5 -15q-273 0 -452 97z" />
<glyph unicode="&#x406;" horiz-adv-x="651" d="M186 0v1448h279v-1448h-279z" />
<glyph unicode="&#x407;" horiz-adv-x="651" d="M-80 1690l170 172l172 -172l-172 -172zM186 0v1448h279v-1448h-279zM393 1690l172 172l170 -172l-170 -172z" />
<glyph unicode="&#x408;" horiz-adv-x="651" d="M-111 -195q122 67 186 137t87.5 153t23.5 214v1139h281v-1135q0 -71 -3.5 -126t-15.5 -118t-33 -113t-56.5 -102.5t-84.5 -95t-120 -83t-160 -72.5z" />
<glyph unicode="&#x409;" horiz-adv-x="2107" d="M-14 199q228 97 286 215q94 186 125 1034h883v-1227h170q160 0 235.5 67.5t75.5 188.5q0 258 -329 258h-129v219h120q304 0 465.5 -124.5t161.5 -354.5q0 -220 -155.5 -347.5t-438.5 -127.5h-459v1241h-362q-28 -439 -60.5 -655t-99.5 -340q-54 -99 -148.5 -168 t-222.5 -123z" />
<glyph unicode="&#x40a;" horiz-adv-x="2189" d="M186 0v1446h279v-569h622v571h281v-1227h170q303 0 303 219t-323 219h-127v218h120q302 0 462.5 -114t160.5 -327q0 -202 -155 -319t-437 -117h-455v659h-622v-659h-279z" />
<glyph unicode="&#x40b;" horiz-adv-x="1671" d="M12 1225v223h1207v-223h-521v-381q192 74 363 74q251 0 364 -103.5t113 -298.5v-516h-278v471q0 58 -15.5 100t-39.5 66.5t-61 39t-73 19t-82 4.5q-136 0 -291 -82v-618h-278v1225h-408z" />
<glyph unicode="&#x40c;" horiz-adv-x="1415" d="M186 0v1448h279v-1448h-279zM471 760v33l541 655h356l-592 -674l627 -774h-359zM502 1722l514 146l53 -221l-524 -113z" />
<glyph unicode="&#x40d;" horiz-adv-x="1626" d="M186 0v1448h279v-860l-6 -203l131 211l571 852h279v-1448h-279v860l6 203l-114 -182l-588 -881h-279zM471 1638l51 222l518 -146l-45 -188z" />
<glyph unicode="&#x40e;" horiz-adv-x="1306" d="M6 1448h311l383 -780l287 780h316l-463 -1032q-56 -124 -104 -200.5t-111 -122t-101.5 -62.5t-132.5 -46q-5 -2 -8 -3l-80 225q63 21 97.5 34.5t72.5 36.5t63 54t46 76l26 53h-92zM248 1751l133 139q126 -131 287 -131q165 0 288 131l136 -139q-68 -106 -180.5 -163.5 t-243.5 -57.5q-130 0 -242 57.5t-178 163.5z" />
<glyph unicode="&#x40f;" horiz-adv-x="1585" d="M186 0v1448h279v-1231h655v1231h281v-1448h-465v-313h-279v313h-471z" />
<glyph unicode="&#x410;" horiz-adv-x="1476" d="M25 0l565 1448h362l502 -1448h-291l-159 469h-521l-178 -469h-280zM561 676h375l-176 594z" />
<glyph unicode="&#x411;" horiz-adv-x="1355" d="M186 0v1448h957v-221h-676v-1006h182q164 0 242 62.5t78 173.5q0 235 -338 235h-160v219h152q313 0 475 -114.5t162 -343.5q0 -217 -157 -335t-448 -118h-469z" />
<glyph unicode="&#x412;" horiz-adv-x="1366" d="M186 0v1448h465q256 0 384 -97.5t128 -285.5q0 -172 -166 -281v-4q19 -7 35.5 -14t45.5 -23t52.5 -33.5t50.5 -46t45 -60t30 -76t12 -93.5q0 -99 -30 -176.5t-94.5 -136t-173 -90t-257.5 -31.5h-527zM467 221h205q154 0 234.5 46.5t80.5 158.5q0 121 -86 167t-268 46 h-166v-418zM467 838h160q138 0 198 42.5t60 149.5q0 109 -69.5 156t-213.5 47h-135v-395z" />
<glyph unicode="&#x413;" horiz-adv-x="1210" d="M186 0v1448h951v-221h-672v-1227h-279z" />
<glyph unicode="&#x414;" horiz-adv-x="1587" d="M29 219h135q105 183 155 348q75 260 113 881h881v-1229h203v-532h-267v313h-956v-313h-264v532zM471 217h561v1024h-354q-43 -491 -96 -711q-31 -121 -111 -313z" />
<glyph unicode="&#x415;" d="M186 0v1448h897v-221h-618v-396h573v-208h-573v-402h665v-221h-944z" />
<glyph unicode="&#x416;" horiz-adv-x="2025" d="M12 0l555 764l-510 684h344l471 -674v674h281v-678l473 678h342l-508 -684l553 -764h-352l-508 737v-737h-281v737l-507 -737h-353z" />
<glyph unicode="&#x417;" horiz-adv-x="1169" d="M41 96l92 211q197 -96 371 -96q130 0 208.5 51.5t78.5 161.5q0 108 -82.5 156.5t-223.5 48.5h-178v207h180q115 0 181.5 54t66.5 148t-60 143.5t-175 49.5q-55 0 -115.5 -12t-96.5 -24t-95 -34l-91 191q200 104 424 104q235 0 363.5 -102t128.5 -260q0 -72 -20 -132.5 t-53.5 -101.5t-65.5 -67t-68 -45v-5q31 -9 62 -23t69 -42.5t67 -64t48.5 -90.5t19.5 -120q0 -62 -16.5 -119t-56.5 -112.5t-101 -96.5t-158 -66t-219 -25q-281 0 -485 112z" />
<glyph unicode="&#x418;" horiz-adv-x="1626" d="M186 0v1448h279v-860l-6 -203l131 211l571 852h279v-1448h-279v860l6 203l-114 -182l-588 -881h-279z" />
<glyph unicode="&#x419;" horiz-adv-x="1626" d="M186 0v1448h279v-860l-6 -203l131 211l571 852h279v-1448h-279v860l6 203l-114 -182l-588 -881h-279zM399 1751l133 139q126 -131 287 -131q166 0 289 131l135 -139q-68 -106 -180.5 -163.5t-243.5 -57.5q-130 0 -242 57.5t-178 163.5z" />
<glyph unicode="&#x41a;" horiz-adv-x="1415" d="M186 0v1448h279v-1448h-279zM471 760v33l541 655h356l-592 -674l627 -774h-359z" />
<glyph unicode="&#x41b;" horiz-adv-x="1464" d="M-14 199q228 97 286 215q94 186 125 1034h881v-1448h-281v1241h-362q-3 -32 -8 -93q-37 -425 -64 -607.5t-88 -294.5q-54 -99 -148.5 -168t-222.5 -123z" />
<glyph unicode="&#x41c;" horiz-adv-x="1988" d="M186 0v1448h357l430 -1217l489 1217h342v-1448h-280v727l8 283l-399 -1010h-334l-353 1024l19 -297v-727h-279z" />
<glyph unicode="&#x41d;" horiz-adv-x="1613" d="M186 0v1448h279v-612h684v612h278v-1448h-278v618h-684v-618h-279z" />
<glyph unicode="&#x41e;" horiz-adv-x="1710" d="M98 727q0 355 209 549t570 194q185 0 326.5 -54t230.5 -154t133.5 -235.5t44.5 -303.5q0 -354 -202 -551t-572 -197q-357 0 -548.5 201.5t-191.5 550.5zM381 729q0 -111 27.5 -205t82.5 -168t145.5 -115.5t207.5 -41.5q101 0 182 26.5t137 73t93 113t54 144.5t17 169 q0 234 -120 378t-349 144q-121 0 -214 -39t-149.5 -109.5t-85 -163.5t-28.5 -206z" />
<glyph unicode="&#x41f;" horiz-adv-x="1593" d="M186 0v1448h1221v-1448h-279v1231h-663v-1231h-279z" />
<glyph unicode="&#x420;" horiz-adv-x="1277" d="M186 0v1448h529q237 0 380.5 -130.5t143.5 -361.5q0 -104 -40.5 -194.5t-117.5 -159.5t-199 -109t-274 -40h-98v219h111q162 0 245.5 73t83.5 203q0 136 -66.5 207.5t-213.5 71.5h-203v-1227h-281z" />
<glyph unicode="&#x421;" horiz-adv-x="1376" d="M98 715q0 365 198 558t576 193q256 0 439 -80l-74 -208q-76 22 -107.5 29.5t-100.5 16.5t-152 9q-105 2 -193.5 -27.5t-156 -89t-105 -157t-37.5 -224.5q0 -171 70 -290t188 -174.5t275 -55.5q185 0 337 45l62 -215q-182 -65 -436 -65q-379 0 -581 193.5t-202 541.5z" />
<glyph unicode="&#x422;" horiz-adv-x="1243" d="M12 1225v223h1219v-223h-469v-1225h-281v1225h-469z" />
<glyph unicode="&#x423;" horiz-adv-x="1306" d="M6 1448h311l383 -780l287 780h316l-463 -1032q-56 -124 -104 -200.5t-111 -122t-101.5 -62.5t-132.5 -46q-5 -2 -8 -3l-80 225q63 21 97.5 34.5t72.5 36.5t63 54t46 76l26 53h-92z" />
<glyph unicode="&#x424;" horiz-adv-x="1767" d="M98 764q0 117 32 214t90 166t139 116.5t178 70.5t208 23v155h277v-155q111 0 208 -23t178 -70.5t139 -116.5t90 -166t32 -214t-32 -214t-90 -166t-139 -116.5t-178 -70.5t-208 -23v-174h-277v174q-111 0 -208 23t-178 70.5t-139 116.5t-90 166t-32 214zM379 764 q0 -182 98.5 -282.5t267.5 -100.5v766q-171 0 -268.5 -98.5t-97.5 -284.5zM1022 381q170 0 268.5 100.5t98.5 282.5q0 186 -98 284.5t-269 98.5v-766z" />
<glyph unicode="&#x425;" horiz-adv-x="1353" d="M14 0l516 752l-446 696h319l289 -483l309 483h312l-473 -692l485 -756h-324l-323 543l-348 -543h-316z" />
<glyph unicode="&#x426;" horiz-adv-x="1669" d="M186 0v1448h279v-1231h649v1231h281v-1229h202v-532h-266v313h-1145z" />
<glyph unicode="&#x427;" horiz-adv-x="1443" d="M133 938v510h279v-465q0 -71 22 -118.5t63 -70.5t84.5 -31.5t102.5 -8.5q142 0 295 84v610h278v-1448h-278v610q-190 -73 -367 -73q-252 0 -365.5 103t-113.5 298z" />
<glyph unicode="&#x428;" horiz-adv-x="2115" d="M186 0v1448h279v-1231h453v1231h280v-1231h451v1231h280v-1448h-1743z" />
<glyph unicode="&#x429;" horiz-adv-x="2203" d="M186 0v1448h279v-1231h453v1231h280v-1231h451v1231h280v-1229h203v-532h-266v313h-1680z" />
<glyph unicode="&#x42a;" horiz-adv-x="1521" d="M2 1231v217h692v-1227h172q159 0 235.5 68t76.5 188q0 258 -330 258h-143v219h135q303 0 464.5 -124.5t161.5 -354.5q0 -220 -155.5 -347.5t-438.5 -127.5h-460v1231h-410z" />
<glyph unicode="&#x42b;" horiz-adv-x="1871" d="M182 0v1448h283v-1227h172q159 0 235 67.5t76 188.5q0 258 -330 258h-143v219h135q303 0 465 -124.5t162 -354.5q0 -220 -155.5 -347.5t-438.5 -127.5h-461zM1407 0v1448h281v-1448h-281z" />
<glyph unicode="&#x42c;" horiz-adv-x="1294" d="M182 0v1448h283v-1227h172q158 0 234.5 71t76.5 193q0 250 -330 250h-143v219h135q305 0 466 -121.5t161 -351.5q0 -221 -155.5 -351t-438.5 -130h-461z" />
<glyph unicode="&#x42d;" horiz-adv-x="1376" d="M59 45l62 215q152 -45 338 -45q212 0 352 103.5t170 306.5h-700v209h702q-27 202 -157 300.5t-326 96.5q-120 -1 -192 -13t-169 -40l-73 208q178 78 438 78q379 0 576.5 -189.5t197.5 -553.5q0 -349 -202 -545t-580 -196q-255 0 -437 65z" />
<glyph unicode="&#x42e;" horiz-adv-x="2306" d="M186 0v1448h279v-612h237q20 202 120.5 345t266.5 216t384 73q185 0 326.5 -54t230.5 -154t133.5 -235.5t44.5 -303.5q0 -354 -201.5 -551t-572.5 -197q-328 0 -517 171t-217 472h-235v-618h-279zM977 729q0 -111 27.5 -205t82.5 -168t145.5 -115.5t207.5 -41.5 q101 0 182 26.5t137 73t93 113t54 144.5t17 169q0 234 -120 378t-349 144q-121 0 -214 -39t-149.5 -109.5t-85 -163.5t-28.5 -206z" />
<glyph unicode="&#x42f;" horiz-adv-x="1419" d="M53 193q72 21 116 43.5t89.5 71.5t89.5 132l86 158q-123 45 -188.5 144t-65.5 231q0 226 144.5 350.5t380.5 124.5h528v-1448h-283v528h-139q-65 0 -94 4l-129 -235q-87 -158 -199 -234t-289 -88zM469 979q0 -248 330 -248h151v496h-186q-147 0 -221 -63.5t-74 -184.5z " />
<glyph unicode="&#x430;" horiz-adv-x="1239" d="M82 311q0 81 28.5 143t73.5 98t108 59t123 31t128 9l221 2v99q0 93 -54 126t-182 33q-110 0 -311 -49l-55 203q212 80 416 80q235 0 343.5 -77t108.5 -255v-545q0 -36 26.5 -51t76.5 -18l-13 -209h-59q-65 0 -119 10.5t-98 40.5t-56 76q-37 -27 -64 -44.5t-74 -41.5 t-100 -36.5t-110 -12.5q-172 0 -265 84.5t-93 244.5zM346 332q0 -69 43 -102t113 -33q42 0 89.5 11.5t108 34t64.5 23.5v221l-207 -8q-98 -2 -154.5 -40.5t-56.5 -106.5z" />
<glyph unicode="&#x431;" horiz-adv-x="1271" d="M98 612q0 98 9.5 199.5t30 205t58.5 189t89 129.5q156 136 786 246l43 -244q-199 -31 -300.5 -49t-209 -46t-141.5 -56q-41 -34 -65 -103t-31 -149q166 92 372 92q443 0 443 -467q0 -147 -43 -259t-120.5 -181.5t-179.5 -104t-227 -34.5q-243 0 -378.5 156t-135.5 476z M357 700q0 -22 0.5 -48.5t0.5 -35.5q0 -419 275 -419q76 0 132 30.5t85.5 82.5t43 110.5t13.5 126.5q0 125 -61 197.5t-191 72.5q-137 0 -297 -80q-1 -15 -1 -37z" />
<glyph unicode="&#x432;" horiz-adv-x="1185" d="M160 0v1118h497q183 0 283 -76.5t100 -220.5q0 -84 -42.5 -144t-104.5 -85q79 -14 142 -81.5t63 -178.5q0 -154 -117.5 -243t-314.5 -89h-506zM432 195h174q211 0 211 143q0 80 -58 111.5t-173 33.5h-154v-288zM432 655h139q99 0 153 34.5t54 103.5q0 131 -200 131h-146 v-269z" />
<glyph unicode="&#x433;" horiz-adv-x="1003" d="M160 0v1118h782v-209h-510v-909h-272z" />
<glyph unicode="&#x434;" horiz-adv-x="1351" d="M25 207h122q55 93 85 168t51 180q35 182 53 563h782v-911h180v-508h-251v301h-771v-301h-251v508zM428 207h418v704h-275q-24 -306 -51 -434q-14 -80 -34.5 -138.5t-57.5 -131.5z" />
<glyph unicode="&#x435;" horiz-adv-x="1179" d="M92 541q0 604 547 604q455 0 455 -563v-99h-729q0 -72 18 -124t48 -83t77 -49t95.5 -24t113.5 -6q73 0 303 45l43 -211q-178 -56 -395 -56q-110 0 -195.5 16.5t-158.5 56.5t-121 104t-74.5 162t-26.5 227zM371 666h442q2 130 -50 207t-151 77q-104 0 -168 -74t-73 -210z " />
<glyph unicode="&#x436;" horiz-adv-x="1679" d="M45 184q138 50 250 195l162 207l-389 532h299l335 -491v491h275v-487l338 487h297l-389 -532l161 -207q111 -144 250 -195l-51 -207q-60 3 -98.5 11t-85.5 29.5t-92 64t-97 111.5l-233 313v-506h-275v502l-233 -309q-52 -68 -97 -110.5t-91.5 -64.5t-86 -30t-98.5 -11z " />
<glyph unicode="&#x437;" horiz-adv-x="989" d="M41 72l74 207q163 -84 313 -84q79 0 131.5 36.5t52.5 104.5q0 70 -55 101.5t-145 31.5h-154v203h145q88 0 131.5 40.5t43.5 94.5t-42.5 87.5t-119.5 33.5q-52 0 -105 -10.5t-84 -20.5t-86 -31l-63 195q175 84 385 84q95 0 171 -24.5t122 -66t70 -92.5t24 -108 q0 -97 -45.5 -163t-120.5 -101q87 -23 152 -92t65 -187q0 -61 -25.5 -118t-77 -105.5t-141.5 -78t-206 -29.5q-224 0 -410 92z" />
<glyph unicode="&#x438;" horiz-adv-x="1374" d="M160 0v1118h272v-592l-6 -164l106 164l410 592h272v-1118h-272v588l4 164l-104 -164l-410 -588h-272z" />
<glyph unicode="&#x439;" horiz-adv-x="1374" d="M160 0v1118h272v-592l-6 -164l106 164l410 592h272v-1118h-272v588l4 164l-104 -164l-410 -588h-272zM299 1489l121 141q118 -135 266 -135q150 0 268 135l121 -141q-61 -107 -164.5 -167t-224.5 -60q-119 0 -222.5 60t-164.5 167z" />
<glyph unicode="&#x43a;" horiz-adv-x="1185" d="M160 0v1118h272v-506l381 506h305l-432 -524l188 -215q73 -81 136.5 -127t144.5 -68l-37 -207q-61 3 -106 12t-101 30.5t-109.5 65t-105.5 108.5l-264 329v-522h-272z" />
<glyph unicode="&#x43b;" horiz-adv-x="1257" d="M-2 188q165 59 221 158q39 71 67.5 279t37.5 493h774v-1118h-273v911h-270q-26 -293 -59.5 -466.5t-87.5 -264.5q-97 -156 -336 -213z" />
<glyph unicode="&#x43c;" horiz-adv-x="1615" d="M160 0v1118h344l293 -891l325 891h334v-1118h-256v492l8 260l-264 -752h-303l-240 756l15 -264v-492h-256z" />
<glyph unicode="&#x43d;" horiz-adv-x="1333" d="M160 0v1118h272v-452h469v452h273v-1118h-273v457h-469v-457h-272z" />
<glyph unicode="&#x43e;" horiz-adv-x="1286" d="M92 549q0 279 152.5 438.5t404.5 159.5q274 0 409.5 -152.5t135.5 -435.5q0 -188 -73.5 -321.5t-198.5 -198t-289 -64.5q-258 0 -399.5 152.5t-141.5 421.5zM367 557q0 -362 280 -362q79 0 133.5 27.5t83.5 79.5t41.5 114t12.5 143q0 371 -275 371q-78 0 -134 -30.5 t-86 -84.5t-43 -117.5t-13 -140.5z" />
<glyph unicode="&#x43f;" horiz-adv-x="1312" d="M160 0v1118h993v-1118h-272v911h-449v-911h-272z" />
<glyph unicode="&#x440;" horiz-adv-x="1286" d="M160 -451v1569h270v-84q55 41 134.5 76t152.5 35q232 0 355.5 -132.5t123.5 -408.5q0 -136 -32.5 -244t-87.5 -178t-132 -116.5t-161.5 -66t-180.5 -19.5q-54 0 -172 10v-441h-270zM430 207q11 -1 42.5 -6t66 -8t71.5 -3q146 0 228 109.5t82 282.5q0 167 -65 250t-216 83 q-22 0 -46 -4t-50 -12.5t-42 -14.5t-42 -16.5t-29 -11.5v-649z" />
<glyph unicode="&#x441;" horiz-adv-x="1069" d="M92 565q0 266 156 424t422 158q201 0 338 -72l-74 -203q-70 27 -122 38.5t-134 11.5q-136 0 -221.5 -87.5t-85.5 -269.5q0 -98 15.5 -162.5t55 -112t109.5 -68.5t178 -21q32 0 65.5 3t54 6t57 9.5t52.5 9.5l39 -211q-66 -15 -91.5 -20t-81.5 -11.5t-113 -6.5 q-332 0 -475.5 136.5t-143.5 448.5z" />
<glyph unicode="&#x442;" horiz-adv-x="1056" d="M31 909v209h995v-209h-362v-909h-271v909h-362z" />
<glyph unicode="&#x443;" horiz-adv-x="1185" d="M25 1118h292l213 -715l52 -188l59 186l244 717h276l-547 -1569h-262l152 451h-105z" />
<glyph unicode="&#x444;" horiz-adv-x="1626" d="M92 553q0 283 160.5 436.5t427.5 155.5v399h266v-399q284 0 436 -149t152 -435q0 -143 -45 -255t-125 -182t-185.5 -107.5t-232.5 -39.5v-428h-266v428q-278 0 -433 149t-155 427zM367 559q0 -366 313 -366l-2 735q-162 0 -236.5 -98t-74.5 -271zM946 197q309 0 309 364 q0 170 -74 267t-235 100v-731z" />
<glyph unicode="&#x445;" horiz-adv-x="1169" d="M25 0l403 571l-377 547h316l217 -375l219 375h309l-375 -545l408 -573h-328l-233 399l-238 -399h-321z" />
<glyph unicode="&#x446;" horiz-adv-x="1374" d="M160 0v1118h272v-911h438v911h273v-911h178v-508h-252v301h-909z" />
<glyph unicode="&#x447;" horiz-adv-x="1230" d="M109 776v342h272v-321q0 -103 42 -147t144 -44q118 0 232 49v463h274v-1118h-274v451q-153 -58 -305 -58q-210 0 -297.5 90.5t-87.5 292.5z" />
<glyph unicode="&#x448;" horiz-adv-x="1812" d="M160 0v1118h272v-911h338v911h272v-911h338v911h273v-1118h-1493z" />
<glyph unicode="&#x449;" horiz-adv-x="1884" d="M160 0v1118h272v-911h338v911h272v-911h338v911h273v-911h178v-508h-252v301h-1419z" />
<glyph unicode="&#x44a;" horiz-adv-x="1335" d="M4 911v207h612v-909h175q96 0 150 44.5t54 129.5q0 93 -65 135.5t-176 42.5h-115v207h131q233 0 368.5 -101t135.5 -288q0 -161 -116 -270t-294 -109h-520v911h-340z" />
<glyph unicode="&#x44b;" horiz-adv-x="1636" d="M160 0v1118h272v-909h174q191 0 191 174q0 178 -228 178h-116v207h133q231 0 360 -100.5t129 -288.5q0 -163 -109 -271t-286 -108h-520zM1202 0v1118h275v-1118h-275z" />
<glyph unicode="&#x44c;" horiz-adv-x="1150" d="M160 0v1118h272v-909h174q96 0 150.5 44.5t54.5 129.5q0 93 -65.5 135.5t-176.5 42.5h-114v207h131q233 0 368.5 -101t135.5 -288q0 -161 -116 -270t-294 -109h-520z" />
<glyph unicode="&#x44d;" horiz-adv-x="1069" d="M61 59l74 205q164 -67 287 -67q255 0 278 268h-421v207h419q-15 120 -84 188t-186 68q-54 0 -106 -9.5t-83.5 -20t-78.5 -28.5l-82 197q156 80 350 80q270 0 410.5 -145.5t140.5 -432.5q0 -280 -148 -434.5t-407 -154.5q-194 0 -363 79z" />
<glyph unicode="&#x44e;" horiz-adv-x="1837" d="M160 0v1118h274v-452h217q32 227 179 353t370 126q275 0 411 -151.5t136 -434.5q0 -280 -155 -431t-408 -151q-234 0 -373 126t-162 354h-215v-457h-274zM920 557q0 -169 64 -264.5t214 -95.5q63 0 111 18.5t78 50t48.5 79t25.5 99t7 115.5q0 369 -274 369 q-78 0 -133 -30t-85 -84t-43 -117t-13 -140z" />
<glyph unicode="&#x44f;" horiz-adv-x="1224" d="M80 190q87 19 133 44t96 92q23 29 58 90q-88 38 -142.5 120.5t-54.5 192.5q0 183 126.5 286t321.5 103h447v-1118h-272v352h-97q-55 0 -63 2l-115 -164q-47 -66 -96 -108.5t-102.5 -63.5t-99.5 -28.5t-109 -9.5zM451 729q0 -84 62.5 -129t154.5 -45h125v356h-150 q-90 0 -141 -48t-51 -134z" />
<glyph unicode="&#x450;" horiz-adv-x="1179" d="M92 541q0 604 547 604q455 0 455 -563v-99h-729q0 -72 18 -124t48 -83t77 -49t95.5 -24t113.5 -6q73 0 303 45l43 -211q-178 -56 -395 -56q-110 0 -195.5 16.5t-158.5 56.5t-121 104t-74.5 162t-26.5 227zM250 1473l96 194l449 -254l-86 -168zM371 666h442q2 130 -50 207 t-151 77q-104 0 -168 -74t-73 -210z" />
<glyph unicode="&#x451;" horiz-adv-x="1179" d="M92 541q0 604 547 604q455 0 455 -563v-99h-729q0 -72 18 -124t48 -83t77 -49t95.5 -24t113.5 -6q73 0 303 45l43 -211q-178 -56 -395 -56q-110 0 -195.5 16.5t-158.5 56.5t-121 104t-74.5 162t-26.5 227zM199 1466l161 164l162 -164l-162 -163zM371 666h442 q2 130 -50 207t-151 77q-104 0 -168 -74t-73 -210zM672 1466l164 164l161 -164l-161 -163z" />
<glyph unicode="&#x452;" horiz-adv-x="1384" d="M20 1147v196h209v201h273v-201h375v-196h-375v-289q204 150 375 150q88 0 158.5 -29.5t115 -78t74 -116.5t41.5 -140t12 -152q0 -286 -111.5 -528.5t-298.5 -414.5l-180 168q63 65 115.5 139.5t98.5 168t71.5 207t25.5 235.5q0 145 -56.5 222t-170.5 77q-29 0 -59.5 -5 t-51.5 -10.5t-50.5 -18t-41 -18t-38.5 -19.5t-29 -15v-680h-273v1147h-209z" />
<glyph unicode="&#x453;" horiz-adv-x="1003" d="M160 0v1118h782v-209h-510v-909h-272zM268 1413l449 254l96 -194l-463 -228z" />
<glyph unicode="&#x454;" horiz-adv-x="1069" d="M92 565q0 266 156 424t422 158q201 0 338 -72l-74 -203q-70 27 -122 38.5t-134 11.5q-112 0 -191 -61.5t-104 -184.5h418v-207h-424q15 -140 94.5 -203t259.5 -63q41 0 79 4t81 10.5t67 9.5l39 -211q-162 -36 -284 -36q-332 0 -476.5 137t-144.5 448z" />
<glyph unicode="&#x455;" horiz-adv-x="1011" d="M86 23l33 210q234 -36 317 -36q226 0 226 114q0 30 -24 54.5t-64 40.5t-90.5 35t-103.5 36.5t-103.5 47t-90.5 65.5t-64 93t-24 128q0 108 62 186t159.5 114t217.5 36q177 0 335 -57l-45 -203q-6 1 -18 4q-151 35 -250 37h-22q-86 0 -126 -31t-40 -72q0 -36 31 -64 t80 -48.5t108.5 -41.5t119.5 -49.5t109 -65t80 -96t31 -134.5q0 -81 -31 -144t-79 -101t-112.5 -63t-124 -34t-120.5 -9q-210 0 -377 48z" />
<glyph unicode="&#x456;" horiz-adv-x="591" d="M104 1466l193 193l195 -193l-195 -194zM160 0v1118h272v-1118h-272z" />
<glyph unicode="&#x457;" horiz-adv-x="591" d="M-100 1466l161 164l162 -164l-162 -163zM160 0v1118h272v-1118h-272zM373 1466l164 164l161 -164l-161 -163z" />
<glyph unicode="&#x458;" horiz-adv-x="591" d="M-209 -414l51 215q4 -1 32 -6t67 -9.5t63 -4.5q87 0 121.5 48.5t34.5 162.5v1126h272v-1128q0 -107 -23 -186.5t-60.5 -127.5t-94 -77t-114.5 -39.5t-132 -10.5q-108 0 -217 37zM98 1466l193 193l194 -193l-194 -194z" />
<glyph unicode="&#x459;" horiz-adv-x="1818" d="M-2 186q170 65 223 160q39 71 67.5 279t37.5 493h774v-909h174q96 0 150.5 44.5t54.5 129.5q0 93 -66 135.5t-178 42.5h-113v207h131q233 0 368.5 -101t135.5 -288q0 -161 -115.5 -270t-293.5 -109h-523v911h-270q-30 -300 -62 -469t-83 -258q-94 -159 -338 -219z" />
<glyph unicode="&#x45a;" horiz-adv-x="1851" d="M160 0v1118h274v-416h447v416h274v-909h158q87 0 136.5 36.5t49.5 104.5q0 146 -219 146h-102v206h127q226 0 355.5 -91t129.5 -263q0 -150 -111.5 -249t-283.5 -99h-514v496h-447v-496h-274z" />
<glyph unicode="&#x45b;" horiz-adv-x="1394" d="M20 1147v196h209v201h273v-201h375v-196h-375v-289q204 150 375 150q72 0 128 -13t93.5 -33.5t64.5 -55t41.5 -68t22.5 -83t10 -89.5t2 -97v-569h-268v547q0 130 -35.5 175.5t-144.5 45.5q-116 0 -289 -88v-680h-273v1147h-209z" />
<glyph unicode="&#x45c;" horiz-adv-x="1185" d="M160 0v1118h272v-506l381 506h305l-432 -524l188 -215q73 -81 136.5 -127t144.5 -68l-37 -207q-61 3 -106 12t-101 30.5t-109.5 65t-105.5 108.5l-264 329v-522h-272zM367 1413l448 254l96 -194l-462 -228z" />
<glyph unicode="&#x45d;" horiz-adv-x="1374" d="M160 0v1118h272v-592l-6 -164l106 164l410 592h272v-1118h-272v588l4 164l-104 -164l-410 -588h-272zM362 1473l97 194l448 -254l-86 -168z" />
<glyph unicode="&#x45e;" horiz-adv-x="1185" d="M25 1118h292l213 -715l52 -188l59 186l244 717h276l-547 -1569h-262l152 451h-105zM213 1493l119 137q116 -133 256 -133q143 0 256 133l119 -137q-60 -102 -159.5 -159.5t-215.5 -57.5q-115 0 -215 57.5t-160 159.5z" />
<glyph unicode="&#x45f;" horiz-adv-x="1314" d="M160 0v1118h272v-911h451v911h272v-1118h-371v-301h-254v301h-370z" />
<glyph unicode="&#x462;" horiz-adv-x="1376" d="M-76 1047v217h357v182l282 2v-184h422v-215h-422v-828h172q165 0 237 48t72 161q0 120 -77 164.5t-250 44.5h-144v219h148q309 0 461.5 -104t152.5 -328q0 -212 -152.5 -319t-443.5 -107h-458v1047h-357z" />
<glyph unicode="&#x463;" horiz-adv-x="1196" d="M-102 911v207h319v328h272v-328h369v-207h-369v-702h175q96 0 150 38.5t54 114.5q0 156 -241 156h-115v207h131q237 0 370.5 -91.5t133.5 -275.5q0 -160 -114.5 -259t-295.5 -99h-520v911h-319z" />
<glyph unicode="&#x472;" horiz-adv-x="1710" d="M98 727q0 341 211 542t568 201q185 0 327 -56t230.5 -157.5t133 -236t44.5 -297.5q0 -346 -203.5 -547t-570.5 -201q-357 0 -548.5 201.5t-191.5 550.5zM385 641q10 -95 43 -174t88 -139.5t139 -94.5t189 -34q222 0 340.5 119.5t136.5 322.5h-936zM385 813h936 q-21 197 -139.5 315.5t-323.5 118.5q-217 0 -335 -117.5t-138 -316.5z" />
<glyph unicode="&#x473;" horiz-adv-x="1286" d="M92 549q0 279 152.5 438.5t404.5 159.5q274 0 409.5 -152.5t135.5 -435.5q0 -188 -73.5 -321.5t-198.5 -198t-289 -64.5q-258 0 -399.5 152.5t-141.5 421.5zM371 477q28 -282 276 -282q131 0 191.5 75t72.5 207h-540zM371 647h540q-30 283 -268 283q-67 0 -117.5 -22.5 t-81.5 -63.5t-48.5 -89t-24.5 -108z" />
<glyph unicode="&#x474;" horiz-adv-x="1464" d="M4 1448h297l397 -1237l328 883q59 162 129 259t164 154l199 -157q-78 -51 -136 -128t-112 -216l-393 -1006h-367z" />
<glyph unicode="&#x475;" horiz-adv-x="1198" d="M25 1118h294l205 -667l64 -230l69 232l107 309q98 291 285 409l198 -159q-79 -54 -139.5 -136t-110.5 -217l-245 -659h-340z" />
<glyph unicode="&#x490;" horiz-adv-x="1210" d="M186 0v1448h678v330h266l-2 -551h-663v-1227h-279z" />
<glyph unicode="&#x491;" horiz-adv-x="1003" d="M160 0v1118h528v234h252l2 -443h-512v-909h-270z" />
<glyph unicode="&#x4d8;" horiz-adv-x="1597" d="M82 688v137h1126q-23 193 -140 307.5t-320 114.5q-251 0 -486 -125l-104 187q264 161 630 161q174 -1 310.5 -57t223.5 -157t132 -236t45 -297q0 -349 -186 -548.5t-541 -199.5q-342 0 -512 187.5t-178 525.5zM369 629q11 -96 36.5 -170t71.5 -134.5t122 -93t179 -32.5 q111 0 191.5 31t129 91t74 134.5t35.5 173.5h-839z" />
<glyph unicode="&#x4d9;" horiz-adv-x="1179" d="M84 541v98h729q0 72 -18 124t-48 83t-77 49.5t-95.5 24.5t-113.5 6q-73 0 -303 -45l-43 211q174 55 395 55q110 0 195.5 -16.5t158.5 -56.5t120.5 -104t74 -161.5t26.5 -226.5q0 -605 -546 -605q-455 0 -455 564zM365 457q-2 -130 49.5 -207.5t150.5 -77.5 q104 0 168.5 74.5t73.5 210.5h-442z" />
<glyph unicode="&#x2000;" horiz-adv-x="945" />
<glyph unicode="&#x2001;" horiz-adv-x="1890" />
<glyph unicode="&#x2002;" horiz-adv-x="945" />
<glyph unicode="&#x2003;" horiz-adv-x="1890" />
<glyph unicode="&#x2004;" horiz-adv-x="630" />
<glyph unicode="&#x2005;" horiz-adv-x="472" />
<glyph unicode="&#x2006;" horiz-adv-x="315" />
<glyph unicode="&#x2007;" horiz-adv-x="315" />
<glyph unicode="&#x2008;" horiz-adv-x="236" />
<glyph unicode="&#x2009;" horiz-adv-x="378" />
<glyph unicode="&#x200a;" horiz-adv-x="105" />
<glyph unicode="&#x2010;" horiz-adv-x="755" d="M72 475v223h610v-223h-610z" />
<glyph unicode="&#x2011;" horiz-adv-x="755" d="M72 475v223h610v-223h-610z" />
<glyph unicode="&#x2012;" horiz-adv-x="755" d="M72 475v223h610v-223h-610z" />
<glyph unicode="&#x2013;" d="M90 489v195h1049v-195h-1049z" />
<glyph unicode="&#x2014;" horiz-adv-x="2011" d="M115 489v195h1781v-195h-1781z" />
<glyph unicode="&#x2018;" horiz-adv-x="479" d="M82 1047v155q0 196 111 344h202q-34 -64 -48.5 -137.5t-14.5 -126.5v-235h-250z" />
<glyph unicode="&#x2019;" horiz-adv-x="479" d="M86 1047q61 120 61 266v233h252v-155q0 -195 -112 -344h-201z" />
<glyph unicode="&#x201a;" horiz-adv-x="628" d="M135 -250q33 64 47.5 139t14.5 127v234h254v-156q0 -189 -111 -344h-205z" />
<glyph unicode="&#x201c;" horiz-adv-x="876" d="M94 1047v155q0 193 113 344h203q-34 -64 -49 -137.5t-15 -126.5v-235h-252zM492 1047v155q0 197 110 344h203q-33 -64 -47.5 -138t-14.5 -126v-235h-251z" />
<glyph unicode="&#x201d;" horiz-adv-x="876" d="M92 1047q33 64 47.5 138.5t14.5 127.5v233h252v-155q0 -196 -111 -344h-203zM487 1047q34 64 49 138t15 128v233h252v-155q0 -198 -113 -344h-203z" />
<glyph unicode="&#x201e;" horiz-adv-x="876" d="M70 -250q33 64 47 138.5t14 127.5v234h246v-156q0 -193 -113 -344h-194zM451 -250q33 64 47 138.5t14 127.5v234h244v-156q0 -196 -111 -344h-194z" />
<glyph unicode="&#x2026;" horiz-adv-x="1851" d="M184 0v258h285v-258h-285zM780 0v258h285v-258h-285zM1382 0v258h285v-258h-285z" />
<glyph unicode="&#x202f;" horiz-adv-x="378" />
<glyph unicode="&#x2039;" horiz-adv-x="546" d="M47 557l246 459l205 -70l-185 -389l183 -379l-203 -84z" />
<glyph unicode="&#x203a;" horiz-adv-x="546" d="M47 946l207 70l244 -459l-244 -463l-203 86l180 377z" />
<glyph unicode="&#x205f;" horiz-adv-x="472" />
<glyph unicode="&#x20ac;" horiz-adv-x="1234" d="M61 360v132h99q-4 36 -4 59q0 30 4 80h-99v133h123q54 180 204 274.5t386 94.5q112 0 195.5 -17.5t169.5 -54.5l-72 -189q-91 26 -148.5 35.5t-142.5 10.5q-104 0 -186 -38.5t-123 -115.5h434v-133h-477q-4 -20 -4 -66q0 -50 4 -73h477v-132h-428q93 -163 336 -163 q130 0 274 39l60 -195q-166 -59 -363 -59q-240 0 -393 98.5t-205 279.5h-121z" />
<glyph unicode="&#x2122;" horiz-adv-x="1691" d="M59 1286v164h641v-164h-227v-563h-186v563h-228zM745 723v727h216l206 -530l215 530h207v-727h-186l6 393l-156 -393h-188l-139 387l4 -387h-185z" />
<glyph unicode="&#x25fc;" horiz-adv-x="1116" d="M0 0v1116h1116v-1116h-1116z" />
</font>
</defs>
</svg>
