<?xml version="1.0" standalone="no"?>
<!DOCTYPE svg PUBLIC "-//W3C//DTD SVG 1.1//EN" "http://www.w3.org/Graphics/SVG/1.1/DTD/svg11.dtd" >
<svg xmlns="http://www.w3.org/2000/svg" xmlns:xlink="http://www.w3.org/1999/xlink" version="1.1">
<metadata></metadata>
<defs>
<font id="fedra_sans_prolight_italic" horiz-adv-x="540" >
<font-face units-per-em="2048" ascent="1597" descent="-451" />
<missing-glyph horiz-adv-x="409" />
<glyph horiz-adv-x="0" />
<glyph horiz-adv-x="682" />
<glyph unicode=" "  horiz-adv-x="409" />
<glyph unicode="&#x09;" horiz-adv-x="409" />
<glyph unicode="&#xa0;" horiz-adv-x="409" />
<glyph unicode="!" horiz-adv-x="555" d="M188 0l15 145h141l-14 -145h-142zM242 326l22 258l92 864h111l-92 -864l-31 -258h-102z" />
<glyph unicode="&#x22;" horiz-adv-x="632" d="M158 1055l45 487h104l-61 -487h-88zM481 1055l45 487h105l-62 -487h-88z" />
<glyph unicode="#" horiz-adv-x="1181" d="M76 336l12 102h188l48 289h-205l10 102h211l51 332h109l-51 -332h374l51 332h109l-51 -332h174l-10 -102h-181l-47 -289h197l-12 -102h-201l-53 -336h-109l53 336h-374l-54 -336h-108l53 336h-184zM385 438h375l47 289h-375z" />
<glyph unicode="$" horiz-adv-x="1071" d="M63 72l56 102q179 -76 334 -76q46 0 87 5t85 19.5t75.5 37.5t51.5 61.5t20 89.5q0 45 -31.5 81.5t-82 62.5t-111.5 50.5t-121.5 53t-111 63t-82 87.5t-31.5 120q0 130 88.5 203t226.5 92l19 187h120l-24 -183q174 -3 299 -59l-45 -94q-168 53 -285 53q-39 0 -74.5 -4 t-75 -16t-68 -31t-47 -52t-18.5 -77q0 -48 31.5 -87t82.5 -67t112 -54.5t122 -55t112 -62t82.5 -82t31.5 -108.5q0 -80 -31 -143.5t-85 -103.5t-120.5 -63t-142.5 -28l-14 -197h-123l22 195q-194 7 -334 80z" />
<glyph unicode="%" horiz-adv-x="1540" d="M203 201l1177 1087l62 -65l-1178 -1088zM207 1071q0 102 38 189.5t116.5 144.5t181.5 57q264 0 264 -260q0 -104 -38 -191.5t-116.5 -143.5t-183.5 -56q-125 0 -193.5 67.5t-68.5 192.5zM311 1077q0 -176 166 -176q76 0 130 43t77 106t23 136q0 89 -42.5 140.5 t-129.5 51.5q-57 0 -102 -27.5t-70.5 -72.5t-38.5 -96.5t-13 -104.5zM885 244q0 102 37.5 189.5t116 144.5t182.5 57q264 0 264 -260q0 -104 -38 -191.5t-117 -143.5t-185 -56q-125 0 -192.5 67t-67.5 193zM989 250q0 -176 166 -176q75 0 128 43t76 105.5t23 135.5 q0 89 -42.5 141t-129.5 52q-57 0 -101 -27.5t-69 -72.5t-38 -96.5t-13 -104.5z" />
<glyph unicode="&#x26;" horiz-adv-x="1286" d="M45 295q0 72 23.5 139.5t68 126.5t93 105.5t112.5 97.5q-47 148 -47 303q0 177 88.5 285t269.5 108q120 0 188 -67.5t68 -188.5q0 -29 -7 -58t-17.5 -53.5t-31 -52t-38 -47.5t-48 -46.5t-52 -44t-59 -44.5t-60 -42l-64.5 -43l-63 -42q59 -159 158.5 -307.5t223.5 -265.5 t275.5 -187.5t300.5 -70.5q39 0 62 2l14 -92q-79 -11 -125 -11q-154 0 -314 80t-302 217q-159 -114 -373 -114q-153 0 -248.5 79.5t-95.5 233.5zM164 299q0 -110 64 -161.5t175 -51.5q168 0 291 76q-200 219 -317 502q-213 -170 -213 -365zM408 1069q0 -125 30 -242 q70 48 111.5 78t93.5 72.5t80 74.5t48 69.5t20 72.5q0 70 -42.5 118t-111.5 48q-67 0 -113 -22.5t-70.5 -64.5t-35 -91t-10.5 -113zM879 205l12 98q58 47 170 47h143l-12 -102h-143q-105 0 -170 -43z" />
<glyph unicode="'" horiz-adv-x="309" d="M117 1055l45 487h110l-61 -487h-94z" />
<glyph unicode="(" horiz-adv-x="677" d="M168 401q0 153 35.5 321.5t101.5 330.5t173 302t237 220l59 -80q-115 -76 -209 -203t-152 -273.5t-89 -300t-31 -296.5q0 -134 29 -278t96 -288t160 -229l-76 -80q-108 89 -186 242t-113 309.5t-35 302.5z" />
<glyph unicode=")" horiz-adv-x="677" d="M23 -373q149 115 262 308.5t169 403.5t56 406q0 130 -28 266.5t-96 272.5t-165 211l76 80q110 -78 189.5 -221.5t115 -300.5t35.5 -316q0 -211 -64 -435t-192.5 -429.5t-298.5 -325.5z" />
<glyph unicode="*" horiz-adv-x="862" d="M115 1069l217 94l28 -65l-196 -133zM141 1325l72 105l172 -132l-47 -67zM371 838l49 227h76l-4 -227h-121zM449 1331v230h120l-45 -230h-75zM555 1096l49 67l195 -90l-72 -106zM578 1298l198 134l51 -103l-219 -94z" />
<glyph unicode="+" horiz-adv-x="1228" d="M88 567l12 103h449l49 467h109l-50 -467h478l-13 -103h-477l-47 -452h-109l48 452h-449z" />
<glyph unicode="," horiz-adv-x="569" d="M84 -299q6 17 20 51.5t18 45.5t13.5 38.5t12.5 39.5t10 39t10 47.5t8.5 53.5t9.5 68.5t9 81.5h143q-15 -150 -43.5 -237.5t-110.5 -227.5h-100z" />
<glyph unicode="-" horiz-adv-x="733" d="M37 535l12 110h610l-12 -110h-610z" />
<glyph unicode="." horiz-adv-x="614" d="M164 0l14 145h141l-14 -145h-141z" />
<glyph unicode="/" horiz-adv-x="749" d="M-6 -127l653 1702h109l-654 -1702h-108z" />
<glyph unicode="0" horiz-adv-x="1243" d="M92 498q0 134 41 252t115 206t185 139.5t245 51.5q218 0 344.5 -135.5t126.5 -384.5q0 -179 -72.5 -326.5t-207.5 -234t-306 -86.5q-217 0 -344 138.5t-127 379.5zM211 518q0 -201 89.5 -320.5t270.5 -119.5q138 0 245.5 73t163.5 193t56 264q0 198 -94 319.5t-272 121.5 q-143 0 -249 -72t-158 -191t-52 -268z" />
<glyph unicode="1" horiz-adv-x="616" d="M57 1028l9 88l407 12l-119 -1128h-114l108 1028h-291z" />
<glyph unicode="2" horiz-adv-x="860" d="M20 0l11 92q36 31 97 80.5t105.5 85t103 87t100.5 94t85.5 97t70.5 104.5t44.5 108t17.5 116q0 91 -58.5 132.5t-147.5 41.5q-125 0 -246 -80l-51 78q55 46 142.5 79.5t174.5 33.5q78 0 139.5 -25t97 -65.5t54 -87.5t18.5 -97q0 -375 -594 -768h584l-12 -106h-736z" />
<glyph unicode="3" horiz-adv-x="819" d="M-102 -268l39 94q141 -68 270 -68q90 0 164.5 34t120.5 89t71 120.5t25 131.5q0 117 -84 190.5t-250 86.5l-8 86q140 39 240 154.5t100 223.5q0 170 -221 170q-62 0 -130 -14t-112 -35l-29 90q119 64 291 64q150 0 232.5 -69.5t82.5 -194.5q0 -112 -80 -224.5 t-210 -177.5q151 -44 224 -132t73 -208q0 -87 -36 -173.5t-99.5 -157t-160.5 -114.5t-208 -44q-156 0 -305 78z" />
<glyph unicode="4" horiz-adv-x="1099" d="M20 80l13 123l596 915h188l-98 -936h270l-10 -102h-270l-43 -408h-115l43 408h-574zM137 182h469l90 865z" />
<glyph unicode="5" horiz-adv-x="923" d="M-8 -287l35 97q157 -54 303 -54q175 0 278 98t103 259q0 75 -36.5 136t-94 100.5t-138.5 69t-158 45t-165 25.5l63 629h658l-11 -100h-553l-43 -436q96 -14 179 -37.5t160.5 -61.5t132.5 -87t87.5 -117.5t32.5 -149.5q0 -96 -36 -183.5t-100.5 -153t-159.5 -104 t-207 -38.5q-170 0 -330 63z" />
<glyph unicode="6" horiz-adv-x="1136" d="M109 449q0 99 9.5 196t32.5 199.5t57.5 191.5t88.5 169t122 137t161 90.5t202 33.5q106 0 174 -32l-32 -103q-71 29 -176 29q-100 0 -182 -39.5t-137.5 -110t-96 -158.5t-63 -195t-32.5 -208.5t-10 -208.5q0 -170 81 -266t229 -96q79 0 140 35t97 94t54 129.5t18 148.5 q0 291 -293 291q-50 0 -115 -10l-10 94q76 21 147 21q110 0 197 -42t141 -131t54 -214q0 -141 -49 -256.5t-152 -188t-244 -72.5q-206 0 -309.5 122.5t-103.5 349.5z" />
<glyph unicode="7" horiz-adv-x="837" d="M-20 -303l702 1323h-686l10 98h791l-13 -117l-716 -1353z" />
<glyph unicode="8" horiz-adv-x="1148" d="M98 279q0 161 98.5 277t276.5 208q-38 29 -52.5 40.5t-47 39t-46 43.5t-35 44.5t-30.5 53.5t-16.5 58t-7.5 69q0 162 116.5 256t296.5 94q130 0 224 -74.5t94 -195.5q0 -61 -18 -117t-47.5 -99.5t-73.5 -84.5t-88 -71t-99 -60q60 -40 105 -76.5t90 -86t69.5 -108 t24.5 -122.5q0 -91 -41 -167t-107.5 -122.5t-147 -72t-163.5 -25.5q-162 0 -268.5 84t-106.5 215zM215 301q0 -105 79.5 -165t205.5 -60q135 0 224 79.5t89 211.5q0 54 -25 104.5t-74 97t-83.5 73.5t-91.5 65q-54 -32 -91 -57t-85 -65.5t-77.5 -79.5t-50 -92.5t-20.5 -111.5 zM348 1124q0 -39 16 -78.5t33.5 -66t56 -64t56.5 -52.5t61 -50q283 158 283 371q0 88 -67.5 136t-168.5 48q-116 0 -193 -68.5t-77 -175.5z" />
<glyph unicode="9" horiz-adv-x="1050" d="M96 631q0 84 17.5 160t54.5 141t89 113t125 75t159 27q206 0 309.5 -121.5t103.5 -349.5q0 -99 -9.5 -196t-32.5 -199.5t-57.5 -192t-88.5 -169.5t-122 -137t-161 -90.5t-202 -33.5q-105 0 -175 33l33 102q71 -29 176 -29q100 0 182 39.5t137.5 110t96 158.5t63 195 t32.5 209t10 210q0 169 -81 265t-229 96q-80 0 -141.5 -35t-97.5 -94t-54 -130t-18 -149q0 -291 295 -291q50 0 115 10l10 -94q-73 -20 -148 -20q-110 0 -197 42t-140.5 131t-53.5 214z" />
<glyph unicode=":" horiz-adv-x="614" d="M236 0l16 145h141l-14 -145h-143zM338 973l16 145h142l-17 -145h-141z" />
<glyph unicode=";" horiz-adv-x="569" d="M145 -299q6 17 20 51.5t18 45.5t13.5 38.5t12.5 39.5t10 39t10 47.5t8.5 53.5t9.5 68.5t9 81.5h143q-15 -150 -43.5 -238t-109.5 -227h-101zM338 973l16 145h142l-17 -145h-141z" />
<glyph unicode="&#x3c;" horiz-adv-x="1228" d="M160 528l18 187l856 387l-12 -117l-797 -364l721 -363l-12 -117z" />
<glyph unicode="=" horiz-adv-x="1228" d="M68 369l12 102h1034l-12 -102h-1034zM111 776l12 103h1034l-12 -103h-1034z" />
<glyph unicode="&#x3e;" horiz-adv-x="1228" d="M119 141l12 117l795 363l-719 364l12 117l774 -387l-18 -187z" />
<glyph unicode="?" horiz-adv-x="784" d="M250 0l14 145h142l-15 -145h-141zM289 420q0 66 21 125t55 103.5t75 86t82.5 79.5t75.5 75.5t55 82.5t21 93q0 53 -21 98t-55.5 76.5t-80.5 55.5t-94 37t-97 18l36 102q81 -6 155.5 -32t138 -70.5t101.5 -114t38 -154.5q0 -64 -19.5 -120t-51 -98t-70.5 -80.5t-79 -74.5 t-74.5 -71.5t-60 -80t-32.5 -93.5q-5 -32 0 -127l-111 -12q-8 41 -8 96z" />
<glyph unicode="@" horiz-adv-x="1589" d="M100 416q0 170 37.5 325t114.5 287t185.5 229t258 152t324.5 55q231 0 352 -120t121 -351q0 -92 -18 -185.5t-58 -184t-97 -160.5t-142 -113t-187 -43q-72 0 -105 36.5t-20 105.5q-45 -45 -125 -86t-135 -41q-86 0 -123 48t-37 138q0 100 29 192.5t83.5 166t140 117.5 t190.5 44q45 0 99.5 -11.5t92.5 -31.5l-108 -487q-8 -32 -8 -52q0 -47 32 -47q85 0 153.5 38t110 97.5t69.5 138.5t39 155t11 153q0 192 -93 286.5t-283 94.5q-158 0 -288.5 -50t-221 -136.5t-153 -206t-91.5 -256t-29 -287.5q0 -234 111.5 -348.5t343.5 -114.5 q158 0 303 37l14 -96q-128 -51 -350 -51q-265 0 -404 148.5t-139 414.5zM551 520q0 -51 16 -74.5t64 -23.5q56 0 130 43t120 92l80 365q-58 12 -87 12q-66 0 -121 -24t-92 -64t-62 -93.5t-36.5 -112t-11.5 -120.5z" />
<glyph unicode="A" horiz-adv-x="1251" d="M-66 0l721 1448h199l295 -1448h-127l-113 571h-565l-283 -571h-127zM395 676h494l-123 627l-18 90l-46 -93z" />
<glyph unicode="B" horiz-adv-x="1241" d="M154 0l153 1448h369q65 0 120 -9t106.5 -31.5t87.5 -58t57.5 -91.5t21.5 -128q0 -124 -67.5 -228t-186.5 -132l2 -6q124 -10 201.5 -97t77.5 -212q0 -227 -136.5 -341t-373.5 -114h-432zM289 104h270q95 0 164.5 14.5t127.5 50.5t88 104.5t30 168.5q0 41 -9.5 75 t-24 58.5t-40.5 44t-48 31.5t-59 20.5t-62 13t-67 6.5t-64.5 2.5t-64.5 0.5h-180zM362 799h222q176 0 264 73.5t88 249.5q0 60 -17 102.5t-44 67t-70 38.5t-84 18t-98 4h-203z" />
<glyph unicode="C" horiz-adv-x="1210" d="M106 639q0 240 93.5 425.5t272.5 290.5t419 105q200 0 323 -55l-45 -100q-76 28 -132.5 37.5t-151.5 9.5q-157 0 -281 -52t-205 -146.5t-123.5 -225t-42.5 -287.5q0 -264 149 -406.5t411 -142.5q173 0 307 45l24 -106q-163 -51 -383 -51q-293 0 -464 179.5t-171 479.5z " />
<glyph unicode="D" horiz-adv-x="1470" d="M154 0l153 1448h352q154 0 280.5 -38.5t222 -115t148 -201t52.5 -286.5q0 -395 -217 -601t-617 -206h-374zM287 104h268q329 0 505.5 177.5t176.5 521.5q0 140 -42.5 244.5t-122 168.5t-187 95.5t-242.5 31.5h-225z" />
<glyph unicode="E" horiz-adv-x="1150" d="M154 0l153 1448h772l-10 -102h-651l-60 -566h607l-11 -106h-606l-61 -572h700l-10 -102h-823z" />
<glyph unicode="F" horiz-adv-x="931" d="M154 0l153 1448h658l-11 -102h-536l-64 -607h492l-10 -108h-494l-66 -631h-122z" />
<glyph unicode="G" horiz-adv-x="1327" d="M104 641q0 178 54 329t153.5 259.5t247 169.5t326.5 61q203 0 321 -51l-47 -100q-77 26 -130.5 34.5t-149.5 8.5q-207 0 -355 -91.5t-220.5 -250.5t-72.5 -369q0 -265 149.5 -407t412.5 -142q117 0 213 29l59 596h123l-70 -672q-98 -36 -175 -50.5t-202 -14.5 q-293 0 -465 180t-172 481z" />
<glyph unicode="H" horiz-adv-x="1519" d="M154 0l153 1448h121l-70 -670h816l69 672h123l-152 -1450h-122l71 674h-815l-72 -674h-122z" />
<glyph unicode="I" horiz-adv-x="583" d="M154 0l153 1448h121l-152 -1448h-122z" />
<glyph unicode="J" horiz-adv-x="581" d="M-164 -287q97 51 161.5 108t104.5 131.5t60.5 156.5t32.5 200l120 1139h121l-119 -1135q-27 -263 -126 -428.5t-308 -261.5z" />
<glyph unicode="K" horiz-adv-x="1204" d="M154 0l153 1448h121l-152 -1448h-122zM428 748l4 40l631 660h158l-656 -668l529 -751l-105 -72z" />
<glyph unicode="L" horiz-adv-x="978" d="M154 0l153 1448h121l-139 -1337h629l-13 -111h-751z" />
<glyph unicode="M" horiz-adv-x="1773" d="M-8 0l461 1448h180l117 -1399l634 1399h181l-72 -1448h-123l74 1317l-596 -1317h-215l-111 1319l-409 -1319h-121z" />
<glyph unicode="N" horiz-adv-x="1486" d="M154 0l155 1448h203l557 -1403l143 1403h121l-157 -1448h-215l-541 1368l-144 -1368h-122z" />
<glyph unicode="O" horiz-adv-x="1595" d="M106 635q0 179 53.5 332.5t152 265t246.5 174.5t329 63q193 0 331 -83.5t205.5 -230.5t67.5 -343q0 -181 -54 -334.5t-154 -265t-249 -174t-332 -62.5q-192 0 -328 83.5t-202 230t-66 344.5zM231 639q0 -121 30 -221t89 -176t154 -118t217 -42q154 0 277.5 58t202 158.5 t120 232.5t41.5 284q0 122 -31 221.5t-91.5 172.5t-155.5 113t-216 40q-151 0 -273.5 -57t-201 -156t-120.5 -229.5t-42 -280.5z" />
<glyph unicode="P" horiz-adv-x="1146" d="M154 0l153 1448h449q188 0 296.5 -95.5t108.5 -281.5q0 -132 -46 -232.5t-128 -160.5q-81 -60 -187 -90q-99 -28 -217 -27h-16h-28l12 105h10q101 0 181 18q84 20 150 65t101 124.5t35 191.5q0 283 -328 283h-280l-141 -1348h-125z" />
<glyph unicode="Q" horiz-adv-x="1595" d="M106 635q0 179 53.5 332.5t152 265t246.5 174.5t329 63q193 0 331 -83.5t205.5 -230.5t67.5 -343q0 -181 -54 -334.5t-154 -265t-249 -174t-332 -62.5q-192 0 -328 83.5t-202 230t-66 344.5zM231 639q0 -121 30 -221t89 -176t154 -118t217 -42q154 0 277.5 58t202 158.5 t120 232.5t41.5 284q0 122 -31 221.5t-91.5 172.5t-155.5 113t-216 40q-151 0 -273.5 -57t-201 -156t-120.5 -229.5t-42 -280.5zM676 -164l10 101l784 -132l-12 -112z" />
<glyph unicode="R" horiz-adv-x="1253" d="M154 0l153 1448h422q186 0 298 -91t112 -251q0 -156 -88 -275t-252 -159l399 -643l-113 -64l-413 678q-41 -4 -86 -6q-46 -3 -72 -3h-35h-51q-60 0 -80 1l-69 -635h-125zM358 741h207q208 0 324.5 90.5t116.5 272.5q0 124 -87.5 184t-242.5 60h-256z" />
<glyph unicode="S" horiz-adv-x="954" d="M-12 76l51 108q192 -94 342 -94q356 0 356 299q0 57 -32.5 108t-84.5 90t-115 78.5t-126 83t-115 92.5t-84.5 118.5t-32.5 150.5q0 112 61.5 192.5t159.5 118t220 37.5q100 0 197.5 -23t146.5 -53l-39 -102q-63 30 -148 50t-165 20q-66 0 -119.5 -12t-99 -39t-70.5 -76 t-25 -117q0 -58 32.5 -110.5t84.5 -94t114.5 -82.5t125 -85t114.5 -92.5t84.5 -114.5t32.5 -142q0 -193 -134.5 -300.5t-346.5 -107.5q-93 0 -208.5 30t-176.5 69z" />
<glyph unicode="T" horiz-adv-x="1107" d="M70 1339l12 109h1130l-12 -109h-504l-141 -1339h-121l139 1339h-503z" />
<glyph unicode="U" horiz-adv-x="1462" d="M176 477l103 971h124l-100 -956q-4 -38 -4 -72q0 -54 10 -100q16 -74 49 -119t85.5 -72.5t106.5 -37t120 -9.5q90 0 161.5 21t135.5 70.5t105.5 142.5t55.5 227l95 905h114l-96 -911q-14 -132 -54.5 -233t-95 -162t-127 -99.5t-141.5 -53t-147 -14.5q-86 0 -159.5 13 t-144 48t-116.5 90q-48 54 -70 144q-15 58 -14 129q0 37 4 78z" />
<glyph unicode="V" horiz-adv-x="1284" d="M94 1448h127l324 -1370l702 1370h133l-753 -1448h-178z" />
<glyph unicode="W" horiz-adv-x="1787" d="M78 1448h125l182 -1354l502 1055l-58 299h127l256 -1362l533 1362h121l-570 -1448h-180l-198 973l-463 -973h-170z" />
<glyph unicode="X" horiz-adv-x="1136" d="M-84 0l592 770l-322 678h133l271 -584l432 584h133l-518 -678l371 -770h-134l-317 666l-500 -666h-141z" />
<glyph unicode="Y" horiz-adv-x="1013" d="M51 1448h133l305 -760l498 760h129l-579 -866l-62 -582h-121l60 582z" />
<glyph unicode="Z" horiz-adv-x="1052" d="M-20 0l12 123l907 1208h-727l12 117h865l-11 -109l-913 -1224h827l-12 -115h-960z" />
<glyph unicode="[" horiz-adv-x="712" d="M121 -451l211 1995h319l-10 -98h-205l-188 -1798h205l-11 -99h-321z" />
<glyph unicode="\" horiz-adv-x="749" d="M170 1575h109l299 -1702h-111z" />
<glyph unicode="]" horiz-adv-x="712" d="M70 -451l10 99h205l188 1798h-205l11 98h321l-211 -1995h-319z" />
<glyph unicode="^" horiz-adv-x="1140" d="M123 602l416 846h170l206 -846h-124l-175 768l-366 -768h-127z" />
<glyph unicode="_" horiz-adv-x="1024" d="M-4 -324l8 111h1024l-10 -111h-1022z" />
<glyph unicode="`" horiz-adv-x="1198" d="M442 1518l70 92l332 -264l-58 -78z" />
<glyph unicode="a" horiz-adv-x="1067" d="M90 299q0 104 26.5 216.5t82 221.5t130.5 195.5t181.5 140t226.5 53.5q117 0 185 -14l-115 -1112h-117l25 219q-137 -124 -235.5 -185t-180.5 -61q-102 0 -155.5 90.5t-53.5 235.5zM207 311q0 -101 30 -163t87 -62q48 0 139 58t157.5 114t106.5 96l72 666q-18 4 -84 4 q-96 0 -180.5 -47.5t-143 -123.5t-101.5 -170.5t-63 -190t-20 -181.5z" />
<glyph unicode="b" horiz-adv-x="1095" d="M143 29l160 1517h113l-62 -602q4 3 33.5 22t37.5 24t36.5 23t41 24t40 20.5t44.5 20.5t43.5 15.5t47.5 13.5t46.5 7.5t49.5 3.5q236 0 236 -317q0 -110 -21.5 -221.5t-69.5 -219t-116 -190.5t-169 -133.5t-220 -50.5q-130 0 -271 43zM264 113q7 -2 23 -5.5t21 -5t18 -4.5 t19 -4t17.5 -2.5t20 -2t20.5 -1t25 -0.5q74 0 137.5 26t110 69.5t84 102.5t61.5 123.5t40 135.5t23 134.5t7 123.5q0 122 -36.5 166.5t-109.5 44.5q-78 0 -193 -56.5t-212 -123.5z" />
<glyph unicode="c" horiz-adv-x="897" d="M96 375q0 159 36.5 299.5t103.5 245.5t168.5 166t224.5 61q80 0 144 -29.5t106 -73.5l-72 -69q-85 72 -191 72q-64 0 -119.5 -23.5t-95.5 -62.5t-72 -92.5t-52 -112t-33.5 -122.5t-19 -122t-5.5 -113q0 -146 37.5 -230.5t87.5 -84.5q158 0 389 123l43 -86 q-56 -33 -91.5 -52t-94.5 -44.5t-121 -37.5t-129 -12q-69 0 -119.5 40.5t-76 105.5t-37 128.5t-11.5 125.5z" />
<glyph unicode="d" horiz-adv-x="1054" d="M98 336q0 230 86 412t235 282q145 97 322 96h11q8 0 28.5 -1t32.5 -1l45 422h115l-166 -1546h-115l23 219q-269 -246 -416 -246q-55 0 -96 30t-63 83t-32 115t-10 135zM211 379q0 -90 8.5 -150.5t25 -90.5t35 -41t44.5 -11q43 0 104 31.5t125 83t101.5 84.5t72.5 67 l72 674l-105 2h-8q-75 0 -146 -36q-75 -38 -133.5 -103t-103.5 -148t-68.5 -177t-23.5 -185z" />
<glyph unicode="e" horiz-adv-x="886" d="M94 389q0 157 34 294t98 241t163.5 164.5t222.5 60.5q129 0 193.5 -68.5t64.5 -175.5q0 -180 -270 -282l-385 -148q-2 -20 -2 -63q0 -163 33 -245.5t106 -82.5q133 0 355 111l41 -93q-131 -68 -194 -90q-107 -37 -216 -37q-67 0 -116 33.5t-76 93t-39.5 130.5t-12.5 157z M225 586l344 137q87 35 137 81t50 97q0 75 -43 109t-107 34q-73 0 -133.5 -28t-100.5 -71.5t-70.5 -106t-48 -122.5t-28.5 -130z" />
<glyph unicode="f" horiz-adv-x="616" d="M88 1016l10 102h166l8 99q7 88 35.5 155t68.5 106.5t96 64.5t110.5 33.5t119.5 8.5q81 0 175 -29l-31 -94q-94 25 -168 25q-143 0 -213 -60.5t-82 -197.5l-10 -111h241l-8 -102h-244l-153 -1467h-109l152 1467h-164z" />
<glyph unicode="g" horiz-adv-x="1067" d="M-27 -434l27 112q184 -45 285 -45q67 0 118 6.5t102.5 26.5t86.5 54.5t60.5 92.5t33.5 138l29 268q-136 -128 -232 -187t-184 -59q-105 0 -154 81t-49 247q0 125 31 247t89.5 225.5t136.5 183t177.5 124.5t206.5 45q117 0 185 -14l-125 -1192q-9 -86 -42 -154.5 t-80 -112.5t-109 -73t-125 -41t-132 -12q-147 0 -336 39zM211 319q0 -71 8.5 -118.5t25 -71.5t35 -33.5t44.5 -9.5q48 0 139 58t157.5 114t106.5 96l72 666q-20 4 -84 4q-107 0 -203 -64.5t-160.5 -166t-102.5 -227t-38 -247.5z" />
<glyph unicode="h" horiz-adv-x="1114" d="M141 0l164 1546h115l-66 -628q4 4 32.5 28.5t42.5 36t46.5 36.5t54 39t55.5 33.5t61.5 29.5t60.5 18t63 8q100 0 143 -38t43 -113.5t-12 -188.5l-88 -807h-115l86 780q14 122 14 169q0 11 -1 18q-6 54 -50 68q-23 7 -63 7q-32 0 -93 -33.5t-112.5 -70.5t-111.5 -83.5 t-68 -51.5l-86 -803h-115z" />
<glyph unicode="i" d="M143 0l117 1118h115l-117 -1118h-115zM236 1466l124 107l105 -107l-129 -108z" />
<glyph unicode="j" d="M-258 -430l27 104q67 -20 122 -20q68 0 114.5 21.5t72.5 66t38.5 93.5t20.5 122l123 1161h115l-123 -1163q-12 -114 -45 -194.5t-85 -126t-113.5 -65.5t-139.5 -20q-71 0 -127 21zM236 1466l124 107l105 -107l-129 -108z" />
<glyph unicode="k" horiz-adv-x="978" d="M141 0l162 1544h117l-164 -1544h-115zM385 596l416 522h143l-420 -522l381 -569l-108 -62z" />
<glyph unicode="l" horiz-adv-x="528" d="M141 0l162 1544h117l-164 -1544h-115z" />
<glyph unicode="m" horiz-adv-x="1669" d="M141 0l117 1118h117l-21 -198l32 28q33 28 43.5 36.5t45.5 35.5t54 39t53.5 32.5t59.5 30t56 17.5t58 8q115 -1 151 -49q30 -41 30 -124q0 -16 -1 -34q231 207 395 207q99 0 141 -38q41 -37 40 -110q0 -69 -13 -192l-88 -807h-113l84 780q14 128 14 171v13q-5 56 -47 70 q-25 8 -67 8q-38 0 -124 -53t-149 -101.5t-85 -68.5l-88 -819h-115l86 780q14 128 14 170v13q-4 53 -45 67q-25 8 -67 8q-25 0 -82 -32.5t-106.5 -68.5t-110 -82t-68.5 -52l-86 -803h-115z" />
<glyph unicode="n" horiz-adv-x="1114" d="M141 0l117 1118h117l-21 -200q4 4 32.5 28.5t42.5 36t46.5 36.5t54 39t55.5 33.5t61.5 29.5t60.5 18t63 8q100 0 143 -38t43 -113.5t-12 -188.5l-88 -807h-115l86 780q14 122 14 169q0 11 -1 18q-6 54 -50 68q-23 7 -63 7q-31 0 -92 -33.5t-112.5 -70.5t-112 -83.5 t-68.5 -51.5l-86 -803h-115z" />
<glyph unicode="o" horiz-adv-x="1026" d="M96 358q0 361 151 575t390 214q73 0 131.5 -33t93.5 -87t53.5 -118.5t18.5 -132.5q0 -116 -18 -226.5t-59 -216t-101 -184t-152 -126.5t-205 -48q-140 0 -221.5 111.5t-81.5 271.5zM217 395q0 -47 3.5 -84.5t16.5 -83.5t35.5 -76.5t63.5 -51.5t98 -21q103 0 190.5 86 t139 238t51.5 337q0 159 -51 233.5t-172 74.5q-101 0 -187.5 -88.5t-137 -239t-50.5 -324.5z" />
<glyph unicode="p" horiz-adv-x="1095" d="M92 -451l170 1569h113l-17 -174q50 36 89 60.5t95.5 54t115.5 44.5t118 15q236 0 236 -317q0 -110 -21.5 -221.5t-69.5 -219t-116 -190.5t-169 -133.5t-220 -50.5q-66 0 -160 16l-49 -453h-115zM268 113q22 -4 53.5 -11.5t54 -10.5t54.5 -3q74 0 137.5 26t110 69.5 t84 102.5t61.5 123.5t40 135.5t23 134.5t7 123.5q0 122 -36 166.5t-109 44.5q-78 0 -192.5 -56.5t-211.5 -123.5z" />
<glyph unicode="q" horiz-adv-x="1067" d="M96 309q0 156 49.5 304.5t133.5 261.5t204.5 182t253.5 69q117 0 185 -14l-162 -1563h-117l72 670q-146 -127 -240.5 -186.5t-175.5 -59.5q-203 0 -203 336zM211 328q0 -75 8.5 -124.5t25 -74.5t35 -34t44.5 -9q48 0 139 58t157.5 114t106.5 96l72 666q-21 4 -84 4 q-107 0 -202.5 -63t-160.5 -163t-103 -224t-38 -246z" />
<glyph unicode="r" horiz-adv-x="706" d="M141 0l117 1118h115l-21 -207l9 9q30 30 50 49.5t63.5 55t79.5 57.5t83.5 39.5t89.5 17.5q19 0 47 -4l-22 -105q-7 2 -33 2q-18 0 -38 -5t-43.5 -16.5t-44 -22.5t-48 -30.5t-45 -32t-46 -36t-41.5 -34t-40 -34t-33 -28.5l-84 -793h-115z" />
<glyph unicode="s" horiz-adv-x="866" d="M59 29l35 106q135 -49 258 -49q29 0 60.5 3.5t71.5 15.5t70.5 31t51.5 54t21 80q0 50 -24 94.5t-62 79.5t-84.5 69t-93 69.5t-84.5 74t-62 90t-24 109.5q0 63 19.5 112.5t52 80.5t78.5 51.5t95.5 28.5t106.5 8q69 0 144.5 -17.5t125.5 -42.5l-39 -92q-60 20 -90 28.5 t-77 16.5t-95 8q-213 0 -213 -159q0 -57 32.5 -107.5t80.5 -86.5t105 -79.5t105 -85t80.5 -104.5t32.5 -137q0 -63 -23 -114t-61.5 -84.5t-90 -56t-106 -32.5t-112.5 -10q-180 0 -285 47z" />
<glyph unicode="t" horiz-adv-x="765" d="M88 1014l10 104h164l23 230h114l-22 -230h362l-10 -104h-362l-82 -744q-5 -50 -5 -85q0 -47 9 -67q16 -36 84 -36q51 0 125 23.5t118 46.5l31 -97q-42 -24 -125 -52t-166 -28h-9q-20 0 -31 0.5t-33.5 3.5t-33.5 10t-31.5 20.5t-26.5 34t-19 50.5q-10 23 -10 51q0 11 2 21 q4 40 4 94l84 754h-164z" />
<glyph unicode="u" horiz-adv-x="1112" d="M168 297l88 821h115l-86 -776q-11 -81 -10 -135q0 -49 8 -76q18 -57 100 -57q21 0 44 5.5t43 12.5t45.5 21.5t42.5 24.5t43.5 30.5t39.5 30.5t38.5 33.5t33.5 30.5t32 30t25 24l86 801h115l-119 -1118h-115l21 201q-34 -35 -56.5 -56.5t-66.5 -57.5t-82 -56.5t-89.5 -37 t-101.5 -16.5q-128 0 -170 76q-29 53 -29 151q0 43 5 93z" />
<glyph unicode="v" horiz-adv-x="935" d="M98 1118h127l162 -1057l324 682q40 88 68 188.5t28 162.5q0 4 -1 12t-1 12h115v-24q0 -148 -99 -359l-350 -735h-180z" />
<glyph unicode="w" horiz-adv-x="1550" d="M98 1118h127l168 -1057l389 660l-69 397h127l161 -1057l324 682q40 86 67 184.5t27 162.5q0 20 -2 28h117v-24q0 -73 -27.5 -171t-70.5 -188l-351 -735h-182l-96 575l-336 -575h-174z" />
<glyph unicode="x" horiz-adv-x="868" d="M-72 0l441 602l-224 516h123l176 -420l297 420h127l-381 -522l252 -596h-125l-200 496l-357 -496h-129z" />
<glyph unicode="y" horiz-adv-x="935" d="M98 1118h127l158 -1059l328 684q41 86 68.5 187t27.5 164q0 4 -1 12t-1 12h117v-24q0 -72 -27 -170t-70 -189l-563 -1186h-119l217 451h-84z" />
<glyph unicode="z" horiz-adv-x="872" d="M-12 0l12 115l723 899h-573l10 104h702l-10 -108l-739 -908h653l-10 -102h-768z" />
<glyph unicode="{" horiz-adv-x="692" d="M141 502l13 116q73 0 133.5 67t60.5 146v431q0 323 397 323h25l-10 -98h-37q-137 0 -201.5 -52.5t-64.5 -179.5l2 -376q0 -133 -58.5 -213t-158.5 -101v-4q204 -68 151 -311l-82 -381q-25 -117 32 -169t187 -52h37l-10 -97h-25q-40 0 -73 2t-69 8t-64 16.5t-54.5 27 t-43 41.5t-27 57t-10 76.5t11.5 97.5l88 412q16 73 -30.5 143t-119.5 70z" />
<glyph unicode="|" horiz-adv-x="575" d="M96 -451l209 1995h115l-209 -1995h-115z" />
<glyph unicode="}" horiz-adv-x="692" d="M-16 -449l10 97h37q129 0 196.5 52.5t67.5 168.5v381q0 240 217 311v4q-96 21 -138 101.5t-14 212.5l82 376q27 126 -27.5 178t-191.5 52h-37l13 100h24q46 0 85.5 -4t78.5 -14.5t68.5 -27t54.5 -41.5t37 -58.5t16 -77.5t-10 -100l-90 -431q-17 -78 29.5 -145.5 t119.5 -67.5l-12 -116q-73 0 -133.5 -70t-60.5 -143l2 -412q1 -84 -23 -145.5t-60 -95.5t-92.5 -54t-107 -25.5t-117.5 -5.5h-24z" />
<glyph unicode="~" horiz-adv-x="1034" d="M41 756q120 88 258 88q71 0 133.5 -20t101.5 -43.5t96.5 -43.5t119.5 -20q86 0 178 67l65 -77q-57 -52 -113.5 -77.5t-129.5 -25.5q-71 0 -138 19t-110.5 42.5t-101 42.5t-113.5 19q-20 0 -38.5 -2t-35.5 -6.5t-29.5 -8t-27.5 -11l-22 -11t-21 -11.5t-17 -9z" />
<glyph unicode="&#xa2;" horiz-adv-x="995" d="M125 465q0 239 121.5 399.5t353.5 177.5l10 166h131l-20 -164q146 -11 207 -57l-47 -86q-101 49 -244 49q-105 0 -183.5 -37.5t-124 -104.5t-67.5 -151t-22 -186q0 -92 24.5 -153.5t74.5 -94.5t113 -46t154 -13q85 0 232 31l6 -95q-101 -31 -226 -34l-10 -150h-133 l23 152q-189 19 -281 114.5t-92 282.5z" />
<glyph unicode="&#xa3;" horiz-adv-x="927" d="M70 0l12 111q83 32 139.5 122.5t67.5 186.5h-205l10 100h207q4 29 7 62.5t6 74t5 62.5q11 96 42.5 165.5t75.5 112.5t110.5 69t136 36.5t164.5 13.5l-2 -100q-55 -5 -91.5 -9t-82.5 -13.5t-75.5 -23t-61 -36t-50.5 -52.5t-33 -73t-18 -98q-4 -69 -16 -191h377l-11 -100 h-381q-10 -92 -60.5 -178t-125.5 -140h606l-12 -102h-741z" />
<glyph unicode="&#xa5;" horiz-adv-x="1157" d="M45 207l10 102h426v2l-90 224h-311l10 102h256l-201 481h131l281 -694l449 694h124l-315 -481h268l-10 -102h-325l-148 -224v-2h449l-11 -102h-448l-23 -207h-118l22 207h-426z" />
<glyph unicode="&#xa8;" horiz-adv-x="794" d="M330 1464l108 99l88 -99l-108 -96zM715 1464l106 99l88 -99l-108 -96z" />
<glyph unicode="&#xa9;" horiz-adv-x="1693" d="M121 410q0 249 103.5 445t292 305.5t429.5 109.5q196 0 339.5 -84t215.5 -228t72 -331q0 -182 -58.5 -340.5t-163.5 -273t-260.5 -180.5t-340.5 -66q-290 0 -459.5 176.5t-169.5 466.5zM236 430q0 -117 32 -217t95.5 -177.5t166.5 -122t236 -44.5t246.5 38.5t195 107 t139 162t85.5 203.5t28 230q0 251 -137 404t-395 153q-161 0 -293.5 -59t-219 -160t-133 -234.5t-46.5 -283.5zM465 461q0 110 30.5 202t89.5 160t151.5 106t209.5 38q145 0 234 -56l-45 -80q-56 26 -94 36t-103 10q-162 0 -265.5 -106.5t-103.5 -295.5q0 -134 92 -204 t232 -70q71 0 194 35l23 -78q-123 -49 -252 -49q-190 0 -291.5 96t-101.5 256z" />
<glyph unicode="&#xab;" horiz-adv-x="856" d="M162 557l254 447l92 -35l-219 -412l131 -407l-98 -39zM502 557l256 447l90 -35l-219 -412l131 -407l-98 -39z" />
<glyph unicode="&#xad;" horiz-adv-x="733" d="M37 535l12 110h610l-12 -110h-610z" />
<glyph unicode="&#xae;" horiz-adv-x="1693" d="M123 932q0 341 205.5 544t539.5 203q170 0 305 -57t221.5 -159t131.5 -238t45 -297q0 -223 -88 -392.5t-257 -264.5t-397 -95q-220 0 -381 96.5t-243 266.5t-82 393zM240 934q0 -132 37.5 -248.5t109.5 -208t187.5 -145t261.5 -53.5q154 0 274 50t195 139t113 206t38 256 q0 185 -69 330t-208 231t-329 86q-149 0 -266 -49.5t-191.5 -136.5t-113.5 -203.5t-39 -253.5zM567 535v856h275q127 0 197.5 -67.5t70.5 -195.5q0 -80 -39 -144t-121 -99q13 -15 60 -73t74.5 -89t74 -68t88.5 -49l-22 -86q-114 11 -207 129q-12 7 -164 206l-6 9 q-40 -4 -68 -4h-112v-325h-101zM668 952h120q105 0 161.5 38.5t56.5 129.5q0 97 -44.5 141t-144.5 44h-149v-353z" />
<glyph unicode="&#xb4;" horiz-adv-x="1198" d="M492 1350l356 280l70 -94l-371 -262z" />
<glyph unicode="&#xb8;" horiz-adv-x="919" d="M326 -406q69 40 95.5 78.5t31.5 83.5q5 54 -37 140h127q32 -62 26 -129q-3 -31 -12 -58t-30.5 -59t-64.5 -62.5t-106 -56.5z" />
<glyph unicode="&#xbb;" horiz-adv-x="856" d="M119 150l217 407l-133 412l100 35l160 -447l-254 -446zM459 150l217 407l-133 412l100 35l160 -447l-254 -446z" />
<glyph unicode="&#x2c6;" horiz-adv-x="1097" d="M254 1362l379 227l315 -227l-51 -80l-279 184l-317 -184z" />
<glyph unicode="&#x2da;" horiz-adv-x="1089" d="M471 1432q0 104 72.5 170.5t177.5 66.5q85 0 146 -51.5t61 -128.5q0 -104 -70 -169t-176 -65q-88 0 -149.5 49t-61.5 128zM561 1448q0 -55 35 -88t90 -33q65 0 108.5 41.5t43.5 106.5q0 53 -36 86.5t-89 33.5q-67 0 -109.5 -41t-42.5 -106z" />
<glyph unicode="&#x2dc;" horiz-adv-x="1097" d="M381 1425q1 1 11.5 10t19.5 16t27 17.5t37 17.5t46 12t56 5q48 0 129 -36.5t122 -36.5q32 0 65 12t50 23.5t29 21.5l41 -74q-84 -84 -195 -84q-39 0 -127 37t-125 37q-49 0 -77.5 -10.5t-67.5 -38.5z" />
<glyph unicode="&#x400;" horiz-adv-x="1150" d="M154 0l153 1448h772l-10 -102h-651l-60 -566h607l-11 -106h-606l-61 -572h700l-10 -102h-823zM434 1642l51 119l406 -164l-33 -90z" />
<glyph unicode="&#x401;" horiz-adv-x="1150" d="M154 0l153 1448h772l-10 -102h-651l-60 -566h607l-11 -106h-606l-61 -572h700l-10 -102h-823zM426 1640l106 99l89 -99l-109 -102zM829 1640l107 99l90 -99l-111 -102z" />
<glyph unicode="&#x402;" horiz-adv-x="1474" d="M70 1339l12 109h1065l-12 -109h-514l-58 -555q121 45 220.5 69t205.5 24q180 0 267 -104.5t87 -283.5q0 -122 -36 -242.5t-93 -217.5t-136 -189.5t-157 -161t-165 -129.5l-70 95q2 2 7 5q33 23 58.5 42.5t83 69.5t102 97.5t99.5 121t91.5 146t61.5 166t25 187.5 q0 145 -68.5 218t-197.5 73q-87 0 -197 -27t-200 -75l-72 -668h-121l140 1339h-428z" />
<glyph unicode="&#x403;" horiz-adv-x="1058" d="M154 0l153 1448h793l-10 -109h-672l-142 -1339h-122zM508 1597l453 160l28 -117l-454 -131z" />
<glyph unicode="&#x404;" horiz-adv-x="1210" d="M106 639q0 240 93.5 425.5t272.5 290.5t419 105q200 0 323 -55l-45 -100q-76 28 -132.5 37.5t-151.5 9.5q-276 0 -441.5 -153.5t-201.5 -416.5h805l-11 -108h-803v-33q0 -264 149 -406.5t411 -142.5q173 0 307 45l24 -106q-163 -51 -383 -51q-293 0 -464 179.5 t-171 479.5z" />
<glyph unicode="&#x405;" horiz-adv-x="954" d="M-12 76l51 108q192 -94 342 -94q356 0 356 299q0 57 -32.5 108t-84.5 90t-115 78.5t-126 83t-115 92.5t-84.5 118.5t-32.5 150.5q0 112 61.5 192.5t159.5 118t220 37.5q100 0 197.5 -23t146.5 -53l-39 -102q-63 30 -148 50t-165 20q-66 0 -119.5 -12t-99 -39t-70.5 -76 t-25 -117q0 -58 32.5 -110.5t84.5 -94t114.5 -82.5t125 -85t114.5 -92.5t84.5 -114.5t32.5 -142q0 -193 -134.5 -300.5t-346.5 -107.5q-93 0 -208.5 30t-176.5 69z" />
<glyph unicode="&#x406;" horiz-adv-x="583" d="M154 0l153 1448h121l-152 -1448h-122z" />
<glyph unicode="&#x407;" horiz-adv-x="583" d="M90 1640l107 99l88 -99l-109 -102zM154 0l153 1448h121l-152 -1448h-122zM494 1640l106 99l90 -99l-110 -102z" />
<glyph unicode="&#x408;" horiz-adv-x="581" d="M-164 -287q97 51 161.5 108t104.5 131.5t60.5 156.5t32.5 200l120 1139h121l-119 -1135q-27 -263 -126 -428.5t-308 -261.5z" />
<glyph unicode="&#x409;" horiz-adv-x="1941" d="M-31 68q81 37 149.5 98t106.5 125q63 102 136 399t145 758h713l-142 -1348h291q163 0 258.5 86t110.5 240q8 73 -6.5 129t-45.5 92.5t-80 59t-105.5 32t-127.5 9.5h-137l10 106h139q259 0 382 -108.5t102 -329.5q-21 -185 -145.5 -300.5t-321.5 -115.5h-455l137 1341 h-473q-13 -67 -38.5 -204.5t-38 -201t-34.5 -171t-37.5 -167.5t-37.5 -135t-44.5 -128.5t-47.5 -97.5q-57 -98 -128.5 -165t-180.5 -116z" />
<glyph unicode="&#x40a;" horiz-adv-x="1980" d="M154 0l153 1448h121l-66 -627h719l66 627h123l-142 -1348h289q158 0 250 81t109 229q9 88 -13.5 149.5t-73.5 94.5t-116 47t-152 14h-135l10 106h136q254 0 375 -104.5t100 -317.5q-21 -178 -143 -288.5t-314 -110.5h-455l76 717h-719l-76 -717h-122z" />
<glyph unicode="&#x40b;" horiz-adv-x="1505" d="M70 1339l12 109h1065l-12 -109h-514l-56 -555q225 93 432 93q400 0 361 -373l-53 -504h-121l55 526q5 49 -4 88t-26.5 64t-46.5 43.5t-56 28t-63 15t-59.5 6.5t-53.5 1q-73 0 -178.5 -27t-198.5 -77l-74 -668h-121l140 1339h-428z" />
<glyph unicode="&#x40c;" horiz-adv-x="1204" d="M154 0l153 1448h121l-152 -1448h-122zM428 748l4 40l631 660h158l-656 -668l529 -751l-105 -72zM537 1597l452 160l29 -117l-455 -131z" />
<glyph unicode="&#x40d;" horiz-adv-x="1560" d="M154 0l153 1448h121l-111 -1061l-28 -225l141 219l854 1067h123l-152 -1448h-122l110 1061l29 225l-84 -127l-912 -1159h-122zM594 1642l51 119l406 -164l-33 -90z" />
<glyph unicode="&#x40e;" horiz-adv-x="1132" d="M100 1448h136l356 -924l463 924h129l-568 -1100q-47 -91 -88 -151t-88 -100.5t-89.5 -63.5t-110.5 -51l-39 112q104 35 176.5 94t138.5 189l39 69h-72zM336 1718l80 68q82 -119 239 -119q153 0 258 119l68 -68q-63 -76 -150 -119t-186 -43q-103 0 -182.5 43t-126.5 119z " />
<glyph unicode="&#x40f;" horiz-adv-x="1525" d="M154 0l151 1448h123l-139 -1342h782l139 1342h121l-149 -1448h-455l-31 -313h-123l33 313h-452z" />
<glyph unicode="&#x410;" horiz-adv-x="1251" d="M-66 0l721 1448h199l295 -1448h-127l-113 571h-565l-283 -571h-127zM395 676h494l-123 627l-18 90l-46 -93z" />
<glyph unicode="&#x411;" horiz-adv-x="1265" d="M154 0l149 1448h817l-10 -100h-694l-129 -1248h307q164 0 260 86t111 240q7 73 -7.5 129t-45.5 92.5t-79.5 59t-105 32t-127.5 9.5h-158l11 106h159q259 0 382 -108.5t100 -329.5q-19 -184 -144 -300t-321 -116h-475z" />
<glyph unicode="&#x412;" horiz-adv-x="1241" d="M154 0l153 1448h369q65 0 120 -9t106.5 -31.5t87.5 -58t57.5 -91.5t21.5 -128q0 -124 -67.5 -228t-186.5 -132l2 -6q124 -10 201.5 -97t77.5 -212q0 -227 -136.5 -341t-373.5 -114h-432zM289 104h270q95 0 164.5 14.5t127.5 50.5t88 104.5t30 168.5q0 41 -9.5 75 t-24 58.5t-40.5 44t-48 31.5t-59 20.5t-62 13t-67 6.5t-64.5 2.5t-64.5 0.5h-180zM362 799h222q176 0 264 73.5t88 249.5q0 60 -17 102.5t-44 67t-70 38.5t-84 18t-98 4h-203z" />
<glyph unicode="&#x413;" horiz-adv-x="1058" d="M154 0l153 1448h793l-10 -109h-672l-142 -1339h-122z" />
<glyph unicode="&#x414;" horiz-adv-x="1441" d="M-51 -313l43 419h117q26 41 52 85t53 95t41.5 79.5t41 83t29.5 59.5q16 31 52.5 150t88 342t86.5 448h696l-139 -1342h178l-43 -419h-123l33 313h-1055l-30 -313h-121zM250 106h737l127 1235h-461q-40 -218 -89.5 -420.5t-76 -286.5t-41.5 -126q-63 -169 -196 -402z" />
<glyph unicode="&#x415;" horiz-adv-x="1150" d="M154 0l153 1448h772l-10 -102h-651l-60 -566h607l-11 -106h-606l-61 -572h700l-10 -102h-823z" />
<glyph unicode="&#x416;" horiz-adv-x="1755" d="M-23 35l639 749l-456 664h139l446 -668l-4 -39l-655 -782zM739 0l152 1448h121l-150 -1448h-123zM1012 741l4 39l586 668h155l-614 -670l495 -743l-108 -76z" />
<glyph unicode="&#x417;" horiz-adv-x="1052" d="M-12 63l51 105q148 -74 334 -74q77 0 141.5 16t119 49.5t89 93t43.5 140.5q16 149 -82 215t-278 66h-134l13 106h133q151 0 246 77.5t110 217.5q13 135 -57 207t-209 72q-21 0 -41 -1t-41 -4.5t-36 -5.5t-37 -8t-32 -8t-33 -10t-28 -9.5t-29.5 -10.5t-25.5 -9l-27 90 q176 78 352 78q191 0 289.5 -98t83.5 -256q-8 -70 -33 -130t-55 -98t-68 -69t-62.5 -45t-47.5 -23v-4q21 -5 33.5 -9t45 -17t54.5 -27.5t50 -41t44 -58t25.5 -77.5t3.5 -100q-6 -61 -27 -118.5t-63 -113t-100 -96.5t-144.5 -66t-191.5 -25q-211 0 -379 79z" />
<glyph unicode="&#x418;" horiz-adv-x="1560" d="M154 0l153 1448h121l-111 -1061l-28 -225l141 219l854 1067h123l-152 -1448h-122l110 1061l29 225l-84 -127l-912 -1159h-122z" />
<glyph unicode="&#x419;" horiz-adv-x="1560" d="M154 0l153 1448h121l-111 -1061l-28 -225l141 219l854 1067h123l-152 -1448h-122l110 1061l29 225l-84 -127l-912 -1159h-122zM569 1718l80 68q82 -119 240 -119q153 0 258 119l67 -68q-63 -76 -149.5 -119t-185.5 -43q-103 0 -183 43t-127 119z" />
<glyph unicode="&#x41a;" horiz-adv-x="1204" d="M154 0l153 1448h121l-152 -1448h-122zM428 748l4 40l631 660h158l-656 -668l529 -751l-105 -72z" />
<glyph unicode="&#x41b;" horiz-adv-x="1372" d="M-31 68q81 37 149.5 98t106.5 125q63 102 136 399t145 758h713l-150 -1448h-123l137 1341h-473q-13 -67 -38.5 -204.5t-38 -201t-34.5 -171t-37.5 -167.5t-37.5 -135t-44.5 -128.5t-47.5 -97.5q-57 -98 -128.5 -165t-180.5 -116z" />
<glyph unicode="&#x41c;" horiz-adv-x="1773" d="M-8 0l461 1448h180l117 -1399l634 1399h181l-72 -1448h-123l74 1317l-596 -1317h-215l-111 1319l-409 -1319h-121z" />
<glyph unicode="&#x41d;" horiz-adv-x="1519" d="M154 0l153 1448h121l-70 -670h816l69 672h123l-152 -1450h-122l71 674h-815l-72 -674h-122z" />
<glyph unicode="&#x41e;" horiz-adv-x="1595" d="M106 635q0 179 53.5 332.5t152 265t246.5 174.5t329 63q193 0 331 -83.5t205.5 -230.5t67.5 -343q0 -181 -54 -334.5t-154 -265t-249 -174t-332 -62.5q-192 0 -328 83.5t-202 230t-66 344.5zM231 639q0 -121 30 -221t89 -176t154 -118t217 -42q154 0 277.5 58t202 158.5 t120 232.5t41.5 284q0 122 -31 221.5t-91.5 172.5t-155.5 113t-216 40q-151 0 -273.5 -57t-201 -156t-120.5 -229.5t-42 -280.5z" />
<glyph unicode="&#x41f;" horiz-adv-x="1499" d="M154 0l153 1450h1039l-152 -1450h-123l141 1343h-794l-142 -1343h-122z" />
<glyph unicode="&#x420;" horiz-adv-x="1146" d="M154 0l153 1448h449q188 0 296.5 -95.5t108.5 -281.5q0 -132 -46 -232.5t-128 -160.5t-187.5 -89.5t-232.5 -27.5h-28l12 105q108 -1 191.5 18.5t149.5 64.5t101 124.5t35 191.5q0 283 -328 283h-280l-141 -1348h-125z" />
<glyph unicode="&#x421;" horiz-adv-x="1210" d="M106 639q0 240 93.5 425.5t272.5 290.5t419 105q200 0 323 -55l-45 -100q-76 28 -132.5 37.5t-151.5 9.5q-157 0 -281 -52t-205 -146.5t-123.5 -225t-42.5 -287.5q0 -264 149 -406.5t411 -142.5q173 0 307 45l24 -106q-163 -51 -383 -51q-293 0 -464 179.5t-171 479.5z " />
<glyph unicode="&#x422;" horiz-adv-x="1107" d="M70 1339l12 109h1130l-12 -109h-504l-141 -1339h-121l139 1339h-503z" />
<glyph unicode="&#x423;" horiz-adv-x="1132" d="M100 1448h136l356 -924l463 924h129l-568 -1100q-47 -91 -88 -151t-88 -100.5t-89.5 -63.5t-110.5 -51l-39 112q104 35 176.5 94t138.5 189l39 69h-72z" />
<glyph unicode="&#x424;" horiz-adv-x="1609" d="M106 696q0 158 52 283.5t145.5 207t221 124.5t280.5 43l16 155h123l-16 -155q269 0 423 -131t154 -394q0 -210 -91 -359.5t-247 -222.5t-360 -73l-19 -174h-122l18 174q-268 0 -423 130.5t-155 391.5zM227 713q0 -213 121.5 -323.5t345.5 -110.5l101 970 q-264 0 -416 -141.5t-152 -394.5zM817 279q263 0 414 141.5t151 396.5q0 213 -120 322.5t-344 109.5z" />
<glyph unicode="&#x425;" horiz-adv-x="1136" d="M-84 0l592 770l-322 678h133l271 -584l432 584h133l-518 -678l371 -770h-134l-317 666l-500 -666h-141z" />
<glyph unicode="&#x426;" horiz-adv-x="1525" d="M154 0l151 1448h123l-139 -1342h782l139 1342h121l-139 -1342h180l-43 -419h-123l33 313h-1085z" />
<glyph unicode="&#x427;" horiz-adv-x="1308" d="M155 877q-4 45 3 88l49 483h121l-52 -506q-5 -49 4 -88t26.5 -64t45.5 -43.5t54 -28t59.5 -15t54 -6.5t45.5 -1q206 0 400 105l67 647h123l-151 -1448h-121l69 684q-205 -92 -413 -92q-87 0 -154.5 15.5t-108.5 42.5t-69.5 63.5t-38 77.5t-13.5 86z" />
<glyph unicode="&#x428;" horiz-adv-x="2013" d="M154 0l151 1448h123l-139 -1342h594l139 1342h123l-139 -1342h593l140 1342h121l-150 -1448h-1556z" />
<glyph unicode="&#x429;" horiz-adv-x="2054" d="M154 0l151 1448h123l-139 -1342h594l139 1342h123l-139 -1342h593l140 1342h121l-140 -1342h181l-43 -419h-123l32 313h-1613z" />
<glyph unicode="&#x42a;" horiz-adv-x="1314" d="M70 1339l12 109h510l-141 -1348h290q163 0 258.5 86t110.5 240q8 73 -6.5 129t-45.5 92.5t-80 59t-105.5 32t-127.5 9.5h-137l10 106h140q259 0 381.5 -108.5t101.5 -329.5q-21 -185 -145.5 -300.5t-321.5 -115.5h-455l138 1339h-387z" />
<glyph unicode="&#x42b;" horiz-adv-x="1695" d="M154 0l149 1448h123l-141 -1348h290q163 0 258.5 86t110.5 240q8 73 -6 129t-45 92.5t-80 59t-105.5 32t-127.5 9.5h-138l11 106h139q259 0 381.5 -108.5t101.5 -329.5q-21 -185 -145.5 -300.5t-321.5 -115.5h-454zM1268 0l153 1448h121l-151 -1448h-123z" />
<glyph unicode="&#x42c;" horiz-adv-x="1148" d="M154 0l149 1448h123l-141 -1348h290q163 0 258.5 86t110.5 240q8 73 -6 129t-45 92.5t-80 59t-105.5 32t-127.5 9.5h-138l11 106h139q259 0 381.5 -108.5t101.5 -329.5q-21 -185 -145.5 -300.5t-321.5 -115.5h-454z" />
<glyph unicode="&#x42d;" horiz-adv-x="1284" d="M-18 37l41 100q57 -20 147.5 -35.5t179.5 -15.5q126 0 237 34t205 103t158.5 184.5t87.5 268.5h-772l13 106h770q5 123 -20 220.5t-73 162.5t-117 108t-147.5 62t-169.5 19q-43 0 -83.5 -2.5t-75 -7.5t-62 -9.5t-54 -12t-41 -11.5t-33.5 -10t-21 -7l-23 105l10 4 q10 4 21.5 8t32.5 10t44 12t56.5 11.5t69 10t81.5 7t95 2.5q335 0 503 -196.5t132 -532.5q-15 -158 -78.5 -295.5t-164.5 -239.5t-245 -161t-311 -59q-267 0 -393 57z" />
<glyph unicode="&#x42e;" horiz-adv-x="2142" d="M154 0l153 1448h121l-70 -670h304q39 312 243.5 502t528.5 190q193 0 331 -83.5t205.5 -230.5t67.5 -343q0 -181 -54 -334.5t-154 -265t-249 -174t-332 -62.5q-192 0 -328 83.5t-202 230t-66 344.5v39h-305l-72 -674h-122zM778 639q0 -121 30 -221t89 -176t154 -118 t217 -42q154 0 277.5 58t202 158.5t120 232.5t41.5 284q0 122 -31 221.5t-91.5 172.5t-155.5 113t-216 40q-151 0 -273.5 -57t-201 -156t-120.5 -229.5t-42 -280.5z" />
<glyph unicode="&#x42f;" horiz-adv-x="1294" d="M-2 29l500 596q-134 34 -206.5 123t-72.5 219q0 113 40 206t108 152t154 91t181 32h439l-148 -1448h-125l60 596h-211q-50 0 -86 4l-529 -635zM348 975q0 -149 95 -211t274 -62h223l68 646h-273q-178 0 -282.5 -102.5t-104.5 -270.5z" />
<glyph unicode="&#x430;" horiz-adv-x="1067" d="M90 299q0 104 26.5 216.5t82 221.5t130.5 195.5t181.5 140t226.5 53.5q117 0 185 -14l-115 -1112h-117l25 219q-137 -124 -235.5 -185t-180.5 -61q-102 0 -155.5 90.5t-53.5 235.5zM207 311q0 -101 30 -163t87 -62q48 0 139 58t157.5 114t106.5 96l72 666q-18 4 -84 4 q-96 0 -180.5 -47.5t-143 -123.5t-101.5 -170.5t-63 -190t-20 -181.5z" />
<glyph unicode="&#x431;" horiz-adv-x="1038" d="M111 336q0 294 76.5 583t199.5 437q105 128 608 223l21 -111q-28 -7 -128.5 -26.5t-164 -35t-140.5 -48t-116 -72.5q-99 -104 -176 -416q2 1 37 24t42 27.5t40 24.5t46.5 26t44 21.5t50.5 21t48 13.5t54.5 11t53.5 3q235 0 235 -317q0 -108 -22 -213.5t-67 -200.5 t-107.5 -167.5t-149.5 -115t-186 -42.5q-139 0 -219 93t-80 257zM231 348q0 -65 12.5 -113.5t32 -75.5t47.5 -44t53.5 -22t55.5 -5q77 0 143 41t110.5 107.5t76.5 151t46.5 171t14.5 168.5q0 122 -36 166.5t-109 44.5q-78 0 -194 -56.5t-212 -123.5q-41 -221 -41 -410z" />
<glyph unicode="&#x432;" horiz-adv-x="980" d="M96 301q0 132 22.5 256t68 231.5t109.5 188t152.5 126.5t190.5 46q65 0 115 -20t78 -53.5t41.5 -72.5t13.5 -83q0 -99 -59.5 -173t-157.5 -116q202 -72 202 -260q0 -75 -27.5 -144.5t-80 -126.5t-138.5 -91t-192 -34q-95 0 -163.5 28.5t-105 77.5t-53 103.5t-16.5 116.5z M215 350q0 -136 49.5 -203t169.5 -67q152 0 236 80t84 190q0 99 -57 156.5t-152 73.5l-320 -113q-10 -60 -10 -117zM236 580l241 79q162 60 226.5 117.5t64.5 124.5q0 72 -43 107.5t-113 35.5q-67 0 -125 -28t-98.5 -73.5t-72 -107.5t-50.5 -124.5t-30 -130.5z" />
<glyph unicode="&#x433;" horiz-adv-x="851" d="M78 217q0 37 10.5 73t24 63.5t42.5 59.5t49 52t61.5 51t62 45.5t67.5 46.5q43 29 60.5 41.5t54 39t53 42t41.5 40.5t35.5 44t19.5 43.5t9 48.5q0 131 -150 131q-24 0 -47 -3t-48.5 -13t-40.5 -15t-44.5 -23t-36.5 -22.5t-41.5 -28t-36.5 -24.5l-53 82q69 60 166 103 t209 43q104 0 167.5 -56.5t63.5 -171.5q0 -58 -20.5 -107.5t-71.5 -99.5t-84 -75.5t-110 -80.5q-26 -19 -39 -28q-67 -48 -101.5 -74.5t-78.5 -67t-63.5 -76.5t-19.5 -73q0 -44 12 -73t35.5 -43t49 -19.5t59.5 -5.5q119 0 348 166l58 -80q-87 -75 -202 -132.5t-216 -57.5 q-113 0 -183.5 62.5t-70.5 172.5z" />
<glyph unicode="&#x434;" horiz-adv-x="1046" d="M96 358q0 177 37.5 313t102.5 217t146.5 121t176.5 40q126 0 272 -127q-2 119 -15 206t-44 158t-88.5 107.5t-140.5 36.5q-92 0 -244 -44l-18 97q70 22 153.5 36.5t134.5 14.5q379 0 379 -602q0 -73 -5 -149t-21 -172.5t-40.5 -182.5t-67.5 -171t-98.5 -146t-137 -98.5 t-179.5 -37.5q-140 0 -221.5 111.5t-81.5 271.5zM217 395q0 -47 3.5 -84.5t16.5 -83.5t35.5 -76.5t63.5 -51.5t98 -21q103 0 190.5 94t140.5 261t58 372q-46 51 -125.5 92t-140.5 41q-157 0 -248.5 -141t-91.5 -402z" />
<glyph unicode="&#x435;" horiz-adv-x="886" d="M94 389q0 157 34 294t98 241t163.5 164.5t222.5 60.5q129 0 193.5 -68.5t64.5 -175.5q0 -180 -270 -282l-385 -148q-2 -20 -2 -63q0 -163 33 -245.5t106 -82.5q133 0 355 111l41 -93q-131 -68 -194 -90q-107 -37 -216 -37q-67 0 -116 33.5t-76 93t-39.5 130.5t-12.5 157z M225 586l344 137q87 35 137 81t50 97q0 75 -43 109t-107 34q-73 0 -133.5 -28t-100.5 -71.5t-70.5 -106t-48 -122.5t-28.5 -130z" />
<glyph unicode="&#x436;" horiz-adv-x="1466" d="M-20 27l501 577l-344 514h146l329 -528l-522 -625zM614 0l117 1118h117l-119 -1118h-115zM858 590l436 528h146l-443 -528l381 -563l-108 -62z" />
<glyph unicode="&#x437;" horiz-adv-x="843" d="M8 35l35 96q122 -47 246 -47q157 0 236 67t79 168q0 103 -74 159t-243 59l-11 86q146 33 244 114t98 174q0 61 -50 91t-173 30q-101 0 -215 -31l-26 95q112 41 262 41q152 0 234.5 -57t82.5 -160q0 -94 -73 -180.5t-197 -137.5q248 -48 248 -276q0 -145 -109 -244.5 t-297 -99.5q-164 0 -297 53z" />
<glyph unicode="&#x438;" horiz-adv-x="1112" d="M168 297l88 821h115l-86 -776q-20 -154 -2 -211t100 -57q21 0 44 5.5t43 12.5t45.5 21.5t42.5 24.5t43.5 30.5t39.5 30.5t38.5 33.5t33.5 30.5t32 30t25 24l86 801h115l-119 -1118h-115l21 201q-34 -35 -56.5 -56.5t-66.5 -57.5t-82 -56.5t-89.5 -37t-101.5 -16.5 q-128 0 -170 76t-24 244z" />
<glyph unicode="&#x439;" horiz-adv-x="1112" d="M168 297l88 821h115l-86 -776q-20 -154 -2 -211t100 -57q21 0 44 5.5t43 12.5t45.5 21.5t42.5 24.5t43.5 30.5t39.5 30.5t38.5 33.5t33.5 30.5t32 30t25 24l86 801h115l-119 -1118h-115l21 201q-34 -35 -56.5 -56.5t-66.5 -57.5t-82 -56.5t-89.5 -37t-101.5 -16.5 q-128 0 -170 76t-24 244zM381 1532l92 63q93 -135 143 -135q64 0 149 38t163 101l47 -61q-93 -81 -196.5 -132.5t-190.5 -51.5q-94 0 -207 178z" />
<glyph unicode="&#x43a;" horiz-adv-x="993" d="M141 0l117 1118h117l-119 -1118h-115zM385 590l436 528h146l-443 -528l381 -563l-108 -62z" />
<glyph unicode="&#x43b;" horiz-adv-x="876" d="M16 0v23q0 157 99 360l385 735h209l28 -1118h-119l-12 1016h-51l-330 -641q-96 -197 -96 -352v-23h-113z" />
<glyph unicode="&#x43c;" horiz-adv-x="1435" d="M41 0v23q0 156 68 360l247 735h191l69 -1057l488 1057h201l-117 -1118h-115l111 1059l-490 -1059h-178l-76 1057l-221 -682q-65 -198 -65 -352v-23h-113z" />
<glyph unicode="&#x43d;" horiz-adv-x="1118" d="M141 0l121 1118h115l-55 -504l489 39l51 465h115l-121 -1118h-115l58 543l-490 -39l-53 -504h-115z" />
<glyph unicode="&#x43e;" horiz-adv-x="1026" d="M96 358q0 361 151 575t390 214q73 0 131.5 -33t93.5 -87t53.5 -118.5t18.5 -132.5q0 -116 -18 -226.5t-59 -216t-101 -184t-152 -126.5t-205 -48q-140 0 -221.5 111.5t-81.5 271.5zM217 395q0 -47 3.5 -84.5t16.5 -83.5t35.5 -76.5t63.5 -51.5t98 -21q103 0 190.5 86 t139 238t51.5 337q0 159 -51 233.5t-172 74.5q-101 0 -187.5 -88.5t-137 -239t-50.5 -324.5z" />
<glyph unicode="&#x43f;" horiz-adv-x="1114" d="M141 0l117 1118h117l-21 -200q4 4 32.5 28.5t42.5 36t46.5 36.5t54 39t55.5 33.5t61.5 29.5t60.5 18t63 8q100 0 143 -38t43 -113.5t-12 -188.5l-88 -807h-115l86 780q17 151 13 187q-6 54 -50 68q-23 7 -63 7q-31 0 -92 -33.5t-112.5 -70.5t-112 -83.5t-68.5 -51.5 l-86 -803h-115z" />
<glyph unicode="&#x440;" horiz-adv-x="1095" d="M92 -451l170 1569h113l-17 -174q50 36 89 60.5t95.5 54t115.5 44.5t118 15q236 0 236 -317q0 -110 -21.5 -221.5t-69.5 -219t-116 -190.5t-169 -133.5t-220 -50.5q-66 0 -160 16l-49 -453h-115zM268 113q22 -4 53.5 -11.5t54 -10.5t54.5 -3q74 0 137.5 26t110 69.5 t84 102.5t61.5 123.5t40 135.5t23 134.5t7 123.5q0 122 -36 166.5t-109 44.5q-78 0 -192.5 -56.5t-211.5 -123.5z" />
<glyph unicode="&#x441;" horiz-adv-x="897" d="M96 375q0 159 36.5 299.5t103.5 245.5t168.5 166t224.5 61q80 0 144 -29.5t106 -73.5l-72 -69q-85 72 -191 72q-64 0 -119.5 -23.5t-95.5 -62.5t-72 -92.5t-52 -112t-33.5 -122.5t-19 -122t-5.5 -113q0 -146 37.5 -230.5t87.5 -84.5q158 0 389 123l43 -86 q-56 -33 -91.5 -52t-94.5 -44.5t-121 -37.5t-129 -12q-69 0 -119.5 40.5t-76 105.5t-37 128.5t-11.5 125.5z" />
<glyph unicode="&#x442;" horiz-adv-x="1669" d="M141 0l117 1118h117l-21 -198l32 28q33 28 43.5 36.5t45.5 35.5t54 39t53.5 32.5t59.5 30t56 17.5t58 8q115 0 151 -48.5t29 -158.5q231 207 395 207q99 0 140.5 -38t40.5 -113.5t-13 -188.5l-88 -807h-113l84 780q17 150 14 184q-5 56 -47 70q-25 8 -67 8 q-38 0 -124 -53t-149 -101.5t-85 -68.5l-88 -819h-115l86 780q17 150 14 183q-4 53 -45 67q-25 8 -67 8q-25 0 -82 -32.5t-106.5 -68.5t-110 -82t-68.5 -52l-86 -803h-115z" />
<glyph unicode="&#x443;" horiz-adv-x="935" d="M98 1118h127l158 -1059l328 684q41 86 68.5 187t27.5 164q0 4 -1 12t-1 12h117v-24q0 -72 -27 -170t-70 -189l-563 -1186h-119l217 451h-84z" />
<glyph unicode="&#x444;" horiz-adv-x="1345" d="M96 379q0 368 142 567t440 199l43 399h117l-43 -399q113 0 202 -32t144 -87.5t83.5 -128t28.5 -156.5q0 -180 -34 -319.5t-103.5 -240t-182 -153t-263.5 -53.5l-45 -426h-115l45 426q-113 1 -202 33t-144.5 87.5t-84 127.5t-28.5 156zM217 416q0 -52 6 -93.5t27.5 -89.5 t58 -80t102 -53.5t154.5 -21.5l103 969q-118 0 -206.5 -48.5t-141 -136t-78 -199t-25.5 -247.5zM680 76q95 0 171.5 32t128.5 88.5t86.5 136.5t50.5 173t16 201q0 51 -6.5 92t-28 87.5t-58 78.5t-102 54t-154.5 25z" />
<glyph unicode="&#x445;" horiz-adv-x="868" d="M-72 0l441 602l-224 516h123l176 -420l297 420h127l-381 -522l252 -596h-125l-200 496l-357 -496h-129z" />
<glyph unicode="&#x446;" horiz-adv-x="1153" d="M168 297l88 821h115l-86 -776q-20 -154 -2 -211t100 -57q21 0 44 5.5t43 12.5t45.5 21.5t42.5 24.5t43.5 30.5t39.5 30.5t38.5 33.5t33.5 30.5t32 30t25 24l86 801h115l-94 -880q-9 -55 -4 -84.5t26.5 -39.5t79.5 -12h74l-41 -383h-115l29 281q-66 0 -106 17t-52.5 44.5 t-15 64t5.5 75.5q-34 -35 -56.5 -56.5t-66.5 -57.5t-82 -56.5t-89.5 -37t-101.5 -16.5q-128 0 -170 76t-24 244z" />
<glyph unicode="&#x447;" horiz-adv-x="1003" d="M136 550.5q0 75.5 11 188.5l39 379h115l-37 -352q-17 -153 -13 -189q5 -54 48 -67q21 -6 57 -6q80 0 353 198l41 416h112l-114 -1118h-113l61 588q-212 -189 -385 -189q-94 0 -134.5 38t-40.5 113.5z" />
<glyph unicode="&#x448;" horiz-adv-x="1597" d="M163.5 123.5q0.5 75.5 16.5 187.5l121 807h113l-117 -780q-1 -12 -4 -35q-12 -87 -12 -137.5t20.5 -70t75.5 -19.5q21 0 46.5 8t55 26.5t52.5 33.5t56 42.5t48 40.5t46.5 41.5t33.5 30.5l110 819h115l-109 -780q-17 -155 -15 -187q3 -53 42 -65q19 -6 51 -6q15 0 34 6 t41 18.5t42.5 25t47 32.5t44.5 34t44 36.5t37.5 32.5t33 29.5t22.5 20.5l86 803h115l-117 -1118h-116l20 199q-12 -11 -51 -49.5t-67.5 -62.5t-70.5 -54.5t-85 -46t-86 -15.5q-60 0 -97.5 12.5t-56.5 41t-24.5 64t-2.5 89.5q-6 -5 -41.5 -38t-52.5 -48t-54.5 -43 t-65.5 -41.5t-66 -25t-74 -11.5q-99 0 -142 38.5t-42.5 114z" />
<glyph unicode="&#x449;" horiz-adv-x="1640" d="M163.5 123.5q0.5 75.5 16.5 187.5l121 807h113l-117 -780q-1 -12 -4 -35q-12 -87 -12 -137.5t20.5 -70t75.5 -19.5q21 0 46.5 8t55 26.5t52.5 33.5t56 42.5t48 40.5t46.5 41.5t33.5 30.5l110 819h115l-109 -780q-17 -155 -15 -187q3 -53 42 -65q19 -6 51 -6q15 0 34 6 t41 18.5t42.5 25t47 32.5t44.5 34t44 36.5t37.5 32.5t33 29.5t22.5 20.5l86 803h115l-92 -880q-2 -43 -4.5 -69.5t10.5 -41t35 -19.5t68 -6h67l-41 -383h-115l29 281q-66 0 -106 16.5t-53 44t-16 63.5t5 75q-12 -11 -51 -49.5t-67.5 -62.5t-70.5 -54.5t-85 -46t-86 -15.5 q-60 0 -97.5 12.5t-56.5 41t-24.5 64t-2.5 89.5q-6 -5 -41.5 -38t-52.5 -48t-54.5 -43t-65.5 -41.5t-66 -25t-74 -11.5q-99 0 -142 38.5t-42.5 114z" />
<glyph unicode="&#x44a;" horiz-adv-x="995" d="M68 1014l10 104h553l26 -61q-219 -243 -290 -451q92 75 174.5 119.5t167.5 44.5q194 0 194 -235q0 -122 -38.5 -227t-102 -174.5t-144.5 -108.5t-167 -39q-52 0 -97 14t-84.5 45t-62.5 88.5t-23 136.5q0 192 73.5 366.5t219.5 377.5h-409zM303 268q0 -180 162 -180 q59 0 114.5 28t102 81t74.5 141.5t28 198.5q0 129 -104 129q-74 0 -169 -52.5t-173 -119.5q-35 -106 -35 -226z" />
<glyph unicode="&#x44b;" horiz-adv-x="1337" d="M123 37l168 1081h112l-73 -512q51 37 68.5 50t62 41.5t71 40t65.5 22t75 10.5q194 0 194 -235q0 -123 -39 -227t-104 -174t-150.5 -109t-179.5 -39q-135 0 -270 51zM254 117q62 -29 154 -29q66 0 126 27.5t108.5 81t77 141.5t28.5 199q0 129 -105 129q-39 0 -80.5 -14 t-93.5 -47t-76.5 -50.5t-81.5 -60.5zM965 0l116 1118h115l-117 -1118h-114z" />
<glyph unicode="&#x44c;" horiz-adv-x="958" d="M123 37l168 1081h112l-73 -512q51 37 68.5 50t62 41.5t71 40t65.5 22t75 10.5q194 0 194 -235q0 -123 -39 -227t-104 -174t-150.5 -109t-179.5 -39q-135 0 -270 51zM254 117q62 -29 154 -29q66 0 126 27.5t108.5 81t77 141.5t28.5 199q0 129 -105 129q-39 0 -80.5 -14 t-93.5 -47t-76.5 -50.5t-81.5 -60.5z" />
<glyph unicode="&#x44d;" horiz-adv-x="862" d="M0 66l49 88q110 -76 221 -76q123 0 222 120.5t137 315.5h-363l10 104h369q6 58 6 121q0 162 -39 235t-143 73q-56 0 -135 -23t-137 -53l-41 71q162 105 338 105q64 0 114 -22t80 -57.5t49 -85.5t26 -99.5t7 -106.5q0 -116 -17.5 -226.5t-58.5 -216t-101.5 -184 t-152 -126.5t-204.5 -48q-62 0 -128 26t-108 65z" />
<glyph unicode="&#x44e;" horiz-adv-x="1466" d="M141 0l121 1118h115l-55 -504l241 21q52 242 189 377t325 135q73 0 131.5 -33t93.5 -87t53.5 -118.5t18.5 -132.5q0 -116 -17.5 -226.5t-58.5 -216t-101.5 -184t-152 -126.5t-204.5 -48q-140 0 -221.5 111.5t-81.5 271.5q0 95 8 166l-236 -20l-53 -504h-115zM657 395 q0 -47 3.5 -84.5t16.5 -83.5t35.5 -76.5t63.5 -51.5t98 -21q103 0 190.5 86t139 238t51.5 337q0 159 -51 233.5t-172 74.5q-101 0 -187.5 -88.5t-137 -239t-50.5 -324.5z" />
<glyph unicode="&#x44f;" horiz-adv-x="999" d="M16 27l410 434q-29 6 -61 19t-67.5 36.5t-63.5 54t-46 76t-18 96.5q0 28 3.5 57.5t15 69.5t30 75.5t53 71.5t79 62t112 42t149.5 16q53 0 127 -11t119 -28l-113 -1098h-114l108 1018q-74 16 -149 16q-89 0 -156 -27t-110 -91.5t-43 -161.5q0 -39 14 -72.5t33.5 -56.5 t52 -42.5t58.5 -30.5t64 -21.5t57 -14t48 -8.5l-481 -543z" />
<glyph unicode="&#x450;" horiz-adv-x="886" d="M94 389q0 157 34 294t98 241t163.5 164.5t222.5 60.5q129 0 193.5 -68.5t64.5 -175.5q0 -180 -270 -282l-385 -148q-2 -20 -2 -63q0 -163 33 -245.5t106 -82.5q133 0 355 111l41 -93q-131 -68 -194 -90q-107 -37 -216 -37q-67 0 -116 33.5t-76 93t-39.5 130.5t-12.5 157z M225 586l344 137q87 35 137 81t50 97q0 75 -43 109t-107 34q-73 0 -133.5 -28t-100.5 -71.5t-70.5 -106t-48 -122.5t-28.5 -130zM336 1518l70 92l331 -264l-57 -78z" />
<glyph unicode="&#x451;" horiz-adv-x="886" d="M94 389q0 157 34 294t98 241t163.5 164.5t222.5 60.5q129 0 193.5 -68.5t64.5 -175.5q0 -180 -270 -282l-385 -148q-2 -20 -2 -63q0 -163 33 -245.5t106 -82.5q133 0 355 111l41 -93q-131 -68 -194 -90q-107 -37 -216 -37q-67 0 -116 33.5t-76 93t-39.5 130.5t-12.5 157z M225 586l344 137q87 35 137 81t50 97q0 75 -43 109t-107 34q-73 0 -133.5 -28t-100.5 -71.5t-70.5 -106t-48 -122.5t-28.5 -130zM330 1464l108 99l88 -99l-108 -96zM715 1464l106 99l88 -99l-108 -96z" />
<glyph unicode="&#x452;" horiz-adv-x="1079" d="M82 1190l8 102h189l26 254h115l-27 -254h391l-10 -102h-393l-47 -451q1 1 37.5 32.5t51.5 43t54 41.5t66 44.5t64.5 33.5t73 27t69.5 8q106 0 150 -80t44 -240q0 -156 -33.5 -317t-91.5 -302t-126 -261t-146 -220l-90 76q145 162 257.5 448t112.5 550q0 138 -24.5 189.5 t-95.5 51.5q-32 0 -93 -33.5t-112.5 -70.5t-111.5 -83.5t-68 -51.5l-66 -625h-115l125 1190h-184z" />
<glyph unicode="&#x453;" horiz-adv-x="851" d="M78 217q0 37 10.5 73t24 63.5t42.5 59.5t49 52t61.5 51t62 45.5t67.5 46.5q43 29 60.5 41.5t54 39t53 42t41.5 40.5t35.5 44t19.5 43.5t9 48.5q0 131 -150 131q-24 0 -47 -3t-48.5 -13t-40.5 -15t-44.5 -23t-36.5 -22.5t-41.5 -28t-36.5 -24.5l-53 82q69 60 166 103 t209 43q104 0 167.5 -56.5t63.5 -171.5q0 -58 -20.5 -107.5t-71.5 -99.5t-84 -75.5t-110 -80.5q-26 -19 -39 -28q-67 -48 -101.5 -74.5t-78.5 -67t-63.5 -76.5t-19.5 -73q0 -44 12 -73t35.5 -43t49 -19.5t59.5 -5.5q119 0 348 166l58 -80q-87 -75 -202 -132.5t-216 -57.5 q-113 0 -183.5 62.5t-70.5 172.5zM410 1350l356 280l70 -94l-371 -262z" />
<glyph unicode="&#x454;" horiz-adv-x="897" d="M96 375q0 159 36.5 299.5t103.5 245.5t168.5 166t224.5 61q80 0 144 -29.5t106 -73.5l-72 -69q-85 72 -191 72q-80 0 -144.5 -34t-108.5 -94t-72.5 -129t-46.5 -151h434l-10 -102h-441q-8 -65 -8 -138q0 -146 37.5 -230.5t87.5 -84.5q158 0 389 123l43 -86 q-56 -33 -91.5 -52t-94.5 -44.5t-121 -37.5t-129 -12q-69 0 -119.5 40.5t-76 105.5t-37 128.5t-11.5 125.5z" />
<glyph unicode="&#x455;" horiz-adv-x="866" d="M59 29l35 106q135 -49 258 -49q29 0 60.5 3.5t71.5 15.5t70.5 31t51.5 54t21 80q0 50 -24 94.5t-62 79.5t-84.5 69t-93 69.5t-84.5 74t-62 90t-24 109.5q0 63 19.5 112.5t52 80.5t78.5 51.5t95.5 28.5t106.5 8q69 0 144.5 -17.5t125.5 -42.5l-39 -92q-60 20 -90 28.5 t-77 16.5t-95 8q-213 0 -213 -159q0 -57 32.5 -107.5t80.5 -86.5t105 -79.5t105 -85t80.5 -104.5t32.5 -137q0 -63 -23 -114t-61.5 -84.5t-90 -56t-106 -32.5t-112.5 -10q-180 0 -285 47z" />
<glyph unicode="&#x456;" d="M143 0l117 1118h115l-117 -1118h-115zM236 1466l124 107l105 -107l-129 -108z" />
<glyph unicode="&#x457;" d="M61 1464l109 99l88 -99l-108 -96zM143 0l117 1118h115l-117 -1118h-115zM446 1464l107 99l88 -99l-109 -96z" />
<glyph unicode="&#x458;" d="M-258 -430l27 104q67 -20 122 -20q68 0 114.5 21.5t72.5 66t38.5 93.5t20.5 122l123 1161h115l-123 -1163q-12 -114 -45 -194.5t-85 -126t-113.5 -65.5t-139.5 -20q-71 0 -127 21zM236 1466l124 107l105 -107l-129 -108z" />
<glyph unicode="&#x459;" horiz-adv-x="1318" d="M16 0v23q0 157 99 360l358 735h186l37 -530q71 55 119.5 88t119 63.5t128.5 30.5q194 0 194 -235q0 -123 -39 -227t-104 -174t-150.5 -109t-179.5 -39q-74 0 -174 20l-49 1026h-26l-310 -657q-96 -205 -96 -352v-23h-113zM702 494l29 -404q18 -2 68 -2q66 0 126 27.5 t108.5 81t77 141.5t28.5 199q0 129 -105 129q-39 0 -80.5 -14t-93.5 -47t-76.5 -50.5t-81.5 -60.5z" />
<glyph unicode="&#x45a;" horiz-adv-x="1556" d="M141 0l121 1118h115l-55 -504l489 39l51 465h115l-55 -516q61 45 87.5 63.5t78 49t94.5 43t88 12.5q194 0 194 -235q0 -123 -39 -227t-104 -174t-150.5 -109t-179.5 -39q-142 0 -246 43l54 514l-490 -39l-53 -504h-115zM868 109q54 -21 138 -21q66 0 126 27.5t108.5 81 t77 141.5t28.5 199q0 129 -105 129q-39 0 -80.5 -14t-93.5 -47t-76.5 -50.5t-81.5 -60.5z" />
<glyph unicode="&#x45b;" horiz-adv-x="1114" d="M82 1190l8 102h189l26 254h115l-27 -254h391l-10 -102h-393l-47 -451q1 1 37.5 32.5t51.5 43t54 41.5t66 44.5t64.5 33.5t73 27t69.5 8q100 0 143 -38t43 -113.5t-12 -188.5l-68 -629h-115l66 602q17 151 13 187q-6 54 -50 68q-23 7 -63 7q-32 0 -93 -33.5t-112.5 -70.5 t-111.5 -83.5t-68 -51.5l-66 -625h-115l125 1190h-184z" />
<glyph unicode="&#x45c;" horiz-adv-x="993" d="M141 0l117 1118h117l-119 -1118h-115zM385 590l436 528h146l-443 -528l381 -563l-108 -62zM475 1350l356 280l70 -94l-371 -262z" />
<glyph unicode="&#x45d;" horiz-adv-x="1112" d="M168 297l88 821h115l-86 -776q-20 -154 -2 -211t100 -57q21 0 44 5.5t43 12.5t45.5 21.5t42.5 24.5t43.5 30.5t39.5 30.5t38.5 33.5t33.5 30.5t32 30t25 24l86 801h115l-119 -1118h-115l21 201q-34 -35 -56.5 -56.5t-66.5 -57.5t-82 -56.5t-89.5 -37t-101.5 -16.5 q-128 0 -170 76t-24 244zM352 1518l70 92l332 -264l-58 -78z" />
<glyph unicode="&#x45e;" horiz-adv-x="935" d="M98 1118h127l158 -1059l328 684q41 86 68.5 187t27.5 164q0 4 -1 12t-1 12h117v-24q0 -72 -27 -170t-70 -189l-563 -1186h-119l217 451h-84zM276 1532l93 63q93 -135 143 -135q64 0 148.5 38t162.5 101l47 -61q-93 -81 -196.5 -132.5t-190.5 -51.5q-94 0 -207 178z" />
<glyph unicode="&#x45f;" horiz-adv-x="1112" d="M168 297l88 821h115l-86 -776q-20 -154 -2 -211t100 -57q21 0 44 5.5t43 12.5t45.5 21.5t42.5 24.5t43.5 30.5t39.5 30.5t38.5 33.5t33.5 30.5t32 30t25 24l86 801h115l-119 -1118h-115l21 201q-34 -35 -56.5 -56.5t-66.5 -57.5t-82 -56.5t-89.5 -37t-101.5 -16.5 q-128 0 -170 76t-24 244zM492 -451l69 373h94l-39 -373h-124z" />
<glyph unicode="&#x462;" horiz-adv-x="1255" d="M-18 1110l12 107h405l25 231h121l-25 -231h471l-10 -105h-471l-107 -1012h295q176 0 278.5 95.5t102.5 242.5q0 150 -98.5 213.5t-282.5 63.5h-141l12 106h144q256 0 374.5 -94t118.5 -285q0 -196 -133.5 -319t-339.5 -123h-461l115 1110h-405z" />
<glyph unicode="&#x463;" horiz-adv-x="958" d="M-18 1012l12 106h297l51 332h113l-49 -332h362l-12 -106h-367l-59 -406q51 37 68.5 50t62 41.5t71 40t65.5 22t75 10.5q194 0 194 -235q0 -123 -39 -227t-104 -174t-150.5 -109t-179.5 -39q-135 0 -270 51l151 975h-292zM254 117q62 -29 154 -29q66 0 126 27.5t108.5 81 t77 141.5t28.5 199q0 129 -105 129q-39 0 -80.5 -14t-93.5 -47t-76.5 -50.5t-81.5 -60.5z" />
<glyph unicode="&#x472;" horiz-adv-x="1595" d="M106 635q0 179 53.5 332.5t152 265t246.5 174.5t329 63q193 0 331 -83.5t205.5 -230.5t67.5 -343q0 -181 -54 -334.5t-154 -265t-249 -174t-332 -62.5q-192 0 -328 83.5t-202 230t-66 344.5zM231 639q0 -121 30 -221t89 -176t154 -118t217 -42q136 0 249 45.5t190.5 126 t126 188t65.5 236.5h-1121v-39zM242 782h1120v33q0 122 -31 221.5t-91.5 172.5t-155.5 113t-216 40q-133 0 -243.5 -44t-188 -122.5t-127 -183.5t-67.5 -230z" />
<glyph unicode="&#x473;" horiz-adv-x="1026" d="M96 358q0 361 151 575t390 214q73 0 131.5 -33t93.5 -87t53.5 -118.5t18.5 -132.5q0 -116 -18 -226.5t-59 -216t-101 -184t-152 -126.5t-205 -48q-140 0 -221.5 111.5t-81.5 271.5zM217 395q0 -47 3.5 -84.5t16.5 -83.5t35.5 -76.5t63.5 -51.5t98 -21q122 0 220.5 119.5 t138.5 314.5h-570q-6 -58 -6 -117zM238 610h569q8 82 8 129q0 159 -51 233.5t-172 74.5q-120 0 -217 -122.5t-137 -314.5z" />
<glyph unicode="&#x474;" horiz-adv-x="1282" d="M94 1448h127l324 -1370l508 983q94 184 168 280.5t143 139.5l84 -70q-132 -79 -262 -336l-559 -1075h-178z" />
<glyph unicode="&#x475;" horiz-adv-x="935" d="M98 1118h127l162 -1057l336 707q66 134 141.5 234t139.5 141l75 -68q-143 -92 -280 -389l-328 -686h-180z" />
<glyph unicode="&#x490;" horiz-adv-x="1058" d="M154 0l153 1448h670l33 330h123l-43 -439h-672l-142 -1339h-122z" />
<glyph unicode="&#x491;" horiz-adv-x="874" d="M141 0l121 1118h455l24 234h115l-35 -334h-454l-111 -1018h-115z" />
<glyph unicode="&#x4d8;" horiz-adv-x="1525" d="M115 592q0 38 16 190h1178q7 127 -19.5 232t-84.5 184t-155.5 122.5t-226.5 43.5q-238 0 -542 -141l-23 96q306 149 596 149q149 0 261 -46t180.5 -130t102.5 -195.5t34 -248.5q0 -182 -48.5 -339.5t-141 -277t-237.5 -188t-327 -68.5q-142 0 -250.5 44.5t-176.5 127 t-102 194.5t-34 251zM236 612q0 -91 15 -168.5t49.5 -145.5t86.5 -115.5t130.5 -75t178.5 -27.5q140 0 248.5 45t179 127.5t112.5 187.5t60 238h-1058q-2 -23 -2 -66z" />
<glyph unicode="&#x4d9;" horiz-adv-x="886" d="M16 219q0 181 271 283l385 147q2 20 2 64q0 163 -33 245t-106 82q-135 0 -355 -110l-41 92q131 68 194 90q107 37 216 37q67 0 116 -33.5t76 -93t39.5 -130.5t12.5 -157q0 -156 -34.5 -293.5t-98.5 -241.5t-163.5 -164.5t-222.5 -60.5q-129 0 -193.5 68.5t-64.5 175.5z M131 223q0 -75 43 -109t107 -34q73 0 133.5 28t100.5 71.5t70.5 106.5t48 123t28.5 130l-345 -138q-87 -35 -136.5 -81t-49.5 -97z" />
<glyph unicode="&#x2000;" horiz-adv-x="893" />
<glyph unicode="&#x2001;" horiz-adv-x="1786" />
<glyph unicode="&#x2002;" horiz-adv-x="893" />
<glyph unicode="&#x2003;" horiz-adv-x="1786" />
<glyph unicode="&#x2004;" horiz-adv-x="595" />
<glyph unicode="&#x2005;" horiz-adv-x="446" />
<glyph unicode="&#x2006;" horiz-adv-x="297" />
<glyph unicode="&#x2007;" horiz-adv-x="297" />
<glyph unicode="&#x2008;" horiz-adv-x="223" />
<glyph unicode="&#x2009;" horiz-adv-x="357" />
<glyph unicode="&#x200a;" horiz-adv-x="99" />
<glyph unicode="&#x2010;" horiz-adv-x="733" d="M37 535l12 110h610l-12 -110h-610z" />
<glyph unicode="&#x2011;" horiz-adv-x="733" d="M37 535l12 110h610l-12 -110h-610z" />
<glyph unicode="&#x2012;" horiz-adv-x="733" d="M37 535l12 110h610l-12 -110h-610z" />
<glyph unicode="&#x2013;" horiz-adv-x="1024" d="M55 535l11 110h901l-11 -110h-901z" />
<glyph unicode="&#x2014;" horiz-adv-x="1658" d="M57 535l9 110h1536l-11 -110h-1534z" />
<glyph unicode="&#x2018;" horiz-adv-x="307" d="M86 1171q1 41 5.5 78.5t14.5 72.5t16.5 58.5t22.5 56.5t22 45.5t24.5 46t21.5 38.5h96q-39 -95 -62 -204t-28 -192h-133z" />
<glyph unicode="&#x2019;" horiz-adv-x="307" d="M100 1171q39 95 62 204t28 192h134q-1 -41 -5.5 -78.5t-14.5 -72.5t-16.5 -58.5t-22.5 -56.5t-22 -45.5t-24.5 -46t-21.5 -38.5h-97z" />
<glyph unicode="&#x201a;" horiz-adv-x="569" d="M63 -248q40 98 64 206.5t27 186.5h135q-1 -36 -5.5 -70.5t-9.5 -60.5t-15.5 -57.5t-16.5 -48.5t-20.5 -46t-19.5 -38.5t-21.5 -38.5t-18.5 -33h-99z" />
<glyph unicode="&#x201c;" horiz-adv-x="573" d="M72 1171q1 41 5.5 78.5t14.5 72.5t16.5 58.5t22.5 56.5t22 45.5t24.5 46t21.5 38.5h96q-39 -95 -62 -204t-28 -192h-133zM360 1171q2 41 6.5 78.5t14.5 72.5t17 59t23 56.5t22 45t24.5 45.5t21.5 39h97q-40 -97 -63.5 -207t-26.5 -189h-136z" />
<glyph unicode="&#x201d;" horiz-adv-x="573" d="M72 1171q40 97 63.5 207t26.5 189h135q-2 -41 -6.5 -78.5t-14.5 -72.5t-17 -59t-23 -56.5t-22 -45t-24.5 -45.5t-21.5 -39h-96zM362 1171q39 96 62.5 205t28.5 191h133q-1 -41 -5.5 -78.5t-14.5 -72.5t-16.5 -58.5t-22.5 -56.5t-22 -45.5t-24.5 -46t-21.5 -38.5h-97z" />
<glyph unicode="&#x201e;" horiz-adv-x="555" d="M-20 -248q41 96 64 204t26 189h135q-1 -36 -5.5 -70.5t-9.5 -60.5t-15.5 -57.5t-16.5 -48.5t-20.5 -46t-19.5 -38.5t-21.5 -38.5t-18.5 -33h-98zM276 -248q39 96 62.5 204t28.5 189h133q-1 -36 -5.5 -70.5t-9.5 -60.5t-15.5 -57.5t-16.5 -48.5t-20.5 -46t-19.5 -38.5 t-21.5 -38.5t-18.5 -33h-97z" />
<glyph unicode="&#x2026;" horiz-adv-x="1431" d="M242 0l16 156h145l-16 -156h-145zM635 0l16 156h146l-17 -156h-145zM1053 0l16 156h145l-16 -156h-145z" />
<glyph unicode="&#x202f;" horiz-adv-x="357" />
<glyph unicode="&#x2039;" horiz-adv-x="528" d="M117 557l256 447l90 -35l-219 -412l131 -405l-96 -41z" />
<glyph unicode="&#x203a;" horiz-adv-x="528" d="M61 152l218 405l-132 412l99 37l160 -449l-254 -446z" />
<glyph unicode="&#x205f;" horiz-adv-x="446" />
<glyph unicode="&#x20ac;" horiz-adv-x="1148" d="M-4 360l10 105h113v22q-3 83 24 179h-114l10 104h139q75 179 228.5 274t351.5 95q165 0 325 -62l-47 -102q-157 55 -286 55q-148 0 -267 -66t-182 -194h547l-10 -104h-574q-22 -93 -22 -185v-16h573l-10 -105h-547q38 -142 152.5 -210t271.5 -68q125 0 274 49l23 -98 q-129 -56 -338 -56q-197 0 -336 98t-176 285h-133z" />
<glyph unicode="&#x2122;" horiz-adv-x="1677" d="M82 1360l10 88h586l-10 -88h-244l-68 -637h-96l68 637h-246zM602 723l139 725h111l166 -649l334 649h104l-16 -725h-101l19 557l-283 -557h-129l-147 563l-103 -563h-94z" />
<glyph unicode="&#x25fc;" horiz-adv-x="1116" d="M0 0v1116h1116v-1116h-1116z" />
</font>
</defs>
</svg>
