<?xml version="1.0" encoding="UTF-8"?>
<!DOCTYPE svg PUBLIC "-//W3C//DTD SVG 1.1//EN" "http://www.w3.org/Graphics/SVG/1.1/DTD/svg11.dtd">
<!-- Creator: CorelDRAW 2019 (64-Bit) -->
<svg xmlns="http://www.w3.org/2000/svg" xml:space="preserve" width="89" height="170" version="1.1" style="shape-rendering:geometricPrecision; text-rendering:geometricPrecision; image-rendering:optimizeQuality; fill-rule:evenodd; clip-rule:evenodd"
viewBox="0 0 1288.67 1578.11"
 xmlns:xlink="http://www.w3.org/1999/xlink"
 xmlns:xodm="http://www.corel.com/coreldraw/odm/2003">
 <defs>
  <style type="text/css">
   <![CDATA[
    .fil0 {fill:#fff}
    .fil1 {fill:#fff;fill-rule:nonzero}
   ]]>
  </style>
 </defs>
 <g id="Слой_x0020_1">
  <metadata id="CorelCorpID_0Corel-Layer"/>
  <g id="_1969118751904">
   <path class="fil0" d="M276.23 0l300.15 0c29.42,3.12 52.29,15.96 70.61,35.51 16.62,-20.24 40.71,-31.49 70.81,-35.51l299.96 0 0 722.7 -296.95 0c-29.71,3.94 -53.9,19.9 -73.82,45.19 -20.74,-26.08 -44.99,-41.2 -72.8,-45.19l-297.97 0 0 -722.7zm157.75 308.92c-6.24,-3.11 -21.56,-10.53 -59.18,-28.19 -19.39,5.97 -38.78,11.93 -48.97,15.03 -2.76,0.84 -5.85,1.27 -9.18,1.27 -4.77,0 -9.78,-0.87 -14.61,-2.16l0 58.42 142.42 0c-1.83,-8.3 -6.7,-30.09 -10.48,-44.37zm459.52 -94.59c-8.81,-13.15 -20.79,-23.11 -32.4,-32.75 -12.85,-10.68 -26.05,-21.65 -33.91,-36.64 -7.86,14.99 -21.06,25.96 -33.91,36.64 -11.59,9.64 -23.59,19.6 -32.39,32.75 -17.99,26.85 -8.91,49.77 -2.53,60.39l137.64 0c6.39,-10.62 15.47,-33.54 -2.51,-60.39zm-77.31 123.86l0 15.09 22.02 0 0 -15.09c0,-6.07 -4.94,-11.02 -11.01,-11.02 -6.07,0 -11.01,4.94 -11.01,11.02zm132.97 144.14l0 113.45 -51.88 0 0 -113.45c0,-26.02 -19.35,-47.18 -43.11,-47.18 -23.77,0 -43.11,21.16 -43.11,47.18l0 113.45 -51.89 0 0 -113.45c0,-26.02 -19.34,-47.18 -43.11,-47.18 -23.76,0 -43.1,21.16 -43.1,47.18l0 113.45 -51.89 0 0 -113.45c0,-26.02 -19.34,-47.18 -43.11,-47.18 -23.77,0 -43.11,21.16 -43.11,47.18l0 113.45 -51.89 0 0 -113.45c0,-10.51 -3.19,-20.21 -8.52,-28.06l-0.11 0.06c-8.09,-11.99 -21.03,-19.13 -34.59,-19.17 -23.72,0.08 -42.99,21.2 -42.99,47.17l0 106.93 -0.24 0 0 6.52 -51.66 0 0 -113.45c0,-25.91 -19.17,-46.98 -42.8,-47.16l0 188.93 1.45 -1.59 4.79 4.36c0.27,0.24 27.45,24.46 64.25,24.46 36.99,0 63.99,-24.21 64.26,-24.46l4.36 -3.98 4.38 3.98c0.26,0.24 27.45,24.46 64.25,24.46 36.99,0 63.98,-24.21 64.25,-24.46l4.37 -3.98 4.37 3.98c0.27,0.24 27.45,24.46 64.26,24.46 36.79,0 63.99,-24.21 64.25,-24.47l4.37 -3.95 4.36 3.95c0.27,0.24 27.45,24.46 64.26,24.46 36.81,0 63.98,-24.21 64.26,-24.47l4.37 -3.95 4.36 3.95c0.27,0.24 27.45,24.46 64.25,24.46 36.99,0 63.98,-24.21 64.26,-24.46l4.79 -4.36 1.45 1.59 0 -188.93c-23.63,0.18 -42.81,21.25 -42.81,47.16zm-647.12 -60.21c30.84,0.18 55.85,27.11 55.85,60.21l0 100.41 25.57 0 0 -100.41c0,-33.21 25.19,-60.22 56.15,-60.22 0.05,0 0.11,0 0.16,0 0.02,0 0.05,0 0.09,0 0.11,0 0.21,0.01 0.33,0.01 1.42,0.01 2.82,0.11 4.21,0.23 1.01,0.09 2.01,0.22 3.01,0.36 0.75,0.12 1.51,0.22 2.25,0.38 26.29,4.99 46.35,29.63 46.35,59.24l0 100.41 25.79 0 0 -100.41c0,-33.21 25.18,-60.22 56.15,-60.22 30.98,0 56.16,27.02 56.16,60.22l0 100.41 25.79 0 0 -100.41c0,-33.21 25.2,-60.22 56.15,-60.22 30.97,0 56.17,27.02 56.17,60.22l0 100.41 25.79 0 0 -100.41c0,-33.21 25.18,-60.22 56.15,-60.22 30.97,0 56.16,27.02 56.16,60.22l0 100.41 25.78 0 0 -100.41c0,-33.1 25.03,-60.03 55.86,-60.21l0 -42.9 -689.93 0 0 42.9zm550.81 217.92c-9.85,7.54 -35.43,24.26 -68.62,24.26 -33.19,0 -58.76,-16.71 -68.63,-24.26 -9.85,7.54 -35.43,24.26 -68.6,24.26 -33.18,0 -58.77,-16.71 -68.62,-24.26 -9.86,7.54 -35.43,24.26 -68.62,24.26 -33.18,0 -58.77,-16.71 -68.61,-24.26 -9.86,7.54 -35.44,24.26 -68.63,24.26 -35.68,0 -62.49,-19.27 -70.49,-25.74l0 62.08 264.92 0c31.25,0 60.43,14.01 80.04,37.54 19.6,-23.53 48.79,-37.54 80.03,-37.54l264.93 0 0 -62.08c-8.01,6.48 -34.82,25.74 -70.5,25.74 -33.19,0 -58.76,-16.71 -68.61,-24.26zm-386.32 -452.75c10,-20.54 9.16,-35.56 8.43,-48.81 -0.48,-8.59 -0.93,-16.68 1.55,-24.85 5.43,-17.84 18.14,-28.5 34,-28.5l0.41 0c7.71,0.1 23.64,0.3 31.87,15.62 1.99,0.44 4.34,0.99 6.73,1.68 8.88,2.5 18.3,6.31 20.74,15.49 1.85,6.89 -0.99,13.83 -7.2,17.65 -2.73,1.66 -5.59,2.52 -8.62,3.42 -2.92,0.88 -5.93,1.77 -8.35,3.32 -0.31,0.41 -0.65,1.48 -0.78,2.34 1.6,6.79 6.03,16 10.69,25.72 9.42,19.6 20.09,41.81 17.99,63.79 -1.41,14.8 -5.31,26.83 -12.66,39.02l-0.05 0.1 -0.06 0.11c-15,23.89 -43.54,33.9 -66.98,38.02 -3.43,12.6 -7.98,33.76 -9.72,41.91l149.51 0 0 -285.49c-14.15,-23.57 -39.54,-38.1 -67.07,-38.1l-264.92 0 0 202.32 73.97 -8.45c38.78,-7.14 82.77,-20.38 90.52,-36.28zm-76.49 46.75c36.03,16.78 77.16,30.5 100.8,25.85 20.99,-4.12 33.5,-15.92 32.7,-30.79 -0.83,-15.58 -16.59,-32.6 -45.2,-36.47 -0.05,0.12 -0.1,0.22 -0.15,0.33 -10.15,20.85 -53.09,33.79 -88.15,41.08zm-67.97 49.31c11.02,-3.34 32.82,-10.06 53.71,-16.5 30.87,14.5 70.81,33.38 69.32,33.38l-0.05 0c4.53,15.79 11.64,48.19 12.71,53.06l13.53 0c1.03,-4.92 7.22,-34.26 11.3,-48.36 0.45,-1.38 0.81,-4.89 3.58,-5.39 21.82,-3.05 50.54,-11.48 64.07,-33.05 6.09,-10.12 9.58,-20.24 10.85,-33.57 2.83,-29.63 -24.32,-64.43 -28.72,-86.89 -0.28,-1.59 0.29,-10.45 6.52,-14.51 9.3,-6.07 20.26,-5 18.87,-10.27 -1.41,-5.26 -22.42,-8.75 -22.42,-8.75 -2.39,-1.48 -3.05,-3.98 -3.76,-5.21 -4.32,-8.5 -12.58,-9.09 -20.82,-9.19l-0.26 0c-8.17,0 -17.17,4.82 -21.58,19.31 -4.49,14.75 4.37,33.73 -5.52,62.95 26.49,4.81 51.67,21.77 53.09,48.05 0.93,17.1 -9.93,37.69 -43.15,44.22 -4.08,0.8 -8.47,1.17 -13.06,1.17 -37.18,0 -88.66,-23.96 -112.57,-36.22l-65.67 7.49 0 36.31c5.31,1.66 10.36,2.67 14.61,2.67 2,0 3.84,-0.22 5.41,-0.7zm571.09 69.93l0 -65.6 -131.91 0 0 65.6 41.98 0 0 -15.09c0,-13.23 10.75,-23.98 23.98,-23.98 13.21,0 23.98,10.75 23.98,23.98l0 15.09 41.97 0zm-166.12 -323.58c-27.53,0 -52.92,14.53 -67.07,38.1l0 285.48 88.3 0 0 -70.29c-7.96,-12.52 -21,-41.79 1.86,-75.88 9.85,-14.71 22.57,-25.28 34.88,-35.5 15.78,-13.11 29.41,-24.44 34.43,-41.93 0.23,-1.3 0.49,-2.62 0.75,-4.01 0.11,-0.51 0.29,-1.01 0.52,-1.51l0 -30.64 -11.53 0 0 -12.96 11.53 0 0 -11.74 12.98 0 0 11.74 11.53 0 0 12.96 -11.53 0 0 30.61c0.23,0.49 0.41,0.99 0.51,1.47 0.28,1.46 0.52,2.79 0.78,4.08 5,17.49 18.64,28.81 34.42,41.93 12.31,10.23 25.04,20.79 34.89,35.5 22.83,34.09 9.8,63.35 1.84,75.87l0 70.3 85.84 0 0 -323.58 -264.92 0z"/>
   <g>
    <g>
     <path class="fil1" d="M300.09 963.04c-27.66,9.58 -58.53,14.89 -92.58,17.02l0 51.08 98.96 0 0 32.99 -29.79 -0 0 170.26 -34.05 0 0 -171.33 -35.12 0 0 30.86c-2.13,58.53 -14.9,104.28 -38.31,139.4l-24.48 -25.54c18.09,-27.66 28.73,-64.91 29.8,-112.8l0 -142.59c40.44,-1.06 76.61,-7.45 108.54,-19.16l17.03 29.79zm-144.72 222.4l-28.73 10.64c-5.32,-20.22 -10.64,-40.44 -18.09,-59.59l28.73 -7.45c7.45,21.28 13.83,39.37 18.09,56.4l0 0zm-88.32 -229.85c-4.26,-8.51 -8.51,-15.96 -12.77,-22.35l35.12 -6.39c4.26,8.51 7.45,18.09 11.71,28.73l59.59 0 0 31.92 -150.04 0 0 -31.92 56.4 0zm-26.6 74.49c-4.26,-10.64 -8.51,-21.28 -13.83,-29.8l29.8 -11.71c5.32,11.71 9.58,25.54 13.83,41.5l28.73 0c5.32,-13.83 9.58,-27.67 12.77,-41.5l30.86 10.64c-4.26,10.64 -7.45,21.28 -11.71,30.86l31.92 0 0 30.86 -59.59 0 0 26.6 54.27 0 0 30.86 -54.27 0 0 86.19c0,20.22 -11.71,30.86 -34.05,30.86l-17.03 0 -7.45 -31.92c5.32,1.06 9.58,2.13 13.83,2.13 7.45,0 10.64,-3.19 10.64,-9.58l0 -77.68 -57.47 0 0 -30.86 57.47 0 0 -26.6 -62.79 0 0 -30.86 34.05 0zm20.22 108.54c-7.45,32.99 -18.09,62.79 -31.92,87.26l-28.73 -18.09c13.83,-23.41 23.41,-48.95 29.8,-75.55l30.86 6.38z"/>
    </g>
    <g>
     <path class="fil1" d="M451.19 1152.45l20.22 0c6.39,-1.06 9.58,-5.32 10.64,-13.84 1.06,-8.51 2.13,-29.79 2.13,-62.78l-24.47 0c1.06,27.67 -2.13,53.21 -8.52,76.62l0 0zm-35.11 78.74l-24.48 -22.35c23.41,-32.99 36.18,-78.74 37.24,-137.27l0 -93.64 94.71 -0.01c-1.06,-14.89 -1.06,-29.79 -1.06,-45.76l31.92 0 1.06 45.76 35.12 0c-6.39,-14.89 -13.83,-27.66 -21.28,-38.31l24.48 -10.64c8.51,11.71 14.9,24.48 21.28,38.31l-22.35 9.58 32.99 0 0 30.86 -69.17 -0.01c2.13,38.31 5.32,68.11 8.51,89.39 0,2.13 1.06,4.26 1.06,6.39 9.58,-21.28 17.03,-44.69 22.35,-70.23l27.67 11.71c-9.58,40.44 -23.41,74.49 -39.37,102.16 2.13,8.51 5.32,14.89 8.51,20.22 7.45,14.9 11.71,21.28 14.9,21.28 2.13,0 5.32,-13.83 8.51,-42.56l28.73 15.96c-6.39,45.76 -17.03,68.11 -30.86,68.11 -11.71,0 -24.48,-9.58 -37.24,-29.8 -4.26,-6.39 -8.51,-14.9 -12.77,-23.41 -18.09,22.35 -37.24,39.37 -59.59,52.14l-20.22 -26.6c27.66,-13.83 50.01,-34.05 68.1,-60.65 -3.19,-10.64 -5.32,-21.28 -8.51,-32.99 -6.39,-26.6 -9.58,-60.66 -11.71,-102.16l-62.77 0 0 38.31 54.27 0c0,61.72 -3.19,98.97 -8.51,112.8 -5.32,12.77 -14.89,20.22 -28.73,20.22l-22.35 0 -7.45 -24.48c-6.38,30.86 -18.09,55.34 -32.98,77.68l0 0zm-58.53 -219.21l0 -79.81 32.99 0 0 79.81 25.54 0 0 31.92 -25.54 0 0 86.19c7.45,-4.26 14.9,-8.51 22.34,-12.77l0 32.99c-24.47,14.9 -50.01,26.6 -76.61,37.24l-8.51 -32.99c9.58,-2.13 20.22,-5.32 29.8,-9.58l0 -101.09 -25.54 0 0 -31.92 25.54 0z"/>
    </g>
    <path class="fil1" d="M909.83 972.61l-43.63 0 0 39.37 43.63 0 0 -39.37zm-76.61 0l-43.63 0 0 39.37 43.63 0 0 -39.37zm-77.68 0l-41.5 0 0 39.37 41.5 0 0 -39.37zm188.35 -28.73l0 98.96 -163.88 0 15.96 8.51c-3.19,7.45 -6.39,13.83 -10.64,20.22l137.27 0 0 27.66c-26.6,78.75 -106.41,124.51 -236.24,137.27l-15.96 -29.79c52.14,-4.26 94.71,-13.83 128.76,-28.73 -13.83,-10.64 -29.8,-22.35 -48.95,-32.99l23.41 -22.35c22.35,13.83 40.44,27.67 56.4,40.44 25.54,-15.96 44.69,-36.18 56.4,-58.53l-121.31 0.01c-21.28,25.54 -47.89,44.69 -77.68,56.4l-19.16 -28.73c42.56,-15.96 74.49,-44.69 95.77,-87.26l-83 0 0 -98.96 262.84 0 0 -2.13z"/>
    <g>
     <path class="fil1" d="M1285.47 961.97c-28.73,11.71 -60.66,19.16 -95.77,22.35l0 48.95 98.96 0 0 32.99 -30.86 -0 0 167.07 -34.05 0 0 -167.07 -34.05 -0 0 21.28c-2.13,60.65 -15.96,109.61 -41.5,146.85l-23.41 -25.54c21.28,-28.73 31.92,-69.17 34.05,-121.31l0 -130.89c41.5,-1.06 77.68,-8.51 110.67,-23.41l15.96 28.74zm-159.62 237.3l-25.54 18.09c-6.39,-12.77 -14.9,-27.67 -26.6,-42.56l24.48 -15.96c12.76,14.9 21.28,28.73 27.66,40.44l0 0zm-31.93 -100.03l-48.95 0 0 23.41 48.95 -0.01 0 -23.41zm0 -51.08l-48.95 0 0 22.35 48.95 0 0 -22.35zm-48.95 -28.73l48.95 0 0 -23.41 -48.95 0.01 0 23.41zm0 -87.26l0 32.99 48.95 0 0 -31.92 32.99 0 0 31.92 19.16 0 0 30.86 -19.16 0 0 127.69 17.03 0 0 31.92 -153.24 0 0 -31.92 20.22 0 0 -127.69 -18.09 0 0 -30.86 18.09 0 0 -32.99 34.05 0zm10.65 240.49c-11.71,23.41 -24.48,44.69 -40.44,61.72l-28.73 -20.22c15.96,-14.9 28.73,-32.99 40.44,-54.27l28.73 12.77z"/>
    </g>
    <path class="fil1" d="M636.35 1510l2.13 -14.9 19.16 0 0 -12.77 -29.79 0 -9.58 46.82c0,0 15.96,-5.32 18.09,-5.32 10.64,0 20.22,8.51 20.22,20.22 0,10.64 -8.51,20.22 -20.22,20.22 -5.32,0 -10.64,-2.13 -13.83,-5.32l-9.58 9.58c6.39,6.39 14.9,9.58 23.41,9.58 18.09,0 32.99,-14.9 32.99,-32.99 0,-20.22 -14.9,-35.12 -32.99,-35.12z"/>
    <g>
     <path class="fil1" d="M872.59 1537.67c-11.71,0 -22.35,-9.58 -22.35,-22.35 0,-11.71 9.58,-22.35 22.35,-22.35 11.71,0 22.35,9.58 22.35,22.35 0,4.26 -1.06,7.45 -3.19,11.71l-3.19 4.26c-4.26,3.19 -9.58,6.38 -15.96,6.38l0 0zm0 -57.46c-19.16,0 -35.12,15.96 -35.12,35.12 0,19.16 15.96,35.12 35.12,35.12 0,0 0,0 0,0l-14.9 19.15 10.64 7.45 29.79 -38.31c6.39,-6.39 9.58,-14.9 9.58,-24.48 0,-18.09 -15.96,-34.05 -35.11,-34.05z"/>
    </g>
    <g>
     <path class="fil1" d="M419.27 1563.21c-10.64,0 -20.22,-8.51 -20.22,-20.22 0,-10.64 8.51,-20.22 20.22,-20.22 2.13,0 3.19,0 5.32,1.06 8.51,2.13 13.84,10.64 13.84,19.16 1.06,10.64 -7.45,20.22 -19.16,20.22l0 0zm-11.71 -68.11l2.13 0 17.03 0 2.13 0 -4.26 14.9c-2.13,0 -3.19,0 -5.32,0 -3.19,0 -5.32,0 -7.45,1.06l-4.26 -15.96zm29.8 20.22l9.58 -32.99 -19.16 0 -17.03 0 -20.22 0 9.58 35.12c-7.45,6.39 -12.77,15.96 -12.77,26.6 0,18.09 14.9,32.99 32.99,32.99 18.09,0 32.99,-14.9 32.99,-32.99 -1.07,-12.77 -6.39,-23.41 -15.96,-28.73z"/>
    </g>
   </g>
  </g>
 </g>
</svg>
