<?xml version="1.0" standalone="no"?>
<!DOCTYPE svg PUBLIC "-//W3C//DTD SVG 1.1//EN" "http://www.w3.org/Graphics/SVG/1.1/DTD/svg11.dtd" >
<svg xmlns="http://www.w3.org/2000/svg" xmlns:xlink="http://www.w3.org/1999/xlink" version="1.1">
<metadata></metadata>
<defs>
<font id="russian_land_cyrillicregular" horiz-adv-x="630" >
<font-face units-per-em="2048" ascent="1536" descent="-512" />
<missing-glyph horiz-adv-x="530" />
<glyph unicode="&#xd;" horiz-adv-x="530" />
<glyph horiz-adv-x="0" />
<glyph horiz-adv-x="0" />
<glyph unicode=" "  horiz-adv-x="530" />
<glyph unicode="&#x09;" horiz-adv-x="530" />
<glyph unicode="&#xa0;" horiz-adv-x="530" />
<glyph unicode="!" horiz-adv-x="256" d="M37 104q0 41 30.5 71t71.5 30t72 -30t31 -71t-31 -71.5t-72 -30.5t-71.5 30.5t-30.5 71.5zM49 315v1123h160v-1123h-160z" />
<glyph unicode="&#x22;" horiz-adv-x="550" d="M37 1325q0 45 30.5 73.5t73.5 28.5q53 0 77 -37.5t24 -84.5q0 -33 -11.5 -65t-31 -58.5t-48 -43t-63.5 -18.5q8 10 11 23.5t12 23.5v15q0 25 -11.5 37t-26 24t-25.5 29.5t-11 52.5zM291 1321q0 45 30.5 73.5t73.5 28.5q53 0 77 -38t24 -85q0 -33 -11.5 -64.5t-31 -58 t-48 -43t-63.5 -18.5q8 10 11 23.5t12 23.5v15q0 25 -11.5 37t-26 24t-25.5 29.5t-11 52.5z" />
<glyph unicode="#" horiz-adv-x="1611" d="M29 240v159h151l236 627h-258v160h317l92 248h160l-92 -248h627l92 248h159l-92 -248h172v-160h-231l-236 -627h338v-159h-397l-90 -242h-160l90 242h-626l-91 -242h-159l90 242h-92zM340 399h627l235 627h-627z" />
<glyph unicode="$" horiz-adv-x="587" d="M55 268v21q23 6 44.5 12t41.5 14q14 6 43 20.5t57.5 35t50 43t21.5 45.5v6q-6 10 -12 10q-4 0 -4 -2q-8 -4 -23 -4q-23 0 -40 15.5t-17 37.5q0 25 15.5 41.5t39.5 16.5q35 0 53.5 -33t18.5 -62q0 -61 -41 -99t-88 -64v-236q0 -20 14.5 -36.5t34.5 -16.5h64 q20 0 33.5 17.5t13.5 35.5v363q0 80 -26.5 128t-102.5 80q-39 16 -73 32t-59.5 37.5t-40 54t-14.5 81.5l-4 197q-2 66 5.5 132t33 119.5t74.5 88.5q31 20 74 28v150h106v-150q78 -10 125 -51q63 -55 64 -172v-20q-31 -6 -70 -19.5t-76 -34t-67.5 -46t-44.5 -58.5v-8l-3 -4 v-2l3 -4q-2 -4 2 -6.5t8 -2.5h6q12 6 24 7q23 0 39.5 -17.5t16.5 -40.5t-16.5 -39t-39.5 -16q-20 0 -32.5 9t-20.5 23.5t-13 31t-7 32.5q4 10 4 22.5t4 22.5q12 39 50 69t71 48v199q0 18 -13.5 35.5t-33.5 17.5h-64q-20 0 -34.5 -16.5t-14.5 -36.5v-291q0 -16 -1 -50t-1 -70 t2 -66.5t6 -38.5q70 -23 135.5 -56t108.5 -92q35 -51 53.5 -104.5t18.5 -132.5q0 -47 1 -97.5t-6 -97.5q-12 -109 -65 -178q-43 -55 -119 -68v-153h-106v153q-88 12 -131 68q-55 70 -56 192z" />
<glyph unicode="%" horiz-adv-x="747" d="M31 -2l536 1436h160l-537 -1436h-159z" />
<glyph unicode="&#x26;" horiz-adv-x="704" d="M41 324v374q106 33 215 127l-96 101q-57 51 -119 65q0 156 4 199q29 250 238 250l32 -4q82 -6 125 -54q51 -55 76 -161q4 -23 4 -230q-70 -16 -118 -66.5t-95 -99.5q104 -92 213 -127v-673h144v-27h-144v-188l-162 -37v225h-77q-127 0 -189 100q-51 82 -51 226zM203 80 q0 -35 25.5 -45t66.5 -10h63v708q-37 33 -77 66l-78 -66v-653zM203 999q0 -29 27.5 -76.5t50.5 -70.5q23 23 50 71t27 76v375q0 12 -17 24.5t-28 12.5h-63q-18 0 -32.5 -18.5t-14.5 -34.5v-359z" />
<glyph unicode="'" horiz-adv-x="331" d="M68 1180l88 256h108l-149 -256h-47z" />
<glyph unicode="(" horiz-adv-x="280" d="M53 -408v2253h482v-80q-31 -8 -72 -22t-80 -34.5t-68.5 -48.5t-38.5 -61l-2 -2v-4l2 -4q-2 -6 6.5 -7t10.5 -1q12 6 24 6q23 0 39.5 -17.5t16.5 -39.5q0 -23 -16.5 -39t-39.5 -16q-35 0 -53 31.5t-18 62.5q0 61 40 98t87 66v14v72h-160v-2200h160v72v14q-47 29 -87 67 t-40 97q0 10 5 33.5t15 29.5q14 31 49 31q25 0 41.5 -16.5t16.5 -38.5q0 -23 -16.5 -40.5t-41.5 -17.5q-6 0 -12 3.5t-16 3.5q-8 0 -11 -4v-5l-2 -4v-2q6 -10 8.5 -18t8.5 -19q18 -27 48 -48t63.5 -36.5t68.5 -27.5t64 -21v-80h-482z" />
<glyph unicode=")" horiz-adv-x="280" d="M-262 -330q31 8 71.5 22.5t79.5 35t69 47t38 61.5l2 2v4l-2 4q0 6 -6 7.5t-10 1.5q-12 -6 -25 -7q-23 0 -39 17.5t-16 40.5t16 39t39 16q35 0 53.5 -31.5t18.5 -62.5q0 -61 -40 -98t-87 -66v-14v-72h159v2200h-159v-72v-14q47 -29 87 -67t40 -97q0 -12 -5.5 -34 t-15.5 -30q-14 -31 -49 -30q-23 0 -40 16t-17 39t17 40t40 17q8 0 14 -3t15 -3q8 0 10 4v4l2 4v2q-4 10 -7 18.5t-9 18.5q-16 27 -46 47.5t-64 37t-69.5 28.5t-64.5 20v80h481v-2253h-481v80z" />
<glyph unicode="*" horiz-adv-x="569" d="M109 1110l8 57l141 47l-141 48l-8 57l6 2h4l8 2l4 2l16 6l17 4l104 -100l-26 145l43 39q2 0 4 -2l4 -4l6 -6l8 -6l6 -6l4 -4l5 -5l4 -2l2 -4l-25 -145l103 100l55 -16l-8 -57l-142 -48l142 -47l8 -57l-55 -16l-103 100l25 -145l-43 -39l-43 39l26 145l-104 -100z" />
<glyph unicode="+" horiz-adv-x="458" d="M61 672v108h115v115h109v-115h112v-108h-112v-113h-109v113h-115z" />
<glyph unicode="," horiz-adv-x="307" d="M53 106q0 45 31 74t74 29q53 0 76.5 -38t23.5 -85q0 -33 -11 -64.5t-30.5 -58t-48.5 -43t-64 -18.5q8 10 11.5 23.5t11.5 23.5v14q0 25 -11.5 37t-25.5 24.5t-25.5 30t-11.5 51.5z" />
<glyph unicode="-" horiz-adv-x="458" d="M61 672v108h336v-108h-336z" />
<glyph unicode="." horiz-adv-x="307" d="M59 104q0 41 31 72t72 31t70.5 -31t29.5 -72t-29.5 -71.5t-70.5 -30.5t-72 30.5t-31 71.5z" />
<glyph unicode="/" horiz-adv-x="747" d="M31 -2l536 1436h160l-537 -1436h-159z" />
<glyph unicode="0" horiz-adv-x="645" d="M39 906.5q12 148.5 69.5 285.5t167.5 256l64 61q4 4 12 5.5t13 1.5q25 0 41 -15.5t16 -40.5q0 -23 -16.5 -40t-40.5 -17q-27 0 -43 22l-13 -16q59 -82 101 -149.5t75 -139.5q68 -152 97.5 -306.5t15.5 -303t-74.5 -285.5t-169.5 -252l-65 -61q-4 -4 -13.5 -5t-13.5 -1 q-23 0 -39 17.5t-16 39.5q0 23 17.5 39t39.5 16q27 0 43 -22l10 14q-53 76 -97 144.5t-77 144.5q-59 150 -87.5 304.5t-16.5 303zM171 938q-5 -170 34 -330l190 283q-29 104 -65.5 206.5t-77.5 200.5q-76 -190 -81 -360zM219 557q31 -111 76 -216t96 -216q63 180 61.5 358.5 t-42.5 354.5z" />
<glyph unicode="1" horiz-adv-x="575" d="M29 1061v172q37 2 89 18.5t100 44t85 63.5t43 77h162v-1434h-162v1366q-27 -39 -71 -66.5t-85 -50.5v-190h-161z" />
<glyph unicode="2" horiz-adv-x="610" d="M61 1047q-2 68 4.5 135t32 122.5t74.5 90.5t131 35q72 0 119 -28t73.5 -73t37 -104.5t10.5 -120.5v-270q0 -39 -23.5 -67t-59.5 -54.5t-77 -55t-77 -65.5t-59.5 -89t-23.5 -124v-352h160v149q-47 27 -88 65t-41 99q0 29 18.5 62.5t53.5 33.5q23 0 39 -17.5t16 -39.5 q0 -23 -16.5 -39t-38.5 -16q-10 0 -17.5 3t-13.5 3t-8 -6h-2v-7q0 -25 20.5 -48t48 -42.5t57 -35t46.5 -21.5q20 -8 41.5 -14t44.5 -13v-143h-480v379q0 88 24 156.5t66 124t100 101.5t130 93v494q0 18 -14.5 35.5t-34.5 17.5h-64q-20 0 -33.5 -17.5t-13.5 -35.5v-301h-162z " />
<glyph unicode="3" horiz-adv-x="591" d="M55 328v57h160v-301q0 -18 14.5 -35.5t34.5 -17.5h64q20 0 33.5 17.5t13.5 35.5v743q-16 6 -34.5 11.5t-35.5 5.5q-10 0 -22.5 -3t-22.5 -7q-16 -16 -24.5 -28.5t-12.5 -25t-5 -29t-3 -38.5h-160q0 35 4 69.5t18.5 62t41 45t67.5 17.5q47 0 95.5 -12t93.5 -29v484 q0 18 -13.5 35.5t-33.5 17.5h-64q-20 0 -34.5 -17.5t-14.5 -35.5v-301h-160q-2 66 4.5 134t31 123.5t72.5 90.5t132 35q72 0 119 -28t74.5 -74t38 -105.5t10.5 -120.5v-154q0 -35 -7.5 -77t-40.5 -58h-4l-4 -2q-6 -2 -13 0t-13 4q27 -6 43 -32.5t24 -58.5t11.5 -64.5 t3.5 -53.5v-280q0 -63 -11.5 -122t-39 -104t-73.5 -72.5t-118 -27.5t-119 27.5t-73.5 72.5t-37 104.5t-10.5 121.5z" />
<glyph unicode="4" horiz-adv-x="602" d="M55 899v537h160v-555q43 -25 85 -51.5t73 -67.5q6 25 4 54.5t-2 55.5v564h160v-1436h-160v709q-16 37 -53 70.5t-83 59t-95.5 42t-88.5 18.5z" />
<glyph unicode="5" horiz-adv-x="600" d="M55 334v57h160v-301q0 -18 14.5 -35.5t34.5 -17.5h64q20 0 33.5 17.5t13.5 35.5v565q0 41 -7.5 62.5t-25.5 54.5q-25 20 -48.5 29.5t-55.5 9.5h-183v627h482v-144q-23 -6 -44.5 -12t-41.5 -14q-16 -6 -46 -21.5t-58 -35t-48 -43t-20 -48.5v-6q2 -6 10 -6h4v2h2q8 4 22 4 q23 0 40.5 -17.5t17.5 -39.5q0 -23 -17.5 -39.5t-40.5 -16.5q-27 0 -37 14.5t-20 35.5q-12 25 -12 47q0 59 40 97t87 67v149h-160v-573q63 0 120.5 2t102.5 -12.5t72 -53.5t27 -119v-321q0 -63 -11.5 -121.5t-39 -104t-73.5 -73t-118 -27.5t-119 27.5t-73.5 73t-37 104.5 t-10.5 121z" />
<glyph unicode="6" horiz-adv-x="583" d="M51 315v795q0 61 11.5 117.5t39 100.5t73.5 70.5t116 26.5q72 0 119 -27.5t73.5 -73.5t36.5 -105.5t10 -120.5v-180h-159v425q0 35 -26 45.5t-54 10.5q-29 0 -54.5 -10.5t-25.5 -45.5v-430q0 -49 34 -91t83 -72.5t104 -49t98 -20.5v-373q0 -41 -5 -85t-19 -85t-41 -74.5 t-68 -52.5q-16 -8 -37.5 -14t-40.5 -6h-57q-18 0 -38.5 6t-37.5 14q-43 20 -69.5 54t-41 75t-19.5 87t-5 89zM211 70q0 -18 15.5 -36t33.5 -18h64q16 0 31.5 15.5t15.5 31.5v633q-37 23 -86 53.5t-72 67.5q0 -4 -1 -10t-1 -10v-727z" />
<glyph unicode="7" horiz-adv-x="557" d="M45 1071v359h479l-219 -1434h-160l220 1407h-160v-332h-160z" />
<glyph unicode="8" horiz-adv-x="563" d="M41 324v374q59 18 113.5 52t101.5 75q-25 25 -48.5 50.5t-49 49t-54 41t-63.5 25.5v27v86t4 86q12 109 66.5 179.5t171.5 70.5q8 0 16 -2t16 -2q82 -6 125 -53.5t66 -122.5q4 -16 9 -39t5 -39v-191q-70 -16 -118 -66.5t-95 -99.5h-2q47 -41 101.5 -74.5t113.5 -52.5v-442 q0 -16 -5 -38.5t-9 -39.5q-25 -88 -77 -134t-146 -46q-72 0 -118 27.5t-74 72.5t-39 104.5t-11 121.5zM203 80q0 -35 25.5 -45t54.5 -10q8 0 20 1t24.5 5t21.5 11t9 19v672q-18 16 -37.5 32.5t-39.5 33.5l-78 -66v-653zM203 999q0 -16 8 -36.5t20.5 -42t25.5 -40t24 -28.5 q10 10 23 28.5t25.5 40t20.5 42t8 36.5v375q0 12 -17 24.5t-28 12.5h-63q-18 0 -32.5 -18.5t-14.5 -34.5v-359z" />
<glyph unicode="9" horiz-adv-x="591" d="M53 328v180h160v-424q0 -35 25.5 -45t54.5 -10t54.5 10t25.5 45v428q0 29 -16.5 64.5t-39.5 54.5q-57 45 -123.5 78.5t-140.5 38.5v372q0 61 11.5 118.5t38 101.5t72.5 71t118 27t119 -28t73.5 -74t36.5 -105.5t10 -120.5v-795q0 -61 -11 -118.5t-38.5 -100.5t-74 -68.5 t-115.5 -25.5q-74 0 -120 27.5t-72.5 72.5t-37 103.5t-10.5 122.5zM213 729q41 -23 86 -50.5t72 -68.5q0 4 1 9.5t1 9.5v727q0 35 -25.5 45t-54.5 10q-8 0 -16.5 -1t-16.5 -1q-14 -2 -30.5 -15.5t-16.5 -29.5v-635z" />
<glyph unicode=":" horiz-adv-x="307" d="M49 104q0 41 31 72t72 31t70.5 -31t29.5 -72t-29.5 -71.5t-70.5 -30.5t-72 30.5t-31 71.5zM55 1323q0 41 31 71.5t72 30.5t70.5 -30.5t29.5 -71.5t-29.5 -71.5t-70.5 -30.5t-72 30.5t-31 71.5z" />
<glyph unicode=";" horiz-adv-x="307" d="M53 106q0 45 31 74t74 29q53 0 76.5 -38t23.5 -85q0 -33 -11 -64.5t-30.5 -58t-48.5 -43t-64 -18.5q8 10 11.5 23.5t11.5 23.5v14q0 25 -11.5 37t-25.5 24.5t-25.5 30t-11.5 51.5zM55 1323q0 41 31 71.5t72 30.5t70.5 -30.5t29.5 -71.5t-29.5 -71.5t-70.5 -30.5t-72 30.5 t-31 71.5z" />
<glyph unicode="&#x3c;" horiz-adv-x="450" d="M68 725l274 410h39l-195 -410l195 -410h-39z" />
<glyph unicode="=" horiz-adv-x="458" d="M55 569v109h336v-109h-336zM55 772v109h336v-109h-336z" />
<glyph unicode="&#x3e;" horiz-adv-x="450" d="M68 315l194 410l-194 410h38l275 -410l-275 -410h-38z" />
<glyph unicode="?" horiz-adv-x="542" d="M31 1186q-4 125 54 186.5t185 61.5q74 0 120 -28t72.5 -74t37 -105.5t10.5 -120.5v-160q0 -47 -7 -78.5t-20.5 -58.5t-33 -54.5t-46.5 -66.5q-29 -41 -51 -85t-33 -93q-10 -43 -12 -89t-2 -89h-162q2 63 6.5 133t26.5 129q10 33 25.5 66.5t34.5 62.5q23 37 48 74t50 73 q4 6 10 25.5t6 28.5v428q0 16 -14 34.5t-33 18.5h-65q-18 0 -33 -18.5t-15 -34.5v-199q25 -14 47.5 -29.5t41 -36t29.5 -44t11 -54.5v-10q-6 -12 -8 -23.5t-12 -27.5v-2q-16 -31 -51 -31q-25 0 -40 16.5t-15 38.5q0 23 16 40.5t39 17.5q8 0 15 -3.5t13 -3.5q8 0 11 5v2l2 2 v4q0 18 -13.5 35.5t-32 34t-38 29.5t-31.5 20q-70 35 -143 53zM137 104q0 41 31 72t72 31t70.5 -31t29.5 -72t-29.5 -71.5t-70.5 -30.5t-72 30.5t-31 71.5z" />
<glyph unicode="@" horiz-adv-x="1134" d="M59 205v1024q0 96 50.5 150.5t201.5 54.5h504q152 0 202 -55.5t50 -149.5v-905q0 -205 -225 -205q-109 0 -166 33q-45 -31 -113 -31q-203 0 -203 264v311q84 4 172 60q98 59 99 135v360q0 45 -68 45t-67 -45v-356h-136v149q0 274 203 275q68 0 113 -33l88 29v-211 q2 -25 2 -379v-307q0 -115 -2 -191q6 -70 82 -73q86 0 86 86v997q0 16 -2 45t-7 73t-104 44h-508q-102 0 -107 -44t-7 -73t-2 -565q0 -539 2 -567.5t7 -72.5t107 -44h690v-35h-690q-150 0 -201 55.5t-51 151.5zM496 182q0 -14 13 -26.5t26 -12.5h55q14 0 27.5 14.5 t13.5 30.5v607l-2 16q-18 -31 -60.5 -56.5l-72.5 -43.5v-529z" />
<glyph unicode="A" horiz-adv-x="602" d="M68 0v1028q78 4 146.5 41t127.5 84q23 16 35 48t12 61q0 59 -44 102t-103 43q-41 0 -72 -17.5t-53 -50.5q20 8 37 9q35 0 61.5 -25t26.5 -61q0 -37 -26 -62.5t-62 -25.5q-39 0 -62.5 27.5t-23.5 64.5q0 35 14 65.5t37.5 53t54.5 36t66 13.5q45 0 85 -20.5t62 -59.5v80 h162v-1434h-162v584h-158v-584h-161zM229 631h158v536q-27 -41 -72 -69.5t-86 -50.5v-416z" />
<glyph unicode="B" horiz-adv-x="645" d="M90 0v1436h320v-27h-158v-561q23 31 54.5 53.5t64.5 42.5l12 -20q-31 -20 -69 -50t-52 -65q4 -10 9 -17.5t12 -15.5v-2q12 -18 44.5 -40.5t55.5 -39.5l-12 -20q-29 16 -66 42.5t-53 55.5v-772h-162zM252 0v27h158v624l-39 23l12 20q41 -23 91 -40t97 -21v-633h-319z M371 944l39 23v469h161v-451q-47 -2 -98 -20.5t-90 -40.5z" />
<glyph unicode="C" horiz-adv-x="614" d="M70 170q0 35 25.5 60.5t60.5 25.5t60.5 -25.5t25.5 -60.5t-26 -61.5t-60 -26.5q-20 0 -37 8q16 -20 38.5 -33.5t49.5 -13.5q53 0 86 40t33 91q0 49 -27 85t-64.5 63.5t-83 46t-81.5 32.5v703q0 61 10 120.5t36.5 105.5t74 74t118.5 28q72 0 118 -28t73.5 -74t39 -105.5 t11.5 -120.5v-55h-162v301q0 18 -13.5 35.5t-33.5 17.5h-63q-20 0 -35 -17.5t-15 -35.5v-965q51 -43 87 -88t36 -117q0 -59 -30.5 -98t-83.5 -62q6 0 11 -1t11 -1q51 0 78 24t38 59.5t12 78.5t1 82v225h162v-165q0 -61 -10.5 -121t-38 -105t-74.5 -72.5t-119 -27.5h-67 q-37 0 -68 14.5t-54.5 38t-36.5 55t-13 66.5z" />
<glyph unicode="D" horiz-adv-x="649" d="M90 172q0 33 27.5 56.5t58.5 23.5q35 0 60.5 -25.5t25.5 -60.5t-25.5 -60.5t-60.5 -25.5q-20 0 -37 8q29 -49 88 -49q53 0 86 41t33 90t-26.5 85t-65.5 63.5t-83 46t-81 32.5v1030h240q72 0 118 -27.5t73.5 -73.5t38.5 -105.5t11 -120.5v-783q0 -61 -11 -120.5 t-38.5 -104.5t-74 -72.5t-117.5 -27.5h-68q-76 0 -124 53t-48 127zM250 381q53 -45 87 -89t34 -116q0 -61 -29 -99t-86 -61q6 0 12 -1t13 -1q51 0 77.5 23.5t38 59.5t12.5 79t1 82v1088q0 41 -33 48t-64 7h-63v-1020z" />
<glyph unicode="E" horiz-adv-x="634" d="M70 180q0 33 26.5 57.5t57.5 24.5q35 0 61.5 -26.5t26.5 -61.5t-26 -60.5t-60 -25.5q-20 0 -37 8q37 -47 88 -47q53 0 86 39t33 92q0 47 -27 84t-65.5 63.5t-84 46t-79.5 34.5v702q0 43 5 88t19.5 87t41 76t69.5 54q16 8 36.5 14.5t39.5 6.5h57q20 0 39.5 -6.5 t36.5 -14.5q43 -18 69.5 -53t42 -77t20.5 -87t5 -88v-55h-162v299q0 18 -13.5 35.5t-33.5 17.5h-70q-18 0 -30.5 -18.5t-12.5 -34.5v-482q43 16 92.5 28.5t96.5 12.5q43 0 68.5 -17t39 -45t18.5 -62.5t7 -69.5h-162q0 14 -3 36.5t-12 43t-23.5 35t-37.5 14.5q-41 0 -84 -17 v-442q53 -45 87 -89t34 -116q0 -66 -28.5 -98.5t-85.5 -60.5h12q52 0 78 16q30 18 44.5 51t16.5 78t2 96v228h162v-166q0 -61 -11.5 -121t-39 -106t-73.5 -73.5t-118 -27.5q-16 0 -33.5 1t-33.5 1q-37 0 -69 14.5t-54.5 39t-35.5 56t-13 68.5z" />
<glyph unicode="F" horiz-adv-x="636" d="M78 -6v1436h479v-302l-160 2v273h-159v-526q27 10 75.5 24t77.5 14q98 0 127 -51t29 -143h-160q0 29 -8 62.5t-39 58.5q-6 4 -18.5 6t-18.5 2q-33 0 -65 -12v-844h-160z" />
<glyph unicode="G" horiz-adv-x="612" d="M68 176q0 33 27.5 56.5t58.5 23.5q35 0 60.5 -25.5t25.5 -60.5t-26 -61.5t-60 -26.5q-20 0 -37 8q33 -47 88 -47q53 0 86 41t33 90t-27 85t-65.5 63.5t-83 46t-80.5 32.5v703q0 61 10 120.5t36.5 105.5t72.5 74t120 28q72 0 119 -28t73.5 -74t37 -105.5t10.5 -120.5v-55 h-160v301q0 18 -12.5 32.5t-30.5 18.5q-2 0 -2 1t-2 1h-66q-20 0 -33.5 -17.5t-13.5 -35.5v-965q53 -45 87 -89t34 -118q0 -117 -115 -158q6 0 12.5 -1t12.5 -1q51 0 77.5 24t38 59.5t12.5 78.5t1 82v512h-22q6 -12 6 -26q0 -25 -16.5 -42.5t-43.5 -17.5q-25 0 -41 17.5 t-16 42.5q0 37 34 52t64 15h195v-493q0 -61 -10.5 -121t-37 -105t-73.5 -72.5t-119 -27.5h-67q-76 0 -124 53t-48 127z" />
<glyph unicode="H" d="M74 -2v1434h162v-629h159v629h160v-1434h-160v758h-159v-758h-162z" />
<glyph unicode="I" horiz-adv-x="276" d="M57 -2v1436h160v-1436h-160z" />
<glyph unicode="J" horiz-adv-x="616" d="M63 324v180h160v-426q0 -35 25.5 -45t54.5 -10t54.5 10t25.5 45v1327h-158v-297q47 -29 87 -66.5t40 -97.5q0 -31 -20 -61v-2q-16 -31 -51 -31q-23 0 -39.5 16.5t-16.5 38.5q0 23 16.5 40.5t39.5 17.5q8 0 15 -3.5t13 -3.5t7 1l6 6v6q0 6 -1.5 11t-3.5 11 q-10 14 -19 27.5t-22 23.5q-18 16 -44.5 33t-56.5 29t-58.5 22.5t-53.5 14.5v291h482v-1108q0 -61 -11.5 -121t-39 -106t-73.5 -73.5t-118 -27.5t-119 27.5t-73.5 73.5t-37 105.5t-10.5 121.5z" />
<glyph unicode="K" horiz-adv-x="653" d="M84 -4v1436h160v-474q0 -27 -2 -56.5t4 -53.5q31 41 72.5 67.5t84.5 51.5v465h160v-447q-59 -4 -125.5 -32.5t-113.5 -65.5q-18 -16 -40 -34.5t-28 -43.5q4 -14 14.5 -26.5t20.5 -22.5q55 -49 124.5 -85t147.5 -40v-639h-160v655q-41 23 -86 51.5t-71 69.5q0 -4 -1 -10 t-1 -10v-756h-160z" />
<glyph unicode="L" horiz-adv-x="606" d="M74 -2v1434h162v-1407h157v198q-47 29 -87 67t-40 97q0 29 18.5 61.5t53.5 32.5q23 0 39 -15t16 -40q0 -23 -16.5 -39t-40.5 -16q-16 0 -29 6q-8 0 -10 -6v-6q0 -25 20.5 -48.5t48 -43t57.5 -35t46 -21.5q20 -8 41.5 -14t44.5 -13v-192h-481z" />
<glyph unicode="M" horiz-adv-x="935" d="M72 -2v1028q78 4 146.5 41t125.5 84q23 18 35 49t12 60q0 61 -44 103t-103 42q-35 0 -71 -17.5t-52 -50.5q20 8 37 9q35 0 60.5 -26t25.5 -60q0 -35 -24.5 -62t-61.5 -27q-41 0 -63.5 29t-22.5 68q0 33 14 62.5t37.5 52t54.5 36t64 13.5q47 0 86 -20.5t63 -59.5v80h160 v-330q63 49 119 110q2 4 9 14.5t14 22t12.5 22.5t5.5 15v146l161 2v-1436h-161v1225q-27 -43 -73 -86t-87 -72v-1067h-160v1167q-33 -41 -74 -68.5t-86 -52.5v-1046h-159z" />
<glyph unicode="N" horiz-adv-x="632" d="M78 0v1434h162v-314v-176q0 -31 17 -65.5t43 -66.5t52.5 -59.5t44.5 -43.5v725h162v-1434h-162v662q-47 37 -91 88t-66 104v-854h-162z" />
<glyph unicode="O" horiz-adv-x="671" d="M56 904q12 148 69 285.5t168 256.5q16 16 31.5 30.5t31.5 30.5q4 4 12.5 5t12.5 1q25 0 41 -15t16 -40q0 -23 -16 -40t-41 -17q-27 0 -43 22l-12 -16q59 -82 101 -149.5t75 -139.5q68 -152 98 -306q20 -104 19 -205q-1 -51 -5 -99q-14 -148 -74 -285t-169 -252 q-16 -16 -32.5 -30.5t-33.5 -30.5q-4 -4 -13 -5t-13 -1q-23 0 -39.5 17.5t-16.5 39.5q0 23 17.5 39t40.5 16q27 0 43 -22l10 14q-53 76 -97 144.5t-77 144.5q-59 151 -88 305q-20 108 -20 212q0 45 4 90zM189 974q-3 -46 -3 -90q0 -104 18 -204q26 -143 81 -280.5 t123 -276.5q53 150 59 301q1 29 1 57q0 123 -20 243q-26 148 -74.5 292.5t-105.5 279.5q-68 -170 -79 -322z" />
<glyph unicode="P" d="M78 0v1436h479v-504q-29 -6 -63.5 -19.5t-68.5 -30t-63.5 -39t-46.5 -46.5q-4 -6 -10 -16.5t-6 -18.5v-8l2 -2q2 -6 10 -7h4v3q8 4 23 4q25 0 41 -16.5t16 -39.5q0 -25 -16.5 -41t-38.5 -16q-35 0 -53.5 34t-18.5 62q0 61 41 98t88 66v510h-159v-1409h-160z" />
<glyph unicode="Q" horiz-adv-x="712" d="M51 906q12 149 69.5 286t168.5 256l63 61q4 4 12.5 5.5t12.5 1.5q25 0 41 -15.5t16 -40.5q0 -23 -16.5 -40t-40.5 -17q-27 0 -43 22l-12 -16q59 -82 101 -149.5t75 -139.5q61 -135 90 -274q26 -122 26 -242v-32q-4 -136 -45 -263t-120 -237q37 -37 83 -37h9q57 0 100 45 l12 12q-8 -4 -19 -5t-20 -1q-35 4 -58 32q-20 22 -20 51q0 7 1 13q0 20 10 33q10 20 33.5 34.5t48.5 10.5q37 -4 61 -30q22 -23 22 -52q0 -5 -1 -10q-2 -27 -16.5 -58.5t-35.5 -48.5q-23 -27 -54.5 -39t-63.5 -14q-29 -4 -55.5 8.5t-53.5 30.5q-12 -16 -30.5 -36.5 t-34.5 -37.5l-66 -61q-4 -4 -13 -5t-14 -1q-23 0 -39 17.5t-16 39.5q0 23 17.5 39t39.5 16q27 0 43 -22l11 14q-53 76 -97.5 144.5t-76.5 144.5q-59 150 -88 305q-21 109 -21 215q0 44 4 87zM185 976q-3 -45 -3 -90q0 -104 18 -204q25 -143 80.5 -280.5t122.5 -276.5 q53 139 61 285q3 37 3 75q0 108 -19 217q-24 148 -73.5 298.5t-110.5 297.5q-68 -170 -79 -322z" />
<glyph unicode="R" horiz-adv-x="626" d="M76 4v1436h479v-531q-23 -6 -43 -12t-43 -14q-47 -18 -94 -48t-72 -77q-6 -10 -6 -19v-6l2 -2q2 -6 8 -6h4h2q8 4 25 4q23 0 39 -15.5t16 -37.5q0 -23 -16.5 -40.5t-38.5 -17.5q-25 0 -37 13.5t-22 34.5q-4 4 -8.5 15t-2.5 17l-2 4v11q0 31 11.5 55.5t30 43.5t41 34.5 t46.5 30.5v536h-159v-764q16 -37 54 -70.5t84 -59t94 -41t87 -17.5v-457h-160v475q-41 23 -86 50.5t-71 68.5q0 -150 -1 -297t-1 -297h-160z" />
<glyph unicode="S" horiz-adv-x="587" d="M55 268v21q23 6 44.5 12t41.5 14q14 6 43 20.5t57.5 35t50 43t21.5 45.5v6q-6 10 -12 10q-4 0 -4 -2q-8 -4 -23 -4q-23 0 -40 15.5t-17 37.5q0 25 15.5 41.5t39.5 16.5q35 0 53.5 -33t18.5 -62q0 -61 -41 -99t-88 -64v-236q0 -20 14.5 -36.5t34.5 -16.5h64 q20 0 33.5 17.5t13.5 35.5v363q0 80 -26.5 128t-102.5 80q-39 16 -73 32t-59.5 37.5t-40 54t-14.5 81.5l-4 197v28q-1 52 5 104q8 66 33.5 119.5t73.5 87.5t128 34q115 0 178.5 -55.5t63.5 -172.5v-20q-31 -6 -70 -19.5t-76 -34t-67.5 -46t-44.5 -58.5v-8l-3 -4v-2l3 -4 q-2 -4 2 -6.5t8 -2.5h6q12 6 24 7q23 0 39.5 -17.5t16.5 -40.5t-16.5 -39t-39.5 -16q-20 0 -32.5 9t-20.5 23.5t-13 31t-7 32.5q4 10 4 22.5t4 22.5q12 39 50 69t71 48v199q0 18 -13.5 35.5t-33.5 17.5h-64q-20 0 -34.5 -16.5t-14.5 -36.5v-291q0 -16 -1 -50t-1 -70t2 -66.5 t6 -38.5q70 -23 135.5 -56t108.5 -92q35 -51 53.5 -104.5t18.5 -132.5q0 -47 1 -97v-13q0 -44 -6 -85q-12 -109 -66 -179.5t-171 -70.5q-129 0 -184.5 70.5t-55.5 193.5z" />
<glyph unicode="T" horiz-adv-x="673" d="M37 1133v301h600v-191l-162 -37v201h-55v-1409h-160v1409h-63v-238z" />
<glyph unicode="U" horiz-adv-x="612" d="M68 317v1113h159v-1356q0 -35 26 -45.5t54 -10.5q29 0 54.5 10.5t25.5 45.5v1329v27h162v-1121q0 -63 -17 -133q-18 -88 -75.5 -136t-149.5 -48q-72 0 -119 27.5t-73.5 72.5t-36.5 104.5t-10 120.5z" />
<glyph unicode="V" horiz-adv-x="606" d="M66 506v930h161v-1196l82 -205l78 201v1200h160v-932l-191 -473q-8 -18 -28 -27q-6 -6 -21 -6q-35 0 -49 33z" />
<glyph unicode="W" horiz-adv-x="937" d="M63 504v930h160v-1198l84 -203l76 198v924q-47 29 -87 67t-40 97q0 10 5 35.5t15 29.5q14 31 50 31q23 0 40 -17.5t17 -39.5q0 -23 -17.5 -39t-39.5 -16q-8 0 -15.5 3t-13.5 3q-4 0 -8 -2t-2 -7l-2 -4v-4l2 -2q8 -35 38.5 -62.5t69.5 -48t79 -35t69 -20.5v-622l2 2v-268 l82 -203l75 198v1203h162v-932l-190 -473q-6 -16 -19.5 -24.5t-29.5 -8.5q-37 0 -50 33l-112 274l-111 -274q-12 -33 -47 -33q-39 0 -51 33z" />
<glyph unicode="X" horiz-adv-x="610" d="M66 -10v694q59 23 112 53.5t101 73.5q-27 25 -49.5 50.5t-47 48t-52.5 40t-64 27.5v448h159v-395v-43q0 -16 8.5 -37.5t19.5 -42t24.5 -39t25.5 -30.5q25 27 49.5 69.5t28.5 79.5v43v2v393h162v-448q-66 -16 -118 -66.5t-95 -97.5v-2q43 -43 99 -73.5t114 -53.5v-692 h-162v727q-18 16 -37.5 32.5t-40.5 32.5l-78 -65v-729h-159z" />
<glyph unicode="Y" horiz-adv-x="591" d="M55 317v181h160v-426q0 -35 25.5 -45.5t54.5 -10.5t54.5 10.5t25.5 45.5v522q0 31 -15.5 65.5t-40.5 53.5q-57 43 -123.5 77.5t-140.5 38.5v598h160v-616q43 -25 85 -51.5t73 -67.5q6 25 4 54.5t-2 56.5v624h160v-1122q0 -61 -11.5 -118.5t-39 -100.5t-73.5 -69.5 t-116 -26.5q-74 0 -120 27.5t-72.5 73.5t-37 105.5t-10.5 120.5z" />
<glyph unicode="Z" horiz-adv-x="608" d="M63 -6v412l320 593v404h-160v-72v-12q20 -14 43 -27.5t39 -29.5t31.5 -46t15.5 -53q0 -18 -5 -36.5t-15 -34.5v-2q-16 -31 -51 -31q-23 0 -39.5 16.5t-16.5 40.5q0 23 15.5 39t40.5 16q8 0 15 -3t13 -3t10 6l3 3v4q0 25 -21.5 48t-50.5 42.5t-57.5 35t-45.5 21.5 q-20 8 -41.5 13t-42.5 12v80h480v-431l-320 -593v-383h160v147q-47 27 -88 64.5t-41 99.5q0 29 18.5 62.5t53.5 33.5q23 0 39 -16.5t16 -38.5q0 -23 -16.5 -40.5t-38.5 -17.5q-8 0 -15.5 3.5t-13.5 3.5q-8 0 -12 -11v-2q0 -25 20.5 -48t49 -42.5t57 -35t45.5 -21.5 q20 -8 41.5 -13.5t44.5 -11.5v-145h-480z" />
<glyph unicode="[" horiz-adv-x="280" d="M53 -410v2255h482v-28h-322v-2198h322v-29h-482z" />
<glyph unicode="\" horiz-adv-x="747" d="M31 1434h159l537 -1436h-160z" />
<glyph unicode="]" horiz-adv-x="280" d="M-254 -381h322v2198h-322v28h481v-2255h-481v29z" />
<glyph unicode="^" horiz-adv-x="589" d="M68 1024l186 410h82l186 -410h-41l-186 276l-186 -276h-41z" />
<glyph unicode="_" horiz-adv-x="397" d="M0 0v109h397v-109h-397z" />
<glyph unicode="`" horiz-adv-x="313" d="M63 1434h109l74 -170h-47z" />
<glyph unicode="a" horiz-adv-x="602" d="M68 0v1028q78 4 146.5 41t127.5 84q23 16 35 48t12 61q0 59 -44 102t-103 43q-41 0 -72 -17.5t-53 -50.5q20 8 37 9q35 0 61.5 -25t26.5 -61q0 -37 -26 -62.5t-62 -25.5q-39 0 -62.5 27.5t-23.5 64.5q0 35 14 65.5t37.5 53t54.5 36t66 13.5q45 0 85 -20.5t62 -59.5v80 h162v-1434h-162v584h-158v-584h-161zM229 631h158v536q-27 -41 -72 -69.5t-86 -50.5v-416z" />
<glyph unicode="b" horiz-adv-x="645" d="M90 0v1436h320v-27h-158v-561q23 31 54.5 53.5t64.5 42.5l12 -20q-31 -20 -69 -50t-52 -65q4 -10 9 -17.5t12 -15.5v-2q12 -18 44.5 -40.5t55.5 -39.5l-12 -20q-29 16 -66 42.5t-53 55.5v-772h-162zM252 0v27h158v624l-39 23l12 20q41 -23 91 -40t97 -21v-633h-319z M371 944l39 23v469h161v-451q-47 -2 -98 -20.5t-90 -40.5z" />
<glyph unicode="c" horiz-adv-x="614" d="M70 170q0 35 25.5 60.5t60.5 25.5t60.5 -25.5t25.5 -60.5t-26 -61.5t-60 -26.5q-20 0 -37 8q16 -20 38.5 -33.5t49.5 -13.5q53 0 86 40t33 91q0 49 -27 85t-64.5 63.5t-83 46t-81.5 32.5v703q0 61 10 120.5t36.5 105.5t74 74t118.5 28q72 0 118 -28t73.5 -74t39 -105.5 t11.5 -120.5v-55h-162v301q0 18 -13.5 35.5t-33.5 17.5h-63q-20 0 -35 -17.5t-15 -35.5v-965q51 -43 87 -88t36 -117q0 -59 -30.5 -98t-83.5 -62q6 0 11 -1t11 -1q51 0 78 24t38 59.5t12 78.5t1 82v225h162v-165q0 -61 -10.5 -121t-38 -105t-74.5 -72.5t-119 -27.5h-67 q-37 0 -68 14.5t-54.5 38t-36.5 55t-13 66.5z" />
<glyph unicode="d" horiz-adv-x="649" d="M90 172q0 33 27.5 56.5t58.5 23.5q35 0 60.5 -25.5t25.5 -60.5t-25.5 -60.5t-60.5 -25.5q-20 0 -37 8q29 -49 88 -49q53 0 86 41t33 90t-26.5 85t-65.5 63.5t-83 46t-81 32.5v1030h240q72 0 118 -27.5t73.5 -73.5t38.5 -105.5t11 -120.5v-783q0 -61 -11 -120.5 t-38.5 -104.5t-74 -72.5t-117.5 -27.5h-68q-76 0 -124 53t-48 127zM250 381q53 -45 87 -89t34 -116q0 -61 -29 -99t-86 -61q6 0 12 -1t13 -1q51 0 77.5 23.5t38 59.5t12.5 79t1 82v1088q0 41 -33 48t-64 7h-63v-1020z" />
<glyph unicode="e" horiz-adv-x="634" d="M70 180q0 33 26.5 57.5t57.5 24.5q35 0 61.5 -26.5t26.5 -61.5t-26 -60.5t-60 -25.5q-20 0 -37 8q37 -47 88 -47q53 0 86 39t33 92q0 47 -27 84t-65.5 63.5t-84 46t-79.5 34.5v702q0 43 5 88t19.5 87t41 76t69.5 54q16 8 36.5 14.5t39.5 6.5h57q20 0 39.5 -6.5 t36.5 -14.5q43 -18 69.5 -53t42 -77t20.5 -87t5 -88v-55h-162v299q0 18 -13.5 35.5t-33.5 17.5h-70q-18 0 -30.5 -18.5t-12.5 -34.5v-482q43 16 92.5 28.5t96.5 12.5q43 0 68.5 -17t39 -45t18.5 -62.5t7 -69.5h-162q0 14 -3 36.5t-12 43t-23.5 35t-37.5 14.5q-41 0 -84 -17 v-442q53 -45 87 -89t34 -116q0 -66 -28.5 -98.5t-85.5 -60.5h12q52 0 78 16q30 18 44.5 51t16.5 78t2 96v228h162v-166q0 -61 -11.5 -121t-39 -106t-73.5 -73.5t-118 -27.5q-16 0 -33.5 1t-33.5 1q-37 0 -69 14.5t-54.5 39t-35.5 56t-13 68.5z" />
<glyph unicode="f" horiz-adv-x="636" d="M78 -6v1436h479v-302l-160 2v273h-159v-526q27 10 75.5 24t77.5 14q98 0 127 -51t29 -143h-160q0 29 -8 62.5t-39 58.5q-6 4 -18.5 6t-18.5 2q-33 0 -65 -12v-844h-160z" />
<glyph unicode="g" horiz-adv-x="612" d="M68 176q0 33 27.5 56.5t58.5 23.5q35 0 60.5 -25.5t25.5 -60.5t-26 -61.5t-60 -26.5q-20 0 -37 8q33 -47 88 -47q53 0 86 41t33 90t-27 85t-65.5 63.5t-83 46t-80.5 32.5v703q0 61 10 120.5t36.5 105.5t72.5 74t120 28q72 0 119 -28t73.5 -74t37 -105.5t10.5 -120.5v-55 h-160v301q0 18 -12.5 32.5t-30.5 18.5q-2 0 -2 1t-2 1h-66q-20 0 -33.5 -17.5t-13.5 -35.5v-965q53 -45 87 -89t34 -118q0 -117 -115 -158q6 0 12.5 -1t12.5 -1q51 0 77.5 24t38 59.5t12.5 78.5t1 82v512h-22q6 -12 6 -26q0 -25 -16.5 -42.5t-43.5 -17.5q-25 0 -41 17.5 t-16 42.5q0 37 34 52t64 15h195v-493q0 -61 -10.5 -121t-37 -105t-73.5 -72.5t-119 -27.5h-67q-76 0 -124 53t-48 127z" />
<glyph unicode="h" d="M74 -2v1434h162v-629h159v629h160v-1434h-160v758h-159v-758h-162z" />
<glyph unicode="i" horiz-adv-x="276" d="M57 -2v1436h160v-1436h-160z" />
<glyph unicode="j" horiz-adv-x="616" d="M63 324v180h160v-426q0 -35 25.5 -45t54.5 -10t54.5 10t25.5 45v1327h-158v-297q47 -29 87 -66.5t40 -97.5q0 -31 -20 -61v-2q-16 -31 -51 -31q-23 0 -39.5 16.5t-16.5 38.5q0 23 16.5 40.5t39.5 17.5q8 0 15 -3.5t13 -3.5t7 1l6 6v6q0 6 -1.5 11t-3.5 11 q-10 14 -19 27.5t-22 23.5q-18 16 -44.5 33t-56.5 29t-58.5 22.5t-53.5 14.5v291h482v-1108q0 -61 -11.5 -121t-39 -106t-73.5 -73.5t-118 -27.5t-119 27.5t-73.5 73.5t-37 105.5t-10.5 121.5z" />
<glyph unicode="k" horiz-adv-x="653" d="M84 -4v1436h160v-474q0 -27 -2 -56.5t4 -53.5q31 41 72.5 67.5t84.5 51.5v465h160v-447q-59 -4 -125.5 -32.5t-113.5 -65.5q-18 -16 -40 -34.5t-28 -43.5q4 -14 14.5 -26.5t20.5 -22.5q55 -49 124.5 -85t147.5 -40v-639h-160v655q-41 23 -86 51.5t-71 69.5q0 -4 -1 -10 t-1 -10v-756h-160z" />
<glyph unicode="l" horiz-adv-x="606" d="M74 -2v1434h162v-1407h157v198q-47 29 -87 67t-40 97q0 29 18.5 61.5t53.5 32.5q23 0 39 -15t16 -40q0 -23 -16.5 -39t-40.5 -16q-16 0 -29 6q-8 0 -10 -6v-6q0 -25 20.5 -48.5t48 -43t57.5 -35t46 -21.5q20 -8 41.5 -14t44.5 -13v-192h-481z" />
<glyph unicode="m" horiz-adv-x="935" d="M72 -2v1028q78 4 146.5 41t125.5 84q23 18 35 49t12 60q0 61 -44 103t-103 42q-35 0 -71 -17.5t-52 -50.5q20 8 37 9q35 0 60.5 -26t25.5 -60q0 -35 -24.5 -62t-61.5 -27q-41 0 -63.5 29t-22.5 68q0 33 14 62.5t37.5 52t54.5 36t64 13.5q47 0 86 -20.5t63 -59.5v80h160 v-330q63 49 119 110q2 4 9 14.5t14 22t12.5 22.5t5.5 15v146l161 2v-1436h-161v1225q-27 -43 -73 -86t-87 -72v-1067h-160v1167q-33 -41 -74 -68.5t-86 -52.5v-1046h-159z" />
<glyph unicode="n" horiz-adv-x="632" d="M78 0v1434h162v-314v-176q0 -31 17 -65.5t43 -66.5t52.5 -59.5t44.5 -43.5v725h162v-1434h-162v662q-47 37 -91 88t-66 104v-854h-162z" />
<glyph unicode="o" horiz-adv-x="671" d="M56 904q12 148 69 285.5t168 256.5q16 16 31.5 30.5t31.5 30.5q4 4 12.5 5t12.5 1q25 0 41 -15t16 -40q0 -23 -16 -40t-41 -17q-27 0 -43 22l-12 -16q59 -82 101 -149.5t75 -139.5q68 -152 98 -306q20 -104 19 -205q-1 -51 -5 -99q-14 -148 -74 -285t-169 -252 q-16 -16 -32.5 -30.5t-33.5 -30.5q-4 -4 -13 -5t-13 -1q-23 0 -39.5 17.5t-16.5 39.5q0 23 17.5 39t40.5 16q27 0 43 -22l10 14q-53 76 -97 144.5t-77 144.5q-59 151 -88 305q-20 108 -20 212q0 45 4 90zM189 974q-3 -46 -3 -90q0 -104 18 -204q26 -143 81 -280.5 t123 -276.5q53 150 59 301q1 29 1 57q0 123 -20 243q-26 148 -74.5 292.5t-105.5 279.5q-68 -170 -79 -322z" />
<glyph unicode="p" d="M78 0v1436h479v-504q-29 -6 -63.5 -19.5t-68.5 -30t-63.5 -39t-46.5 -46.5q-4 -6 -10 -16.5t-6 -18.5v-8l2 -2q2 -6 10 -7h4v3q8 4 23 4q25 0 41 -16.5t16 -39.5q0 -25 -16.5 -41t-38.5 -16q-35 0 -53.5 34t-18.5 62q0 61 41 98t88 66v510h-159v-1409h-160z" />
<glyph unicode="q" horiz-adv-x="712" d="M51 906q12 149 69.5 286t168.5 256l63 61q4 4 12.5 5.5t12.5 1.5q25 0 41 -15.5t16 -40.5q0 -23 -16.5 -40t-40.5 -17q-27 0 -43 22l-12 -16q59 -82 101 -149.5t75 -139.5q61 -135 90 -274q26 -122 26 -242v-32q-4 -136 -45 -263t-120 -237q37 -37 83 -37h9q57 0 100 45 l12 12q-8 -4 -19 -5t-20 -1q-35 4 -58 32q-20 22 -20 51q0 7 1 13q0 20 10 33q10 20 33.5 34.5t48.5 10.5q37 -4 61 -30q22 -23 22 -52q0 -5 -1 -10q-2 -27 -16.5 -58.5t-35.5 -48.5q-23 -27 -54.5 -39t-63.5 -14q-29 -4 -55.5 8.5t-53.5 30.5q-12 -16 -30.5 -36.5 t-34.5 -37.5l-66 -61q-4 -4 -13 -5t-14 -1q-23 0 -39 17.5t-16 39.5q0 23 17.5 39t39.5 16q27 0 43 -22l11 14q-53 76 -97.5 144.5t-76.5 144.5q-59 150 -88 305q-21 109 -21 215q0 44 4 87zM185 976q-3 -45 -3 -90q0 -104 18 -204q25 -143 80.5 -280.5t122.5 -276.5 q53 139 61 285q3 37 3 75q0 108 -19 217q-24 148 -73.5 298.5t-110.5 297.5q-68 -170 -79 -322z" />
<glyph unicode="r" horiz-adv-x="626" d="M76 4v1436h479v-531q-23 -6 -43 -12t-43 -14q-47 -18 -94 -48t-72 -77q-6 -10 -6 -19v-6l2 -2q2 -6 8 -6h4h2q8 4 25 4q23 0 39 -15.5t16 -37.5q0 -23 -16.5 -40.5t-38.5 -17.5q-25 0 -37 13.5t-22 34.5q-4 4 -8.5 15t-2.5 17l-2 4v11q0 31 11.5 55.5t30 43.5t41 34.5 t46.5 30.5v536h-159v-764q16 -37 54 -70.5t84 -59t94 -41t87 -17.5v-457h-160v475q-41 23 -86 50.5t-71 68.5q0 -150 -1 -297t-1 -297h-160z" />
<glyph unicode="s" horiz-adv-x="587" d="M55 268v21q23 6 44.5 12t41.5 14q14 6 43 20.5t57.5 35t50 43t21.5 45.5v6q-6 10 -12 10q-4 0 -4 -2q-8 -4 -23 -4q-23 0 -40 15.5t-17 37.5q0 25 15.5 41.5t39.5 16.5q35 0 53.5 -33t18.5 -62q0 -61 -41 -99t-88 -64v-236q0 -20 14.5 -36.5t34.5 -16.5h64 q20 0 33.5 17.5t13.5 35.5v363q0 80 -26.5 128t-102.5 80q-39 16 -73 32t-59.5 37.5t-40 54t-14.5 81.5l-4 197v28q-1 52 5 104q8 66 33.5 119.5t73.5 87.5t128 34q115 0 178.5 -55.5t63.5 -172.5v-20q-31 -6 -70 -19.5t-76 -34t-67.5 -46t-44.5 -58.5v-8l-3 -4v-2l3 -4 q-2 -4 2 -6.5t8 -2.5h6q12 6 24 7q23 0 39.5 -17.5t16.5 -40.5t-16.5 -39t-39.5 -16q-20 0 -32.5 9t-20.5 23.5t-13 31t-7 32.5q4 10 4 22.5t4 22.5q12 39 50 69t71 48v199q0 18 -13.5 35.5t-33.5 17.5h-64q-20 0 -34.5 -16.5t-14.5 -36.5v-291q0 -16 -1 -50t-1 -70t2 -66.5 t6 -38.5q70 -23 135.5 -56t108.5 -92q35 -51 53.5 -104.5t18.5 -132.5q0 -47 1 -97v-13q0 -44 -6 -85q-12 -109 -66 -179.5t-171 -70.5q-129 0 -184.5 70.5t-55.5 193.5z" />
<glyph unicode="t" horiz-adv-x="673" d="M37 1133v301h600v-191l-162 -37v201h-55v-1409h-160v1409h-63v-238z" />
<glyph unicode="u" horiz-adv-x="612" d="M68 317v1113h159v-1356q0 -35 26 -45.5t54 -10.5q29 0 54.5 10.5t25.5 45.5v1329v27h162v-1121q0 -63 -17 -133q-18 -88 -75.5 -136t-149.5 -48q-72 0 -119 27.5t-73.5 72.5t-36.5 104.5t-10 120.5z" />
<glyph unicode="v" horiz-adv-x="606" d="M66 506v930h161v-1196l82 -205l78 201v1200h160v-932l-191 -473q-8 -18 -28 -27q-6 -6 -21 -6q-35 0 -49 33z" />
<glyph unicode="w" horiz-adv-x="937" d="M63 504v930h160v-1198l84 -203l76 198v924q-47 29 -87 67t-40 97q0 10 5 35.5t15 29.5q14 31 50 31q23 0 40 -17.5t17 -39.5q0 -23 -17.5 -39t-39.5 -16q-8 0 -15.5 3t-13.5 3q-4 0 -8 -2t-2 -7l-2 -4v-4l2 -2q8 -35 38.5 -62.5t69.5 -48t79 -35t69 -20.5v-622l2 2v-268 l82 -203l75 198v1203h162v-932l-190 -473q-6 -16 -19.5 -24.5t-29.5 -8.5q-37 0 -50 33l-112 274l-111 -274q-12 -33 -47 -33q-39 0 -51 33z" />
<glyph unicode="x" horiz-adv-x="610" d="M66 -10v694q59 23 112 53.5t101 73.5q-27 25 -49.5 50.5t-47 48t-52.5 40t-64 27.5v448h159v-395v-43q0 -16 8.5 -37.5t19.5 -42t24.5 -39t25.5 -30.5q25 27 49.5 69.5t28.5 79.5v43v2v393h162v-448q-66 -16 -118 -66.5t-95 -97.5v-2q43 -43 99 -73.5t114 -53.5v-692 h-162v727q-18 16 -37.5 32.5t-40.5 32.5l-78 -65v-729h-159z" />
<glyph unicode="y" horiz-adv-x="591" d="M55 317v181h160v-426q0 -35 25.5 -45.5t54.5 -10.5t54.5 10.5t25.5 45.5v522q0 31 -15.5 65.5t-40.5 53.5q-57 43 -123.5 77.5t-140.5 38.5v598h160v-616q43 -25 85 -51.5t73 -67.5q6 25 4 54.5t-2 56.5v624h160v-1122q0 -61 -11.5 -118.5t-39 -100.5t-73.5 -69.5 t-116 -26.5q-74 0 -120 27.5t-72.5 73.5t-37 105.5t-10.5 120.5z" />
<glyph unicode="z" horiz-adv-x="608" d="M63 -6v412l320 593v404h-160v-72v-12q20 -14 43 -27.5t39 -29.5t31.5 -46t15.5 -53q0 -18 -5 -36.5t-15 -34.5v-2q-16 -31 -51 -31q-23 0 -39.5 16.5t-16.5 40.5q0 23 15.5 39t40.5 16q8 0 15 -3t13 -3t10 6l3 3v4q0 25 -21.5 48t-50.5 42.5t-57.5 35t-45.5 21.5 q-20 8 -41.5 13t-42.5 12v80h480v-431l-320 -593v-383h160v147q-47 27 -88 64.5t-41 99.5q0 29 18.5 62.5t53.5 33.5q23 0 39 -16.5t16 -38.5q0 -23 -16.5 -40.5t-38.5 -17.5q-8 0 -15.5 3.5t-13.5 3.5q-8 0 -12 -11v-2q0 -25 20.5 -48t49 -42.5t57 -35t45.5 -21.5 q20 -8 41.5 -13.5t44.5 -11.5v-145h-480z" />
<glyph unicode="{" horiz-adv-x="395" d="M41 760l127 71v1014h315v-43h-131v-928q-63 -31 -117.5 -58.5t-101.5 -55.5l219 -139v-988h131v-43h-315v1092z" />
<glyph unicode="|" horiz-adv-x="280" d="M59 -383v2200v26h160v-2253h-160v27z" />
<glyph unicode="}" horiz-adv-x="395" d="M-88 -367h131v988l219 139q-47 29 -101.5 56.5t-117.5 57.5v928h-131v43h315v-1014l127 -71l-127 -78v-1092h-315v43z" />
<glyph unicode="~" horiz-adv-x="487" d="M68 430q0 147 43 162q47 14 63 12q12 -4 86 -45q61 -41 84 -41q37 0 47 94h27q0 -150 -41 -163q-37 -12 -66 -11q-23 4 -84 45t-86 41q-37 0 -47 -94h-26z" />
<glyph unicode="&#xab;" horiz-adv-x="550" d="M37 1325q0 45 30.5 73.5t73.5 28.5q53 0 77 -37.5t24 -84.5q0 -33 -11.5 -65t-31 -58.5t-48 -43t-63.5 -18.5q8 10 11 23.5t12 23.5v15q0 25 -11.5 37t-26 24t-25.5 29.5t-11 52.5zM291 1321q0 45 30.5 73.5t73.5 28.5q53 0 77 -38t24 -85q0 -33 -11.5 -64.5t-31 -58 t-48 -43t-63.5 -18.5q8 10 11 23.5t12 23.5v15q0 25 -11.5 37t-26 24t-25.5 29.5t-11 52.5z" />
<glyph unicode="&#xad;" horiz-adv-x="458" d="M61 672v108h336v-108h-336z" />
<glyph unicode="&#xb7;" horiz-adv-x="317" d="M57 717q0 41 31 71.5t72 30.5t70.5 -30.5t29.5 -71.5t-29.5 -72t-70.5 -31t-72 31t-31 72z" />
<glyph unicode="&#xbb;" horiz-adv-x="550" d="M37 1325q0 45 30.5 73.5t73.5 28.5q53 0 77 -37.5t24 -84.5q0 -33 -11.5 -65t-31 -58.5t-48 -43t-63.5 -18.5q8 10 11 23.5t12 23.5v15q0 25 -11.5 37t-26 24t-25.5 29.5t-11 52.5zM291 1321q0 45 30.5 73.5t73.5 28.5q53 0 77 -38t24 -85q0 -33 -11.5 -64.5t-31 -58 t-48 -43t-63.5 -18.5q8 10 11 23.5t12 23.5v15q0 25 -11.5 37t-26 24t-25.5 29.5t-11 52.5z" />
<glyph unicode="&#x401;" horiz-adv-x="634" d="M70 180q0 33 26.5 57.5t57.5 24.5q35 0 61.5 -26.5t26.5 -61.5t-26 -60.5t-60 -25.5q-20 0 -37 8q37 -47 88 -47q53 0 86 39t33 92q0 47 -27 84t-65.5 63.5t-84 46t-79.5 34.5v702q0 43 5 88t19.5 87t41 76t69.5 54q16 8 36.5 14.5t39.5 6.5h57q20 0 39.5 -6.5 t36.5 -14.5q43 -18 69.5 -53t42 -77t20.5 -87t5 -88v-55h-162v299q0 18 -13.5 35.5t-33.5 17.5h-70q-18 0 -30.5 -18.5t-12.5 -34.5v-482q43 16 92.5 28.5t96.5 12.5q43 0 68.5 -17t39 -45t18.5 -62.5t7 -69.5h-162q0 14 -3 36.5t-12 43t-23.5 35t-37.5 14.5q-41 0 -84 -17 v-442q53 -45 87 -89t34 -116q0 -66 -28.5 -98.5t-85.5 -60.5q59 -2 89.5 16t45 51t16.5 78t2 96v228h162v-166q0 -61 -11.5 -121t-39 -106t-73.5 -73.5t-118 -27.5q-16 0 -33.5 1t-33.5 1q-37 0 -69 14.5t-54.5 39t-35.5 56t-13 68.5zM82 1597q0 41 30.5 72t71.5 31t71 -31 t30 -72t-30 -71.5t-71 -30.5t-71.5 30.5t-30.5 71.5zM336 1597q0 41 30.5 72t71.5 31t71 -31t30 -72t-30 -71.5t-71 -30.5t-71.5 30.5t-30.5 71.5z" />
<glyph unicode="&#x404;" horiz-adv-x="634" d="M70 180q0 33 26.5 57.5t57.5 24.5q35 0 61.5 -26.5t26.5 -61.5t-26 -60.5t-60 -25.5q-20 0 -37 8q37 -47 88 -47q53 0 86 39t33 92q0 84 -93 148q-45 31 -163 80v702q0 242 135 305q41 20 104 21q117 0 171.5 -71t66.5 -167q4 -45 4 -143h-162v299q0 18 -13.5 35.5 t-33.5 17.5h-70q-18 0 -30.5 -18.5t-12.5 -34.5v-531q43 -16 84 -16q39 0 62 49q14 35 14 80h162q-6 -90 -25 -131q-31 -63 -108 -64q-80 0 -189 41v-393q53 -45 87 -89t34 -116q0 -66 -28.5 -98.5t-85.5 -60.5h12q51 0 80 16q55 35 59 129q2 45 2 324h162v-166 q0 -143 -49 -226q-61 -102 -193 -102l-67 2q-74 0 -123 53.5t-49 124.5z" />
<glyph unicode="&#x406;" horiz-adv-x="276" d="M57 -2v1436h160v-1436h-160z" />
<glyph unicode="&#x407;" horiz-adv-x="276" d="M-82 1597q0 41 30.5 72t71.5 31t71 -31t30 -72t-30 -71.5t-71 -30.5t-71.5 30.5t-30.5 71.5zM57 -2v1436h160v-1436h-160zM172 1597q0 41 30.5 72t71.5 31t71 -31t30 -72t-30 -71.5t-71 -30.5t-71.5 30.5t-30.5 71.5z" />
<glyph unicode="&#x40e;" horiz-adv-x="591" d="M55 317v181h160v-426q0 -35 25.5 -45.5t54.5 -10.5t54.5 10.5t25.5 45.5v522q0 31 -15.5 65.5t-40.5 53.5q-57 43 -123.5 77.5t-140.5 38.5v598h160v-616q43 -25 85 -51.5t73 -67.5q6 25 4 54.5t-2 56.5v624h160v-1122q0 -61 -11.5 -118.5t-39 -100.5t-73.5 -69.5 t-116 -26.5q-74 0 -120 27.5t-72.5 73.5t-37 105.5t-10.5 120.5zM68 1714h96q0 -86 65 -123q68 -33 131 4q68 37 68 119h96q0 -92 -65 -147q-63 -57 -162 -58q-100 0 -164 58q-66 55 -65 147z" />
<glyph unicode="&#x410;" horiz-adv-x="602" d="M68 0v1028q78 4 146.5 41t127.5 84q23 16 35 48t12 61q0 59 -44 102t-103 43q-41 0 -72 -17.5t-53 -50.5q20 8 37 9q35 0 61.5 -25t26.5 -61q0 -37 -26 -62.5t-62 -25.5q-39 0 -62.5 27.5t-23.5 64.5q0 35 14 65.5t37.5 53t54.5 36t66 13.5q45 0 85 -20.5t62 -59.5v80 h162v-1434h-162v584h-158v-584h-161zM229 631h158v536q-27 -41 -72 -69.5t-86 -50.5v-416z" />
<glyph unicode="&#x411;" d="M78 0v1436h160v-6h319v-302l-160 2v273h-159v-1376h159v510q-47 29 -88 65.5t-41 97.5q0 29 18.5 63t53.5 34q23 0 39 -16.5t16 -41.5q0 -23 -16.5 -39t-40.5 -16q-14 0 -23 4v2h-4q-8 0 -10 -6l-2 -2v-8q0 -8 6 -18.5t10 -16.5q16 -25 46 -47.5t64 -38.5t68.5 -29.5 t63.5 -19.5v-504h-479z" />
<glyph unicode="&#x412;" horiz-adv-x="645" d="M90 0v1436h320v-27h-158v-561q23 31 54.5 53.5t64.5 42.5l12 -20q-31 -20 -69 -50t-52 -65q4 -10 9 -17.5t12 -15.5v-2q12 -18 44.5 -40.5t55.5 -39.5l-12 -20q-29 16 -66 42.5t-53 55.5v-772h-162zM252 0v27h158v624l-39 23l12 20q41 -23 91 -40t97 -21v-633h-319z M371 944l39 23v469h161v-451q-47 -2 -98 -20.5t-90 -40.5z" />
<glyph unicode="&#x413;" horiz-adv-x="636" d="M78 -6v1436h479v-302l-160 2v273h-159v-1409h-160z" />
<glyph unicode="&#x414;" horiz-adv-x="1067" d="M74 25h223v1001q78 4 146.5 41t125.5 84q23 18 35 49t12 60q0 61 -44 103t-103 42q-35 0 -71 -17.5t-52 -50.5q20 8 37 9q35 0 60.5 -26t25.5 -60q0 -35 -24.5 -62t-61.5 -27q-41 0 -63.5 29t-22.5 68q0 33 14.5 62.5t38 52t54 36t63.5 13.5q47 0 86 -20.5t63 -59.5v80 h160v-1407h217v-191l-162 -37v201h-598v-238l-159 -36v301zM457 25h159v1140q-33 -41 -73.5 -68.5t-85.5 -52.5v-1019z" />
<glyph unicode="&#x415;" horiz-adv-x="634" d="M70 180q0 33 26.5 57.5t57.5 24.5q35 0 61.5 -26.5t26.5 -61.5t-26 -60.5t-60 -25.5q-20 0 -37 8q37 -47 88 -47q53 0 86 39t33 92q0 47 -27 84t-65.5 63.5t-84 46t-79.5 34.5v702q0 43 5 88t19.5 87t41 76t69.5 54q16 8 36.5 14.5t39.5 6.5h57q20 0 39.5 -6.5 t36.5 -14.5q43 -18 69.5 -53t42 -77t20.5 -87t5 -88v-55h-162v299q0 18 -13.5 35.5t-33.5 17.5h-70q-18 0 -30.5 -18.5t-12.5 -34.5v-482q43 16 92.5 28.5t96.5 12.5q43 0 68.5 -17t39 -45t18.5 -62.5t7 -69.5h-162q0 14 -3 36.5t-12 43t-23.5 35t-37.5 14.5q-41 0 -84 -17 v-442q53 -45 87 -89t34 -116q0 -66 -28.5 -98.5t-85.5 -60.5q59 -2 89.5 16t45 51t16.5 78t2 96v228h162v-166q0 -61 -11.5 -121t-39 -106t-73.5 -73.5t-118 -27.5q-16 0 -33.5 1t-33.5 1q-37 0 -69 14.5t-54.5 39t-35.5 56t-13 68.5z" />
<glyph unicode="&#x416;" horiz-adv-x="972" d="M84 -4v639q78 4 147.5 40t124.5 85q10 10 20.5 22.5t14.5 26.5q-6 25 -27.5 43t-39.5 35q-47 37 -114 65.5t-126 32.5v447h160v-465q43 -25 85 -51.5t72 -67.5q2 4 2 10v574h160v-574q0 -6 2 -10q31 41 73 67.5t85 51.5v465h160v-447q-59 -4 -126 -32.5t-114 -65.5 q-18 -16 -39.5 -34.5t-28.5 -43.5q4 -14 14.5 -26.5t20.5 -22.5q55 -49 125 -85t148 -40v-639h-160v655q-41 23 -86 51.5t-72 69.5q0 -4 -1 -10t-1 -10v-756h-160v766q-2 6 -2 10q-27 -41 -71.5 -69.5t-85.5 -51.5v-655h-160z" />
<glyph unicode="&#x417;" horiz-adv-x="591" d="M55 328v57h160v-301q0 -18 14.5 -35.5t34.5 -17.5h64q20 0 33.5 17.5t13.5 35.5v743q-16 6 -34.5 11.5t-35.5 5.5q-10 0 -22.5 -3t-22.5 -7q-16 -16 -24.5 -28.5t-12.5 -25t-5 -29t-3 -38.5h-160q0 35 4 69.5t18.5 62t41 45t67.5 17.5q47 0 95.5 -12t93.5 -29v484 q0 18 -13.5 35.5t-33.5 17.5h-64q-20 0 -34.5 -17.5t-14.5 -35.5v-301h-160q-2 66 4.5 134t31 123.5t72.5 90.5t132 35q72 0 119 -28t74.5 -74t38 -105.5t10.5 -120.5v-154q0 -35 -7.5 -77t-40.5 -58h-4l-4 -2q-6 -2 -13 0t-13 4q27 -6 43 -32.5t24 -58.5t11.5 -64.5 t3.5 -53.5v-280q0 -63 -11.5 -122t-39 -104t-73.5 -72.5t-118 -27.5t-119 27.5t-73.5 72.5t-37 104.5t-10.5 121.5z" />
<glyph unicode="&#x418;" horiz-adv-x="632" d="M78 0v1434h162v-725q18 16 44.5 43.5t52 59.5t43 66.5t17.5 65.5v176v314h162v-1434h-162v854q-23 -53 -66.5 -104.5t-90.5 -87.5v-662h-162z" />
<glyph unicode="&#x419;" horiz-adv-x="632" d="M78 0v1434h162v-725q18 16 44.5 43.5t52 59.5t43 66.5t17.5 65.5v176v314h162v-1434h-162v854q-23 -53 -66.5 -104.5t-90.5 -87.5v-662h-162zM80 1714h96q0 -86 66 -123q68 -33 131 4q68 37 67 119h97q0 -92 -66 -147q-63 -57 -162 -58q-100 0 -164 58q-66 55 -65 147z " />
<glyph unicode="&#x41a;" horiz-adv-x="653" d="M84 -4v1436h160v-474q0 -27 -2 -56.5t4 -53.5q31 41 72.5 67.5t84.5 51.5v465h160v-447q-59 -4 -125.5 -32.5t-113.5 -65.5q-18 -16 -40 -34.5t-28 -43.5q4 -14 14.5 -26.5t20.5 -22.5q55 -49 124.5 -85t147.5 -40v-639h-160v655q-41 23 -86 51.5t-71 69.5q0 -4 -1 -10 t-1 -10v-756h-160z" />
<glyph unicode="&#x41b;" horiz-adv-x="614" d="M72 -2v1028q78 4 146.5 41t125.5 84q23 18 35 49t12 60q0 61 -44 103t-103 42q-35 0 -71 -17.5t-52 -50.5q20 8 37 9q35 0 60.5 -26t25.5 -60q0 -35 -24.5 -62t-61.5 -27q-41 0 -63.5 29t-22.5 68q0 33 14 62.5t37.5 52t54.5 36t64 13.5q47 0 86 -20.5t63 -59.5v80h160 v-1434h-160v1167q-33 -41 -74 -68.5t-86 -52.5v-1046h-159z" />
<glyph unicode="&#x41c;" horiz-adv-x="935" d="M72 -2v1028q78 4 146.5 41t125.5 84q23 18 35 49t12 60q0 61 -44 103t-103 42q-35 0 -71 -17.5t-52 -50.5q20 8 37 9q35 0 60.5 -26t25.5 -60q0 -35 -24.5 -62t-61.5 -27q-41 0 -63.5 29t-22.5 68q0 33 14 62.5t37.5 52t54.5 36t64 13.5q47 0 86 -20.5t63 -59.5v80h160 v-330q63 49 119 110q2 4 9 14.5t14 22t12.5 22.5t5.5 15v146l161 2v-1436h-161v1225q-27 -43 -73 -86t-87 -72v-1067h-160v1167q-33 -41 -74 -68.5t-86 -52.5v-1046h-159z" />
<glyph unicode="&#x41d;" d="M74 -2v1434h162v-629h159v629h160v-1434h-160v758h-159v-758h-162z" />
<glyph unicode="&#x41e;" horiz-adv-x="671" d="M55.5 904.5q12.5 148.5 69.5 285.5t168 256q16 16 31.5 30.5t31.5 30.5q4 4 12.5 5t12.5 1q25 0 41 -15t16 -40q0 -23 -16 -40t-41 -17q-27 0 -43 22l-12 -16q59 -82 101 -149.5t75 -139.5q68 -152 97.5 -306.5t15 -303t-74.5 -285.5t-169 -252q-16 -16 -32.5 -30.5 t-33.5 -30.5q-4 -4 -13 -5t-13 -1q-23 0 -39.5 17.5t-16.5 39.5q0 23 17.5 39t40.5 16q27 0 43 -22l10 14q-53 76 -97 144.5t-77 144.5q-59 150 -88 304.5t-16.5 303zM189 974.5q-11 -151.5 14.5 -294.5t81 -280.5t123.5 -276.5q53 150 59 301t-19.5 299.5t-74 293 t-105.5 279.5q-68 -170 -79 -321.5z" />
<glyph unicode="&#x41f;" horiz-adv-x="636" d="M78 -6v1436h479v-1436h-160v1409h-159v-1409h-160z" />
<glyph unicode="&#x420;" d="M78 0v1436h479v-504q-29 -6 -63.5 -19.5t-68.5 -30t-63.5 -39t-46.5 -46.5q-4 -6 -10 -16.5t-6 -18.5v-8l2 -2q2 -6 10 -7h4v3q8 4 23 4q25 0 41 -16.5t16 -39.5q0 -25 -16.5 -41t-38.5 -16q-35 0 -53.5 34t-18.5 62q0 61 41 98t88 66v510h-159v-1409h-160z" />
<glyph unicode="&#x421;" horiz-adv-x="614" d="M70 170q0 35 25.5 60.5t60.5 25.5t60.5 -25.5t25.5 -60.5t-26 -61.5t-60 -26.5q-20 0 -37 8q16 -20 38.5 -33.5t49.5 -13.5q53 0 86 40t33 91q0 49 -27 85t-64.5 63.5t-83 46t-81.5 32.5v703q0 61 10 120.5t36.5 105.5t74 74t118.5 28q72 0 118 -28t73.5 -74t39 -105.5 t11.5 -120.5v-55h-162v301q0 18 -13.5 35.5t-33.5 17.5h-63q-20 0 -35 -17.5t-15 -35.5v-965q51 -43 87 -88t36 -117q0 -59 -30.5 -98t-83.5 -62q6 0 11 -1t11 -1q51 0 78 24t38 59.5t12 78.5t1 82v225h162v-165q0 -61 -10.5 -121t-38 -105t-74.5 -72.5t-119 -27.5h-67 q-37 0 -68 14.5t-54.5 38t-36.5 55t-13 66.5z" />
<glyph unicode="&#x422;" horiz-adv-x="673" d="M37 1133v301h600v-191l-162 -37v201h-55v-1409h-160v1409h-63v-238z" />
<glyph unicode="&#x423;" horiz-adv-x="591" d="M55 317v181h160v-426q0 -35 25.5 -45.5t54.5 -10.5t54.5 10.5t25.5 45.5v522q0 31 -15.5 65.5t-40.5 53.5q-57 43 -123.5 77.5t-140.5 38.5v598h160v-616q43 -25 85 -51.5t73 -67.5q6 25 4 54.5t-2 56.5v624h160v-1122q0 -61 -11.5 -118.5t-39 -100.5t-73.5 -69.5 t-116 -26.5q-74 0 -120 27.5t-72.5 73.5t-37 105.5t-10.5 120.5z" />
<glyph unicode="&#x424;" horiz-adv-x="948" d="M74 598v451h319v387h162v-387h319v-451q-88 -4 -188 -61q-102 -68 -121 -115l-10 -37v-385h-162v385l-10 37q-18 47 -121 115q-100 57 -188 61zM236 580q122 -72 157 -119v561h-157v-442zM555 461q37 49 158 119v442h-158v-561z" />
<glyph unicode="&#x425;" horiz-adv-x="610" d="M66 -10v694q59 23 112 53.5t101 73.5q-27 25 -49.5 50.5t-47 48t-52.5 40t-64 27.5v448h159v-395v-43q0 -16 8.5 -37.5t19.5 -42t24.5 -39t25.5 -30.5q25 27 49.5 69.5t28.5 79.5v43v2v393h162v-448q-66 -16 -118 -66.5t-95 -97.5v-2q43 -43 99 -73.5t114 -53.5v-692 h-162v727q-18 16 -37.5 32.5t-40.5 32.5l-78 -65v-729h-159z" />
<glyph unicode="&#x426;" horiz-adv-x="612" d="M68 317v1113h159v-1356q0 -35 26 -45.5t54 -10.5q29 0 54.5 10.5t25.5 45.5v1356h162v-1430q39 -23 59.5 -62.5t20.5 -84.5q0 -35 -13.5 -66t-36 -54.5t-53 -37.5t-65.5 -14q-37 0 -64.5 23.5t-27.5 62.5q0 37 25.5 62.5t62.5 25.5t61.5 -27t24.5 -61q0 -16 -8 -37 q33 23 50 53.5t17 71.5q0 59 -43 104q-33 33 -78 41h-94v2q-37 -10 -80 -10q-72 0 -119 27.5t-73.5 72.5t-36.5 104.5t-10 120.5z" />
<glyph unicode="&#x427;" horiz-adv-x="602" d="M55 899v537h160v-555q43 -25 85 -51.5t73 -67.5q6 25 4 54.5t-2 55.5v564h160v-1436h-160v709q-16 37 -53 70.5t-83 59t-95.5 42t-88.5 18.5z" />
<glyph unicode="&#x428;" horiz-adv-x="933" d="M68 317v1113h159v-1356q0 -35 26 -45.5t54 -10.5q29 0 54.5 10.5t25.5 45.5v1356h162v-1356q0 -35 25.5 -45.5t54.5 -10.5t54.5 10.5t25.5 45.5v1356h161v-1430h-161v2q-37 -10 -80 -10q-72 0 -119 28q-23 12 -41 31q-6 -6 -12 -10q-57 -49 -150 -49q-72 0 -119 27.5 t-73.5 72.5t-36.5 104.5t-10 120.5z" />
<glyph unicode="&#x429;" horiz-adv-x="933" d="M68 317v1113h159v-1356q0 -55 80 -56q80 0 80 56v1356h162v-1356q0 -55 80 -56q80 0 80 56v1356h161v-1430q80 -47 80 -147q0 -68 -49 -120t-119 -52q-37 0 -64.5 23.5t-27.5 62.5q0 37 25.5 62.5t62.5 25.5t61.5 -27t24.5 -61q0 -16 -8 -37q68 47 68 125q0 59 -43 104 q-33 33 -78 41h-94v2q-37 -10 -80 -10q-100 0 -160 59q-59 -59 -162 -59q-240 0 -239 325z" />
<glyph unicode="&#x42a;" horiz-adv-x="847" d="M78 1133v301h383v-1409h160v510q-47 29 -88 65.5t-41 97.5q0 29 18 63t53 34q23 0 39 -16.5t16 -41.5q0 -23 -16 -39t-41 -16q-14 0 -22 4v2h-4q-8 0 -11 -6l-2 -2v-8q0 -8 6.5 -18.5t10.5 -16.5q16 -25 45.5 -47.5t63.5 -38.5t69 -29.5t63 -19.5v-504h-479v1409h-63 v-238z" />
<glyph unicode="&#x42b;" horiz-adv-x="864" d="M78 0v1436h160v-1409h159v510q-47 29 -88 65.5t-41 97.5q0 29 18.5 63t53.5 34q23 0 39 -16.5t16 -41.5q0 -23 -16.5 -39t-40.5 -16q-14 0 -23 4v2h-4q-8 0 -10 -6l-2 -2v-8q0 -8 6 -18.5t10 -16.5q16 -25 46 -47.5t64 -38.5t68.5 -29.5t63.5 -19.5v-504h-479zM631 0 v1436h160v-1436h-160z" />
<glyph unicode="&#x42c;" d="M78 0v1436h160v-1409h159v510q-47 29 -88 65.5t-41 97.5q0 29 18.5 63t53.5 34q23 0 39 -16.5t16 -41.5q0 -23 -16.5 -39t-40.5 -16q-14 0 -23 4v2h-4q-8 0 -10 -6l-2 -2v-8q0 -8 6 -18.5t10 -16.5q16 -25 46 -47.5t64 -38.5t68.5 -29.5t63.5 -19.5v-504h-479z" />
<glyph unicode="&#x42d;" horiz-adv-x="634" d="M70 328v166h161v-228q0 -51 2.5 -96t16.5 -78t45 -51t90 -16q-57 29 -86 61.5t-29 97.5q0 72 34 116t87 89v442q-43 16 -84 17q-23 0 -37 -14.5t-23 -35t-12.5 -43t-3.5 -36.5h-161q2 35 7 69.5t18.5 62.5t39 45t68.5 17q47 0 96 -12t92 -29v482q0 16 -12 34.5t-31 18.5 h-69q-20 0 -34 -17.5t-14 -35.5v-299h-161v55q0 43 5 88t20.5 87t42 77t69.5 53q16 8 35.5 14.5t40.5 6.5h57q18 0 38.5 -6.5t37.5 -14.5q43 -20 69.5 -54t41 -76t19.5 -87t5 -88v-702q-35 -14 -80 -34t-84 -46.5t-65.5 -63.5t-26.5 -84q0 -53 32.5 -92t86.5 -39q51 0 88 47 q-16 -8 -37 -8q-35 0 -60.5 25.5t-25.5 60.5t26.5 61.5t61.5 26.5q31 0 57.5 -24.5t26.5 -57.5q0 -37 -13.5 -68.5t-36 -56t-54 -39t-68.5 -14.5q-16 0 -33.5 -1t-34.5 -1q-72 0 -118 27.5t-73.5 73.5t-38.5 105.5t-11 121.5z" />
<glyph unicode="&#x42e;" horiz-adv-x="935" d="M74 -2v1434h162v-629h79q0 51 4 102q12 147 69.5 284.5t168.5 256.5q16 16 31.5 30.5t32.5 30.5q4 4 12 5t12 1q25 0 41 -15t16 -40q0 -23 -16 -40t-41 -17q-27 0 -43 22l-12 -16q59 -82 101 -149.5t75 -139.5q68 -152 97.5 -306.5t15 -303t-75 -285.5t-168.5 -252 q-16 -16 -32.5 -30.5t-33.5 -30.5q-4 -4 -13 -5t-13 -1q-23 0 -39.5 17.5t-16.5 39.5q0 23 17.5 39t40.5 16q27 0 43 -22l10 14q-53 76 -97 144.5t-77 144.5q-59 150 -88 305q-15 78 -19 154h-81v-758h-162zM453 974.5q-11 -151.5 15 -294.5t81 -280.5t123 -276.5 q53 150 59 301t-19.5 299.5t-74 293t-105.5 279.5q-68 -170 -79 -321.5z" />
<glyph unicode="&#x42f;" horiz-adv-x="626" d="M76 4v457q39 2 87 17.5t94 41t84 59t54 70.5v764h-159v-536q25 -14 47 -30t40.5 -35t30 -44t11.5 -55v-11l-3 -4q2 -6 -2 -17t-8 -15q-10 -20 -22.5 -34t-36.5 -14q-23 0 -39 17.5t-16 40.5t16 38t39 15q16 0 24 -4h2h5q6 0 8 6l2 2v6q0 8 -6 19q-25 47 -72 76.5 t-94 48.5q-23 8 -43.5 14t-42.5 12v531h479v-1436h-160q0 150 -1 297.5t-1 296.5q-27 -41 -72 -68.5t-85 -50.5v-475h-160z" />
<glyph unicode="&#x430;" horiz-adv-x="602" d="M68 0v1028q78 4 146.5 41t127.5 84q23 16 35 48t12 61q0 59 -44 102t-103 43q-41 0 -72 -17.5t-53 -50.5q20 8 37 9q35 0 61.5 -25t26.5 -61q0 -37 -26 -62.5t-62 -25.5q-39 0 -62.5 27.5t-23.5 64.5q0 35 14 65.5t37.5 53t54.5 36t66 13.5q45 0 85 -20.5t62 -59.5v80 h162v-1434h-162v584h-158v-584h-161zM229 631h158v536q-27 -41 -72 -69.5t-86 -50.5v-416z" />
<glyph unicode="&#x431;" d="M78 0v1436h160v-6h319v-302l-160 2v273h-159v-1376h159v510q-47 29 -88 65.5t-41 97.5q0 29 18.5 63t53.5 34q23 0 39 -16.5t16 -41.5q0 -23 -16.5 -39t-40.5 -16q-14 0 -23 4v2h-4q-8 0 -10 -6l-2 -2v-8q0 -8 6 -18.5t10 -16.5q16 -25 46 -47.5t64 -38.5t68.5 -29.5 t63.5 -19.5v-504h-479z" />
<glyph unicode="&#x432;" horiz-adv-x="645" d="M90 0v1436h320v-27h-158v-561q23 31 54.5 53.5t64.5 42.5l12 -20q-31 -20 -69 -50t-52 -65q4 -10 9 -17.5t12 -15.5v-2q12 -18 44.5 -40.5t55.5 -39.5l-12 -20q-29 16 -66 42.5t-53 55.5v-772h-162zM252 0v27h158v624l-39 23l12 20q41 -23 91 -40t97 -21v-633h-319z M371 944l39 23v469h161v-451q-47 -2 -98 -20.5t-90 -40.5z" />
<glyph unicode="&#x433;" horiz-adv-x="636" d="M78 -6v1436h479v-302l-160 2v273h-159v-1409h-160z" />
<glyph unicode="&#x434;" horiz-adv-x="1067" d="M74 25h223v1001q78 4 146.5 41t125.5 84q23 18 35 49t12 60q0 61 -44 103t-103 42q-35 0 -71 -17.5t-52 -50.5q20 8 37 9q35 0 60.5 -26t25.5 -60q0 -35 -24.5 -62t-61.5 -27q-41 0 -63.5 29t-22.5 68q0 33 14.5 62.5t38 52t54 36t63.5 13.5q47 0 86 -20.5t63 -59.5v80 h160v-1407h217v-191l-162 -37v201h-598v-238l-159 -36v301zM457 25h159v1140q-33 -41 -73.5 -68.5t-85.5 -52.5v-1019z" />
<glyph unicode="&#x435;" horiz-adv-x="634" d="M70 180q0 33 26.5 57.5t57.5 24.5q35 0 61.5 -26.5t26.5 -61.5t-26 -60.5t-60 -25.5q-20 0 -37 8q37 -47 88 -47q53 0 86 39t33 92q0 47 -27 84t-65.5 63.5t-84 46t-79.5 34.5v702q0 43 5 88t19.5 87t41 76t69.5 54q16 8 36.5 14.5t39.5 6.5h57q20 0 39.5 -6.5 t36.5 -14.5q43 -18 69.5 -53t42 -77t20.5 -87t5 -88v-55h-162v299q0 18 -13.5 35.5t-33.5 17.5h-70q-18 0 -30.5 -18.5t-12.5 -34.5v-482q43 16 92.5 28.5t96.5 12.5q43 0 68.5 -17t39 -45t18.5 -62.5t7 -69.5h-162q0 14 -3 36.5t-12 43t-23.5 35t-37.5 14.5q-41 0 -84 -17 v-442q53 -45 87 -89t34 -116q0 -66 -28.5 -98.5t-85.5 -60.5q59 -2 89.5 16t45 51t16.5 78t2 96v228h162v-166q0 -61 -11.5 -121t-39 -106t-73.5 -73.5t-118 -27.5q-16 0 -33.5 1t-33.5 1q-37 0 -69 14.5t-54.5 39t-35.5 56t-13 68.5z" />
<glyph unicode="&#x436;" horiz-adv-x="972" d="M84 -4v639q78 4 147.5 40t124.5 85q10 10 20.5 22.5t14.5 26.5q-6 25 -27.5 43t-39.5 35q-47 37 -114 65.5t-126 32.5v447h160v-465q43 -25 85 -51.5t72 -67.5q2 4 2 10v574h160v-574q0 -6 2 -10q31 41 73 67.5t85 51.5v465h160v-447q-59 -4 -126 -32.5t-114 -65.5 q-18 -16 -39.5 -34.5t-28.5 -43.5q4 -14 14.5 -26.5t20.5 -22.5q55 -49 125 -85t148 -40v-639h-160v655q-41 23 -86 51.5t-72 69.5q0 -4 -1 -10t-1 -10v-756h-160v766q-2 6 -2 10q-27 -41 -71.5 -69.5t-85.5 -51.5v-655h-160z" />
<glyph unicode="&#x437;" horiz-adv-x="591" d="M55 328v57h160v-301q0 -18 14.5 -35.5t34.5 -17.5h64q20 0 33.5 17.5t13.5 35.5v743q-16 6 -34.5 11.5t-35.5 5.5q-10 0 -22.5 -3t-22.5 -7q-16 -16 -24.5 -28.5t-12.5 -25t-5 -29t-3 -38.5h-160q0 35 4 69.5t18.5 62t41 45t67.5 17.5q47 0 95.5 -12t93.5 -29v484 q0 18 -13.5 35.5t-33.5 17.5h-64q-20 0 -34.5 -17.5t-14.5 -35.5v-301h-160q-2 66 4.5 134t31 123.5t72.5 90.5t132 35q72 0 119 -28t74.5 -74t38 -105.5t10.5 -120.5v-154q0 -35 -7.5 -77t-40.5 -58h-4l-4 -2q-6 -2 -13 0t-13 4q27 -6 43 -32.5t24 -58.5t11.5 -64.5 t3.5 -53.5v-280q0 -63 -11.5 -122t-39 -104t-73.5 -72.5t-118 -27.5t-119 27.5t-73.5 72.5t-37 104.5t-10.5 121.5z" />
<glyph unicode="&#x438;" horiz-adv-x="632" d="M78 0v1434h162v-725q18 16 44.5 43.5t52 59.5t43 66.5t17.5 65.5v176v314h162v-1434h-162v854q-23 -53 -66.5 -104.5t-90.5 -87.5v-662h-162z" />
<glyph unicode="&#x439;" horiz-adv-x="632" d="M78 0v1434h162v-725q18 16 44.5 43.5t52 59.5t43 66.5t17.5 65.5v176v314h162v-1434h-162v854q-23 -53 -66.5 -104.5t-90.5 -87.5v-662h-162zM80 1714h96q0 -86 66 -123q68 -33 131 4q68 37 67 119h97q0 -92 -66 -147q-63 -57 -162 -58q-100 0 -164 58q-66 55 -65 147z " />
<glyph unicode="&#x43a;" horiz-adv-x="653" d="M84 -4v1436h160v-474q0 -27 -2 -56.5t4 -53.5q31 41 72.5 67.5t84.5 51.5v465h160v-447q-59 -4 -125.5 -32.5t-113.5 -65.5q-18 -16 -40 -34.5t-28 -43.5q4 -14 14.5 -26.5t20.5 -22.5q55 -49 124.5 -85t147.5 -40v-639h-160v655q-41 23 -86 51.5t-71 69.5q0 -4 -1 -10 t-1 -10v-756h-160z" />
<glyph unicode="&#x43b;" horiz-adv-x="614" d="M72 -2v1028q78 4 146.5 41t125.5 84q23 18 35 49t12 60q0 61 -44 103t-103 42q-35 0 -71 -17.5t-52 -50.5q20 8 37 9q35 0 60.5 -26t25.5 -60q0 -35 -24.5 -62t-61.5 -27q-41 0 -63.5 29t-22.5 68q0 33 14 62.5t37.5 52t54.5 36t64 13.5q47 0 86 -20.5t63 -59.5v80h160 v-1434h-160v1167q-33 -41 -74 -68.5t-86 -52.5v-1046h-159z" />
<glyph unicode="&#x43c;" horiz-adv-x="935" d="M72 -2v1028q78 4 146.5 41t125.5 84q23 18 35 49t12 60q0 61 -44 103t-103 42q-35 0 -71 -17.5t-52 -50.5q20 8 37 9q35 0 60.5 -26t25.5 -60q0 -35 -24.5 -62t-61.5 -27q-41 0 -63.5 29t-22.5 68q0 33 14 62.5t37.5 52t54.5 36t64 13.5q47 0 86 -20.5t63 -59.5v80h160 v-330q63 49 119 110q2 4 9 14.5t14 22t12.5 22.5t5.5 15v146l161 2v-1436h-161v1225q-27 -43 -73 -86t-87 -72v-1067h-160v1167q-33 -41 -74 -68.5t-86 -52.5v-1046h-159z" />
<glyph unicode="&#x43d;" d="M74 -2v1434h162v-629h159v629h160v-1434h-160v758h-159v-758h-162z" />
<glyph unicode="&#x43e;" horiz-adv-x="671" d="M55.5 904.5q12.5 148.5 69.5 285.5t168 256q16 16 31.5 30.5t31.5 30.5q4 4 12.5 5t12.5 1q25 0 41 -15t16 -40q0 -23 -16 -40t-41 -17q-27 0 -43 22l-12 -16q59 -82 101 -149.5t75 -139.5q68 -152 97.5 -306.5t15 -303t-74.5 -285.5t-169 -252q-16 -16 -32.5 -30.5 t-33.5 -30.5q-4 -4 -13 -5t-13 -1q-23 0 -39.5 17.5t-16.5 39.5q0 23 17.5 39t40.5 16q27 0 43 -22l10 14q-53 76 -97 144.5t-77 144.5q-59 150 -88 304.5t-16.5 303zM189 974.5q-11 -151.5 14.5 -294.5t81 -280.5t123.5 -276.5q53 150 59 301t-19.5 299.5t-74 293 t-105.5 279.5q-68 -170 -79 -321.5z" />
<glyph unicode="&#x43f;" horiz-adv-x="636" d="M78 -6v1436h479v-1436h-160v1409h-159v-1409h-160z" />
<glyph unicode="&#x440;" d="M78 0v1436h479v-504q-29 -6 -63.5 -19.5t-68.5 -30t-63.5 -39t-46.5 -46.5q-4 -6 -10 -16.5t-6 -18.5v-8l2 -2q2 -6 10 -7h4v3q8 4 23 4q25 0 41 -16.5t16 -39.5q0 -25 -16.5 -41t-38.5 -16q-35 0 -53.5 34t-18.5 62q0 61 41 98t88 66v510h-159v-1409h-160z" />
<glyph unicode="&#x441;" horiz-adv-x="614" d="M70 170q0 35 25.5 60.5t60.5 25.5t60.5 -25.5t25.5 -60.5t-26 -61.5t-60 -26.5q-20 0 -37 8q16 -20 38.5 -33.5t49.5 -13.5q53 0 86 40t33 91q0 49 -27 85t-64.5 63.5t-83 46t-81.5 32.5v703q0 61 10 120.5t36.5 105.5t74 74t118.5 28q72 0 118 -28t73.5 -74t39 -105.5 t11.5 -120.5v-55h-162v301q0 18 -13.5 35.5t-33.5 17.5h-63q-20 0 -35 -17.5t-15 -35.5v-965q51 -43 87 -88t36 -117q0 -59 -30.5 -98t-83.5 -62q6 0 11 -1t11 -1q51 0 78 24t38 59.5t12 78.5t1 82v225h162v-165q0 -61 -10.5 -121t-38 -105t-74.5 -72.5t-119 -27.5h-67 q-37 0 -68 14.5t-54.5 38t-36.5 55t-13 66.5z" />
<glyph unicode="&#x442;" horiz-adv-x="673" d="M37 1133v301h600v-191l-162 -37v201h-55v-1409h-160v1409h-63v-238z" />
<glyph unicode="&#x443;" horiz-adv-x="591" d="M55 317v181h160v-426q0 -35 25.5 -45.5t54.5 -10.5t54.5 10.5t25.5 45.5v522q0 31 -15.5 65.5t-40.5 53.5q-57 43 -123.5 77.5t-140.5 38.5v598h160v-616q43 -25 85 -51.5t73 -67.5q6 25 4 54.5t-2 56.5v624h160v-1122q0 -61 -11.5 -118.5t-39 -100.5t-73.5 -69.5 t-116 -26.5q-74 0 -120 27.5t-72.5 73.5t-37 105.5t-10.5 120.5z" />
<glyph unicode="&#x444;" horiz-adv-x="948" d="M74 598v451h319v387h162v-387h319v-451q-88 -4 -188 -61q-102 -68 -121 -115l-10 -37v-385h-162v385l-10 37q-18 47 -121 115q-100 57 -188 61zM236 580q122 -72 157 -119v561h-157v-442zM555 461q37 49 158 119v442h-158v-561z" />
<glyph unicode="&#x445;" horiz-adv-x="610" d="M66 -10v694q59 23 112 53.5t101 73.5q-27 25 -49.5 50.5t-47 48t-52.5 40t-64 27.5v448h159v-395v-43q0 -16 8.5 -37.5t19.5 -42t24.5 -39t25.5 -30.5q25 27 49.5 69.5t28.5 79.5v43v2v393h162v-448q-66 -16 -118 -66.5t-95 -97.5v-2q43 -43 99 -73.5t114 -53.5v-692 h-162v727q-18 16 -37.5 32.5t-40.5 32.5l-78 -65v-729h-159z" />
<glyph unicode="&#x446;" horiz-adv-x="612" d="M68 317v1113h159v-1356q0 -35 26 -45.5t54 -10.5q29 0 54.5 10.5t25.5 45.5v1356h162v-1430q39 -23 59.5 -62.5t20.5 -84.5q0 -35 -13.5 -66t-36 -54.5t-53 -37.5t-65.5 -14q-37 0 -64.5 23.5t-27.5 62.5q0 37 25.5 62.5t62.5 25.5t61.5 -27t24.5 -61q0 -16 -8 -37 q33 23 50 53.5t17 71.5q0 59 -43 104q-33 33 -78 41h-94v2q-37 -10 -80 -10q-72 0 -119 27.5t-73.5 72.5t-36.5 104.5t-10 120.5z" />
<glyph unicode="&#x447;" horiz-adv-x="602" d="M55 899v537h160v-555q43 -25 85 -51.5t73 -67.5q6 25 4 54.5t-2 55.5v564h160v-1436h-160v709q-16 37 -53 70.5t-83 59t-95.5 42t-88.5 18.5z" />
<glyph unicode="&#x448;" horiz-adv-x="933" d="M68 317v1113h159v-1356q0 -35 26 -45.5t54 -10.5q29 0 54.5 10.5t25.5 45.5v1356h162v-1356q0 -35 25.5 -45.5t54.5 -10.5t54.5 10.5t25.5 45.5v1356h161v-1430h-161v2q-37 -10 -80 -10q-72 0 -119 28q-23 12 -41 31q-6 -6 -12 -10q-57 -49 -150 -49q-72 0 -119 27.5 t-73.5 72.5t-36.5 104.5t-10 120.5z" />
<glyph unicode="&#x449;" horiz-adv-x="933" d="M68 317v1113h159v-1356q0 -55 80 -56q80 0 80 56v1356h162v-1356q0 -55 80 -56q80 0 80 56v1356h161v-1430q80 -47 80 -147q0 -68 -49 -120t-119 -52q-37 0 -64.5 23.5t-27.5 62.5q0 37 25.5 62.5t62.5 25.5t61.5 -27t24.5 -61q0 -16 -8 -37q68 47 68 125q0 59 -43 104 q-33 33 -78 41h-94v2q-37 -10 -80 -10q-100 0 -160 59q-59 -59 -162 -59q-240 0 -239 325z" />
<glyph unicode="&#x44a;" horiz-adv-x="847" d="M78 1133v301h383v-1409h160v510q-47 29 -88 65.5t-41 97.5q0 29 18 63t53 34q23 0 39 -16.5t16 -41.5q0 -23 -16 -39t-41 -16q-14 0 -22 4v2h-4q-8 0 -11 -6l-2 -2v-8q0 -8 6.5 -18.5t10.5 -16.5q16 -25 45.5 -47.5t63.5 -38.5t69 -29.5t63 -19.5v-504h-479v1409h-63 v-238z" />
<glyph unicode="&#x44b;" horiz-adv-x="864" d="M78 0v1436h160v-1409h159v510q-47 29 -88 65.5t-41 97.5q0 29 18.5 63t53.5 34q23 0 39 -16.5t16 -41.5q0 -23 -16.5 -39t-40.5 -16q-14 0 -23 4v2h-4q-8 0 -10 -6l-2 -2v-8q0 -8 6 -18.5t10 -16.5q16 -25 46 -47.5t64 -38.5t68.5 -29.5t63.5 -19.5v-504h-479zM631 0 v1436h160v-1436h-160z" />
<glyph unicode="&#x44c;" d="M78 0v1436h160v-1409h159v510q-47 29 -88 65.5t-41 97.5q0 29 18.5 63t53.5 34q23 0 39 -16.5t16 -41.5q0 -23 -16.5 -39t-40.5 -16q-14 0 -23 4v2h-4q-8 0 -10 -6l-2 -2v-8q0 -8 6 -18.5t10 -16.5q16 -25 46 -47.5t64 -38.5t68.5 -29.5t63.5 -19.5v-504h-479z" />
<glyph unicode="&#x44d;" horiz-adv-x="634" d="M70 328v166h161v-228q0 -51 2.5 -96t16.5 -78t45 -51t90 -16q-57 29 -86 61.5t-29 97.5q0 72 34 116t87 89v442q-43 16 -84 17q-23 0 -37 -14.5t-23 -35t-12.5 -43t-3.5 -36.5h-161q2 35 7 69.5t18.5 62.5t39 45t68.5 17q47 0 96 -12t92 -29v482q0 16 -12 34.5t-31 18.5 h-69q-20 0 -34 -17.5t-14 -35.5v-299h-161v55q0 43 5 88t20.5 87t42 77t69.5 53q16 8 35.5 14.5t40.5 6.5h57q18 0 38.5 -6.5t37.5 -14.5q43 -20 69.5 -54t41 -76t19.5 -87t5 -88v-702q-35 -14 -80 -34t-84 -46.5t-65.5 -63.5t-26.5 -84q0 -53 32.5 -92t86.5 -39q51 0 88 47 q-16 -8 -37 -8q-35 0 -60.5 25.5t-25.5 60.5t26.5 61.5t61.5 26.5q31 0 57.5 -24.5t26.5 -57.5q0 -37 -13.5 -68.5t-36 -56t-54 -39t-68.5 -14.5q-16 0 -33.5 -1t-34.5 -1q-72 0 -118 27.5t-73.5 73.5t-38.5 105.5t-11 121.5z" />
<glyph unicode="&#x44e;" horiz-adv-x="935" d="M74 -2v1434h162v-629h79q0 51 4 102q12 147 69.5 284.5t168.5 256.5q16 16 31.5 30.5t32.5 30.5q4 4 12 5t12 1q25 0 41 -15t16 -40q0 -23 -16 -40t-41 -17q-27 0 -43 22l-12 -16q59 -82 101 -149.5t75 -139.5q68 -152 97.5 -306.5t15 -303t-75 -285.5t-168.5 -252 q-16 -16 -32.5 -30.5t-33.5 -30.5q-4 -4 -13 -5t-13 -1q-23 0 -39.5 17.5t-16.5 39.5q0 23 17.5 39t40.5 16q27 0 43 -22l10 14q-53 76 -97 144.5t-77 144.5q-59 150 -88 305q-15 78 -19 154h-81v-758h-162zM453 974.5q-11 -151.5 15 -294.5t81 -280.5t123 -276.5 q53 150 59 301t-19.5 299.5t-74 293t-105.5 279.5q-68 -170 -79 -321.5z" />
<glyph unicode="&#x44f;" horiz-adv-x="626" d="M76 4v457q39 2 87 17.5t94 41t84 59t54 70.5v764h-159v-536q25 -14 47 -30t40.5 -35t30 -44t11.5 -55v-11l-3 -4q2 -6 -2 -17t-8 -15q-10 -20 -22.5 -34t-36.5 -14q-23 0 -39 17.5t-16 40.5t16 38t39 15q16 0 24 -4h2h5q6 0 8 6l2 2v6q0 8 -6 19q-25 47 -72 76.5 t-94 48.5q-23 8 -43.5 14t-42.5 12v531h479v-1436h-160q0 150 -1 297.5t-1 296.5q-27 -41 -72 -68.5t-85 -50.5v-475h-160z" />
<glyph unicode="&#x451;" horiz-adv-x="634" d="M70 180q0 33 26.5 57.5t57.5 24.5q35 0 61.5 -26.5t26.5 -61.5t-26 -60.5t-60 -25.5q-20 0 -37 8q37 -47 88 -47q53 0 86 39t33 92q0 47 -27 84t-65.5 63.5t-84 46t-79.5 34.5v702q0 43 5 88t19.5 87t41 76t69.5 54q16 8 36.5 14.5t39.5 6.5h57q20 0 39.5 -6.5 t36.5 -14.5q43 -18 69.5 -53t42 -77t20.5 -87t5 -88v-55h-162v299q0 18 -13.5 35.5t-33.5 17.5h-70q-18 0 -30.5 -18.5t-12.5 -34.5v-482q43 16 92.5 28.5t96.5 12.5q43 0 68.5 -17t39 -45t18.5 -62.5t7 -69.5h-162q0 14 -3 36.5t-12 43t-23.5 35t-37.5 14.5q-41 0 -84 -17 v-442q53 -45 87 -89t34 -116q0 -66 -28.5 -98.5t-85.5 -60.5q59 -2 89.5 16t45 51t16.5 78t2 96v228h162v-166q0 -61 -11.5 -121t-39 -106t-73.5 -73.5t-118 -27.5q-16 0 -33.5 1t-33.5 1q-37 0 -69 14.5t-54.5 39t-35.5 56t-13 68.5zM82 1597q0 41 30.5 72t71.5 31t71 -31 t30 -72t-30 -71.5t-71 -30.5t-71.5 30.5t-30.5 71.5zM336 1597q0 41 30.5 72t71.5 31t71 -31t30 -72t-30 -71.5t-71 -30.5t-71.5 30.5t-30.5 71.5z" />
<glyph unicode="&#x454;" horiz-adv-x="634" d="M70 180q0 33 26.5 57.5t57.5 24.5q35 0 61.5 -26.5t26.5 -61.5t-26 -60.5t-60 -25.5q-20 0 -37 8q37 -47 88 -47q53 0 86 39t33 92q0 84 -93 148q-45 31 -163 80v702q0 242 135 305q41 20 104 21q117 0 171.5 -71t66.5 -167q4 -45 4 -143h-162v299q0 18 -13.5 35.5 t-33.5 17.5h-70q-18 0 -30.5 -18.5t-12.5 -34.5v-531q43 -16 84 -16q39 0 62 49q14 35 14 80h162q-6 -90 -25 -131q-31 -63 -108 -64q-80 0 -189 41v-393q53 -45 87 -89t34 -116q0 -66 -28.5 -98.5t-85.5 -60.5h12q51 0 80 16q55 35 59 129q2 45 2 324h162v-166 q0 -143 -49 -226q-61 -102 -193 -102l-67 2q-74 0 -123 53.5t-49 124.5z" />
<glyph unicode="&#x456;" horiz-adv-x="276" d="M57 -2v1436h160v-1436h-160z" />
<glyph unicode="&#x457;" horiz-adv-x="276" d="M-82 1597q0 41 30.5 72t71.5 31t71 -31t30 -72t-30 -71.5t-71 -30.5t-71.5 30.5t-30.5 71.5zM57 -2v1436h160v-1436h-160zM172 1597q0 41 30.5 72t71.5 31t71 -31t30 -72t-30 -71.5t-71 -30.5t-71.5 30.5t-30.5 71.5z" />
<glyph unicode="&#x45e;" horiz-adv-x="591" d="M55 317v181h160v-426q0 -35 25.5 -45.5t54.5 -10.5t54.5 10.5t25.5 45.5v522q0 31 -15.5 65.5t-40.5 53.5q-57 43 -123.5 77.5t-140.5 38.5v598h160v-616q43 -25 85 -51.5t73 -67.5q6 25 4 54.5t-2 56.5v624h160v-1122q0 -61 -11.5 -118.5t-39 -100.5t-73.5 -69.5 t-116 -26.5q-74 0 -120 27.5t-72.5 73.5t-37 105.5t-10.5 120.5zM68 1714h96q0 -86 65 -123q68 -33 131 4q68 37 68 119h96q0 -92 -65 -147q-63 -57 -162 -58q-100 0 -164 58q-66 55 -65 147z" />
<glyph unicode="&#x490;" horiz-adv-x="636" d="M78 -6v1436h319v163l160 37v-227h-319v-1409h-160z" />
<glyph unicode="&#x491;" horiz-adv-x="636" d="M78 -6v1436h319v163l160 37v-227h-319v-1409h-160z" />
<glyph unicode="&#x4c1;" horiz-adv-x="972" d="M84 -4v639q78 4 147.5 40t124.5 85q10 10 20.5 22.5t14.5 26.5q-6 25 -27.5 43t-39.5 35q-47 37 -114 65.5t-126 32.5v447h160v-465q43 -25 85 -51.5t72 -67.5q2 4 2 10v574h160v-574q0 -6 2 -10q31 41 73 67.5t85 51.5v465h160v-447q-59 -4 -126 -32.5t-114 -65.5 q-18 -16 -39.5 -34.5t-28.5 -43.5q4 -14 14.5 -26.5t20.5 -22.5q55 -49 125 -85t148 -40v-639h-160v655q-41 23 -86 51.5t-72 69.5q0 -4 -1 -10t-1 -10v-756h-160v766q-2 6 -2 10q-27 -41 -71.5 -69.5t-85.5 -51.5v-655h-160zM256 1714h96q0 -86 66 -123q68 -33 131 4 q68 37 67 119h97q0 -92 -66 -147q-63 -57 -162 -58q-100 0 -163 58q-66 55 -66 147z" />
<glyph unicode="&#x4c2;" horiz-adv-x="972" d="M84 -4v639q78 4 147.5 40t124.5 85q10 10 20.5 22.5t14.5 26.5q-6 25 -27.5 43t-39.5 35q-47 37 -114 65.5t-126 32.5v447h160v-465q43 -25 85 -51.5t72 -67.5q2 4 2 10v574h160v-574q0 -6 2 -10q31 41 73 67.5t85 51.5v465h160v-447q-59 -4 -126 -32.5t-114 -65.5 q-18 -16 -39.5 -34.5t-28.5 -43.5q4 -14 14.5 -26.5t20.5 -22.5q55 -49 125 -85t148 -40v-639h-160v655q-41 23 -86 51.5t-72 69.5q0 -4 -1 -10t-1 -10v-756h-160v766q-2 6 -2 10q-27 -41 -71.5 -69.5t-85.5 -51.5v-655h-160zM256 1714h96q0 -86 66 -123q68 -33 131 4 q68 37 67 119h97q0 -92 -66 -147q-63 -57 -162 -58q-100 0 -163 58q-66 55 -66 147z" />
<glyph unicode="&#x2000;" horiz-adv-x="922" />
<glyph unicode="&#x2001;" horiz-adv-x="1845" />
<glyph unicode="&#x2002;" horiz-adv-x="922" />
<glyph unicode="&#x2003;" horiz-adv-x="1845" />
<glyph unicode="&#x2004;" horiz-adv-x="615" />
<glyph unicode="&#x2005;" horiz-adv-x="461" />
<glyph unicode="&#x2006;" horiz-adv-x="307" />
<glyph unicode="&#x2007;" horiz-adv-x="307" />
<glyph unicode="&#x2008;" horiz-adv-x="230" />
<glyph unicode="&#x2009;" horiz-adv-x="369" />
<glyph unicode="&#x200a;" horiz-adv-x="102" />
<glyph unicode="&#x2010;" horiz-adv-x="458" d="M61 672v108h336v-108h-336z" />
<glyph unicode="&#x2011;" horiz-adv-x="458" d="M61 672v108h336v-108h-336z" />
<glyph unicode="&#x2012;" horiz-adv-x="458" d="M61 672v108h336v-108h-336z" />
<glyph unicode="&#x2013;" horiz-adv-x="589" d="M61 672v108h467v-108h-467z" />
<glyph unicode="&#x2014;" horiz-adv-x="858" d="M61 672v108h736v-108h-736z" />
<glyph unicode="&#x2018;" horiz-adv-x="296" d="M37 1239q0 33 11 64.5t30.5 58.5t48.5 43t63 18q-8 -10 -11 -23.5t-11 -23.5v-14q0 -25 11 -37t25.5 -24.5t26 -30t11.5 -51.5q0 -45 -31 -74t-74 -29q-53 0 -76.5 38t-23.5 85z" />
<glyph unicode="&#x2019;" horiz-adv-x="296" d="M37 1321q0 45 30.5 73.5t73.5 28.5q53 0 77 -38t24 -85q0 -33 -11.5 -64.5t-31 -58t-48 -43t-63.5 -18.5q8 10 11 23.5t12 23.5v15q0 25 -11.5 37t-26 24t-25.5 29.5t-11 52.5z" />
<glyph unicode="&#x201a;" horiz-adv-x="296" d="M37 111q0 45 30.5 73.5t73.5 28.5q53 0 77 -38t24 -85q0 -33 -11.5 -64.5t-31 -58t-48 -43t-63.5 -18.5q8 10 11 23.5t12 23.5v14q0 25 -11.5 37t-26 24.5t-25.5 30t-11 52.5z" />
<glyph unicode="&#x201c;" horiz-adv-x="550" d="M37 1243q0 33 11 64.5t30.5 58.5t48.5 43t63 18q-8 -10 -11 -23t-11 -24v-14q0 -25 11 -37t25.5 -24.5t26 -30t11.5 -51.5q0 -45 -31 -74t-74 -29q-53 0 -76.5 38t-23.5 85zM291 1239q0 33 11 64.5t30.5 58.5t48.5 43t63 18q-8 -10 -11 -23.5t-11 -23.5v-14q0 -25 11 -37 t25.5 -24.5t26 -30t11.5 -51.5q0 -45 -31 -74t-74 -29q-53 0 -76.5 38t-23.5 85z" />
<glyph unicode="&#x201d;" horiz-adv-x="550" d="M37 1325q0 45 30.5 73.5t73.5 28.5q53 0 77 -37.5t24 -84.5q0 -33 -11.5 -65t-31 -58.5t-48 -43t-63.5 -18.5q8 10 11 23.5t12 23.5v15q0 25 -11.5 37t-26 24t-25.5 29.5t-11 52.5zM291 1321q0 45 30.5 73.5t73.5 28.5q53 0 77 -38t24 -85q0 -33 -11.5 -64.5t-31 -58 t-48 -43t-63.5 -18.5q8 10 11 23.5t12 23.5v15q0 25 -11.5 37t-26 24t-25.5 29.5t-11 52.5z" />
<glyph unicode="&#x201e;" horiz-adv-x="550" d="M37 111q0 45 30.5 73.5t73.5 28.5q53 0 77 -38t24 -85q0 -33 -11.5 -64.5t-31 -58t-48 -43t-63.5 -18.5q8 10 11 23.5t12 23.5v14q0 25 -11.5 37t-26 24.5t-25.5 30t-11 52.5zM291 106q0 45 30.5 74t73.5 29q53 0 77 -38t24 -85q0 -33 -11.5 -64.5t-31 -58t-48 -43 t-63.5 -18.5q8 10 11 23.5t12 23.5v14q0 25 -11.5 37t-26 24.5t-25.5 30t-11 51.5z" />
<glyph unicode="&#x2026;" horiz-adv-x="921" d="M59 104q0 41 31 72t72 31t70.5 -31t29.5 -72t-29.5 -71.5t-70.5 -30.5t-72 30.5t-31 71.5zM59 104q0 41 31 72t72 31t70.5 -31t29.5 -72t-29.5 -71.5t-70.5 -30.5t-72 30.5t-31 71.5zM367 104q0 41 30.5 72t71.5 31t70.5 -31t29.5 -72t-29.5 -71.5t-70.5 -30.5 t-71.5 30.5t-30.5 71.5zM367 104q0 41 30.5 72t71.5 31t70.5 -31t29.5 -72t-29.5 -71.5t-70.5 -30.5t-71.5 30.5t-30.5 71.5zM674 104q0 41 30.5 72t71.5 31t71 -31t30 -72t-30 -71.5t-71 -30.5t-71.5 30.5t-30.5 71.5z" />
<glyph unicode="&#x202f;" horiz-adv-x="369" />
<glyph unicode="&#x2039;" horiz-adv-x="550" d="M37 1243q0 33 11 64.5t30.5 58.5t48.5 43t63 18q-8 -10 -11 -23t-11 -24v-14q0 -25 11 -37t25.5 -24.5t26 -30t11.5 -51.5q0 -45 -31 -74t-74 -29q-53 0 -76.5 38t-23.5 85zM291 1239q0 33 11 64.5t30.5 58.5t48.5 43t63 18q-8 -10 -11 -23.5t-11 -23.5v-14q0 -25 11 -37 t25.5 -24.5t26 -30t11.5 -51.5q0 -45 -31 -74t-74 -29q-53 0 -76.5 38t-23.5 85z" />
<glyph unicode="&#x203a;" horiz-adv-x="550" d="M37 1325q0 45 30.5 73.5t73.5 28.5q53 0 77 -37.5t24 -84.5q0 -33 -11.5 -65t-31 -58.5t-48 -43t-63.5 -18.5q8 10 11 23.5t12 23.5v15q0 25 -11.5 37t-26 24t-25.5 29.5t-11 52.5zM291 1321q0 45 30.5 73.5t73.5 28.5q53 0 77 -38t24 -85q0 -33 -11.5 -64.5t-31 -58 t-48 -43t-63.5 -18.5q8 10 11 23.5t12 23.5v15q0 25 -11.5 37t-26 24t-25.5 29.5t-11 52.5z" />
<glyph unicode="&#x205f;" horiz-adv-x="461" />
<glyph unicode="&#x20ac;" horiz-adv-x="700" d="M78 678v27h78v20h-78v27h78v352q0 61 10 120.5t36.5 105.5t74 74t118.5 28q72 0 118 -28t73.5 -74t39 -105.5t11.5 -120.5v-55h-162v301q0 18 -13 35.5t-34 17.5h-63q-20 0 -35 -17.5t-15 -35.5v-598h99v-27h-99v-20h99v-27h-99v-293q51 -43 87 -88t36 -117 q0 -59 -30.5 -98t-83.5 -62q6 0 11 -1t11 -1q51 0 78 24t38 59.5t12 78.5t1 82v225h162v-165q0 -61 -10.5 -121t-38 -105t-74.5 -72.5t-119 -27.5h-67q-37 0 -68 14.5t-54.5 38t-36.5 55t-13 66.5t25.5 60.5t60.5 25.5t60.5 -25.5t25.5 -60.5t-26 -61.5t-60 -26.5 q-20 0 -37 8q16 -20 38.5 -33.5t49.5 -13.5q53 0 86 40t33 91q0 49 -27 85t-64.5 63.5t-82.5 46t-82 32.5v277h-78z" />
<glyph unicode="&#x2122;" horiz-adv-x="800" d="M37 1288v146h289v-93l-78 -18v98h-27v-680h-76v680h-30v-114zM379 741v496q37 2 69.5 19.5t61.5 39.5q10 10 16 24.5t6 29.5q0 29 -21.5 49t-49.5 20q-16 0 -33.5 -8t-26.5 -25q10 4 19 5q16 0 28.5 -12.5t12.5 -28.5t-11.5 -29.5t-29.5 -13.5q-20 0 -30.5 14t-10.5 33 q0 16 6 30.5t17.5 24.5t26.5 17.5t32 7.5q23 0 41 -10.5t30 -28.5v39h76v-160q31 23 58 53q2 2 5 7t7 10.5t6 10.5t2 7v72h78v-693h-78v590q-12 -20 -34.5 -40.5t-43.5 -35.5v-514h-76v564q-16 -20 -35.5 -34t-41.5 -26v-504h-76z" />
<glyph unicode="&#x25fc;" horiz-adv-x="1423" d="M0 0v1423h1423v-1423h-1423z" />
</font>
</defs>
</svg>
