<?xml version="1.0" standalone="no"?>
<!DOCTYPE svg PUBLIC "-//W3C//DTD SVG 1.1//EN" "http://www.w3.org/Graphics/SVG/1.1/DTD/svg11.dtd" >
<svg xmlns="http://www.w3.org/2000/svg" xmlns:xlink="http://www.w3.org/1999/xlink" version="1.1">
<metadata></metadata>
<defs>
<font id="fedra_sans_probook_italic" horiz-adv-x="1228" >
<font-face units-per-em="2048" ascent="1597" descent="-451" />
<missing-glyph horiz-adv-x="432" />
<glyph horiz-adv-x="0" />
<glyph horiz-adv-x="682" />
<glyph unicode=" "  horiz-adv-x="432" />
<glyph unicode="&#x09;" horiz-adv-x="432" />
<glyph unicode="&#xa0;" horiz-adv-x="432" />
<glyph unicode="!" horiz-adv-x="561" d="M164 0l18 174h178l-18 -174h-178zM221 348l23 283l86 817h153l-88 -817l-37 -283h-137z" />
<glyph unicode="&#x22;" horiz-adv-x="681" d="M147 1055l41 487h150l-64 -487h-127zM498 1055l43 487h147l-63 -487h-127z" />
<glyph unicode="#" horiz-adv-x="1212" d="M61 313l15 131h190l43 269h-205l15 133h213l49 315h145l-49 -315h350l50 315h147l-51 -315h174l-14 -133h-181l-45 -269h197l-14 -131h-203l-51 -313h-146l49 313h-348l-51 -313h-145l49 313h-183zM412 444h350l43 269h-348z" />
<glyph unicode="$" horiz-adv-x="1083" d="M57 68l64 129q186 -72 338 -72q52 0 98.5 7.5t94 26.5t76 58.5t28.5 95.5q0 42 -31.5 76t-81.5 58.5t-110.5 47.5t-121 51.5t-110.5 62.5t-81.5 88t-31.5 122q0 70 26.5 125t74 90t103 56.5t122.5 31.5l21 197h141l-25 -191q166 -3 301 -61l-55 -119q-165 51 -291 51 q-44 0 -84 -6.5t-82 -22t-67 -48.5t-25 -80q0 -44 31.5 -80.5t82 -63t111.5 -52t122 -54t111.5 -62t82 -83t31.5 -109.5q0 -81 -32.5 -145.5t-88 -105t-123 -64t-144.5 -29.5l-14 -197h-145l22 193q-196 7 -338 78z" />
<glyph unicode="%" horiz-adv-x="1581" d="M186 1063q0 163 97 281t256 118q136 0 208 -67t72 -201q0 -80 -24.5 -152t-69 -127t-112.5 -87.5t-150 -32.5q-130 0 -203.5 69t-73.5 199zM195 211l1200 1087l80 -86l-1203 -1087zM324 1071q0 -160 151 -160q103 0 157 79t54 186q0 82 -39 129t-119 47q-54 0 -95 -26 t-64 -68.5t-34 -89.5t-11 -97zM891 250q0 106 40.5 196t122 146.5t189.5 56.5q135 0 208 -67t73 -201q0 -167 -97.5 -283t-261.5 -116q-129 0 -201.5 69t-72.5 199zM1026 260q0 -162 154 -162q69 0 118 40t70 98t21 126q0 82 -39 129.5t-119 47.5q-53 0 -94 -25.5t-64 -67.5 t-35 -89.5t-12 -96.5z" />
<glyph unicode="&#x26;" horiz-adv-x="1335" d="M43 299q0 73 23.5 140t68.5 125t93.5 104t113.5 96q-45 145 -45 293q0 119 38.5 208t124 143t210.5 54q130 0 206 -69.5t76 -196.5q0 -37 -12 -74t-27.5 -66t-47.5 -63.5t-56 -56.5t-70.5 -56.5t-72 -51.5t-80 -52.5t-76.5 -50.5q47 -125 115.5 -240t158 -216t190.5 -176 t220.5 -118.5t241.5 -44.5q35 0 51 2l6 -125q-47 -8 -104 -8q-163 0 -323.5 77.5t-301.5 213.5q-156 -108 -358 -108q-77 0 -141 18.5t-114.5 55.5t-79 99t-28.5 144zM201 313q0 -102 60 -149t163 -47q145 0 252 63q-183 207 -287 459q-188 -152 -188 -326zM442 1065 q0 -101 27 -219q172 116 230 168q102 91 102 166q0 65 -41 109t-109 44q-209 0 -209 -268zM895 213l12 131q66 49 185 49h172l-15 -133h-170q-109 0 -184 -47z" />
<glyph unicode="'" horiz-adv-x="339" d="M119 1055l41 487h153l-63 -487h-131z" />
<glyph unicode="(" horiz-adv-x="690" d="M147 410q0 155 37 323t105.5 327.5t178.5 297t243 217.5l82 -105q-113 -74 -206.5 -196.5t-152.5 -263.5t-91 -290t-32 -288q0 -210 75.5 -433t213.5 -347l-104 -107q-85 69 -153.5 174.5t-110 223t-63.5 237.5t-22 230z" />
<glyph unicode=")" horiz-adv-x="690" d="M-4 -348q146 111 258.5 296.5t169.5 390t57 396.5q0 94 -18 196t-52.5 203t-92.5 190.5t-132 145.5l105 105q116 -78 198.5 -222t120 -301.5t37.5 -316.5q0 -158 -39 -328.5t-110.5 -330t-180.5 -300.5t-239 -231z" />
<glyph unicode="*" horiz-adv-x="886" d="M121 1077l217 90l35 -77l-195 -136zM147 1317l82 123l170 -133l-55 -82zM373 836l49 223h94l-2 -223h-141zM453 1335v226h139l-45 -226h-94zM567 1085l58 82l194 -88l-82 -125zM592 1307l196 133l58 -121l-217 -90z" />
<glyph unicode="+" d="M84 553l14 135l441 -2l47 455h139l-49 -457l465 4l-15 -135h-464l-46 -442h-139l45 442h-438z" />
<glyph unicode="," horiz-adv-x="571" d="M66 -295q56 128 74.5 210t39.5 282h185q-19 -169 -48 -263.5t-116 -228.5h-135z" />
<glyph unicode="-" horiz-adv-x="737" d="M39 520l16 139h611l-17 -139h-610z" />
<glyph unicode="." horiz-adv-x="608" d="M147 0l19 178h184l-18 -178h-185z" />
<glyph unicode="/" horiz-adv-x="790" d="M-6 -127l653 1702h150l-654 -1702h-149z" />
<glyph unicode="0" horiz-adv-x="1253" d="M82 487q0 187 71.5 335.5t210.5 235.5t324 87q222 0 352.5 -132.5t130.5 -377.5q0 -187 -74 -335.5t-213 -234t-319 -85.5q-222 0 -352.5 133t-130.5 374zM242 514q0 -185 84.5 -294t253.5 -109q132 0 232.5 69.5t152 182.5t51.5 249q0 183 -88 292.5t-254 109.5 q-136 0 -235.5 -68t-148 -180t-48.5 -252z" />
<glyph unicode="1" horiz-adv-x="636" d="M51 995l12 121l449 14l-119 -1130h-155l104 995h-291z" />
<glyph unicode="2" horiz-adv-x="876" d="M16 0l15 127q37 31 122 97t138.5 109.5t126.5 113t116 127t74 130t31 142.5q0 85 -54.5 123.5t-142.5 38.5q-127 0 -243 -74l-54 110q58 44 145.5 74.5t178.5 30.5q88 0 154.5 -25t104.5 -67t56.5 -90t18.5 -101q0 -368 -570 -729h562l-17 -137h-762z" />
<glyph unicode="3" horiz-adv-x="845" d="M-84 -274l47 127q135 -62 264 -62q111 0 195 50.5t125 128t41 165.5q0 114 -87.5 179t-246.5 77l-4 113q139 34 237.5 135t98.5 213q0 74 -50.5 117t-158.5 43q-131 0 -244 -45l-35 116q126 66 305 66q154 0 246 -72.5t92 -204.5q0 -116 -75.5 -222.5t-202.5 -170.5 q143 -45 214 -131.5t71 -204.5q0 -95 -39 -183.5t-106.5 -156t-167 -108.5t-212.5 -41q-159 0 -307 72z" />
<glyph unicode="4" horiz-adv-x="1110" d="M12 72l15 141l579 905h246l-96 -913h258l-15 -133h-256l-43 -400h-155l43 400h-576zM176 205h428l82 805z" />
<glyph unicode="5" horiz-adv-x="942" d="M-6 -289l41 129q161 -51 309 -51q163 0 258.5 90t95.5 242q0 69 -37.5 125.5t-96 93.5t-139 64.5t-155.5 41t-157 21.5l65 651h686l-14 -131h-539l-41 -395q94 -14 176.5 -37.5t158.5 -62t130.5 -87.5t86.5 -116.5t32 -147.5q0 -210 -146.5 -350.5t-375.5 -140.5 q-181 0 -338 61z" />
<glyph unicode="6" horiz-adv-x="1132" d="M94 459q0 102 10 200t34 199t60.5 189t92 166t125.5 133.5t164.5 87.5t205.5 32q117 0 191 -34l-45 -134q-79 29 -176 29q-84 0 -154 -27.5t-121 -75t-91 -115t-65 -143.5t-41.5 -165t-23 -174.5t-6.5 -177.5q0 -163 74.5 -253t214.5 -90q73 0 129 33t88.5 88.5t48.5 121 t16 138.5q0 273 -272 273q-48 0 -137 -19v125q96 27 174 27q174 0 285.5 -101.5t111.5 -287.5q0 -148 -51.5 -265.5t-158.5 -189.5t-255 -72q-213 0 -320.5 124t-107.5 358z" />
<glyph unicode="7" horiz-adv-x="862" d="M-23 -295l691 1282h-664l14 131h820l-13 -135l-725 -1341z" />
<glyph unicode="8" horiz-adv-x="1146" d="M84 285q0 158 96 273t266 202q-43 33 -70 55t-60 56.5t-51 66t-31 74t-13 90.5q0 170 124.5 265t311.5 95q87 0 163 -31t125.5 -96t49.5 -151q0 -254 -313 -428q58 -38 102 -73.5t87 -83t66.5 -104t23.5 -118.5q0 -96 -43 -174t-113.5 -125.5t-154 -72.5t-171.5 -25 q-168 0 -281.5 83t-113.5 222zM242 315q0 -98 74.5 -153.5t191.5 -55.5q127 0 210 74t83 197q0 47 -22 91.5t-69.5 88.5t-74.5 65t-84 60q-3 3 -5 4t-4.5 3t-4.5 3q-49 -29 -83.5 -53t-77.5 -61.5t-70 -74t-45.5 -86t-18.5 -102.5zM373 1110q0 -41 18 -81.5t51 -77t61.5 -62 t68.5 -57.5q9 -7 14 -11q252 146 252 346q0 81 -62 125.5t-153 44.5q-108 0 -179 -62.5t-71 -164.5z" />
<glyph unicode="9" horiz-adv-x="1060" d="M82 621q0 110 30 205t87 167t146.5 113t201.5 41q213 0 319.5 -123t106.5 -360q0 -102 -10 -199.5t-34 -198.5t-60 -189t-91.5 -166t-125 -133.5t-165 -87.5t-206.5 -32q-113 0 -189 35l45 133q71 -29 176 -29q97 0 176 36t132.5 101.5t92.5 148t60.5 184.5t31 201.5 t9.5 207.5q0 162 -75 252t-214 90q-74 0 -130.5 -33t-89 -88.5t-48.5 -121t-16 -138.5q0 -272 274 -272q68 0 135 18l2 -125q-96 -27 -174 -27q-174 0 -285.5 102t-111.5 288z" />
<glyph unicode=":" horiz-adv-x="604" d="M197 0l20 178h184l-18 -178h-186zM295 940l20 178h185l-21 -178h-184z" />
<glyph unicode=";" horiz-adv-x="567" d="M106 -295q56 129 75.5 211.5t39.5 280.5h185q-19 -169 -48 -263.5t-116 -228.5h-136zM295 940l20 178h183l-19 -178h-184z" />
<glyph unicode="&#x3c;" d="M160 520l20 203l869 393l-17 -151l-758 -344l689 -336l-17 -154z" />
<glyph unicode="=" d="M74 340l14 135h1014l-15 -135h-1013zM119 770l14 135h1014l-14 -135h-1014z" />
<glyph unicode="&#x3e;" d="M119 131l16 154l756 336l-684 344l16 151l785 -393l-21 -203z" />
<glyph unicode="?" horiz-adv-x="774" d="M223 0l19 174h178l-19 -174h-178zM260 436q0 65 20.5 124t53.5 103t72.5 84.5t79.5 77t73 72t53.5 77t20.5 85.5q0 61 -32 110t-84.5 78.5t-108.5 46.5t-115 23l47 135q67 -5 129.5 -20.5t123 -45.5t105 -71.5t72 -101.5t27.5 -132q0 -65 -20 -122.5t-52 -99.5t-71 -80 t-79.5 -73t-75 -69.5t-59 -77.5t-30.5 -90q-3 -28 2 -117l-142 -18q-10 55 -10 102z" />
<glyph unicode="@" horiz-adv-x="1599" d="M90 414q0 174 39 331.5t118 288.5t190 227t263 149.5t330 53.5q237 0 362.5 -120.5t125.5 -356.5q0 -95 -19 -189.5t-60.5 -184t-100.5 -158t-146.5 -110.5t-190.5 -42q-70 0 -109 34.5t-30 100.5q-42 -43 -117 -83t-129 -40q-92 0 -131 49t-39 144q0 102 30 194 t85.5 164t142 115t191.5 43q120 0 211 -45l-102 -457q-9 -36 -9 -51q0 -47 33 -47q76 0 137 37t99 94t63.5 132t36 146t10.5 140q0 185 -90 274.5t-274 89.5q-153 0 -280 -47.5t-217 -131t-152 -198t-91.5 -247t-29.5 -279.5q0 -226 111.5 -336t336.5 -110q149 0 313 37 l13 -121q-139 -51 -361 -51q-274 0 -418.5 143t-144.5 418zM584 530q0 -45 15 -67.5t58 -22.5q50 0 112.5 36t104.5 79l78 346q-38 10 -71 10q-75 0 -134 -33.5t-93.5 -89t-52 -121.5t-17.5 -137z" />
<glyph unicode="A" horiz-adv-x="1273" d="M-80 0l721 1448h242l303 -1448h-168l-109 545h-553l-268 -545h-168zM422 676h461l-111 565l-20 123l-58 -125z" />
<glyph unicode="B" horiz-adv-x="1251" d="M135 0l154 1448h393q67 0 124.5 -9t112 -31.5t93 -58t61.5 -92.5t23 -131q0 -120 -64 -220.5t-176 -131.5l2 -6q118 -15 192 -101t74 -206q0 -119 -39.5 -208.5t-111.5 -144t-167.5 -81.5t-213.5 -27h-457zM315 135h252q71 0 126 7.5t106 28t84 54.5t53 90t20 131 q0 48 -14.5 86t-35.5 62.5t-57.5 42t-67 26t-79 13.5t-78 5.5t-77.5 0.5h-174zM387 811h203q167 0 249.5 68t82.5 231q0 55 -16.5 94.5t-42 62t-67 35t-80 16t-91.5 3.5h-185z" />
<glyph unicode="C" horiz-adv-x="1220" d="M96 635q0 248 95 433.5t277 288.5t429 103q205 0 338 -57l-57 -129q-76 28 -136.5 37.5t-154.5 9.5q-199 0 -341 -87t-212 -238t-70 -351q0 -251 144 -385.5t395 -134.5q178 0 311 43l31 -135q-166 -53 -397 -53q-299 0 -475.5 175.5t-176.5 479.5z" />
<glyph unicode="D" horiz-adv-x="1480" d="M135 0l154 1448h383q156 0 283.5 -37.5t225 -113t151.5 -200t54 -288.5q0 -398 -221.5 -603.5t-625.5 -205.5h-404zM313 135h256q317 0 484.5 168.5t167.5 497.5q0 134 -41 233.5t-117.5 160t-179 89.5t-232.5 29h-215z" />
<glyph unicode="E" horiz-adv-x="1159" d="M135 0l154 1448h805l-15 -133h-641l-55 -520h598l-14 -136h-596l-58 -526h691l-13 -133h-856z" />
<glyph unicode="F" horiz-adv-x="970" d="M135 0l154 1448h721l-13 -133h-559l-59 -561h514l-12 -136h-516l-66 -618h-164z" />
<glyph unicode="G" horiz-adv-x="1341" d="M96 635q0 248 95 433.5t277 288.5t429 103q213 0 340 -57l-59 -127q-79 27 -138 36t-155 9q-199 0 -340.5 -86.5t-211 -237.5t-69.5 -352q0 -251 143.5 -385.5t395.5 -134.5q100 0 190 22l58 570h163l-69 -668q-101 -38 -185 -53.5t-212 -15.5q-299 0 -475.5 175 t-176.5 480z" />
<glyph unicode="H" horiz-adv-x="1529" d="M135 0l154 1448h162l-68 -655h778l68 657h164l-152 -1450h-164l72 659h-778l-72 -659h-164z" />
<glyph unicode="I" horiz-adv-x="587" d="M135 0l154 1448h162l-152 -1448h-164z" />
<glyph unicode="J" horiz-adv-x="589" d="M-178 -262q97 51 161 105t104 124.5t59.5 149t31.5 192.5l121 1139h162l-119 -1135q-10 -103 -29.5 -185.5t-54 -161t-85 -140.5t-124.5 -115t-170 -94z" />
<glyph unicode="K" d="M135 0l154 1448h162l-152 -1448h-164zM430 748l4 38l627 662h205l-652 -670l523 -743l-148 -86z" />
<glyph unicode="L" horiz-adv-x="997" d="M135 0l154 1448h162l-136 -1309h629l-16 -139h-793z" />
<glyph unicode="M" horiz-adv-x="1794" d="M-33 0l471 1448h219l109 -1354l606 1354h217l-39 -1448h-161l49 1249l-557 -1249h-258l-103 1253l-393 -1253h-160z" />
<glyph unicode="N" horiz-adv-x="1503" d="M135 0l156 1448h239l541 -1329l133 1329h162l-156 -1448h-252l-524 1296l-135 -1296h-164z" />
<glyph unicode="O" horiz-adv-x="1605" d="M96 629q0 247 94 436.5t276.5 297t428.5 107.5q294 0 456 -175t162 -476q0 -248 -94.5 -438t-278 -297t-431.5 -107q-293 0 -453 176t-160 476zM262 639q0 -237 119 -381.5t348 -144.5q149 0 267 55t192.5 151t113.5 222t39 272q0 238 -120.5 378t-350.5 140 q-117 0 -216 -35t-170.5 -98t-122 -150t-75 -190t-24.5 -219z" />
<glyph unicode="P" horiz-adv-x="1159" d="M133 0l154 1448h469q194 0 309 -99t115 -290q0 -110 -33 -199.5t-91 -150t-138 -101t-172 -58.5q-87 -18 -184 -18h-11q-39 0 -45 3l16 133q86 0 154.5 10t132 36t105.5 67.5t67 108t25 154.5q0 273 -308 273h-262l-137 -1317h-166z" />
<glyph unicode="Q" horiz-adv-x="1605" d="M96 629q0 247 94 436.5t276.5 297t428.5 107.5q294 0 456 -175t162 -476q0 -248 -94.5 -438t-278 -297t-431.5 -107q-293 0 -453 176t-160 476zM262 639q0 -237 119 -381.5t348 -144.5q149 0 267 55t192.5 151t113.5 222t39 272q0 238 -120.5 378t-350.5 140 q-117 0 -216 -35t-170.5 -98t-122 -150t-75 -190t-24.5 -219zM690 -190l12 127l785 -121l-14 -138z" />
<glyph unicode="R" horiz-adv-x="1275" d="M135 0l154 1448h448q190 0 308 -92.5t118 -259.5q0 -155 -83.5 -272.5t-241.5 -161.5l391 -625l-152 -82l-409 668q-73 -7 -299 -7l-68 -616h-166zM381 748h192q197 0 306.5 83.5t109.5 258.5q0 227 -309 227h-240z" />
<glyph unicode="S" horiz-adv-x="987" d="M-20 76l63 137q196 -92 350 -92q72 0 131 13.5t108 44t76 85.5t27 131q0 54 -33 101.5t-85.5 84.5t-116.5 74t-128 79.5t-116.5 91t-85.5 118t-33 152.5q0 119 65.5 203.5t167.5 122.5t228 38q105 0 204 -23t163 -57l-56 -127q-154 68 -317 68q-61 0 -111 -11t-93 -35 t-67 -68.5t-24 -106.5q0 -54 33 -102.5t85.5 -87.5t116.5 -78t128 -82t116.5 -91.5t85.5 -115.5t33 -144q0 -104 -41 -186t-112 -132.5t-163 -77t-198 -26.5q-97 0 -214 29.5t-187 69.5z" />
<glyph unicode="T" horiz-adv-x="1132" d="M63 1311l17 137h1153l-16 -137h-494l-139 -1311h-162l137 1311h-496z" />
<glyph unicode="U" horiz-adv-x="1478" d="M162 496l100 952h166l-98 -938q-4 -38 -4 -72q0 -50 8 -92q14 -70 45.5 -113t81 -70.5t102.5 -37.5t119 -10q70 0 128.5 12.5t112.5 44t94 81t68 127t39 179.5l93 889h155l-94 -895q-14 -134 -56.5 -238t-100 -167t-133.5 -103t-150 -55t-156 -15q-90 0 -166.5 14 t-149.5 50t-121 93q-47 58 -71 151q-16 62 -16 135q0 37 4 78z" />
<glyph unicode="V" horiz-adv-x="1300" d="M80 1448h170l309 -1331l674 1331h172l-746 -1448h-227z" />
<glyph unicode="W" horiz-adv-x="1839" d="M66 1448h170l178 -1317l475 993l-66 324h170l252 -1321l518 1321h164l-579 -1448h-226l-188 905l-432 -905h-221z" />
<glyph unicode="X" horiz-adv-x="1163" d="M-94 0l594 764l-334 684h180l262 -559l414 559h178l-526 -682l379 -766h-183l-303 633l-473 -633h-188z" />
<glyph unicode="Y" horiz-adv-x="1069" d="M45 1448h180l295 -748l484 748h176l-596 -885l-60 -563h-162l58 561z" />
<glyph unicode="Z" horiz-adv-x="1075" d="M-29 0l15 143l882 1157h-706l14 148h897l-12 -129l-889 -1174h807l-14 -145h-994z" />
<glyph unicode="[" horiz-adv-x="714" d="M102 -451l211 1995h361l-15 -131h-204l-181 -1732h205l-14 -132h-363z" />
<glyph unicode="\" horiz-adv-x="790" d="M170 1575h149l299 -1702h-151z" />
<glyph unicode="]" horiz-adv-x="714" d="M43 -451l12 132h205l182 1732h-204l14 131h362l-211 -1995h-360z" />
<glyph unicode="^" horiz-adv-x="1116" d="M94 602l420 846h207l213 -846h-162l-166 735l-350 -735h-162z" />
<glyph unicode="_" horiz-adv-x="1024" d="M-6 -338l12 139h1024l-14 -139h-1022z" />
<glyph unicode="`" horiz-adv-x="1171" d="M414 1503l80 127l374 -268l-67 -107z" />
<glyph unicode="a" horiz-adv-x="1077" d="M80 307q0 111 28 225.5t85.5 221t135.5 190.5t186 134t230 50q109 0 203 -16l-114 -1112h-156l22 203q-131 -117 -222.5 -173.5t-172.5 -56.5q-114 0 -169.5 90.5t-55.5 243.5zM238 324q0 -91 26.5 -147t79.5 -56q44 0 127.5 51.5t142 99.5t101.5 88l67 629q-16 4 -69 4 q-88 0 -166 -42.5t-133.5 -111.5t-96 -157t-60 -180t-19.5 -178z" />
<glyph unicode="b" horiz-adv-x="1099" d="M129 29l158 1517h153l-57 -581q47 33 83 55t89 49t108 41t109 14q250 0 250 -327q0 -110 -21.5 -220.5t-69 -218t-116 -190.5t-171 -133.5t-224.5 -50.5q-140 0 -291 45zM293 135q92 -20 141 -20q94 0 170.5 47.5t123.5 120.5t79 166.5t44.5 180t12.5 167.5 q0 109 -34 149.5t-99 40.5q-126 0 -364 -158z" />
<glyph unicode="c" horiz-adv-x="901" d="M86 377q0 126 23 241t69.5 211.5t111.5 167.5t153.5 110.5t191.5 39.5q82 0 150 -29t112 -71l-86 -99q-89 68 -186 68q-61 0 -113.5 -22t-90 -59t-67.5 -87.5t-49 -105t-32 -115.5t-18 -115t-5 -106q0 -134 34 -211.5t81 -77.5q79 0 165 27t207 89l56 -110 q-55 -33 -90.5 -52t-95 -45t-123.5 -38.5t-134 -12.5q-74 0 -128 37.5t-82 99.5t-41 128t-13 137z" />
<glyph unicode="d" horiz-adv-x="1069" d="M86 338q0 171 50.5 318.5t138 250.5t210.5 161q121 58 258 58h5h51l45 420h155l-165 -1546h-156l22 203q-251 -230 -395 -230q-61 0 -105 29t-68 81.5t-35 115t-11 139.5zM242 379q0 -103 13.5 -162t34.5 -77.5t54 -18.5q107 0 371 237l67 637h-88h-8q-118 0 -220 -88 q-106 -91 -165 -234t-59 -294z" />
<glyph unicode="e" horiz-adv-x="913" d="M84 393q0 152 35 287.5t101 240.5t169.5 166.5t231.5 61.5q141 0 211.5 -72.5t70.5 -183.5q0 -58 -24.5 -106.5t-69 -84.5t-91.5 -61t-108 -47l-364 -135q-2 -18 -2 -56q0 -145 31 -216.5t100 -71.5q132 0 350 112l55 -116q-57 -32 -94.5 -50.5t-95.5 -41t-118 -33.5 t-126 -11q-75 0 -128 34.5t-81 96t-40.5 131.5t-12.5 156zM260 596l324 127q78 31 122 74t44 90q0 67 -39 98t-97 31q-65 0 -119.5 -24.5t-92.5 -64t-67 -95.5t-46.5 -113t-28.5 -123z" />
<glyph unicode="f" horiz-adv-x="638" d="M76 989l14 129h166l6 88q8 91 36.5 160t68.5 110t96.5 66t112.5 34t124 9q108 0 213 -37l-43 -125q-102 29 -188 29q-130 0 -193 -55t-73 -180l-10 -99h243l-12 -129h-244l-151 -1440h-150l148 1440h-164z" />
<glyph unicode="g" horiz-adv-x="1077" d="M-35 -426l37 139q179 -47 291 -47q66 0 114.5 6t97.5 24t81.5 50t56 85.5t31.5 127.5l26 244q-128 -120 -218.5 -175t-176.5 -55q-116 0 -167.5 83t-51.5 253q0 213 85 400.5t238 303t336 115.5q109 0 203 -16l-123 -1186q-10 -89 -44.5 -159.5t-83.5 -114t-114 -72 t-130 -40t-136 -11.5q-106 0 -204.5 15.5t-147.5 29.5zM242 332q0 -120 26 -165.5t76 -45.5q44 0 127.5 51.5t142 99.5t101.5 88l67 629q-18 4 -69 4q-131 0 -241 -99t-170 -250.5t-60 -311.5z" />
<glyph unicode="h" horiz-adv-x="1130" d="M127 0l164 1546h155l-63 -612q4 3 29 23.5t36 29.5t38.5 30t46 32.5t46.5 29t51.5 27.5t51 21t54 15.5t52.5 4.5q100 0 145 -36.5t50 -112.5q1 -21 1 -45q0 -63 -9 -146l-88 -807h-156l86 774q11 104 11 146q0 12 -1 19q-7 46 -48 57q-19 5 -50 5q-39 0 -112.5 -41.5 t-160.5 -103.5t-89 -63l-84 -793h-156z" />
<glyph unicode="i" horiz-adv-x="546" d="M125 0l117 1118h155l-116 -1118h-156zM221 1466l146 127l122 -127l-149 -129z" />
<glyph unicode="j" horiz-adv-x="546" d="M-276 -424l36 133q80 -22 134 -22q62 0 104.5 19t67.5 58t37.5 85.5t19.5 115.5l121 1153h155l-120 -1155q-13 -118 -48 -200.5t-89.5 -128.5t-119 -65.5t-147.5 -19.5q-78 0 -151 27zM221 1466l146 127l122 -127l-149 -129z" />
<glyph unicode="k" horiz-adv-x="993" d="M125 0l162 1544h157l-163 -1544h-156zM387 590l412 528h182l-414 -522l369 -573l-158 -52z" />
<glyph unicode="l" horiz-adv-x="544" d="M125 0l162 1544h157l-163 -1544h-156z" />
<glyph unicode="m" horiz-adv-x="1691" d="M125 0l119 1118h155l-18 -182q6 4 38.5 30.5t50 39.5t52.5 38.5t61.5 40t60.5 31t66 24t62 7.5q113 1 153 -45q38 -43 39 -140q0 -5 -1 -10q236 195 389 195q100 0 144 -36.5t48 -112.5q1 -16 0 -33q0 -66 -10 -158l-88 -807h-154l84 774q11 104 11 146q0 12 -1 19 q-7 46 -48 57q-19 5 -50 5q-75 0 -336 -194l-86 -807h-155l84 774q12 110 12 148q0 8 -1 13q-5 46 -45 57q-20 5 -52 5q-24 0 -77 -28t-99 -59.5t-101.5 -71t-64.5 -45.5l-86 -793h-156z" />
<glyph unicode="n" horiz-adv-x="1130" d="M125 0l119 1118h155l-18 -184q5 4 38 31t50.5 40t53.5 38.5t63.5 40t63 31.5t69.5 24.5t67 7.5q101 0 146.5 -36.5t49.5 -112.5q1 -18 2 -39q0 -65 -11 -152l-86 -807h-156l84 774q11 105 11 147q0 12 -1 19q-7 46 -48 56q-18 5 -48 5t-87.5 -29t-105.5 -61.5 t-104.5 -72.5t-64.5 -45l-86 -793h-156z" />
<glyph unicode="o" horiz-adv-x="1046" d="M86 369q0 354 153 566t402 212q79 0 142.5 -33t102 -88t59 -122.5t20.5 -139.5q0 -111 -17.5 -218.5t-59.5 -212t-103.5 -183t-157 -127t-213.5 -48.5q-152 0 -240 113.5t-88 280.5zM248 399q0 -288 203 -288q144 0 249 177t105 445q0 148 -49 215.5t-162 67.5 q-92 0 -171.5 -81.5t-127 -224.5t-47.5 -311z" />
<glyph unicode="p" horiz-adv-x="1099" d="M78 -451l168 1569h153l-14 -155q212 159 387 159q250 0 250 -327q0 -110 -21 -220.5t-68.5 -217.5t-115.5 -189.5t-170.5 -133t-224.5 -50.5q-66 0 -141 14l-48 -449h-155zM295 135q15 -3 44.5 -9t49 -8.5t47.5 -2.5q79 0 145.5 32.5t111.5 88.5t79.5 125t54 147.5 t28.5 150t9 138.5q0 108 -33.5 149t-97.5 41q-123 0 -364 -160z" />
<glyph unicode="q" horiz-adv-x="1077" d="M86 317q0 213 85 398.5t237.5 299t336.5 113.5q109 0 203 -16l-162 -1563h-155l69 654q-137 -119 -226 -174.5t-169 -55.5q-116 0 -167.5 86t-51.5 258zM242 338q0 -126 25.5 -171.5t76.5 -45.5q44 0 127.5 51.5t142 99.5t101.5 88l67 629q-18 4 -69 4q-131 0 -241 -97.5 t-170 -247.5t-60 -310z" />
<glyph unicode="r" horiz-adv-x="722" d="M125 0l119 1118h155l-20 -186q2 1 28 25t36.5 33t39.5 33t47 35.5t48 30t53.5 27.5t52.5 16t55 7q14 0 54 -4l-31 -146q-10 2 -49 2q-35 0 -80.5 -20t-103 -61.5t-84 -63t-80.5 -66.5l-84 -780h-156z" />
<glyph unicode="s" horiz-adv-x="878" d="M43 33l45 135q141 -51 272 -51q28 0 57.5 3.5t65.5 14.5t63 28t45.5 47.5t18.5 70.5q0 44 -24 84.5t-62 73t-84.5 64.5t-93 67.5t-84.5 73.5t-62 89.5t-24 110.5q0 81 30 140.5t83 92t116.5 47.5t139.5 15q74 0 156 -18t133 -44l-48 -121q-84 28 -140 41t-124 13 q-196 0 -196 -144q0 -44 24 -84.5t62 -73t84.5 -65t93 -69t84.5 -76.5t62 -94.5t24 -116.5q0 -68 -25.5 -122t-66 -87.5t-95.5 -55.5t-110.5 -31t-114.5 -9q-189 0 -305 51z" />
<glyph unicode="t" horiz-adv-x="778" d="M74 987l14 131h166l22 230h154l-22 -230h346l-13 -131h-348l-76 -706q-5 -43 -5 -73q0 -42 9 -60q15 -32 74 -31q48 0 122 20.5t122 42.5l37 -123q-46 -27 -133.5 -54.5t-175.5 -27.5q-20 0 -32.5 0.5t-32.5 2.5t-33 6.5t-30 11.5t-28 19t-23 27.5t-18 38.5t-11 51 q-5 25 -5 57v7q0 37 6 80l78 711h-164z" />
<glyph unicode="u" horiz-adv-x="1124" d="M152 305l88 813h155l-86 -774q-6 -63 -7 -107q0 -52 10 -77q16 -47 87 -47q19 0 40 4.5t39.5 11t42 19t39.5 21.5t40.5 26.5t37 26.5t36 29t31 26.5t29.5 26t24 20.5l86 794h155l-118 -1118h-156l18 184q-41 -40 -74 -68t-85 -64t-109.5 -55.5t-116.5 -19.5 q-134 0 -180 75q-32 53 -32 157q0 44 6 96z" />
<glyph unicode="v" horiz-adv-x="952" d="M84 1118h170l145 -1007l299 628q40 86 66.5 181.5t26.5 158.5q0 9 -5 39h160q2 -12 2 -39q0 -75 -27.5 -171t-70.5 -185l-350 -723h-228z" />
<glyph unicode="w" horiz-adv-x="1572" d="M84 1118h170l145 -1007l369 641l-61 366h167l146 -1007l299 628q40 83 65 177.5t25 160.5q0 29 -2 41h160q2 -12 2 -39q0 -75 -28 -172t-71 -184l-350 -723h-229l-92 559l-322 -559h-205z" />
<glyph unicode="x" horiz-adv-x="903" d="M-80 0l445 596l-234 522h168l168 -393l285 393h168l-392 -526l258 -592h-170l-190 459l-334 -459h-172z" />
<glyph unicode="y" horiz-adv-x="952" d="M84 1118h170l141 -1007l303 628q40 84 66.5 180t26.5 160q0 9 -5 39h162q2 -12 2 -39q0 -73 -27 -170t-69 -186l-567 -1174h-164l221 451h-84z" />
<glyph unicode="z" horiz-adv-x="884" d="M-18 0l14 135l692 848h-549l15 135h727l-13 -129l-700 -856h618l-14 -133h-790z" />
<glyph unicode="{" horiz-adv-x="700" d="M119 487l14 144q76 0 133.5 61.5t57.5 132.5v422q0 336 413 336h43l-14 -131h-49q-124 0 -184 -51t-60 -164l4 -373q0 -126 -54.5 -201t-150.5 -98v-4q191 -71 142 -299l-82 -377q-44 -204 200 -204h50l-15 -132h-43q-43 0 -78.5 2.5t-73.5 9t-67 18.5t-55.5 29.5 t-43.5 43.5t-27.5 59t-10 78t11.5 98l86 408q14 67 -28.5 129.5t-118.5 62.5z" />
<glyph unicode="|" horiz-adv-x="567" d="M76 -451l209 1995h155l-209 -1995h-155z" />
<glyph unicode="}" horiz-adv-x="700" d="M-37 -451l14 132h48q243 0 243 204l-2 377q0 225 205 299v4q-90 23 -129 98t-12 201l80 373q26 113 -24 163t-175 50h-49l16 133h41q49 0 91.5 -4.5t83.5 -15.5t71.5 -28.5t56 -43.5t37.5 -61t15.5 -80.5t-9.5 -102.5l-88 -422q-16 -71 28 -132.5t120 -61.5l-15 -144 q-76 0 -133 -62.5t-57 -129.5l2 -408q1 -84 -22.5 -146.5t-61 -98.5t-94.5 -57.5t-113 -28.5t-127 -7h-41z" />
<glyph unicode="~" horiz-adv-x="1036" d="M39 756q129 108 274 108q69 0 130 -20t98 -43.5t91.5 -43.5t112.5 -20q89 0 181 68l78 -98q-120 -123 -265 -123q-70 0 -135.5 19t-106.5 42.5t-96 42.5t-106 19q-92 0 -186 -62z" />
<glyph unicode="&#xa2;" horiz-adv-x="1021" d="M115 463q0 158 50 281.5t159.5 205t267.5 97.5l10 167h164l-23 -163q136 -9 209 -58l-59 -114q-101 45 -242 45q-80 0 -144 -22.5t-107.5 -62.5t-72.5 -97t-42 -123.5t-13 -143.5q0 -87 24.5 -144.5t74 -87.5t109 -41.5t145.5 -11.5q74 0 231 29l10 -123 q-122 -32 -225 -35l-10 -153h-164l22 158q-190 21 -282 115t-92 282z" />
<glyph unicode="&#xa3;" horiz-adv-x="960" d="M68 0l14 133q78 32 132 115.5t65 173.5h-197l14 127h199q6 57 14 178q10 100 43.5 172.5t81.5 116t120.5 69.5t144 35.5t169.5 12.5l-4 -134q-81 -7 -121.5 -12.5t-101 -23t-90.5 -45t-55 -78.5t-29 -123q-2 -26 -7 -82t-7 -86h362l-12 -127h-375q-11 -86 -55.5 -162 t-114.5 -127h590l-14 -133h-766z" />
<glyph unicode="&#xa5;" horiz-adv-x="1202" d="M45 164l12 133h426l4 22l-81 201h-324l14 133h250l-199 465h175l262 -655l422 655h168l-312 -465h264l-14 -133h-340l-131 -198l-2 -25h451l-15 -133h-450l-17 -164h-155l18 164h-426z" />
<glyph unicode="&#xa8;" horiz-adv-x="835" d="M303 1462l129 117l107 -117l-129 -116zM707 1462l127 117l106 -117l-131 -116z" />
<glyph unicode="&#xa9;" horiz-adv-x="1695" d="M121 410q0 249 104 445t293 305.5t430 109.5q198 0 341.5 -84t214.5 -228t71 -331q0 -182 -58.5 -340.5t-163.5 -273t-260.5 -180.5t-340.5 -66q-293 0 -462 176t-169 467zM256 432q0 -114 31.5 -210.5t93 -172t161.5 -118t228 -42.5q160 0 289.5 57.5t212 156.5 t126.5 228.5t44 276.5q0 243 -133 391t-383 148q-157 0 -285.5 -57t-211.5 -155t-128 -227t-45 -276zM463 475q3 219 128.5 354.5t350.5 135.5q81 0 134 -13t106 -43l-52 -98q-52 25 -92 34t-106 9q-150 0 -245.5 -95.5t-98.5 -271.5q-3 -130 83 -198t220 -68q75 0 194 33 l27 -98q-139 -50 -258 -50q-192 0 -294 101.5t-97 267.5z" />
<glyph unicode="&#xab;" horiz-adv-x="872" d="M123 557l264 451l121 -45l-221 -406l133 -399l-127 -52zM492 557l264 451l118 -45l-221 -406l133 -399l-127 -52z" />
<glyph unicode="&#xad;" horiz-adv-x="737" d="M39 520l16 139h611l-17 -139h-610z" />
<glyph unicode="&#xae;" horiz-adv-x="1695" d="M125 932q0 226 94 395t262 257.5t387 88.5q171 0 306.5 -56.5t222 -157t131.5 -236t45 -295.5q0 -222 -88.5 -390.5t-257.5 -262t-396 -93.5q-220 0 -381 95.5t-243 264t-82 390.5zM262 934q0 -128 36.5 -241t106 -201t181 -139.5t252.5 -51.5q148 0 264 48t188 134 t109 199t37 248q0 134 -39 248t-112 197.5t-184 131t-249 47.5q-143 0 -256.5 -47t-185.5 -131t-110 -196.5t-38 -245.5zM569 541v835h277q129 0 202.5 -64.5t73.5 -193.5q0 -80 -38.5 -141t-114.5 -94q14 -16 45.5 -55.5t53 -63.5t52 -54.5t63 -50.5t66.5 -30l-26 -103 q-116 8 -217 131q-7 5 -46.5 54t-75.5 95.5t-36 47.5q-36 -4 -62 -4h-96v-309h-121zM690 954h105q98 0 149 36t51 120q0 88 -41 127t-133 39h-131v-322z" />
<glyph unicode="&#xb4;" horiz-adv-x="1165" d="M457 1366l401 281l76 -127l-414 -260z" />
<glyph unicode="&#xb8;" horiz-adv-x="935" d="M293 -399q122 70 135 157q4 47 -33 138h152q32 -66 26 -136q-14 -156 -237 -249z" />
<glyph unicode="&#xbb;" horiz-adv-x="872" d="M94 158l217 399l-135 406l129 45l168 -451l-264 -451zM461 158l217 399l-135 406l129 45l170 -451l-264 -451z" />
<glyph unicode="&#x2c6;" horiz-adv-x="1083" d="M231 1378l402 236l336 -234l-74 -110l-281 180l-319 -180z" />
<glyph unicode="&#x2da;" horiz-adv-x="1075" d="M459 1430q0 112 76.5 181.5t189.5 69.5q91 0 155 -53t64 -137q0 -112 -74.5 -179t-187.5 -67q-93 0 -158 49.5t-65 135.5zM569 1450q0 -53 34 -85t87 -32q61 0 102.5 39t41.5 101q0 51 -34.5 82.5t-86.5 31.5q-64 0 -104 -37.5t-40 -99.5z" />
<glyph unicode="&#x2dc;" horiz-adv-x="1083" d="M340 1436q1 1 8.5 8t11.5 10.5t14 12t17 13t19.5 12t23.5 12t26.5 10.5t30.5 9t34 5t38 2q52 0 133.5 -38t122.5 -38q70 0 156 59l53 -96l-10 -9q-9 -8 -13.5 -11.5t-16.5 -13t-21.5 -15t-24 -14t-29 -13.5t-31.5 -10t-36 -7.5t-39 -2.5q-41 0 -129 38t-127 38 q-49 0 -79.5 -11t-74.5 -40z" />
<glyph unicode="&#x400;" horiz-adv-x="1159" d="M135 0l154 1448h805l-15 -133h-641l-55 -520h598l-14 -136h-596l-58 -526h691l-13 -133h-856zM416 1640l55 148l432 -168l-37 -113z" />
<glyph unicode="&#x401;" horiz-adv-x="1159" d="M135 0l154 1448h805l-15 -133h-641l-55 -520h598l-14 -136h-596l-58 -526h691l-13 -133h-856zM395 1655l125 117l105 -117l-129 -119zM815 1655l127 117l105 -117l-129 -119z" />
<glyph unicode="&#x402;" horiz-adv-x="1499" d="M63 1311l17 137h1100l-17 -137h-516l-53 -510q236 86 412 86q97 0 170 -29.5t117 -84t65.5 -126t21.5 -160.5q0 -122 -35 -240.5t-92 -215t-137 -188.5t-160 -161.5t-172 -132.5l-84 115q92 71 103 80q296 247 378 533q29 100 29 202q0 136 -66.5 204.5t-191.5 68.5 q-80 0 -183.5 -26.5t-188.5 -70.5l-70 -655h-162l135 1311h-420z" />
<glyph unicode="&#x403;" horiz-adv-x="1071" d="M135 0l154 1448h829l-14 -137h-666l-139 -1311h-164zM496 1620l469 164l39 -144l-476 -131z" />
<glyph unicode="&#x404;" horiz-adv-x="1220" d="M96 635q0 248 95 433.5t277 288.5t429 103q205 0 338 -57l-57 -129q-76 28 -136.5 37.5t-154.5 9.5q-258 0 -415.5 -141.5t-195.5 -382.5h777l-13 -138h-776q1 -3 2 -21.5t2 -21.5q7 -238 149.5 -364.5t385.5 -126.5q178 0 311 43l31 -135q-166 -53 -397 -53 q-299 0 -475.5 175.5t-176.5 479.5z" />
<glyph unicode="&#x405;" horiz-adv-x="987" d="M-20 76l63 137q196 -92 350 -92q72 0 131 13.5t108 44t76 85.5t27 131q0 54 -33 101.5t-85.5 84.5t-116.5 74t-128 79.5t-116.5 91t-85.5 118t-33 152.5q0 119 65.5 203.5t167.5 122.5t228 38q105 0 204 -23t163 -57l-56 -127q-154 68 -317 68q-61 0 -111 -11t-93 -35 t-67 -68.5t-24 -106.5q0 -54 33 -102.5t85.5 -87.5t116.5 -78t128 -82t116.5 -91.5t85.5 -115.5t33 -144q0 -104 -41 -186t-112 -132.5t-163 -77t-198 -26.5q-97 0 -214 29.5t-187 69.5z" />
<glyph unicode="&#x406;" horiz-adv-x="587" d="M135 0l154 1448h162l-152 -1448h-164z" />
<glyph unicode="&#x407;" horiz-adv-x="587" d="M72 1655l125 117l104 -117l-129 -119zM135 0l154 1448h162l-152 -1448h-164zM492 1655l126 117l105 -117l-129 -119z" />
<glyph unicode="&#x408;" horiz-adv-x="589" d="M-178 -262q97 51 161 105t104 124.5t59.5 149t31.5 192.5l121 1139h162l-119 -1135q-10 -103 -29.5 -185.5t-54 -161t-85 -140.5t-124.5 -115t-170 -94z" />
<glyph unicode="&#x409;" horiz-adv-x="1968" d="M-43 104q85 38 159.5 98.5t112.5 125.5q130 211 269 1120h753l-137 -1315q4 -2 246 -2q166 0 264.5 82t110.5 236q7 82 -14.5 140.5t-69 91.5t-110 47.5t-144.5 14.5h-152l15 138h161q249 0 376 -109.5t110 -325.5q-15 -212 -163.5 -329t-375.5 -117h-430l135 1313h-440 q-11 -57 -31 -164t-30 -158t-27 -139t-28 -135t-27.5 -116.5t-29.5 -111.5t-30 -92.5t-34.5 -88t-37.5 -70.5q-61 -98 -141 -166t-194 -117z" />
<glyph unicode="&#x40a;" horiz-adv-x="1996" d="M135 0l154 1448h162l-64 -610h686l64 610h161l-137 -1315q4 -2 244 -2q159 0 251.5 75t104.5 220q7 78 -13 133t-66 85t-105 43t-139 13h-148l13 138h157q244 0 368.5 -104.5t106.5 -309.5q-15 -200 -158.5 -312t-361.5 -112h-430l74 702h-684l-76 -702h-164z" />
<glyph unicode="&#x40b;" horiz-adv-x="1527" d="M63 1311l17 137h1098l-15 -137h-516l-51 -510q98 39 211 63.5t207 24.5q82 0 146 -15t105.5 -41.5t70.5 -63.5t41 -80.5t16.5 -93t-2.5 -101.5l-54 -494h-161l53 504q5 47 -2.5 85.5t-23 64t-41.5 44.5t-52 29.5t-59 17t-59 8t-56 1.5q-69 0 -168 -26t-188 -73l-72 -655 h-162l137 1311h-420z" />
<glyph unicode="&#x40c;" d="M135 0l154 1448h162l-152 -1448h-164zM430 748l4 38l627 662h205l-652 -670l523 -743l-148 -86zM543 1620l469 164l39 -144l-476 -131z" />
<glyph unicode="&#x40d;" horiz-adv-x="1566" d="M135 0l154 1448h164l-107 -1002l-29 -217l146 215l805 1004h164l-152 -1448h-164l105 1001l28 218l-100 -144l-850 -1075h-164zM584 1640l55 148l432 -168l-37 -113z" />
<glyph unicode="&#x40e;" horiz-adv-x="1157" d="M84 1448h180l342 -889l436 889h181l-564 -1079q-43 -82 -82.5 -140.5t-73.5 -96.5t-77.5 -66.5t-80 -45t-95.5 -38.5l-51 145q110 35 181 88t132 170l37 66h-78zM322 1720l98 88q86 -120 248 -120q155 0 268 120l84 -88q-69 -83 -163.5 -127.5t-203.5 -44.5 q-110 0 -194.5 45t-136.5 127z" />
<glyph unicode="&#x40f;" horiz-adv-x="1527" d="M135 0l152 1448h164l-136 -1313h742l137 1313h162l-150 -1448h-454l-31 -313h-160l33 313h-459z" />
<glyph unicode="&#x410;" horiz-adv-x="1273" d="M-80 0l721 1448h242l303 -1448h-168l-109 545h-553l-268 -545h-168zM422 676h461l-111 565l-20 123l-58 -125z" />
<glyph unicode="&#x411;" horiz-adv-x="1273" d="M135 0l152 1448h852l-15 -137h-690l-121 -1178q4 -2 260 -2q168 0 267.5 80t111.5 233q7 82 -15.5 140t-71 90t-111 46.5t-144.5 14.5h-168l13 135h180q251 0 379 -106.5t110 -321.5q-15 -212 -164.5 -327t-377.5 -115h-447z" />
<glyph unicode="&#x412;" horiz-adv-x="1251" d="M135 0l154 1448h393q67 0 124.5 -9t112 -31.5t93 -58t61.5 -92.5t23 -131q0 -120 -64 -220.5t-176 -131.5l2 -6q118 -15 192 -101t74 -206q0 -119 -39.5 -208.5t-111.5 -144t-167.5 -81.5t-213.5 -27h-457zM315 135h252q71 0 126 7.5t106 28t84 54.5t53 90t20 131 q0 48 -14.5 86t-35.5 62.5t-57.5 42t-67 26t-79 13.5t-78 5.5t-77.5 0.5h-174zM387 811h203q167 0 249.5 68t82.5 231q0 55 -16.5 94.5t-42 62t-67 35t-80 16t-91.5 3.5h-185z" />
<glyph unicode="&#x413;" horiz-adv-x="1071" d="M135 0l154 1448h829l-14 -137h-666l-139 -1311h-164z" />
<glyph unicode="&#x414;" horiz-adv-x="1470" d="M-59 -313l47 448h121q111 174 208 391q37 84 104 346t116 576h745l-137 -1313h184l-45 -448h-160l31 313h-1026l-31 -313h-157zM293 135h688l121 1176h-434q-92 -506 -193 -797q-64 -169 -182 -379z" />
<glyph unicode="&#x415;" horiz-adv-x="1159" d="M135 0l154 1448h805l-15 -133h-641l-55 -520h598l-14 -136h-596l-58 -526h691l-13 -133h-856z" />
<glyph unicode="&#x416;" horiz-adv-x="1771" d="M-49 39l629 747l-443 662h185l430 -668l-4 -41l-648 -788zM725 0l152 1448h161l-149 -1448h-164zM1020 739l4 39l569 670h205l-600 -674l477 -735l-149 -88z" />
<glyph unicode="&#x417;" horiz-adv-x="1064" d="M-18 72l63 133q160 -80 344 -80q151 0 252 67t115 211q11 137 -82 198t-262 61h-142l15 135h141q143 0 235.5 72t104.5 200q10 123 -57 188.5t-199 65.5q-60 0 -123 -12.5t-92.5 -22t-89.5 -31.5l-39 119q180 82 375 82q201 0 303 -99t90 -257q-7 -66 -30.5 -124.5 t-52 -96t-65 -69t-61.5 -47t-49 -26.5v-4q31 -9 53.5 -17t65.5 -34t69.5 -58t45.5 -89.5t12 -128.5q-4 -63 -25 -122t-63.5 -115t-103 -97.5t-150.5 -66.5t-199 -25q-232 0 -399 90z" />
<glyph unicode="&#x418;" horiz-adv-x="1566" d="M135 0l154 1448h164l-107 -1002l-29 -217l146 215l805 1004h164l-152 -1448h-164l105 1001l28 218l-100 -144l-850 -1075h-164z" />
<glyph unicode="&#x419;" horiz-adv-x="1566" d="M135 0l154 1448h164l-107 -1002l-29 -217l146 215l805 1004h164l-152 -1448h-164l105 1001l28 218l-100 -144l-850 -1075h-164zM547 1720l98 88q86 -120 248 -120q155 0 268 120l84 -88q-143 -172 -366 -172q-110 0 -195 45.5t-137 126.5z" />
<glyph unicode="&#x41a;" d="M135 0l154 1448h162l-152 -1448h-164zM430 748l4 38l627 662h205l-652 -670l523 -743l-148 -86z" />
<glyph unicode="&#x41b;" horiz-adv-x="1388" d="M-43 104q85 38 159.5 98.5t112.5 125.5q130 211 269 1120h753l-149 -1448h-164l135 1313h-440q-11 -57 -31 -164t-30 -158t-27 -139t-28 -135t-27.5 -116.5t-29.5 -111.5t-30 -92.5t-34.5 -88t-37.5 -70.5q-61 -98 -141 -166t-194 -117z" />
<glyph unicode="&#x41c;" horiz-adv-x="1794" d="M-33 0l471 1448h219l109 -1354l606 1354h217l-39 -1448h-161l49 1249l-557 -1249h-258l-103 1253l-393 -1253h-160z" />
<glyph unicode="&#x41d;" horiz-adv-x="1529" d="M135 0l154 1448h162l-68 -655h778l68 657h164l-152 -1450h-164l72 659h-778l-72 -659h-164z" />
<glyph unicode="&#x41e;" horiz-adv-x="1605" d="M96 629q0 247 94 436.5t276.5 297t428.5 107.5q294 0 456 -175t162 -476q0 -248 -94.5 -438t-278 -297t-431.5 -107q-293 0 -453 176t-160 476zM262 639q0 -237 119 -381.5t348 -144.5q149 0 267 55t192.5 151t113.5 222t39 272q0 238 -120.5 378t-350.5 140 q-117 0 -216 -35t-170.5 -98t-122 -150t-75 -190t-24.5 -219z" />
<glyph unicode="&#x41f;" horiz-adv-x="1507" d="M135 0l154 1450h1083l-151 -1450h-164l139 1311h-760l-137 -1311h-164z" />
<glyph unicode="&#x420;" horiz-adv-x="1159" d="M133 0l154 1448h469q194 0 309 -99t115 -290q0 -110 -33 -199.5t-91 -150t-138 -101t-171.5 -59t-195.5 -17.5q-39 0 -45 3l16 133q86 0 154.5 10t132 36t105.5 67.5t67 108t25 154.5q0 273 -308 273h-262l-137 -1317h-166z" />
<glyph unicode="&#x421;" horiz-adv-x="1220" d="M96 635q0 248 95 433.5t277 288.5t429 103q205 0 338 -57l-57 -129q-76 28 -136.5 37.5t-154.5 9.5q-199 0 -341 -87t-212 -238t-70 -351q0 -251 144 -385.5t395 -134.5q178 0 311 43l31 -135q-166 -53 -397 -53q-299 0 -475.5 175.5t-176.5 479.5z" />
<glyph unicode="&#x422;" horiz-adv-x="1132" d="M63 1311l17 137h1153l-16 -137h-494l-139 -1311h-162l137 1311h-496z" />
<glyph unicode="&#x423;" horiz-adv-x="1157" d="M84 1448h180l342 -889l436 889h181l-564 -1079q-43 -82 -82.5 -140.5t-73.5 -96.5t-77.5 -66.5t-80 -45t-95.5 -38.5l-51 145q110 35 181 88t132 170l37 66h-78z" />
<glyph unicode="&#x424;" horiz-adv-x="1628" d="M94 711q3 155 57 278.5t148 202.5t219.5 120.5t274.5 41.5l16 155h164l-17 -155q132 0 238.5 -32.5t184 -97.5t118 -169t37.5 -240q-3 -155 -57 -278t-148 -202t-219 -120t-274 -41l-19 -174h-162l19 174q-132 0 -238 32.5t-184.5 97t-119.5 168.5t-38 239zM256 723 q-3 -201 110.5 -307.5t319.5 -106.5l94 910q-237 0 -378.5 -131t-145.5 -365zM850 309q236 0 376.5 131.5t143.5 366.5q4 201 -109 306.5t-319 105.5z" />
<glyph unicode="&#x425;" horiz-adv-x="1163" d="M-94 0l594 764l-334 684h180l262 -559l414 559h178l-526 -682l379 -766h-183l-303 633l-473 -633h-188z" />
<glyph unicode="&#x426;" horiz-adv-x="1544" d="M135 0l152 1448h164l-136 -1313h742l137 1313h162l-137 -1313h186l-47 -448h-160l33 313h-1096z" />
<glyph unicode="&#x427;" horiz-adv-x="1327" d="M146.5 850.5q-3.5 57.5 0.5 120.5l50 477h163l-51 -487q-7 -65 10 -113.5t46 -74t72.5 -40.5t76.5 -18.5t72 -3.5q189 0 375 98l65 639h164l-150 -1448h-163l69 664q-203 -86 -405 -86q-102 0 -178 21t-118.5 57.5t-68.5 86.5t-29.5 107.5z" />
<glyph unicode="&#x428;" horiz-adv-x="2021" d="M135 0l152 1448h164l-136 -1313h553l138 1313h163l-137 -1313h555l135 1313h164l-149 -1448h-1602z" />
<glyph unicode="&#x429;" horiz-adv-x="2074" d="M135 0l152 1448h164l-136 -1313h553l138 1313h163l-137 -1313h555l135 1313h164l-137 -1313h186l-47 -448h-159l32 313h-1626z" />
<glyph unicode="&#x42a;" horiz-adv-x="1341" d="M57 1311l15 137h555l-138 -1315q4 -2 246 -2q166 0 264.5 82t110.5 236q7 82 -15 140.5t-69.5 91.5t-110 47.5t-143.5 14.5h-154l15 138h164q249 0 375.5 -109.5t109.5 -325.5q-15 -212 -163.5 -329t-375.5 -117h-430l136 1311h-392z" />
<glyph unicode="&#x42b;" horiz-adv-x="1728" d="M135 0l152 1448h162l-138 -1315q4 -2 248 -2q166 0 263.5 82t109.5 236q7 82 -14.5 140.5t-69 91.5t-110 47.5t-144.5 14.5h-152l13 138h163q249 0 376 -109.5t110 -325.5q-15 -212 -163.5 -329t-375.5 -117h-430zM1278 0l154 1448h161l-151 -1448h-164z" />
<glyph unicode="&#x42c;" horiz-adv-x="1165" d="M135 0l152 1448h162l-138 -1315q4 -2 248 -2q166 0 263.5 82t109.5 236q7 82 -14.5 140.5t-69 91.5t-110 47.5t-144.5 14.5h-152l13 138h163q249 0 376 -109.5t110 -325.5q-15 -212 -163.5 -329t-375.5 -117h-430z" />
<glyph unicode="&#x42d;" horiz-adv-x="1288" d="M-18 47l53 127q60 -22 151.5 -39.5t180.5 -17.5q95 0 181 20t163.5 62.5t137.5 105.5t103 154t60 203h-748l15 135h745q3 114 -22 204t-70.5 150t-111 100t-139.5 57t-159 17q-196 0 -360 -63l-37 129q172 73 416 73q339 0 509 -187.5t142 -518.5q-12 -166 -74 -308 t-164 -246.5t-250 -164t-325 -59.5q-276 0 -397 67z" />
<glyph unicode="&#x42e;" horiz-adv-x="2164" d="M135 0l154 1448h162l-68 -655h283q44 308 251.5 492.5t534.5 184.5q295 0 457 -175t162 -476q0 -185 -55 -340.5t-157 -266.5t-254 -173t-339 -62q-284 0 -443 167t-168 454q0 5 -1 30.5t-1 30.5h-282l-72 -659h-164zM819 639q0 -115 29 -210t85.5 -166t147 -110.5 t207.5 -39.5q148 0 266.5 55t193 151t114 222t39.5 272q0 238 -120.5 378t-350.5 140q-146 0 -263 -54t-192.5 -148.5t-115.5 -219.5t-40 -270z" />
<glyph unicode="&#x42f;" horiz-adv-x="1304" d="M-14 35l483 588q-129 37 -197.5 125.5t-68.5 216.5q0 114 42 207t112.5 152.5t161 91.5t190.5 32h460l-147 -1448h-166l59 586h-194q-60 0 -80 2l-510 -633zM375 975q0 -137 88.5 -197.5t257.5 -60.5h209l61 600h-252q-168 0 -266 -94t-98 -248z" />
<glyph unicode="&#x430;" horiz-adv-x="1077" d="M80 307q0 111 28 225.5t85.5 221t135.5 190.5t186 134t230 50q109 0 203 -16l-114 -1112h-156l22 203q-131 -117 -222.5 -173.5t-172.5 -56.5q-114 0 -169.5 90.5t-55.5 243.5zM238 324q0 -91 26.5 -147t79.5 -56q44 0 127.5 51.5t142 99.5t101.5 88l67 629q-16 4 -69 4 q-88 0 -166 -42.5t-133.5 -111.5t-96 -157t-60 -180t-19.5 -178z" />
<glyph unicode="&#x431;" horiz-adv-x="1052" d="M96 340q0 293 77 579t200 435q104 125 628 225l29 -145q-33 -8 -129.5 -26.5t-163 -33t-143 -44.5t-115.5 -66q-84 -86 -157 -373q58 38 90.5 57.5t89.5 48t110.5 41.5t108.5 13q248 0 248 -330q0 -110 -24.5 -217.5t-72.5 -201t-113.5 -165t-154 -112.5t-188.5 -41 q-148 0 -234 96t-86 260zM258 367q0 -250 186 -250q90 0 162.5 57t115 147.5t65 192t22.5 201.5q0 117 -34 158.5t-103 41.5q-73 0 -179 -52t-198 -115q-37 -211 -37 -381z" />
<glyph unicode="&#x432;" horiz-adv-x="997" d="M86 319q0 159 37.5 306.5t106.5 265t178 188t241 70.5q71 0 123.5 -21t81.5 -56t43 -75.5t14 -85.5q0 -96 -56 -168t-150 -114q188 -68 188 -256q0 -79 -31 -151t-87.5 -127t-143 -87.5t-189.5 -32.5q-80 0 -142.5 20t-102 53t-65.5 78.5t-36 92.5t-10 100zM244 360 q0 -124 45.5 -187.5t154.5 -63.5q139 0 216 73t77 176q0 87 -49.5 139t-128.5 68l-307 -106q-8 -40 -8 -99zM264 594l244 82q138 52 193 102t55 111q0 62 -38.5 94.5t-99.5 32.5t-114 -25t-91.5 -65.5t-69 -96.5t-49.5 -114t-30 -121z" />
<glyph unicode="&#x433;" horiz-adv-x="862" d="M66 221q0 51 19.5 99.5t45 84t74.5 78.5t82.5 67.5t93.5 65.5q141 97 186 139q78 72 78 138q0 115 -131 115q-39 0 -77 -9.5t-80.5 -32t-65 -36t-68.5 -43.5l-63 112q75 59 176 99.5t217 40.5q106 0 174 -58.5t68 -175.5q0 -49 -18 -95t-43 -80.5t-68.5 -74t-78.5 -65 t-88 -63.5l-30 -21q-53 -38 -78 -55.5t-65.5 -50.5t-59 -55t-34 -50.5t-15.5 -54.5q0 -71 37 -97t100 -26q121 0 344 155l68 -112q-88 -71 -208 -124.5t-224 -53.5q-119 0 -193.5 61.5t-74.5 177.5z" />
<glyph unicode="&#x434;" horiz-adv-x="1058" d="M86 367q0 141 26 257t70.5 194t105.5 131.5t129 77.5t142 24q115 0 256 -109q-3 108 -18.5 188t-47.5 141.5t-85.5 92.5t-128.5 31q-94 0 -234 -41l-22 129q68 22 155.5 36.5t145.5 14.5q88 0 157.5 -32.5t123.5 -102.5t83 -189.5t29 -283.5q0 -72 -5.5 -148.5t-22 -172 t-42 -181.5t-69 -169.5t-100 -144t-138.5 -98t-180 -37.5q-149 0 -239.5 112t-90.5 280zM246 408q0 -44 3 -79.5t15 -79t32.5 -72t59 -48.5t90.5 -20q94 0 175 89t130.5 247t53.5 350q-43 46 -117.5 82t-128.5 36q-145 0 -229 -130t-84 -375z" />
<glyph unicode="&#x435;" horiz-adv-x="913" d="M84 393q0 152 35 287.5t101 240.5t169.5 166.5t231.5 61.5q141 0 211.5 -72.5t70.5 -183.5q0 -58 -24.5 -106.5t-69 -84.5t-91.5 -61t-108 -47l-364 -135q-2 -18 -2 -56q0 -145 31 -216.5t100 -71.5q132 0 350 112l55 -116q-57 -32 -94.5 -50.5t-95.5 -41t-118 -33.5 t-126 -11q-75 0 -128 34.5t-81 96t-40.5 131.5t-12.5 156zM260 596l324 127q78 31 122 74t44 90q0 67 -39 98t-97 31q-65 0 -119.5 -24.5t-92.5 -64t-67 -95.5t-46.5 -113t-28.5 -123z" />
<glyph unicode="&#x436;" horiz-adv-x="1482" d="M-37 23l492 583l-338 512h182l324 -534l-498 -613zM604 0l117 1118h156l-117 -1118h-156zM866 584l428 534h187l-437 -526l367 -569l-158 -52z" />
<glyph unicode="&#x437;" horiz-adv-x="858" d="M4 35l43 127q128 -45 246 -45q149 0 222 59.5t73 149.5q0 188 -305 194l-15 109q145 33 239.5 104t94.5 156q0 56 -47 84t-158 28q-118 0 -223 -30l-33 121q114 47 281 47q157 0 246.5 -58t89.5 -170q0 -97 -70 -179t-188 -130q237 -49 237 -270q0 -152 -115.5 -251 t-308.5 -99q-173 0 -309 53z" />
<glyph unicode="&#x438;" horiz-adv-x="1124" d="M152 305l88 813h155l-86 -774q-14 -137 2.5 -184t87.5 -47q19 0 40 4.5t39.5 11t42 19t39.5 21.5t40.5 26.5t37 26.5t36 29t31 26.5t29.5 26t24 20.5l86 794h155l-118 -1118h-156l18 184q-41 -40 -74 -68t-85 -64t-109.5 -55.5t-116.5 -19.5q-134 0 -179.5 75t-26.5 253z " />
<glyph unicode="&#x439;" horiz-adv-x="1124" d="M152 305l88 813h155l-86 -774q-14 -137 2.5 -184t87.5 -47q19 0 40 4.5t39.5 11t42 19t39.5 21.5t40.5 26.5t37 26.5t36 29t31 26.5t29.5 26t24 20.5l86 794h155l-118 -1118h-156l18 184q-41 -40 -74 -68t-85 -64t-109.5 -55.5t-116.5 -19.5q-134 0 -179.5 75t-26.5 253z " />
<glyph unicode="&#x43a;" horiz-adv-x="1005" d="M125 0l117 1118h157l-118 -1118h-156zM387 586l430 532h184l-434 -526l367 -569l-158 -52z" />
<glyph unicode="&#x43b;" horiz-adv-x="894" d="M4 37q0 153 100 358l373 723h258l41 -1118h-164l-14 975h-45l-299 -596q-92 -193 -92 -342q0 -3 1 -18.5t1 -18.5h-158q0 3 -1 18.5t-1 18.5z" />
<glyph unicode="&#x43c;" horiz-adv-x="1468" d="M29 37q0 152 71 358l250 723h238l69 -962l439 962h254l-117 -1118h-156l105 1008l-461 -1008h-201l-67 1008l-201 -629q-64 -192 -64 -342v-37h-157q-2 6 -2 37z" />
<glyph unicode="&#x43d;" horiz-adv-x="1132" d="M125 0l121 1118h155l-53 -485l453 37l49 448h156l-121 -1118h-154l55 524l-452 -35l-53 -489h-156z" />
<glyph unicode="&#x43e;" horiz-adv-x="1046" d="M86 369q0 354 153 566t402 212q79 0 142.5 -33t102 -88t59 -122.5t20.5 -139.5q0 -111 -17.5 -218.5t-59.5 -212t-103.5 -183t-157 -127t-213.5 -48.5q-152 0 -240 113.5t-88 280.5zM248 399q0 -288 203 -288q144 0 249 177t105 445q0 148 -49 215.5t-162 67.5 q-92 0 -171.5 -81.5t-127 -224.5t-47.5 -311z" />
<glyph unicode="&#x43f;" horiz-adv-x="1130" d="M125 0l119 1118h155l-18 -184q5 4 38 31t50.5 40t53.5 38.5t63.5 40t63 31.5t69.5 24.5t67 7.5q101 0 146.5 -36.5t50 -112t-9.5 -191.5l-86 -807h-156l84 774q14 135 10 166q-7 46 -48 56q-18 5 -48 5t-87.5 -29t-105.5 -61.5t-104.5 -72.5t-64.5 -45l-86 -793h-156z " />
<glyph unicode="&#x440;" horiz-adv-x="1099" d="M78 -451l168 1569h153l-14 -155q212 159 387 159q250 0 250 -327q0 -110 -21 -220.5t-68.5 -217.5t-115.5 -189.5t-170.5 -133t-224.5 -50.5q-66 0 -141 14l-48 -449h-155zM295 135q15 -3 44.5 -9t49 -8.5t47.5 -2.5q79 0 145.5 32.5t111.5 88.5t79.5 125t54 147.5 t28.5 150t9 138.5q0 108 -33.5 149t-97.5 41q-123 0 -364 -160z" />
<glyph unicode="&#x441;" horiz-adv-x="901" d="M86 377q0 126 23 241t69.5 211.5t111.5 167.5t153.5 110.5t191.5 39.5q82 0 150 -29t112 -71l-86 -99q-89 68 -186 68q-61 0 -113.5 -22t-90 -59t-67.5 -87.5t-49 -105t-32 -115.5t-18 -115t-5 -106q0 -134 34 -211.5t81 -77.5q79 0 165 27t207 89l56 -110 q-55 -33 -90.5 -52t-95 -45t-123.5 -38.5t-134 -12.5q-74 0 -128 37.5t-82 99.5t-41 128t-13 137z" />
<glyph unicode="&#x442;" horiz-adv-x="1691" d="M125 0l119 1118h155l-18 -182q6 4 38.5 30.5t50 39.5t52.5 38.5t61.5 40t60.5 31t66 24t62 7.5q113 0 153 -45.5t38 -149.5q236 195 389 195q100 0 144 -36.5t47.5 -112t-9.5 -191.5l-88 -807h-154l84 774q14 134 10 165q-7 46 -48 57q-19 5 -50 5q-75 0 -336 -194 l-86 -807h-155l84 774q14 134 11 161q-5 46 -45 57q-20 5 -52 5q-24 0 -77 -28t-99 -59.5t-101.5 -71t-64.5 -45.5l-86 -793h-156z" />
<glyph unicode="&#x443;" horiz-adv-x="952" d="M84 1118h170l141 -1007l303 628q40 84 66.5 180t26.5 160q0 9 -5 39h162q2 -12 2 -39q0 -73 -27 -170t-69 -186l-567 -1174h-164l221 451h-84z" />
<glyph unicode="&#x444;" horiz-adv-x="1390" d="M86 393q0 354 148.5 551.5t445.5 200.5l43 399h158l-43 -399q223 -1 347 -117t124 -301q0 -355 -149 -552t-447 -200l-45 -426h-156l45 426q-223 1 -347 117t-124 301zM248 430q0 -52 7 -94.5t28.5 -85.5t56 -72.5t93.5 -48t138 -18.5l95 905q-138 0 -234 -77.5 t-140 -207t-44 -301.5zM725 106q139 0 236 77.5t141.5 207t44.5 301.5q0 51 -7 92.5t-28.5 84t-56 72t-94 49.5t-138.5 22z" />
<glyph unicode="&#x445;" horiz-adv-x="903" d="M-80 0l445 596l-234 522h168l168 -393l285 393h168l-392 -526l258 -592h-170l-190 459l-334 -459h-172z" />
<glyph unicode="&#x446;" horiz-adv-x="1177" d="M152 305l88 813h155l-86 -774q-14 -137 2.5 -184t87.5 -47q19 0 40 4.5t39.5 11t42 19t39.5 21.5t40.5 26.5t37 26.5t36 29t31 26.5t29.5 26t24 20.5l86 794h155l-92 -858q-9 -82 8 -105t91 -26h77l-43 -410h-151l29 281q-50 0 -84.5 9t-52.5 25.5t-28 39.5t-10.5 51 t0.5 59q-41 -40 -74 -68t-85 -64t-109.5 -55.5t-116.5 -19.5q-134 0 -179.5 75t-26.5 253z" />
<glyph unicode="&#x447;" horiz-adv-x="1032" d="M128.5 532.5q-5.5 76.5 8.5 196.5l39 389h156l-39 -364q-10 -87 -10 -137.5t20.5 -70.5t75.5 -20q76 0 332 176l41 416h153l-114 -1118h-154l59 563q-205 -178 -377 -178q-97 0 -141 35.5t-49.5 112z" />
<glyph unicode="&#x448;" horiz-adv-x="1622" d="M149 119.5q-4 75.5 13 191.5l119 807h153l-115 -774q-14 -139 -9 -172q8 -44 48 -52q14 -3 35 -3q19 0 42 7t50.5 23t48.5 28.5t52.5 37t44.5 35t43.5 36.5t32.5 27l104 807h156l-103 -774q-1 -5 -2 -14q-15 -131 -7 -163q8 -39 52 -44q12 -2 27 -2q13 0 29.5 5t32.5 12 t36.5 19t37 22.5t38.5 27t36 27.5t35 28t30 25t26.5 22.5t19.5 16.5l84 792h156l-117 -1118h-157l20 182q-10 -8 -52 -46t-68.5 -59t-68.5 -49.5t-84 -42.5t-83 -14q-112 0 -151.5 45.5t-37.5 149.5q-1 -1 -36 -31t-46 -38.5t-45 -34.5t-55 -36.5t-52.5 -26.5t-61.5 -22 t-60 -6q-97 0 -142 36.5t-49 112z" />
<glyph unicode="&#x449;" horiz-adv-x="1675" d="M149 119.5q-4 75.5 13 191.5l119 807h153l-115 -774q-14 -139 -9 -172q8 -44 48 -52q14 -3 35 -3q19 0 42 7t50.5 23t48.5 28.5t52.5 37t44.5 35t43.5 36.5t32.5 27l104 807h156l-103 -774q-1 -5 -2 -14q-15 -131 -7 -163q8 -39 52 -44q12 -2 27 -2q13 0 29.5 5t32.5 12 t36.5 19t37 22.5t38.5 27t36 27.5t35 28t30 25t26.5 22.5t19.5 16.5l84 792h156l-90 -858q-8 -84 9.5 -107t94.5 -24h72l-43 -410h-152l29 281q-50 0 -84 9t-52 25.5t-28 39.5t-10.5 50t0.5 58q-10 -8 -52 -46t-68.5 -59t-68.5 -49.5t-84 -42.5t-83 -14q-112 0 -151.5 45.5 t-37.5 149.5q-1 -1 -36 -31t-46 -38.5t-45 -34.5t-55 -36.5t-52.5 -26.5t-61.5 -22t-60 -6q-97 0 -142 36.5t-49 112z" />
<glyph unicode="&#x44a;" horiz-adv-x="1028" d="M57 983l15 135h592l28 -69q-192 -211 -266 -400q180 137 311 137q58 0 100 -20t65 -55.5t33.5 -79t10.5 -96.5q0 -122 -40.5 -226.5t-107.5 -175t-154 -110t-181 -39.5q-55 0 -103 15t-90 46.5t-66 90.5t-24 138q0 184 72 351t213 358h-408zM340 281q0 -168 152 -168 q54 0 106 26t95 75t69 130t26 180q0 127 -102 127q-67 0 -151 -44t-158 -103q-37 -116 -37 -223z" />
<glyph unicode="&#x44b;" horiz-adv-x="1392" d="M111 37l163 1081h156l-70 -481q66 48 106 73.5t105 50.5t123 25q111 0 161 -68.5t50 -182.5q0 -159 -68 -286t-182.5 -196t-251.5 -69q-154 0 -292 53zM285 139q54 -24 139 -24q62 0 118.5 25.5t102.5 74.5t73 129t27 180q0 127 -104 127q-44 0 -104 -27t-95 -50.5 t-102 -71.5zM995 0l117 1118h156l-117 -1118h-156z" />
<glyph unicode="&#x44c;" horiz-adv-x="987" d="M111 37l163 1081h156l-70 -481q66 48 106 73.5t105 50.5t123 25q111 0 161 -68.5t50 -182.5q0 -159 -68 -286t-182.5 -196t-251.5 -69q-154 0 -292 53zM285 139q54 -24 139 -24q62 0 118.5 25.5t102.5 74.5t73 129t27 180q0 127 -104 127q-44 0 -104 -27t-95 -50.5 t-102 -71.5z" />
<glyph unicode="&#x44d;" horiz-adv-x="884" d="M2 70l68 112q111 -73 213 -73q117 0 207.5 109.5t127.5 287.5h-348l11 125h356q6 46 6 100q0 147 -38 215t-138 68q-115 0 -272 -70l-48 105q166 98 347 98q68 0 121.5 -21t88 -56t57.5 -84.5t32.5 -103t9.5 -114.5q0 -97 -14 -191t-41.5 -183.5t-73.5 -165t-105 -132.5 t-140.5 -89t-176.5 -32q-69 0 -138 27.5t-112 67.5z" />
<glyph unicode="&#x44e;" horiz-adv-x="1509" d="M125 0l121 1118h155l-53 -485l230 18q56 233 194.5 364.5t331.5 131.5q64 0 117.5 -22t91 -59t63.5 -86t38.5 -104t12.5 -112q0 -111 -17.5 -218.5t-59 -212t-103 -183t-157 -127t-213.5 -48.5q-102 0 -178.5 54.5t-114 143t-37.5 196.5q0 82 8 139l-221 -19l-53 -489 h-156zM711 399q0 -288 202 -288q70 0 134.5 46.5t113.5 127t78 198t29 250.5q0 148 -49 215.5t-162 67.5q-92 0 -171.5 -81.5t-127 -224.5t-47.5 -311z" />
<glyph unicode="&#x44f;" horiz-adv-x="1024" d="M0 23l393 432q-28 8 -56.5 21t-61 36.5t-57 53t-40.5 72.5t-16 93q0 44 8 89t38 105t78.5 105t139.5 77t211 32q57 0 134.5 -12.5t127.5 -30.5l-113 -1096h-155l106 993q-58 15 -127 15q-130 0 -212.5 -66t-82.5 -199q0 -37 12.5 -69t31 -53.5t48 -40.5t53.5 -29.5 t58.5 -20.5t52 -13.5t45.5 -8.5l-454 -537z" />
<glyph unicode="&#x450;" horiz-adv-x="913" d="M84 393q0 152 35 287.5t101 240.5t169.5 166.5t231.5 61.5q141 0 211.5 -72.5t70.5 -183.5q0 -58 -24.5 -106.5t-69 -84.5t-91.5 -61t-108 -47l-364 -135q-2 -18 -2 -56q0 -145 31 -216.5t100 -71.5q132 0 350 112l55 -116q-57 -32 -94.5 -50.5t-95.5 -41t-118 -33.5 t-126 -11q-75 0 -128 34.5t-81 96t-40.5 131.5t-12.5 156zM260 596l324 127q78 31 122 74t44 90q0 67 -39 98t-97 31q-65 0 -119.5 -24.5t-92.5 -64t-67 -95.5t-46.5 -113t-28.5 -123zM315 1503l80 127l375 -268l-68 -107z" />
<glyph unicode="&#x451;" horiz-adv-x="913" d="M84 393q0 152 35 287.5t101 240.5t169.5 166.5t231.5 61.5q141 0 211.5 -72.5t70.5 -183.5q0 -58 -24.5 -106.5t-69 -84.5t-91.5 -61t-108 -47l-364 -135q-2 -18 -2 -56q0 -145 31 -216.5t100 -71.5q132 0 350 112l55 -116q-57 -32 -94.5 -50.5t-95.5 -41t-118 -33.5 t-126 -11q-75 0 -128 34.5t-81 96t-40.5 131.5t-12.5 156zM260 596l324 127q78 31 122 74t44 90q0 67 -39 98t-97 31q-65 0 -119.5 -24.5t-92.5 -64t-67 -95.5t-46.5 -113t-28.5 -123zM309 1462l129 117l107 -117l-129 -116zM713 1462l127 117l106 -117l-131 -116z" />
<glyph unicode="&#x452;" horiz-adv-x="1110" d="M70 1178l12 129h188l27 239h156l-27 -239h389l-14 -129h-389l-43 -410q4 3 33.5 26.5t42.5 34t46 34t54.5 36t55 31t60.5 28t59.5 16.5t61.5 7q112 0 160.5 -83.5t48.5 -246.5q0 -300 -118 -593t-293 -509l-113 93q147 168 253.5 441.5t106.5 524.5q0 127 -24 177.5 t-92 50.5q-40 0 -110.5 -40t-158 -104.5t-88.5 -64.5l-65 -627h-156l123 1178h-186z" />
<glyph unicode="&#x453;" horiz-adv-x="862" d="M66 221q0 51 19.5 99.5t45 84t74.5 78.5t82.5 67.5t93.5 65.5q141 97 186 139q78 72 78 138q0 115 -131 115q-39 0 -77 -9.5t-80.5 -32t-65 -36t-68.5 -43.5l-63 112q75 59 176 99.5t217 40.5q106 0 174 -58.5t68 -175.5q0 -49 -18 -95t-43 -80.5t-68.5 -74t-78.5 -65 t-88 -63.5l-30 -21q-53 -38 -78 -55.5t-65.5 -50.5t-59 -55t-34 -50.5t-15.5 -54.5q0 -71 37 -97t100 -26q121 0 344 155l68 -112q-88 -71 -208 -124.5t-224 -53.5q-119 0 -193.5 61.5t-74.5 177.5zM385 1366l401 281l76 -127l-413 -260z" />
<glyph unicode="&#x454;" horiz-adv-x="901" d="M86 377q0 126 23 241t69.5 211.5t111.5 167.5t153.5 110.5t191.5 39.5q82 0 150 -29t112 -71l-86 -99q-89 68 -186 68q-72 0 -131.5 -30.5t-100.5 -84t-68.5 -115t-45.5 -135.5h405l-14 -127h-414q-6 -43 -6 -118q0 -134 34 -211.5t81 -77.5q79 0 165 27t207 89l56 -110 q-55 -33 -90.5 -52t-95 -45t-123.5 -38.5t-134 -12.5q-74 0 -128 37.5t-82 99.5t-41 128t-13 137z" />
<glyph unicode="&#x455;" horiz-adv-x="878" d="M43 33l45 135q141 -51 272 -51q28 0 57.5 3.5t65.5 14.5t63 28t45.5 47.5t18.5 70.5q0 44 -24 84.5t-62 73t-84.5 64.5t-93 67.5t-84.5 73.5t-62 89.5t-24 110.5q0 81 30 140.5t83 92t116.5 47.5t139.5 15q74 0 156 -18t133 -44l-48 -121q-84 28 -140 41t-124 13 q-196 0 -196 -144q0 -44 24 -84.5t62 -73t84.5 -65t93 -69t84.5 -76.5t62 -94.5t24 -116.5q0 -68 -25.5 -122t-66 -87.5t-95.5 -55.5t-110.5 -31t-114.5 -9q-189 0 -305 51z" />
<glyph unicode="&#x456;" horiz-adv-x="546" d="M125 0l117 1118h155l-116 -1118h-156zM221 1466l146 127l122 -127l-149 -129z" />
<glyph unicode="&#x457;" horiz-adv-x="546" d="M37 1462l129 117l106 -117l-129 -116zM125 0l117 1118h155l-116 -1118h-156zM440 1462l127 117l107 -117l-131 -116z" />
<glyph unicode="&#x458;" horiz-adv-x="546" d="M-276 -424l36 133q80 -22 134 -22q62 0 104.5 19t67.5 58t37.5 85.5t19.5 115.5l121 1153h155l-120 -1155q-13 -118 -48 -200.5t-89.5 -128.5t-119 -65.5t-147.5 -19.5q-78 0 -151 27zM221 1466l146 127l122 -127l-149 -129z" />
<glyph unicode="&#x459;" horiz-adv-x="1363" d="M4 37q0 153 100 358l353 723h231l41 -508q101 79 190.5 127.5t178.5 48.5q112 0 162.5 -68.5t50.5 -182.5q0 -119 -39.5 -223t-107 -175.5t-157.5 -112t-190 -40.5q-94 0 -209 28l-47 975h-22l-283 -608q-92 -200 -92 -342q0 -31 2 -37h-160q0 3 -1 18.5t-1 18.5z M737 496l29 -379q18 -2 68 -2q62 0 118 25.5t101 74.5t71.5 129t26.5 180q0 127 -104 127q-36 0 -75.5 -13t-86 -41t-73 -46t-75.5 -55z" />
<glyph unicode="&#x45a;" horiz-adv-x="1589" d="M125 0l121 1118h155l-53 -485l453 37l49 448h156l-52 -487q46 34 80 56.5t80 48t91.5 38t90.5 12.5q111 0 161 -68.5t50 -182.5q0 -159 -67.5 -286t-182 -196t-251.5 -69q-174 15 -271 55l51 485l-452 -35l-53 -489h-156zM901 133q48 -18 125 -18q62 0 119 25.5 t102.5 74.5t73 129t27.5 180q0 127 -105 127q-34 0 -71.5 -12t-84.5 -40.5t-71 -45t-76 -53.5z" />
<glyph unicode="&#x45b;" horiz-adv-x="1132" d="M70 1178l12 129h188l27 239h156l-27 -239h389l-14 -129h-389l-43 -410q2 2 38 30.5t51.5 40t53 38.5t64.5 41t63 31t70 24.5t67 7.5q100 0 145 -36.5t49.5 -112t-9.5 -191.5l-68 -641h-156l66 608q15 136 10 169q-7 45 -51 55q-18 4 -45 4q-30 0 -88 -29t-106 -61.5 t-104.5 -73t-64.5 -45.5l-65 -627h-156l123 1178h-186z" />
<glyph unicode="&#x45c;" horiz-adv-x="1005" d="M125 0l117 1118h157l-118 -1118h-156zM387 586l430 532h184l-434 -526l367 -569l-158 -52zM451 1366l401 281l76 -127l-414 -260z" />
<glyph unicode="&#x45d;" horiz-adv-x="1124" d="M152 305l88 813h155l-86 -774q-14 -137 2.5 -184t87.5 -47q19 0 40 4.5t39.5 11t42 19t39.5 21.5t40.5 26.5t37 26.5t36 29t31 26.5t29.5 26t24 20.5l86 794h155l-118 -1118h-156l18 184q-41 -40 -74 -68t-85 -64t-109.5 -55.5t-116.5 -19.5q-134 0 -179.5 75t-26.5 253z M332 1503l80 127l374 -268l-67 -107z" />
<glyph unicode="&#x45e;" horiz-adv-x="952" d="M84 1118h170l141 -1007l303 628q40 84 66.5 180t26.5 160q0 9 -5 39h162q2 -12 2 -39q0 -73 -27 -170t-69 -186l-567 -1174h-164l221 451h-84zM260 1522l123 82q98 -144 152 -144q60 0 141 38.5t166 107.5l59 -74q-99 -91 -209 -148t-198 -57q-58 0 -121.5 55.5 t-112.5 139.5z" />
<glyph unicode="&#x45f;" horiz-adv-x="1124" d="M152 305l88 813h155l-86 -774q-14 -137 2.5 -184t87.5 -47q19 0 40 4.5t39.5 11t42 19t39.5 21.5t40.5 26.5t37 26.5t36 29t31 26.5t29.5 26t24 20.5l86 794h155l-118 -1118h-156l18 184q-41 -40 -74 -68t-85 -64t-109.5 -55.5t-116.5 -19.5q-134 0 -179.5 75t-26.5 253z M459 -451l82 373h121l-39 -373h-164z" />
<glyph unicode="&#x462;" horiz-adv-x="1271" d="M-27 1092l15 139h391l22 217h162l-22 -217h456l-14 -137h-457l-100 -959h258q172 0 269.5 85t97.5 220q0 137 -90.5 194.5t-268.5 57.5h-143l16 137h146q260 0 385 -93.5t125 -286.5q0 -207 -143 -328t-376 -121h-452l112 1092h-389z" />
<glyph unicode="&#x463;" horiz-adv-x="995" d="M-25 981l15 137h295l51 330h153l-47 -330h355l-15 -137h-360l-51 -348q47 34 78 54t76 44t88.5 35.5t88.5 11.5q112 0 161.5 -67t49.5 -181q0 -120 -39.5 -222.5t-107.5 -173t-159.5 -110.5t-194.5 -40q-156 0 -291 53l143 944h-289zM295 139q54 -24 137 -24q62 0 119 25 t103.5 73.5t74 127.5t27.5 179q0 123 -105 123q-65 0 -138.5 -39.5t-164.5 -107.5z" />
<glyph unicode="&#x472;" horiz-adv-x="1605" d="M96 629q0 247 94 436.5t276.5 297t428.5 107.5q294 0 456 -175t162 -476q0 -248 -94.5 -438t-278 -297t-431.5 -107q-293 0 -453 176t-160 476zM262 668q0 -43 2 -47q2 -111 31.5 -203t85.5 -160.5t145 -106.5t203 -38q130 0 236.5 42t180 117t120 175t63.5 221h-1067z M274 793h1067v41q-5 228 -125.5 362.5t-345.5 134.5q-249 0 -404 -149t-192 -389z" />
<glyph unicode="&#x473;" horiz-adv-x="1046" d="M86 369q0 354 153 566t402 212q79 0 142.5 -33t102 -88t59 -122.5t20.5 -139.5q0 -111 -17.5 -218.5t-59.5 -212t-103.5 -183t-157 -127t-213.5 -48.5q-152 0 -240 113.5t-88 280.5zM248 399q0 -288 203 -288q109 0 200 107.5t129 285.5h-528q-4 -35 -4 -105zM270 625 h527q8 70 8 108q0 148 -49 215.5t-162 67.5q-106 0 -195 -108.5t-129 -282.5z" />
<glyph unicode="&#x474;" horiz-adv-x="1308" d="M80 1448h170l309 -1331l488 956q88 178 163.5 273t153.5 139l106 -96q-70 -42 -133.5 -118t-132.5 -214l-545 -1057h-227z" />
<glyph unicode="&#x475;" horiz-adv-x="964" d="M84 1118h170l145 -1007q312 651 312 653q67 141 145 241.5t152 145.5l104 -94q-149 -99 -283 -379l-329 -678h-228z" />
<glyph unicode="&#x490;" horiz-adv-x="1071" d="M135 0l154 1448h669l35 330h158l-47 -467h-666l-139 -1311h-164z" />
<glyph unicode="&#x491;" horiz-adv-x="890" d="M125 0l121 1118h465l24 234h150l-37 -365h-461l-104 -987h-158z" />
<glyph unicode="&#x4d8;" horiz-adv-x="1540" d="M104 590q0 31 17 205h1169q4 117 -22 213.5t-82 169.5t-149 113t-216 40q-147 0 -289 -41.5t-245 -93.5l-41 121q287 151 606 151q122 0 221.5 -30t169.5 -85t118 -133t70.5 -172t22.5 -204q0 -146 -31.5 -276.5t-95 -239t-154.5 -187t-216.5 -122.5t-274.5 -44 q-147 0 -259 44t-181 126t-103.5 193.5t-34.5 251.5zM266 598q1 -105 25 -190.5t74 -153.5t136.5 -105.5t203.5 -37.5q106 0 193 27.5t149.5 76.5t109.5 119.5t74.5 151.5t42.5 178h-1006q-2 -23 -2 -66z" />
<glyph unicode="&#x4d9;" horiz-adv-x="913" d="M8 229q0 58 24.5 106.5t69 84.5t91.5 61t108 47l365 136q2 18 2 55q0 145 -31 217t-100 72q-131 0 -351 -113l-55 117q77 42 127.5 66t135.5 46.5t171 22.5q75 0 128 -34.5t81 -96t40.5 -131.5t12.5 -156q0 -152 -35 -287.5t-100.5 -240.5t-169 -166.5t-231.5 -61.5 q-141 0 -212 72.5t-71 183.5zM162 236q0 -67 39 -98.5t96 -31.5q65 0 119.5 24.5t92.5 64t67 95.5t46.5 113t28.5 123l-323 -127q-79 -31 -122.5 -73.5t-43.5 -89.5z" />
<glyph unicode="&#x2000;" horiz-adv-x="904" />
<glyph unicode="&#x2001;" horiz-adv-x="1808" />
<glyph unicode="&#x2002;" horiz-adv-x="904" />
<glyph unicode="&#x2003;" horiz-adv-x="1808" />
<glyph unicode="&#x2004;" horiz-adv-x="602" />
<glyph unicode="&#x2005;" horiz-adv-x="452" />
<glyph unicode="&#x2006;" horiz-adv-x="301" />
<glyph unicode="&#x2007;" horiz-adv-x="301" />
<glyph unicode="&#x2008;" horiz-adv-x="226" />
<glyph unicode="&#x2009;" horiz-adv-x="361" />
<glyph unicode="&#x200a;" horiz-adv-x="100" />
<glyph unicode="&#x2010;" horiz-adv-x="737" d="M39 520l16 139h611l-17 -139h-610z" />
<glyph unicode="&#x2011;" horiz-adv-x="737" d="M39 520l16 139h611l-17 -139h-610z" />
<glyph unicode="&#x2012;" horiz-adv-x="737" d="M39 520l16 139h611l-17 -139h-610z" />
<glyph unicode="&#x2013;" horiz-adv-x="1024" d="M53 522l15 135h901l-15 -135h-901z" />
<glyph unicode="&#x2014;" horiz-adv-x="1683" d="M55 522l13 135h1560l-12 -135h-1561z" />
<glyph unicode="&#x2018;" horiz-adv-x="335" d="M82 1139q5 141 40 236.5t97 187.5h129q-78 -169 -96 -424h-170z" />
<glyph unicode="&#x2019;" horiz-adv-x="335" d="M92 1139q77 165 96 424h172q-7 -139 -42 -234.5t-97 -189.5h-129z" />
<glyph unicode="&#x201a;" horiz-adv-x="567" d="M45 -248q78 168 96 422h170q-5 -139 -40 -234.5t-97 -187.5h-129z" />
<glyph unicode="&#x201c;" horiz-adv-x="641" d="M66 1139q7 142 42 238t97 186h129q-78 -163 -96 -424h-172zM387 1139q8 141 43 237.5t96 186.5h129q-81 -175 -94 -424h-174z" />
<glyph unicode="&#x201d;" horiz-adv-x="641" d="M66 1139q83 176 96 424h172q-7 -139 -42 -234.5t-97 -189.5h-129zM389 1139q78 171 96 424h170q-5 -139 -40 -234.5t-97 -189.5h-129z" />
<glyph unicode="&#x201e;" horiz-adv-x="641" d="M-20 -248q77 163 96 422h170q-7 -140 -41.5 -236t-95.5 -186h-129zM303 -248q78 168 96 422h168q-5 -139 -40 -234.5t-97 -187.5h-127z" />
<glyph unicode="&#x2026;" horiz-adv-x="1480" d="M201 0l18 182h182l-20 -182h-180zM631 0l18 182h182l-18 -182h-182zM1081 0l19 182h182l-18 -182h-183z" />
<glyph unicode="&#x202f;" horiz-adv-x="361" />
<glyph unicode="&#x2039;" horiz-adv-x="526" d="M88 557l266 451l117 -45l-219 -406l133 -399l-125 -52z" />
<glyph unicode="&#x203a;" horiz-adv-x="526" d="M49 158l217 399l-133 406l127 45l170 -451l-264 -451z" />
<glyph unicode="&#x205f;" horiz-adv-x="452" />
<glyph unicode="&#x20ac;" horiz-adv-x="1157" d="M-6 360l10 111h109v23q0 80 22 163h-110l12 111h133q76 182 232.5 275.5t361.5 93.5q170 0 334 -64l-60 -125q-154 53 -288 53q-136 0 -246 -58.5t-168 -174.5h518l-12 -111h-549q-21 -83 -21 -170v-16h549l-10 -111h-518q26 -86 88.5 -143.5t139.5 -81.5t169 -24 q120 0 277 47l26 -123q-136 -55 -346 -55q-202 0 -344.5 95.5t-179.5 284.5h-129z" />
<glyph unicode="&#x2122;" horiz-adv-x="1660" d="M68 1341l12 107h600l-12 -107h-240l-66 -618h-118l65 618h-241zM588 723l166 725h131l145 -621l311 621h127l-12 -725h-119l17 522l-260 -522h-154l-127 530l-108 -530h-117z" />
<glyph unicode="&#x25fc;" horiz-adv-x="1116" d="M0 0v1116h1116v-1116h-1116z" />
</font>
</defs>
</svg>
