<?xml version="1.0" standalone="no"?>
<!DOCTYPE svg PUBLIC "-//W3C//DTD SVG 1.1//EN" "http://www.w3.org/Graphics/SVG/1.1/DTD/svg11.dtd" >
<svg xmlns="http://www.w3.org/2000/svg" xmlns:xlink="http://www.w3.org/1999/xlink" version="1.1">
<metadata></metadata>
<defs>
<font id="fedra_sans_pronormal" horiz-adv-x="567" >
<font-face units-per-em="2048" ascent="1597" descent="-451" />
<missing-glyph horiz-adv-x="454" />
<glyph horiz-adv-x="0" />
<glyph horiz-adv-x="682" />
<glyph unicode=" "  horiz-adv-x="454" />
<glyph unicode="&#x09;" horiz-adv-x="454" />
<glyph unicode="&#xa0;" horiz-adv-x="454" />
<glyph unicode="!" horiz-adv-x="602" d="M176 0v213h230v-213h-230zM184 698v750h213v-750l-10 -317h-190z" />
<glyph unicode="&#x22;" horiz-adv-x="784" d="M100 1544h203l-16 -489h-172zM481 1542h203l-16 -487h-174z" />
<glyph unicode="#" horiz-adv-x="1257" d="M72 281v172h190l14 241h-204v174h219l14 293h201l-17 -293h314l16 293h201l-16 -293h170v-174h-183l-14 -241h197v-172h-207l-17 -281h-198l14 281h-313l-17 -281h-198l14 281h-180zM463 453h313l15 241h-314z" />
<glyph unicode="$" horiz-adv-x="1099" d="M100 63l62 164q96 -34 174 -49.5t172 -15.5q252 0 252 145q0 25 -13 46.5t-33 37t-50 31t-57 26t-62 23.5q-11 4 -17 6q-157 59 -223 100q-162 100 -162 263q0 119 85.5 188.5t226.5 91.5l-2 209h172l-4 -203q93 -1 160 -15.5t149 -45.5l-53 -156q-168 49 -304 49 q-208 0 -208 -118q0 -25 14 -47.5t31.5 -38.5t52 -34.5t55.5 -27.5t62 -26q152 -61 191 -81q176 -88 207 -209q7 -29 7 -59q0 -76 -28.5 -135.5t-80 -97t-115 -59.5t-140.5 -31l6 -197h-174l2 191q-211 5 -355 75z" />
<glyph unicode="%" horiz-adv-x="1638" d="M78 1106q0 83 27.5 151.5t74.5 112.5t108 68t128 24q71 0 129.5 -17.5t106.5 -56t75 -107t27 -161.5q0 -161 -99 -254.5t-245 -93.5q-69 0 -127.5 18.5t-105 57t-73 104.5t-26.5 154zM184 227l1123 1088l112 -119l-1120 -1090zM262 1106q0 -182 148 -182q74 0 117.5 51.5 t43.5 144.5t-39 143t-116 50q-67 0 -110.5 -50.5t-43.5 -156.5zM885 313q0 166 98 262.5t240 96.5q71 0 129.5 -17.5t106.5 -56t75 -107t27 -161.5q0 -162 -99 -255t-245 -93q-69 0 -127.5 18.5t-105 56.5t-73 103.5t-26.5 152.5zM1069 313q0 -92 36.5 -136t111.5 -44 q72 0 116.5 52t44.5 145q0 190 -155 190q-67 0 -110.5 -50.5t-43.5 -156.5z" />
<glyph unicode="&#x26;" horiz-adv-x="1425" d="M115 346q0 72 19 132t59 111.5t82.5 90t107.5 86.5q-78 188 -78 348q0 64 20 122.5t60 109t109.5 80.5t160.5 30q167 0 250.5 -85t83.5 -212q0 -39 -10 -76t-25 -65.5t-42 -59t-50 -51.5t-61.5 -48.5t-63.5 -43.5t-70 -44t-67 -42q81 -158 217.5 -283t299 -198t329.5 -88 q-10 -100 -21 -170q-267 6 -507 143q-92 -78 -172.5 -113.5t-210.5 -35.5q-63 0 -118 8.5t-112.5 33t-98 63.5t-66 105t-25.5 152zM319 358q0 -104 65.5 -152t164.5 -48q59 0 108.5 19t108.5 56q-194 145 -311 371q-68 -61 -102 -117.5t-34 -128.5zM492 1130q0 -115 43 -256 q15 10 54 35t62 41t56.5 42.5t52.5 48t33 49.5t14 55q0 68 -42.5 109.5t-111.5 41.5q-76 0 -118.5 -46.5t-42.5 -119.5z" />
<glyph unicode="'" horiz-adv-x="413" d="M100 1544h211l-14 -489h-182z" />
<glyph unicode="(" horiz-adv-x="741" d="M104 584q0 144 26 277t67.5 229.5t92 180t100.5 138t91.5 93.5t67.5 56l26 17l132 -141l-22 -16.5t-54 -49.5t-76 -84t-80.5 -119t-76.5 -155.5t-54 -193t-22 -230.5q0 -120 21 -235t55 -202t75 -164.5t82.5 -131t75.5 -92.5t55 -57l21 -19l-134 -142q-10 7 -27 21 t-65.5 63t-93 105t-98.5 147.5t-93 191t-65.5 235t-26.5 278.5z" />
<glyph unicode=")" horiz-adv-x="741" d="M35 1434l133 141q10 -6 27 -17.5t65.5 -55t93 -94.5t98.5 -137t93 -181t65.5 -228.5t26.5 -277.5q0 -113 -16 -220.5t-43 -194.5t-62.5 -167t-74 -141.5t-77.5 -114.5t-74.5 -89.5t-62.5 -62.5t-43 -38l-16 -13l-131 142q8 7 22 19t54 56t76 93.5t80.5 130t76.5 166 t54 201t22 235.5q0 119 -21.5 230.5t-55.5 193.5t-75.5 154t-82.5 120.5t-75 83t-56 50.5z" />
<glyph unicode="*" horiz-adv-x="866" d="M82 1087l205 84l53 -96l-176 -133zM82 1307l84 145l178 -133l-57 -100zM354 831l27 218h119l24 -218h-170zM358 1561h170l-26 -220h-119zM541 1071l57 100l205 -86l-84 -147zM541 1317l176 133l84 -145l-205 -84z" />
<glyph unicode="+" horiz-adv-x="1228" d="M88 537v170l432 -5l-2 443h174l-4 -445l453 7v-170h-451l2 -433h-174l2 433h-432z" />
<glyph unicode="," horiz-adv-x="667" d="M174 -260q53 137 53 274v203h224v-98q0 -218 -93 -379h-184z" />
<glyph unicode="-" horiz-adv-x="747" d="M68 498v178h610v-178h-610z" />
<glyph unicode="." horiz-adv-x="667" d="M217 0v227h246v-227h-246z" />
<glyph unicode="/" horiz-adv-x="833" d="M82 -127l477 1702h193l-476 -1702h-194z" />
<glyph unicode="0" horiz-adv-x="1415" d="M111 553q0 285 162 439.5t444 154.5q277 0 432.5 -153.5t155.5 -422.5q0 -150 -44.5 -265t-125.5 -186.5t-190 -108t-243 -36.5q-279 0 -435 145.5t-156 432.5zM332 555q0 -189 105.5 -293t269.5 -104q168 0 273 106.5t105 302.5q0 185 -101.5 292.5t-270.5 107.5 q-174 0 -277.5 -105.5t-103.5 -306.5z" />
<glyph unicode="1" horiz-adv-x="755" d="M39 963v167l508 15v-1145h-217v963h-291z" />
<glyph unicode="2" horiz-adv-x="1056" d="M84 0v176q29 24 98 76t128.5 97.5t131.5 106.5t122.5 112.5t85 106.5t34.5 97q0 106 -58 149.5t-167 43.5q-75 0 -152.5 -22t-122.5 -46l-61 158q49 32 147 62t199 30q98 0 173.5 -20.5t122.5 -54.5t77.5 -82.5t42.5 -99.5t12 -110q0 -52 -21 -106.5t-52 -101 t-81.5 -97.5t-93 -88t-103.5 -82t-97 -69t-89 -58h592v-178h-868z" />
<glyph unicode="3" horiz-adv-x="1021" d="M41 -285l47 174q164 -51 309 -51q53 0 94.5 5t82.5 19.5t67.5 39t42.5 65.5t16 96q0 231 -307 277q-5 1 -80 6v156q44 4 70 8q116 22 185 90t69 166q0 105 -71 152t-179 47q-117 0 -225 -43l-56 153q144 70 318 70q187 0 303.5 -92.5t116.5 -261.5q0 -70 -23 -131 t-60.5 -103t-78.5 -69.5t-84 -41.5q57 -18 109 -48.5t101 -75.5t78 -110t29 -140q0 -109 -39.5 -191.5t-109 -130t-157 -71t-191.5 -23.5q-238 0 -377 59z" />
<glyph unicode="4" horiz-adv-x="1181" d="M33 59v160l526 899h334v-878h233v-181h-233v-391h-215v391h-645zM240 240h438v755z" />
<glyph unicode="5" horiz-adv-x="1093" d="M121 -303l53 182q157 -41 318 -41q132 0 213 68t81 184q0 146 -79 211.5t-215 65.5q-130 0 -320 -19v768h770v-178h-563v-403q73 8 158 8q214 0 339 -114.5t125 -315.5q0 -220 -140.5 -341.5t-368.5 -121.5q-110 0 -213.5 14t-157.5 33z" />
<glyph unicode="6" horiz-adv-x="1193" d="M100 623q0 207 47 367.5t133 264t204.5 156.5t263.5 53q143 0 239 -34l-45 -173q-94 23 -194 23q-84 0 -152 -25.5t-114.5 -72.5t-79.5 -108t-51.5 -138.5t-27 -156.5t-8.5 -169q0 -120 14 -201t48.5 -140.5t95.5 -87t152 -27.5q117 0 185.5 83.5t68.5 211.5 q0 146 -73 217t-198 71q-67 0 -184 -26v170q92 28 207 28q225 0 343 -115.5t118 -324.5q0 -157 -64.5 -270t-172 -168.5t-245.5 -55.5q-125 0 -217 34t-159 108.5t-100.5 200.5t-33.5 305z" />
<glyph unicode="7" horiz-adv-x="950" d="M14 924v192h906v-164l-635 -1317l-191 68l611 1221h-691z" />
<glyph unicode="8" horiz-adv-x="1185" d="M98 342q0 76 25 140t72.5 114.5t97.5 87t119 74.5q-57 36 -99.5 71t-80.5 79t-58 96.5t-20 111.5q0 168 123 259t331 91q200 0 315 -97.5t115 -235.5q0 -51 -15 -98t-39.5 -83.5t-62.5 -72t-76 -62.5t-87 -57q58 -32 99.5 -58t88 -64t75 -76t47.5 -88.5t19 -106.5 q0 -188 -135 -290t-364 -102q-221 0 -355.5 95.5t-134.5 271.5zM309 369q0 -101 75 -163.5t216 -62.5q132 0 201 62t69 174q0 36 -17 70.5t-40.5 61t-66.5 57.5t-77 51.5t-91 52.5q-61 -35 -103 -63.5t-83 -66.5t-62 -81t-21 -92zM362 1102q0 -79 59.5 -140t168.5 -122 q113 60 174 120t61 142q0 90 -53.5 145.5t-165.5 55.5q-120 0 -182 -55t-62 -146z" />
<glyph unicode="9" horiz-adv-x="1202" d="M109 664q0 228 136 355.5t347 127.5q239 0 374.5 -165t135.5 -484q0 -223 -43.5 -384t-130 -260t-208 -145.5t-284.5 -46.5q-128 0 -229 33l47 174q97 -25 184 -25q82 0 147 18.5t111.5 50t80 81t54 104t32.5 127.5t16 142t4 157q0 98 -16.5 176.5t-52 139t-95.5 93 t-141 32.5q-118 0 -186 -78.5t-68 -204.5q0 -166 70 -233.5t200 -67.5q78 0 188 27l4 -168q-109 -33 -223 -33q-219 0 -336.5 114.5t-117.5 342.5z" />
<glyph unicode=":" horiz-adv-x="667" d="M209 0v227h246v-227h-246zM209 891v227h246v-227h-246z" />
<glyph unicode=";" horiz-adv-x="667" d="M164 -260q28 60 43.5 137.5t15.5 140.5v199h234v-127q0 -195 -103 -350h-190zM213 891v227h246v-227h-246z" />
<glyph unicode="&#x3c;" horiz-adv-x="1228" d="M174 510v223l840 397v-190l-682 -319l682 -310v-190z" />
<glyph unicode="=" horiz-adv-x="1228" d="M115 479h987l2 -170h-987zM115 934h987l2 -172h-987z" />
<glyph unicode="&#x3e;" horiz-adv-x="1228" d="M174 121v190l682 310l-682 319v190l840 -397v-223z" />
<glyph unicode="?" horiz-adv-x="813" d="M147 1272l39 180q85 -6 160 -22t145.5 -48.5t120 -78.5t79.5 -114t30 -153q0 -71 -34 -137t-82 -116t-96 -96t-82 -95.5t-34 -95.5q0 -58 17 -117l-179 -31q-30 72 -30 158q0 74 31 140.5t74.5 114.5t87.5 91t75 87t31 85q0 111 -92 172.5t-261 75.5zM221 0v213h230v-213 h-230z" />
<glyph unicode="@" horiz-adv-x="1609" d="M82 543q0 195 45.5 351.5t125 262.5t190.5 177t237 102.5t270 31.5q264 0 413.5 -146.5t149.5 -447.5q0 -143 -39.5 -255.5t-106.5 -181t-150 -103.5t-175 -35q-81 0 -126.5 34.5t-45.5 92.5q-34 -44 -100 -80.5t-113 -36.5q-103 0 -158 60.5t-55 208.5 q0 197 111.5 320.5t298.5 123.5q123 0 240 -47l-50 -426q-11 -88 39 -88q32 0 63.5 11.5t65 41.5t59 75t42 119t16.5 166q0 230 -101.5 330.5t-287.5 100.5q-107 0 -202 -24t-181.5 -80t-148.5 -140t-99 -212.5t-37 -289.5q0 -144 33.5 -247.5t99 -165.5t153.5 -90.5 t204 -28.5q124 0 321 32l29 -153q-98 -32 -177 -42.5t-192 -10.5q-661 0 -661 690zM631 594q0 -67 16 -96t55 -29q34 0 70.5 17.5t52 30t43.5 36.5l39 324q-42 6 -53 6q-107 0 -165 -79.5t-58 -209.5z" />
<glyph unicode="A" horiz-adv-x="1421" d="M27 0l569 1448h293l512 -1448h-232l-176 506h-549l-196 -506h-221zM508 676h428l-201 624z" />
<glyph unicode="B" horiz-adv-x="1345" d="M209 0v1448h428q246 0 367.5 -97t121.5 -272q0 -44 -8.5 -83t-24 -68t-31.5 -52t-37 -40.5t-34.5 -28t-29.5 -19.5t-17 -10v-4q229 -69 276 -258q11 -44 11 -94q0 -196 -128 -309t-405 -113h-489zM430 178h232q79 0 138 10.5t108 36t74.5 73.5t25.5 118q0 60 -18 103 t-49.5 70t-83.5 43t-110 21.5t-139 5.5h-178v-481zM430 823h191q152 0 218 52t66 172q0 126 -77 177.5t-236 51.5h-162v-453z" />
<glyph unicode="C" horiz-adv-x="1351" d="M109 715q0 356 195.5 554.5t559.5 198.5q259 0 428 -77l-59 -170q-3 1 -27 8.5t-31 9.5t-30 8.5t-36 8.5t-37 7t-44 7t-46.5 5t-54.5 4t-59 1h-7q-107 0 -199 -30q-94 -32 -169 -96t-117 -171t-42 -248q0 -144 44 -255t123 -179t182 -102.5t226 -34.5q166 0 338 49 l51 -170q-170 -66 -426 -66q-364 0 -563.5 199.5t-199.5 538.5z" />
<glyph unicode="D" horiz-adv-x="1558" d="M209 0v1448h426q181 0 329 -45.5t257 -133t169 -225.5t60 -315q0 -187 -55.5 -327t-161 -228t-252 -131t-334.5 -43h-438zM426 178h244q273 0 417 134.5t144 394.5q0 281 -157 422t-445 141h-203v-1092z" />
<glyph unicode="E" horiz-adv-x="1206" d="M209 0v1448h850v-176h-631v-459h586v-172h-586v-463h678v-178h-897z" />
<glyph unicode="F" horiz-adv-x="1175" d="M209 0v1448h897v-176h-678v-498h633v-172h-633v-602h-219z" />
<glyph unicode="G" horiz-adv-x="1462" d="M109 715q0 358 197 555.5t562 197.5q85 0 154 -6.5t123.5 -21t79 -23t67.5 -26.5l-61 -170q-7 2 -38 11.5t-42.5 12.5t-40.5 10.5t-50 10.5t-52 7t-65 5.5t-73 1.5q-89 0 -167 -19t-146.5 -61t-117.5 -104t-77 -154.5t-28 -206.5q0 -145 45 -256.5t124.5 -179 t180.5 -101.5t221 -34q39 0 72.5 3t75.5 10t45 7v529h221v-666q-110 -36 -212.5 -53t-238.5 -17q-355 0 -557 198.5t-202 539.5z" />
<glyph unicode="H" horiz-adv-x="1599" d="M209 0v1448h219v-633h743v633h220v-1448h-220v639h-743v-639h-219z" />
<glyph unicode="I" horiz-adv-x="636" d="M209 0v1448h219v-1448h-219z" />
<glyph unicode="J" horiz-adv-x="636" d="M-88 -229q92 51 150 104.5t90.5 120t44.5 138.5t12 175v1139h221v-1135q0 -102 -8 -177t-34.5 -157t-72.5 -144t-126 -121t-191 -103z" />
<glyph unicode="K" horiz-adv-x="1345" d="M209 0v1448h219v-1448h-219zM461 758v35l557 655h280l-596 -672l633 -776h-284z" />
<glyph unicode="L" horiz-adv-x="1073" d="M209 0v1448h219v-1266h629v-182h-848z" />
<glyph unicode="M" horiz-adv-x="1968" d="M209 0v1448h297l457 -1286l512 1286h286v-1448h-221v891l8 258l-450 -1149h-285l-399 1157l14 -268v-889h-219z" />
<glyph unicode="N" horiz-adv-x="1609" d="M209 0v1448h289l688 -1215l-8 177v1038h223v-1448h-307l-674 1194l8 -162v-1032h-219z" />
<glyph unicode="O" horiz-adv-x="1693" d="M109 727q0 340 206.5 540.5t552.5 200.5q177 0 315.5 -56t226 -157t132.5 -235.5t45 -296.5q0 -341 -201.5 -544.5t-556.5 -203.5q-229 0 -393 95t-245.5 263t-81.5 394zM330 729q0 -118 31.5 -220t92 -182t159 -125.5t223.5 -45.5q134 0 236.5 43t165.5 121t94.5 180 t31.5 225q0 122 -33.5 224.5t-96.5 178.5t-161.5 119t-222.5 43q-171 0 -290 -75t-174.5 -199.5t-55.5 -286.5z" />
<glyph unicode="P" horiz-adv-x="1241" d="M209 0v1448h498q228 0 361.5 -123.5t133.5 -347.5q0 -102 -37.5 -189t-110 -154.5t-189 -106t-265.5 -38.5h-78v179h90q172 0 266.5 76t94.5 225q0 152 -75.5 227.5t-235.5 75.5h-232v-1272h-221z" />
<glyph unicode="Q" horiz-adv-x="1728" d="M109 727q0 340 206.5 540.5t552.5 200.5q177 0 315.5 -56t226 -157t132.5 -235.5t45 -296.5q0 -341 -201.5 -544.5t-556.5 -203.5q-229 0 -393 95t-245.5 263t-81.5 394zM330 729q0 -118 31.5 -220t92 -182t159 -125.5t223.5 -45.5q134 0 236.5 43t165.5 121t94.5 180 t31.5 225q0 122 -33.5 224.5t-96.5 178.5t-161.5 119t-222.5 43q-171 0 -290 -75t-174.5 -199.5t-55.5 -286.5zM815 -68q52 0 98 -3.5t88 -12t66.5 -14t66 -17t52.5 -14.5q71 -23 140 -34.5t114 -13t138 -1.5h32v-168h-61q-30 -1 -49 -1t-28 1q-16 0 -70 2.5t-84.5 7 t-75 13.5t-81.5 22q-11 3 -52.5 15.5t-53.5 16t-45.5 12.5t-50.5 12t-44 8t-51 6.5t-49 1.5v161z" />
<glyph unicode="R" horiz-adv-x="1468" d="M209 0v1448h498q228 0 361.5 -110t133.5 -328q0 -132 -65 -236t-197 -160l205 -274q63 -83 136 -126t161 -67l-49 -170q-113 5 -228 67t-209 187l-237 330q-44 -8 -119 -8h-170v-553h-221zM430 723h182q361 0 361 276q0 147 -75 210t-236 63h-232v-549z" />
<glyph unicode="S" horiz-adv-x="1161" d="M94 68l68 170q94 -38 173.5 -56t180.5 -18q65 0 120.5 11.5t102 35.5t73 66.5t26.5 99.5q0 66 -39 117t-101 86t-136.5 67.5t-149.5 71t-137 86.5t-101 124t-39 173q0 90 37.5 161t101.5 114.5t144.5 66t171.5 22.5q125 0 210.5 -20t170.5 -57l-62 -160q-85 29 -152.5 43 t-160.5 14q-118 0 -184 -45t-66 -133q0 -46 24.5 -85t65.5 -68.5t94.5 -57t112.5 -55t117.5 -57t112 -68t94.5 -83.5t65.5 -108t24.5 -137q0 -105 -43 -186t-118.5 -130t-170.5 -73.5t-205 -24.5q-252 0 -426 93z" />
<glyph unicode="T" horiz-adv-x="1202" d="M8 1268v180h1186v-180h-483v-1268h-219v1268h-484z" />
<glyph unicode="U" horiz-adv-x="1593" d="M193 528v920h225v-905q0 -105 29.5 -181t83.5 -119t120.5 -63t149.5 -20q387 0 387 430v858h215v-866q0 -137 -36.5 -245t-95 -174.5t-139 -110t-161.5 -60.5t-170 -17q-78 0 -148.5 11t-140.5 35.5t-126.5 67.5t-100.5 102.5t-68 145.5t-24 191z" />
<glyph unicode="V" horiz-adv-x="1386" d="M2 1448h238l430 -1278l489 1278h223l-569 -1448h-297z" />
<glyph unicode="W" horiz-adv-x="2101" d="M25 1448h221l321 -1311l377 957l-121 354h221l433 -1307l387 1307h213l-453 -1448h-301l-289 850l-329 -850h-306z" />
<glyph unicode="X" horiz-adv-x="1294" d="M14 0l512 758l-434 690h252l311 -516l332 516h244l-459 -684l481 -764h-256l-354 592l-379 -592h-250z" />
<glyph unicode="Y" horiz-adv-x="1247" d="M6 1448h252l358 -733l383 733h242l-522 -920v-528h-221v524z" />
<glyph unicode="Z" horiz-adv-x="1157" d="M59 0v172l736 1090h-682v186h942v-158l-744 -1104h787v-186h-1039z" />
<glyph unicode="[" horiz-adv-x="722" d="M195 -451v1995h419v-180h-204v-1634h204v-181h-419z" />
<glyph unicode="\" horiz-adv-x="833" d="M82 1575h192l478 -1702h-195z" />
<glyph unicode="]" horiz-adv-x="722" d="M137 -270h205v1634h-205v180h420v-1995h-420v181z" />
<glyph unicode="^" horiz-adv-x="1089" d="M90 602l336 846h264l311 -846h-217l-229 688l-256 -688h-209z" />
<glyph unicode="_" horiz-adv-x="1038" d="M0 -178h1038v-180h-1038v180z" />
<glyph unicode="`" horiz-adv-x="1173" d="M344 1495l84 156l416 -260l-74 -134z" />
<glyph unicode="a" horiz-adv-x="1202" d="M84 305q0 79 28 140.5t71.5 97.5t104.5 59t118.5 31.5t121.5 9.5l246 4v125q0 112 -59.5 150.5t-202.5 38.5q-30 0 -63 -3.5t-69.5 -10.5t-59 -12t-60 -14.5t-43.5 -11.5l-43 162q172 74 385 74t318.5 -74.5t105.5 -241.5v-585q0 -48 27 -66t75 -22l-10 -166 q-14 -2 -45 -2q-88 0 -157 33.5t-82 101.5q-1 -1 -25 -18t-32 -22.5t-35 -22t-43.5 -23.5t-47 -19.5t-56.5 -18.5t-60.5 -10.5t-69.5 -4.5q-161 0 -249.5 82t-88.5 239zM293 324q0 -170 180 -170q41 0 92.5 13.5t85.5 28t76 34.5t47 22v258l-239 -10q-114 -3 -178 -50.5 t-64 -125.5z" />
<glyph unicode="b" horiz-adv-x="1236" d="M176 41v1503h213v-1366q113 -24 207 -24q161 0 250.5 122.5t89.5 309.5q0 72 -7.5 127.5t-28 106.5t-53.5 84.5t-86 53t-124 19.5t-152 -25l-18 154q85 37 207 37q232 0 355.5 -134.5t123.5 -398.5q0 -137 -30.5 -246t-83 -180t-125.5 -117.5t-153 -66.5t-171 -20 q-110 0 -202.5 12.5t-121 20.5t-90.5 28z" />
<glyph unicode="c" horiz-adv-x="1042" d="M102 563q0 269 149 426.5t402 157.5q188 0 320 -68l-62 -164q-63 27 -119 40.5t-139 13.5q-149 0 -240 -103.5t-91 -300.5q0 -109 18 -182t62.5 -125.5t120 -76t190.5 -23.5q41 0 81 5t82.5 13t57.5 10l33 -168q-150 -38 -271 -38q-315 0 -454.5 137t-139.5 446z" />
<glyph unicode="d" horiz-adv-x="1245" d="M102 561q0 142 43.5 255t119.5 184.5t175.5 109t214.5 37.5q109 0 201 -25v422h213v-1544h-213v100q-127 -118 -274 -118q-49 0 -93 6t-93.5 23t-90.5 44t-79.5 72t-65 104t-42.5 143.5t-16 186.5zM317 555q0 -203 79.5 -299t213.5 -96q94 0 246 100v684q-104 31 -199 31 q-72 0 -129.5 -22.5t-96.5 -61t-65 -92.5t-37.5 -114.5t-11.5 -129.5z" />
<glyph unicode="e" horiz-adv-x="1142" d="M102 541q0 133 26 237t72 172.5t113 113.5t143.5 64t168.5 19q220 0 324 -142.5t104 -420.5v-76h-736q1 -89 21.5 -153.5t52.5 -103t83.5 -60.5t104 -29.5t123.5 -7.5q92 0 289 45l35 -170q-165 -54 -373 -54q-131 0 -228.5 28t-172 91.5t-112.5 175.5t-38 271zM322 657 h507v10q0 149 -56 235q-58 90 -173 89q-118 0 -192 -86.5t-86 -247.5z" />
<glyph unicode="f" horiz-adv-x="720" d="M29 956v162h164v88q0 86 20 153t55 110.5t84.5 72t105 40t120.5 11.5q100 0 180 -26l-35 -172q-66 12 -137 12q-94 0 -137 -50t-43 -159v-80h239v-162h-239v-1380h-213v1380h-164z" />
<glyph unicode="g" horiz-adv-x="1249" d="M104 555q0 144 44.5 258.5t121.5 186.5t177.5 109.5t216.5 37.5q170 0 405 -47v-1153q0 -105 -39 -185.5t-107 -128.5t-153.5 -72t-185.5 -24q-198 0 -394 49l37 178q199 -43 318 -43q60 0 103 5t85 21t68 43.5t41.5 75.5t15.5 114v88q-100 -84 -235 -84q-58 0 -106 5 t-103 20.5t-98 40.5t-84 69t-68 102.5t-43.5 143.5t-16.5 190zM317 551q0 -212 80 -304.5t240 -92.5q100 0 219 75v717q-117 23 -194 23q-91 0 -159 -31.5t-108 -89.5t-59 -132t-19 -165z" />
<glyph unicode="h" horiz-adv-x="1294" d="M176 0v1544h213v-549q210 152 383 152q70 0 125 -13.5t92 -34.5t63.5 -56t40.5 -68t21.5 -82t9.5 -86t2 -90v-717h-208v686q0 74 -7.5 120.5t-29.5 84t-64 54t-108 16.5q-114 0 -320 -117v-844h-213z" />
<glyph unicode="i" d="M121 1466l160 162l163 -162l-163 -163zM176 0v1118h215v-1118h-215z" />
<glyph unicode="j" d="M-186 -426l39 170q96 -16 137 -16q103 0 144.5 60.5t41.5 186.5v1143h215v-1145q0 -101 -21 -177t-56 -123.5t-87.5 -76.5t-108.5 -40t-126 -11q-93 0 -178 29zM121 1466l160 162l163 -162l-163 -163z" />
<glyph unicode="k" horiz-adv-x="1155" d="M176 0v1544h213v-1544h-213zM395 586l451 532h239l-456 -520l209 -254q136 -163 276 -203l-35 -159q-38 2 -67 6.5t-70 17.5t-76.5 34.5t-79 60.5t-84.5 92z" />
<glyph unicode="l" d="M176 0v1544h213v-1544h-213z" />
<glyph unicode="m" horiz-adv-x="1974" d="M176 0v1118h213v-127q191 154 363 154q235 0 309 -166q203 166 397 166q55 0 101 -9t79.5 -23t60.5 -37.5t44.5 -47t30 -56.5t19 -60.5t10 -66t4.5 -65.5t1 -65v-715h-213v684q0 54 -4 92t-17 74.5t-35 58.5t-58.5 35.5t-87.5 13.5q-134 0 -306 -114q11 -56 11 -127v-717 h-211v684q0 70 -7 115t-27.5 84t-61.5 57t-105 18q-121 0 -297 -118v-840h-213z" />
<glyph unicode="n" horiz-adv-x="1294" d="M176 0v1118h213v-123q46 32 79.5 53t85 46.5t106.5 39t112 13.5q70 0 125.5 -13.5t92.5 -34.5t63.5 -56t40.5 -68.5t22 -82t10 -86.5t2 -91v-715h-210v684q0 74 -7.5 121t-29.5 85t-64 54.5t-108 16.5q-56 0 -122 -22t-103 -41.5t-95 -53.5v-844h-213z" />
<glyph unicode="o" horiz-adv-x="1259" d="M102 547q0 282 147.5 441t387.5 159q260 0 390 -152.5t130 -435.5q0 -282 -147.5 -433t-386.5 -151q-246 0 -383.5 151t-137.5 421zM319 557q0 -87 16 -157.5t51.5 -128t98.5 -89.5t150 -32q305 0 305 409q0 64 -8 120t-29 112t-55 95.5t-89.5 64t-127.5 24.5 q-71 0 -126.5 -24.5t-90 -64t-56.5 -95t-30.5 -112.5t-8.5 -122z" />
<glyph unicode="p" horiz-adv-x="1257" d="M176 -451v1569h213v-88q61 46 141 80.5t158 34.5q224 0 344.5 -139t120.5 -408q0 -114 -21 -208t-60 -161t-90.5 -116.5t-115.5 -78.5t-132 -43t-144 -14q-56 0 -201 17v-445h-213zM389 170q1 0 43 -7t79 -10t87 -3q162 0 250 115t88 300q0 90 -14 158t-47 124.5t-94 86 t-148 29.5q-89 0 -244 -84v-709z" />
<glyph unicode="q" horiz-adv-x="1249" d="M102 567q0 138 43.5 249.5t119.5 183t175.5 109.5t214.5 38q212 0 414 -57v-1541h-213v494q-112 -63 -258 -63q-496 0 -496 587zM315 561q0 -210 79.5 -305.5t219.5 -95.5q134 0 242 55v731q-122 27 -199 27q-91 0 -158.5 -32.5t-106.5 -90.5t-58 -130t-19 -159z" />
<glyph unicode="r" horiz-adv-x="829" d="M176 0v1118h213v-149q47 71 127.5 122.5t183.5 51.5q74 0 138 -19l-33 -180q-60 14 -137 14q-87 0 -161.5 -46t-117.5 -109v-803h-213z" />
<glyph unicode="s" horiz-adv-x="980" d="M96 25l31 168q17 -3 71 -12.5t82.5 -14.5t71.5 -9.5t76 -4.5q126 0 190 39.5t64 105.5q0 35 -19.5 62.5t-52 47t-74.5 37t-89 35t-93.5 37.5t-88.5 48t-74.5 62.5t-52 85.5t-19.5 113q0 103 55.5 177t146 109.5t205.5 35.5q142 0 303 -51l-36 -164q-5 1 -34.5 8t-41 10 t-40.5 8.5t-49.5 8t-49.5 4.5t-58 2q-95 0 -142.5 -38.5t-47.5 -96.5q0 -44 31 -78.5t80 -58t109 -46t119.5 -51.5t108.5 -65t80 -94.5t31 -133.5q0 -76 -28.5 -136.5t-73.5 -96.5t-105.5 -59.5t-118 -32.5t-117.5 -9q-196 0 -350 48z" />
<glyph unicode="t" horiz-adv-x="882" d="M53 948v170h164v230h211v-230h348v-170h-348v-624q0 -102 37.5 -132t150.5 -30q44 0 110 11t85 17l29 -176q-130 -37 -219 -37q-58 0 -89.5 1t-81.5 7.5t-77.5 19.5t-62 38t-51.5 61t-29.5 91t-12.5 127v626h-164z" />
<glyph unicode="u" horiz-adv-x="1290" d="M170 410v708h213v-676q0 -72 6 -116t25.5 -84t60 -58t105.5 -18q123 0 325 115v837h211v-1118h-211v127q-47 -32 -74 -49t-82.5 -46t-113 -43t-117.5 -14q-68 0 -122 13.5t-90 35.5t-62 57t-40 69.5t-22 82.5t-10 86.5t-2 90.5z" />
<glyph unicode="v" horiz-adv-x="1128" d="M31 1118h231l221 -721l68 -233l76 237l247 717h222l-410 -1118h-280z" />
<glyph unicode="w" horiz-adv-x="1812" d="M31 1118h223l248 -954l274 954h264l240 -954l285 954h217l-369 -1118h-276l-199 758l-35 162l-41 -162l-225 -758h-279z" />
<glyph unicode="x" horiz-adv-x="1099" d="M31 0l397 571l-373 547h248l246 -405l248 405h241l-368 -543l397 -575h-256l-262 430l-266 -430h-252z" />
<glyph unicode="y" horiz-adv-x="1118" d="M31 1118h231l227 -760l58 -194l63 192l260 762h217l-546 -1569h-205l151 451h-90z" />
<glyph unicode="z" horiz-adv-x="1038" d="M80 0v164l620 774h-573v180h823v-155l-622 -785h630v-178h-878z" />
<glyph unicode="{" horiz-adv-x="727" d="M88 469v180q81 0 126 51.5t40 114.5l-43 412q-8 80 8 141t50.5 100.5t88.5 64.5t116.5 35.5t139.5 10.5h68v-180h-66q-106 0 -153.5 -47.5t-36.5 -141.5l41 -366q25 -221 -156 -281v-4q180 -71 156 -278l-41 -369q-11 -90 37.5 -137t152.5 -47h66v-181h-68q-77 0 -138 9 t-116.5 33t-90.5 63t-51.5 102.5t-6.5 147.5l43 401q5 60 -40.5 113t-125.5 53z" />
<glyph unicode="|" horiz-adv-x="557" d="M172 -451v1995h213v-1995h-213z" />
<glyph unicode="}" horiz-adv-x="727" d="M70 -272h65q104 0 153 47.5t38 136.5l-41 369q-24 208 155 278v4q-180 58 -155 281l41 366q21 189 -191 189h-65v180h65q77 0 140 -10.5t118 -35.5t90 -64.5t51 -101t7 -140.5l-43 -412q-7 -62 39 -114t127 -52v-180q-82 0 -127.5 -53t-38.5 -113l43 -401 q10 -84 -6.5 -147.5t-51.5 -102.5t-91.5 -63t-117.5 -33t-139 -9h-65v181z" />
<glyph unicode="~" horiz-adv-x="1118" d="M70 756q133 137 284 137q67 0 127 -20t96.5 -43.5t87.5 -43.5t103 -20q47 0 88.5 14t91.5 54l105 -127q-53 -67 -130.5 -109.5t-154.5 -42.5q-67 0 -130.5 19t-104 42.5t-92 42.5t-97.5 19q-92 0 -174 -64z" />
<glyph unicode="&#xa2;" horiz-adv-x="1062" d="M106 569q0 201 109 328t313 156l-6 168h207l-4 -162q126 -9 213 -64l-59 -151q-63 23 -113.5 33t-126.5 10q-143 0 -228 -78t-85 -246q0 -91 16 -150t57.5 -102t113.5 -61.5t183 -18.5q68 0 217 23l33 -164q-126 -30 -221 -35l6 -157h-209l6 165q-233 30 -327.5 149.5 t-94.5 356.5z" />
<glyph unicode="&#xa3;" horiz-adv-x="1009" d="M96 422v170h189q0 42 -2 88t-2 72q0 75 15.5 134t41.5 100.5t68 71.5t85.5 48t105 29t115.5 15t126 5l10 -178q-47 -4 -73.5 -6.5t-64 -8t-58 -11t-47.5 -15t-41.5 -21t-30.5 -28.5t-23 -37.5t-11 -48t-3 -60.5q3 -99 2 -149h346v-170h-363q-8 -155 -121 -246h568v-176 h-805v166q74 33 115 107t41 149h-183z" />
<glyph unicode="&#xa5;" horiz-adv-x="1267" d="M90 117v176h428v41l-88 164h-340v176h242l-238 444h234l301 -600l317 600h228l-254 -444h256v-176h-361l-90 -162v-43h451v-176h-453v-117h-205v117h-428z" />
<glyph unicode="&#xa8;" horiz-adv-x="849" d="M66 1466l135 138l139 -138l-139 -139zM518 1466l137 138l138 -138l-138 -139z" />
<glyph unicode="&#xa9;" horiz-adv-x="1699" d="M125 563q0 340 205 538.5t540 198.5q171 0 305.5 -56t221 -156t131.5 -234.5t45 -294.5q0 -337 -199 -539t-543 -202q-331 0 -518.5 204t-187.5 541zM268 565q0 -102 22.5 -194t69.5 -171.5t114 -137t160.5 -90.5t205.5 -33q146 0 260 47.5t186 132t109 196.5t37 246 q0 178 -66.5 317t-199.5 220.5t-314 81.5q-141 0 -253 -46.5t-184 -129.5t-109.5 -195t-37.5 -244zM471 565q0 194 110 309t310 115q154 0 250 -57l-45 -117q-59 22 -101 30.5t-102 8.5q-119 0 -195.5 -69.5t-76.5 -209.5q0 -141 81.5 -212.5t212.5 -71.5q99 0 191 31 l43 -123q-118 -49 -254 -49q-200 0 -312 116t-112 299z" />
<glyph unicode="&#xab;" horiz-adv-x="948" d="M68 557l231 455l164 -58l-180 -397l178 -389l-162 -68zM475 557l232 455l163 -58l-180 -397l178 -389l-161 -68z" />
<glyph unicode="&#xad;" horiz-adv-x="747" d="M68 498v178h610v-178h-610z" />
<glyph unicode="&#xae;" horiz-adv-x="1699" d="M125 932q0 169 54.5 308t152.5 233t236 145t302 51q170 0 305 -56t221.5 -156.5t131.5 -234.5t45 -294q0 -336 -198.5 -539t-540.5 -203q-166 0 -300.5 54.5t-223.5 153.5t-137 236t-48 302zM268 934q0 -128 36.5 -240t106 -199t180 -137.5t249.5 -50.5q146 0 260 47.5 t186 132.5t109 197t37 246q0 178 -66.5 317t-199.5 220t-314 81q-141 0 -253 -46.5t-184 -129.5t-109.5 -194.5t-37.5 -243.5zM569 545v815h281q133 0 210 -60.5t77 -193.5q0 -79 -38 -137.5t-108 -87.5q13 -16 42 -54t47.5 -59t46.5 -49.5t57.5 -47t62.5 -28.5l-28 -111 q-131 11 -230 125q-15 15 -71.5 90t-69.5 95q-32 -4 -55 -4h-76v-293h-148zM717 958h84q90 0 136 32.5t46 109.5q0 76 -37 109.5t-119 33.5h-110v-285z" />
<glyph unicode="&#xb4;" horiz-adv-x="1173" d="M352 1393l416 258l86 -156l-430 -238z" />
<glyph unicode="&#xb8;" horiz-adv-x="937" d="M326 -391q131 78 131 153q0 38 -41 134h186q43 -77 43 -146q1 -82 -64.5 -150.5t-183.5 -117.5z" />
<glyph unicode="&#xbb;" horiz-adv-x="948" d="M68 954l163 58l232 -455l-232 -457l-161 68l178 389zM473 954l166 58l229 -455l-229 -457l-162 68l176 389z" />
<glyph unicode="&#x2c6;" horiz-adv-x="1116" d="M129 1399l383 237l377 -239l-86 -125l-291 176l-291 -174z" />
<glyph unicode="&#x2da;" horiz-adv-x="1107" d="M295 1458q0 114 76 177t182 63q44 0 87.5 -12.5t84 -38.5t65.5 -74t25 -111q0 -111 -73.5 -172t-184.5 -61q-51 0 -96 12.5t-83 38.5t-60.5 72t-22.5 106zM422 1464q0 -58 36.5 -93.5t96.5 -35.5q61 0 95 33t36 92q0 56 -39 91.5t-94 35.5q-62 0 -96.5 -32.5t-34.5 -90.5 z" />
<glyph unicode="&#x2dc;" horiz-adv-x="1116" d="M195 1448q108 115 239 115q61 0 139 -38t113 -38q31 0 63 10t45.5 18t45.5 27l78 -106q-113 -121 -242 -121q-50 0 -132 38t-124 38q-43 0 -73 -11t-68 -41z" />
<glyph unicode="&#x400;" horiz-adv-x="1206" d="M209 0v1448h850v-176h-631v-459h586v-172h-586v-463h678v-178h-897zM317 1651l48 182l483 -156l-41 -149z" />
<glyph unicode="&#x401;" horiz-adv-x="1206" d="M209 0v1448h850v-176h-631v-459h586v-172h-586v-463h678v-178h-897zM268 1669l142 141l143 -141l-143 -145zM721 1669l143 141l144 -141l-144 -145z" />
<glyph unicode="&#x402;" horiz-adv-x="1597" d="M8 1268v180h1163v-180h-524v-447q215 80 387 80q116 0 203.5 -35t140.5 -98.5t79 -145.5t26 -182q0 -494 -471 -891l-121 150q366 309 366 729q0 140 -71.5 218.5t-202.5 78.5q-78 0 -169 -22t-167 -62v-641h-221v1268h-418z" />
<glyph unicode="&#x403;" horiz-adv-x="1175" d="M209 0v1448h897v-176h-678v-1272h-219zM428 1677l481 156l49 -182l-489 -123z" />
<glyph unicode="&#x404;" horiz-adv-x="1351" d="M109 715q0 356 195.5 553.5t559.5 197.5q263 0 428 -75l-59 -170q-64 20 -93 27.5t-106.5 18.5t-165.5 11q-104 0 -192.5 -26.5t-161 -81t-118 -145.5t-56.5 -212h735v-170h-733q13 -121 62 -213.5t125.5 -149t172 -84.5t207.5 -28q180 0 338 45l51 -170 q-163 -63 -426 -63q-183 0 -327.5 52.5t-240 148.5t-145.5 231.5t-50 302.5z" />
<glyph unicode="&#x405;" horiz-adv-x="1161" d="M94 68l68 170q94 -38 173.5 -56t180.5 -18q65 0 120.5 11.5t102 35.5t73 66.5t26.5 99.5q0 66 -39 117t-101 86t-136.5 67.5t-149.5 71t-137 86.5t-101 124t-39 173q0 90 37.5 161t101.5 114.5t144.5 66t171.5 22.5q125 0 210.5 -20t170.5 -57l-62 -160q-85 29 -152.5 43 t-160.5 14q-118 0 -184 -45t-66 -133q0 -46 24.5 -85t65.5 -68.5t94.5 -57t112.5 -55t117.5 -57t112 -68t94.5 -83.5t65.5 -108t24.5 -137q0 -105 -43 -186t-118.5 -130t-170.5 -73.5t-205 -24.5q-252 0 -426 93z" />
<glyph unicode="&#x406;" horiz-adv-x="636" d="M209 0v1448h219v-1448h-219z" />
<glyph unicode="&#x407;" horiz-adv-x="636" d="M-49 1669l141 141l144 -141l-144 -145zM209 0v1448h219v-1448h-219zM403 1669l144 141l143 -141l-143 -145z" />
<glyph unicode="&#x408;" horiz-adv-x="636" d="M-88 -229q92 51 150 104.5t90.5 120t44.5 138.5t12 175v1139h221v-1135q0 -102 -8 -177t-34.5 -157t-72.5 -144t-126 -121t-191 -103z" />
<glyph unicode="&#x409;" horiz-adv-x="2076" d="M0 152q88 39 162 95.5t106 119.5q98 201 140 1081h825v-1272h217q161 0 242.5 75t81.5 208q0 280 -359 280h-135v179h129q289 0 441.5 -119t152.5 -346q0 -206 -140.5 -329.5t-392.5 -123.5h-460v1278h-410q-33 -449 -66 -677.5t-98 -358.5q-90 -174 -342 -287z" />
<glyph unicode="&#x40a;" horiz-adv-x="2156" d="M209 0v1448h219v-592h666v592h223v-1272h215q161 0 240 66t79 188q0 131 -91 190.5t-265 59.5h-131v176h127q288 0 440 -110.5t152 -323.5q0 -192 -140 -307t-391 -115h-458v680h-666v-680h-219z" />
<glyph unicode="&#x40b;" horiz-adv-x="1626" d="M8 1268v180h1163v-180h-524v-447q198 80 387 80q127 0 216.5 -29t139 -84t71.5 -122t22 -154v-512h-221v492q0 61 -19 105t-47 68t-70 38.5t-77 18t-80 3.5q-69 0 -155.5 -22.5t-166.5 -65.5v-637h-221v1268h-418z" />
<glyph unicode="&#x40c;" horiz-adv-x="1345" d="M209 0v1448h219v-1448h-219zM461 758v35l557 655h280l-596 -672l633 -776h-284zM500 1694l481 155l49 -182l-489 -123z" />
<glyph unicode="&#x40d;" horiz-adv-x="1622" d="M209 0v1448h219v-942l-6 -211l129 213l643 940h221v-1448h-221v942l6 211l-100 -162l-672 -991h-219zM492 1651l47 182l483 -156l-41 -149z" />
<glyph unicode="&#x40e;" horiz-adv-x="1243" d="M10 1448h246l412 -834l319 834h246l-463 -1057q-29 -66 -57.5 -117t-52.5 -88t-55 -66.5t-53.5 -47.5t-60.5 -36t-63.5 -27.5t-73.5 -26.5l-67 184q115 38 175.5 82.5t106.5 146.5l29 60h-84zM250 1739l110 110q117 -125 275 -125q159 0 276 125l109 -110 q-65 -95 -165 -147t-220 -52q-118 0 -218.5 52t-166.5 147z" />
<glyph unicode="&#x40f;" horiz-adv-x="1574" d="M209 0v1448h219v-1272h717v1272h221v-1448h-467v-313h-219v313h-471z" />
<glyph unicode="&#x410;" horiz-adv-x="1421" d="M27 0l569 1448h293l512 -1448h-232l-176 506h-549l-196 -506h-221zM508 676h428l-201 624z" />
<glyph unicode="&#x411;" horiz-adv-x="1335" d="M209 0v1448h909v-176h-688v-1096h232q166 0 247.5 70.5t81.5 197.5q0 269 -364 269h-162v178h158q293 0 445.5 -113t152.5 -340q0 -205 -141 -321.5t-398 -116.5h-473z" />
<glyph unicode="&#x412;" horiz-adv-x="1345" d="M209 0v1448h428q246 0 367.5 -97t121.5 -272q0 -44 -8.5 -83t-24 -68t-31.5 -52t-37 -40.5t-34.5 -28t-29.5 -19.5t-17 -10v-4q229 -69 276 -258q11 -44 11 -94q0 -196 -128 -309t-405 -113h-489zM430 178h232q79 0 138 10.5t108 36t74.5 73.5t25.5 118q0 60 -18 103 t-49.5 70t-83.5 43t-110 21.5t-139 5.5h-178v-481zM430 823h191q152 0 218 52t66 172q0 126 -77 177.5t-236 51.5h-162v-453z" />
<glyph unicode="&#x413;" horiz-adv-x="1175" d="M209 0v1448h897v-176h-678v-1272h-219z" />
<glyph unicode="&#x414;" horiz-adv-x="1533" d="M27 176h131q101 178 164 369q36 113 69 350.5t51 552.5h815v-1272h197v-489h-211v313h-1003v-313h-213v489zM401 176h637v1102h-401q-42 -523 -105 -756q-49 -169 -131 -346z" />
<glyph unicode="&#x415;" horiz-adv-x="1206" d="M209 0v1448h850v-176h-631v-459h586v-172h-586v-463h678v-178h-897z" />
<glyph unicode="&#x416;" horiz-adv-x="1925" d="M8 0l570 766l-521 682h271l497 -676v-31l-534 -741h-283zM852 0v1448h221v-1448h-221zM1100 741v31l497 676h271l-520 -682l569 -766h-281z" />
<glyph unicode="&#x417;" horiz-adv-x="1134" d="M41 84l76 172q176 -88 360 -88q143 0 231.5 59t88.5 185q0 233 -340 233h-164v170h164q130 0 205 63t75 175q0 108 -67.5 165.5t-192.5 57.5q-58 0 -119 -12t-95.5 -23.5t-90.5 -32.5l-72 154q192 94 400 94q219 0 341 -101t122 -259q0 -62 -16 -116.5t-39.5 -91 t-55.5 -68t-56.5 -47.5t-50.5 -30v-4q30 -8 59.5 -19.5t71.5 -38.5t73 -61.5t53 -91.5t22 -125q0 -62 -16 -119t-55 -112.5t-98 -96.5t-151.5 -66t-209.5 -25q-257 0 -453 100z" />
<glyph unicode="&#x418;" horiz-adv-x="1622" d="M209 0v1448h219v-942l-6 -211l129 213l643 940h221v-1448h-221v942l6 211l-100 -162l-672 -991h-219z" />
<glyph unicode="&#x419;" horiz-adv-x="1622" d="M209 0v1448h219v-942l-6 -211l129 213l643 940h221v-1448h-221v942l6 211l-100 -162l-672 -991h-219zM430 1739l111 110q117 -125 274 -125q160 0 277 125l108 -110q-65 -95 -165 -147t-220 -52q-118 0 -218.5 52t-166.5 147z" />
<glyph unicode="&#x41a;" horiz-adv-x="1345" d="M209 0v1448h219v-1448h-219zM461 758v35l557 655h280l-596 -672l633 -776h-284z" />
<glyph unicode="&#x41b;" horiz-adv-x="1439" d="M0 152q88 39 162 95.5t106 119.5q98 201 140 1081h823v-1448h-221v1278h-410q-46 -515 -66 -657q-36 -255 -98 -379q-90 -174 -342 -287z" />
<glyph unicode="&#x41c;" horiz-adv-x="1968" d="M209 0v1448h297l457 -1286l512 1286h286v-1448h-221v891l8 250l-450 -1141h-285l-399 1147l14 -258v-889h-219z" />
<glyph unicode="&#x41d;" horiz-adv-x="1599" d="M209 0v1448h219v-633h743v633h220v-1448h-220v639h-743v-639h-219z" />
<glyph unicode="&#x41e;" horiz-adv-x="1693" d="M109 727q0 348 205.5 544.5t553.5 196.5q177 0 315.5 -55t226 -155t132.5 -235.5t45 -299.5q0 -346 -201 -547t-557 -201q-229 0 -393 95t-245.5 263t-81.5 394zM330 729q0 -118 31.5 -220t92 -182t159 -125.5t223.5 -45.5q134 0 236.5 43t165.5 121t94.5 180t31.5 225 q0 122 -33.5 224.5t-96.5 178.5t-161.5 119t-222.5 43q-171 0 -290 -75t-174.5 -199.5t-55.5 -286.5z" />
<glyph unicode="&#x41f;" horiz-adv-x="1579" d="M209 0v1448h1161v-1448h-219v1272h-723v-1272h-219z" />
<glyph unicode="&#x420;" horiz-adv-x="1241" d="M209 0v1448h498q228 0 361.5 -123.5t133.5 -347.5q0 -102 -37.5 -189t-110 -154.5t-189 -106t-265.5 -38.5h-78v179h90q172 0 266.5 76t94.5 225q0 152 -75.5 227.5t-235.5 75.5h-232v-1272h-221z" />
<glyph unicode="&#x421;" horiz-adv-x="1351" d="M109 715q0 356 195.5 553.5t559.5 197.5q263 0 428 -75l-59 -170q-64 20 -93 27.5t-106.5 18.5t-165.5 11q-89 1 -167.5 -18t-146 -61t-116.5 -104.5t-76.5 -154.5t-27.5 -205q0 -144 44 -254.5t123 -178t182 -101t226 -33.5q180 0 338 45l51 -170q-163 -63 -426 -63 q-183 0 -327.5 52.5t-240 148.5t-145.5 231.5t-50 302.5z" />
<glyph unicode="&#x422;" horiz-adv-x="1202" d="M8 1268v180h1186v-180h-483v-1268h-219v1268h-484z" />
<glyph unicode="&#x423;" horiz-adv-x="1243" d="M10 1448h246l412 -834l319 834h246l-463 -1057q-29 -66 -57.5 -117t-52.5 -88t-55 -66.5t-53.5 -47.5t-60.5 -36t-63.5 -27.5t-73.5 -26.5l-67 184q115 38 175.5 82.5t106.5 146.5l29 60h-84z" />
<glyph unicode="&#x424;" horiz-adv-x="1728" d="M109 764q0 146 48.5 260t135.5 185.5t204 108t259 36.5v155h217v-155q142 0 259 -36.5t204 -108t135.5 -185.5t48.5 -260t-48.5 -260t-135.5 -185.5t-204 -108t-259 -36.5v-174h-217v174q-142 0 -259 36.5t-204 108t-135.5 185.5t-48.5 260zM328 764q0 -201 114 -311.5 t314 -110.5v844q-201 0 -314.5 -109.5t-113.5 -312.5zM973 342q198 0 312 110.5t114 311.5q0 203 -113.5 312.5t-312.5 109.5v-844z" />
<glyph unicode="&#x425;" horiz-adv-x="1294" d="M14 0l512 758l-434 690h252l311 -516l332 516h244l-459 -684l481 -764h-256l-354 592l-379 -592h-250z" />
<glyph unicode="&#x426;" horiz-adv-x="1630" d="M209 0v1448h219v-1272h707v1272h221v-1272h194v-489h-211v313h-1130z" />
<glyph unicode="&#x427;" horiz-adv-x="1419" d="M143 948v500h222v-479q0 -61 19.5 -106t48 -69.5t71.5 -38.5t79 -18t81 -4q70 0 157.5 23t167.5 67v625h221v-1448h-221v637q-206 -80 -391 -80q-455 0 -455 391z" />
<glyph unicode="&#x428;" horiz-adv-x="2101" d="M209 0v1448h219v-1272h512v1272h221v-1272h512v1272h219v-1448h-1683z" />
<glyph unicode="&#x429;" horiz-adv-x="2168" d="M209 0v1448h219v-1272h512v1272h221v-1272h512v1272h219v-1272h197v-489h-211v313h-1669z" />
<glyph unicode="&#x42a;" horiz-adv-x="1474" d="M4 1272v176h627v-1272h219q161 0 242.5 75t81.5 208q0 280 -361 280h-141v179h137q289 0 441.5 -119t152.5 -346q0 -206 -140.5 -329.5t-394.5 -123.5h-458v1272h-406z" />
<glyph unicode="&#x42b;" horiz-adv-x="1828" d="M207 0v1448h221v-1272h219q161 0 242.5 75t81.5 208q0 280 -361 280h-141v179h137q289 0 441.5 -119t152.5 -346q0 -207 -140.5 -330t-393.5 -123h-459zM1399 0v1448h221v-1448h-221z" />
<glyph unicode="&#x42c;" horiz-adv-x="1273" d="M207 0v1448h221v-1272h219q161 0 242.5 76.5t81.5 210.5q0 144 -92.5 210t-268.5 66h-141v179h137q290 0 442 -117.5t152 -343.5q0 -207 -140.5 -332t-393.5 -125h-459z" />
<glyph unicode="&#x42d;" horiz-adv-x="1351" d="M53 43l51 170q155 -45 338 -45q113 0 209 28.5t173 85t125.5 148.5t60.5 213h-736v170h738q-12 122 -58.5 213t-119 145t-160.5 80t-191 25q-88 0 -164 -10t-108 -18.5t-92 -26.5l-60 170q161 73 428 73q365 0 560.5 -192t195.5 -545q0 -340 -200.5 -543.5t-563.5 -203.5 q-263 0 -426 63z" />
<glyph unicode="&#x42e;" horiz-adv-x="2275" d="M209 0v1448h219v-633h266q26 308 228.5 480.5t527.5 172.5q177 0 315.5 -55t226 -155t132.5 -235.5t45 -299.5q0 -346 -201 -547t-557 -201q-321 0 -508 179t-211 485h-264v-639h-219zM909 729q0 -94 19.5 -178.5t60.5 -157t100 -125t143 -82.5t185 -30q134 0 236.5 43 t165 121t94 180t31.5 225q0 122 -33 224.5t-96 178.5t-161 119t-222 43q-129 0 -230 -43t-164 -119t-96 -177.5t-33 -221.5z" />
<glyph unicode="&#x42f;" horiz-adv-x="1398" d="M63 152q73 21 116 45t86 74t93 141l111 196q-129 39 -200.5 140.5t-71.5 240.5q0 216 137 337.5t358 121.5h498v-1448h-223v553h-168q-43 0 -109 4l-153 -274q-83 -151 -183 -222.5t-252 -83.5zM426 991q0 -270 360 -270h181v551h-222q-156 0 -237.5 -71.5t-81.5 -209.5z " />
<glyph unicode="&#x430;" horiz-adv-x="1202" d="M84 305q0 79 28 140.5t71.5 97.5t104.5 59t118.5 31.5t121.5 9.5l246 4v125q0 112 -59.5 150.5t-202.5 38.5q-30 0 -63 -3.5t-69.5 -10.5t-59 -12t-60 -14.5t-43.5 -11.5l-43 162q172 74 385 74t318.5 -74.5t105.5 -241.5v-585q0 -48 27 -66t75 -22l-10 -166 q-14 -2 -45 -2q-88 0 -157 33.5t-82 101.5q-1 -1 -25 -18t-32 -22.5t-35 -22t-43.5 -23.5t-47 -19.5t-56.5 -18.5t-60.5 -10.5t-69.5 -4.5q-161 0 -249.5 82t-88.5 239zM293 324q0 -170 180 -170q41 0 92.5 13.5t85.5 28t76 34.5t47 22v258l-239 -10q-114 -3 -178 -50.5 t-64 -125.5z" />
<glyph unicode="&#x431;" horiz-adv-x="1253" d="M115 625q0 128 15 259.5t56 262.5t101 188q77 73 268 130t494 114l34 -193q-147 -25 -229 -40t-183.5 -37.5t-159.5 -44t-83 -45.5q-74 -72 -96 -287q184 100 379 100q440 0 440 -473q0 -146 -41 -258t-115 -181t-171 -103.5t-214 -34.5q-238 0 -366.5 157t-128.5 486z M322 643q0 -249 75.5 -369t229.5 -120q70 0 125 23t89 60.5t56 90.5t30.5 107.5t8.5 115.5q0 143 -68 229t-211 86q-88 0 -165.5 -25t-167.5 -71q-2 -37 -2 -127z" />
<glyph unicode="&#x432;" horiz-adv-x="1163" d="M176 0v1118h449q183 0 281 -75.5t98 -213.5q0 -87 -43.5 -150t-110.5 -89q85 -13 149 -82.5t64 -181.5q0 -151 -112.5 -238.5t-311.5 -87.5h-463zM389 162h203q252 0 252 166q0 95 -70.5 133.5t-208.5 38.5h-176v-338zM389 645h186q109 0 165.5 41.5t56.5 118.5 q0 83 -59.5 117t-174.5 34h-174v-311z" />
<glyph unicode="&#x433;" horiz-adv-x="980" d="M176 0v1118h735v-170h-522v-948h-213z" />
<glyph unicode="&#x434;" horiz-adv-x="1304" d="M27 168h116q54 86 84.5 163t57.5 187q18 74 36 244t25 356h725v-950h170v-469h-199v301h-817v-301h-198v469zM369 168h489v782h-326q-32 -378 -63 -504q-27 -124 -100 -278z" />
<glyph unicode="&#x435;" horiz-adv-x="1142" d="M102 541q0 133 26 237t72 172.5t113 113.5t143.5 64t168.5 19q220 0 324 -142.5t104 -420.5v-76h-736q1 -89 21.5 -153.5t52.5 -103t83.5 -60.5t104 -29.5t123.5 -7.5q92 0 289 45l35 -170q-165 -54 -373 -54q-131 0 -228.5 28t-172 91.5t-112.5 175.5t-38 271zM322 657 h507q2 155 -56 244.5t-173 89.5q-118 0 -192 -86.5t-86 -247.5z" />
<glyph unicode="&#x436;" horiz-adv-x="1628" d="M43 141q133 46 250 203l184 242l-407 532h239l398 -540v540h215v-536l397 536h240l-408 -532l184 -242q117 -157 250 -203l-45 -159q-47 3 -79.5 10t-75 27.5t-87.5 63.5t-96 110l-280 372v-565h-215v561l-281 -368q-97 -126 -170.5 -166t-167.5 -45z" />
<glyph unicode="&#x437;" horiz-adv-x="962" d="M47 68l62 163q158 -77 309 -77q95 0 156 44.5t61 129.5q0 87 -66 125.5t-174 38.5h-137v161h131q105 0 155 49.5t50 118.5q0 67 -47.5 108.5t-138.5 41.5q-113 0 -265 -62l-53 158q73 36 167 57t185 21q92 0 164.5 -24.5t115.5 -66t65 -92t22 -106.5q0 -96 -47.5 -164.5 t-124.5 -101.5q41 -10 77.5 -30t70.5 -52.5t54.5 -83t20.5 -111.5t-24 -118t-72.5 -105.5t-134 -78t-197.5 -29.5q-211 0 -385 86z" />
<glyph unicode="&#x438;" horiz-adv-x="1347" d="M176 0v1118h213v-684l-4 -149l96 151l477 682h213v-1118h-213v680l5 154l-97 -156l-477 -678h-213z" />
<glyph unicode="&#x439;" horiz-adv-x="1347" d="M176 0v1118h213v-684l-4 -149l96 151l477 682h213v-1118h-213v680l5 154l-97 -156l-477 -678h-213zM313 1501l101 113q115 -131 260 -131t260 131l100 -113q-59 -96 -153.5 -150.5t-206.5 -54.5q-110 0 -206 55t-155 150z" />
<glyph unicode="&#x43a;" horiz-adv-x="1155" d="M176 0v1118h213v-1118h-213zM397 573l437 545h243l-448 -528l215 -246q144 -166 276 -203l-35 -159q-47 3 -84.5 11t-86.5 28.5t-100.5 64t-104.5 107.5z" />
<glyph unicode="&#x43b;" horiz-adv-x="1228" d="M6 145q156 60 213 164q45 85 75.5 301t39.5 508h719v-1118h-213v950h-320q-25 -308 -56.5 -487t-86.5 -277q-90 -159 -307 -221z" />
<glyph unicode="&#x43c;" horiz-adv-x="1589" d="M176 0v1118h281l323 -954l361 954h272v-1118h-203v627l9 219l-314 -846h-256l-282 850l12 -223v-627h-203z" />
<glyph unicode="&#x43d;" horiz-adv-x="1306" d="M176 0v1118h213v-473h529v473h212v-1118h-212v475h-529v-475h-213z" />
<glyph unicode="&#x43e;" horiz-adv-x="1259" d="M102 547q0 282 147.5 441t387.5 159q260 0 390 -152.5t130 -435.5q0 -282 -147.5 -433t-386.5 -151q-246 0 -383.5 151t-137.5 421zM319 557q0 -87 16 -157.5t51.5 -128t98.5 -89.5t150 -32q305 0 305 409q0 64 -8 120t-29 112t-55 95.5t-89.5 64t-127.5 24.5 q-71 0 -126.5 -24.5t-90 -64t-56.5 -95t-30.5 -112.5t-8.5 -122z" />
<glyph unicode="&#x43f;" horiz-adv-x="1286" d="M176 0v1118h934v-1118h-213v950h-508v-950h-213z" />
<glyph unicode="&#x440;" horiz-adv-x="1257" d="M176 -451v1569h213v-88q61 46 141 80.5t158 34.5q224 0 344.5 -139t120.5 -408q0 -114 -21 -208t-60 -161t-90.5 -116.5t-115.5 -78.5t-132 -43t-144 -14q-56 0 -201 17v-445h-213zM389 170q1 0 43 -7t79 -10t87 -3q162 0 250 115t88 300q0 90 -14 158t-47 124.5t-94 86 t-148 29.5q-89 0 -244 -84v-709z" />
<glyph unicode="&#x441;" horiz-adv-x="1042" d="M102 563q0 269 149 426.5t402 157.5q188 0 320 -68l-62 -164q-63 27 -119 40.5t-139 13.5q-149 0 -240 -103.5t-91 -300.5q0 -109 18 -182t62.5 -125.5t120 -76t190.5 -23.5q41 0 81 5t82.5 13t57.5 10l33 -168q-150 -38 -271 -38q-315 0 -454.5 137t-139.5 446z" />
<glyph unicode="&#x442;" horiz-adv-x="1044" d="M45 948v170h956v-170h-372v-948h-213v948h-371z" />
<glyph unicode="&#x443;" horiz-adv-x="1118" d="M31 1118h231l227 -760l58 -194l63 192l260 762h217l-546 -1569h-205l151 451h-90z" />
<glyph unicode="&#x444;" horiz-adv-x="1595" d="M102 557q0 147 44.5 260t124.5 183.5t186 106.5t235 36v401h211v-401q276 0 432 -145.5t156 -436.5q0 -119 -30 -215.5t-82.5 -163t-127 -111.5t-161.5 -66.5t-187 -22.5v-433h-211v433q-274 0 -432 144t-158 431zM319 561q0 -196 91.5 -303.5t281.5 -107.5v821 q-192 0 -282.5 -108t-90.5 -302zM903 154q190 0 280.5 106t90.5 301q0 126 -37.5 215.5t-121.5 141.5t-212 53v-817z" />
<glyph unicode="&#x445;" horiz-adv-x="1099" d="M31 0l397 571l-373 547h248l246 -405l248 405h241l-368 -543l397 -575h-256l-262 430l-266 -430h-252z" />
<glyph unicode="&#x446;" horiz-adv-x="1337" d="M176 0v1118h213v-950h502v950h213v-950h168v-469h-199v301h-897z" />
<glyph unicode="&#x447;" horiz-adv-x="1189" d="M117 768v350h213v-332q0 -104 44.5 -152t168.5 -48q117 0 258 53v479h215v-1118h-215v471q-181 -57 -322 -57q-201 0 -281.5 86t-80.5 268z" />
<glyph unicode="&#x448;" horiz-adv-x="1785" d="M176 0v1118h213v-950h397v950h213v-950h398v950h213v-1118h-1434z" />
<glyph unicode="&#x449;" horiz-adv-x="1843" d="M176 0v1118h213v-950h397v950h213v-950h398v950h213v-950h170v-469h-199v301h-1405z" />
<glyph unicode="&#x44a;" horiz-adv-x="1277" d="M6 948v170h547v-948h211q106 0 166.5 51.5t60.5 145.5q0 105 -72 152.5t-196 47.5h-123v168h139q222 0 345.5 -95t123.5 -275q0 -157 -106 -261t-275 -104h-487v948h-334z" />
<glyph unicode="&#x44b;" horiz-adv-x="1581" d="M176 0v1118h213v-948h213q104 0 160.5 51t56.5 146q0 200 -258 200h-125v168h139q221 0 341 -94.5t120 -275.5q0 -158 -101.5 -261.5t-268.5 -103.5h-490zM1188 0v1118h217v-1118h-217z" />
<glyph unicode="&#x44c;" horiz-adv-x="1114" d="M176 0v1118h213v-948h213q105 0 165 51.5t60 145.5q0 105 -71.5 152.5t-194.5 47.5h-123v168h137q222 0 347 -95t125 -275q0 -157 -106.5 -261t-274.5 -104h-490z" />
<glyph unicode="&#x44d;" horiz-adv-x="1046" d="M70 55l61 162q46 -20 71 -30t84 -23.5t115 -13.5q155 0 234.5 91t89.5 242h-446v168h446q-15 143 -89.5 232.5t-215.5 89.5q-122 0 -268 -60l-66 160q144 72 336 72q257 0 389.5 -146.5t132.5 -433.5q0 -276 -146.5 -430.5t-389.5 -154.5q-188 0 -338 75z" />
<glyph unicode="&#x44e;" horiz-adv-x="1769" d="M176 0v1118h215v-473h227q26 238 168.5 369t360.5 131q258 0 388 -151.5t130 -434.5q0 -143 -39.5 -254t-111.5 -181.5t-168.5 -107t-212.5 -36.5q-229 0 -363.5 128t-153.5 367h-225v-475h-215zM829 557q0 -403 316 -403q303 0 303 405q0 64 -7.5 119.5t-28.5 111 t-54.5 94.5t-89 63t-127.5 24q-71 0 -126.5 -24t-90 -63t-56.5 -94t-30.5 -111.5t-8.5 -121.5z" />
<glyph unicode="&#x44f;" horiz-adv-x="1200" d="M84 152q82 18 131 49.5t104 107.5q14 21 74 121q-94 35 -150.5 116t-56.5 193q0 177 119 278t305 101h414v-1118h-213v379h-133q-7 0 -36.5 1t-35.5 1l-131 -195q-44 -63 -90.5 -104t-94 -61t-87 -27.5t-90.5 -9.5zM403 739q0 -99 71.5 -148.5t180.5 -49.5h156v407h-184 q-106 0 -165 -55t-59 -154z" />
<glyph unicode="&#x450;" horiz-adv-x="1142" d="M102 541q0 133 26 237t72 172.5t113 113.5t143.5 64t168.5 19q220 0 324 -142.5t104 -420.5v-76h-736q1 -89 21.5 -153.5t52.5 -103t83.5 -60.5t104 -29.5t123.5 -7.5q92 0 289 45l35 -170q-165 -54 -373 -54q-131 0 -228.5 28t-172 91.5t-112.5 175.5t-38 271zM264 1495 l84 156l416 -260l-74 -134zM322 657h507q2 155 -56 244.5t-173 89.5q-118 0 -192 -86.5t-86 -247.5z" />
<glyph unicode="&#x451;" horiz-adv-x="1142" d="M102 541q0 133 26 237t72 172.5t113 113.5t143.5 64t168.5 19q220 0 324 -142.5t104 -420.5v-76h-736q1 -89 21.5 -153.5t52.5 -103t83.5 -60.5t104 -29.5t123.5 -7.5q92 0 289 45l35 -170q-165 -54 -373 -54q-131 0 -228.5 28t-172 91.5t-112.5 175.5t-38 271zM217 1466 l135 138l140 -138l-140 -139zM322 657h507q2 155 -56 244.5t-173 89.5q-118 0 -192 -86.5t-86 -247.5zM670 1466l137 138l137 -138l-137 -139z" />
<glyph unicode="&#x452;" horiz-adv-x="1331" d="M6 1163v162h213v219h215v-219h383v-162h-383v-321q211 151 381 151q86 0 154.5 -28t113 -75.5t73.5 -113t41.5 -136.5t12.5 -151q0 -158 -34.5 -305.5t-94 -264.5t-128.5 -208.5t-148 -161.5l-137 136q90 86 159 193t116.5 262.5t47.5 326.5q0 336 -241 336q-34 0 -70 -7 t-62 -15t-60.5 -24t-49 -24t-44 -25.5t-30.5 -17.5v-690h-215v1163h-213z" />
<glyph unicode="&#x453;" horiz-adv-x="980" d="M176 0v1118h735v-170h-522v-948h-213zM291 1393l416 258l86 -156l-431 -238z" />
<glyph unicode="&#x454;" horiz-adv-x="1042" d="M102 563q0 269 149 426.5t402 157.5q188 0 320 -68l-62 -164q-63 27 -119 40.5t-139 13.5q-128 0 -214 -80t-107 -230h444v-167h-450q12 -175 99.5 -254.5t289.5 -79.5q40 0 78.5 4t83.5 12t57 10l33 -168q-142 -36 -271 -36q-314 0 -454 137t-140 446z" />
<glyph unicode="&#x455;" horiz-adv-x="980" d="M96 25l31 168q17 -3 71 -12.5t82.5 -14.5t71.5 -9.5t76 -4.5q126 0 190 39.5t64 105.5q0 35 -19.5 62.5t-52 47t-74.5 37t-89 35t-93.5 37.5t-88.5 48t-74.5 62.5t-52 85.5t-19.5 113q0 103 55.5 177t146 109.5t205.5 35.5q142 0 303 -51l-36 -164q-5 1 -34.5 8t-41 10 t-40.5 8.5t-49.5 8t-49.5 4.5t-58 2q-95 0 -142.5 -38.5t-47.5 -96.5q0 -44 31 -78.5t80 -58t109 -46t119.5 -51.5t108.5 -65t80 -94.5t31 -133.5q0 -76 -28.5 -136.5t-73.5 -96.5t-105.5 -59.5t-118 -32.5t-117.5 -9q-196 0 -350 48z" />
<glyph unicode="&#x456;" d="M123 1466l160 162l163 -162l-163 -163zM176 0v1118h215v-1118h-215z" />
<glyph unicode="&#x457;" d="M-80 1466l135 138l140 -138l-140 -139zM176 0v1118h215v-1118h-215zM373 1466l137 138l137 -138l-137 -139z" />
<glyph unicode="&#x458;" d="M-186 -420l39 170q12 -4 60 -11t77 -7q103 0 144.5 61t41.5 187v1138h213v-1141q0 -101 -20.5 -177t-55.5 -123.5t-87 -76.5t-108 -40t-126 -11q-87 0 -178 31zM119 1466l160 162l163 -162l-163 -163z" />
<glyph unicode="&#x459;" horiz-adv-x="1779" d="M6 143q157 60 215 166q45 85 75.5 301t39.5 508h717v-948h213q105 0 165 51.5t60 145.5q0 105 -71.5 152.5t-194.5 47.5h-123v168h137q222 0 346.5 -95t124.5 -275q0 -157 -106.5 -261t-274.5 -104h-489v950h-320q-26 -307 -57 -482t-82 -273q-90 -168 -311 -230z" />
<glyph unicode="&#x45a;" horiz-adv-x="1822" d="M176 0v1118h215v-436h506v436h215v-948h203q100 0 156.5 44t56.5 126q0 172 -252 172h-117v170h135q217 0 338 -88t121 -256q0 -147 -103 -242.5t-268 -95.5h-485v512h-506v-512h-215z" />
<glyph unicode="&#x45b;" horiz-adv-x="1337" d="M6 1163v162h213v219h215v-219h383v-162h-383v-321q39 29 69 48.5t82 46.5t111 41.5t121 14.5q61 0 111 -9.5t85 -28.5t62 -42t43.5 -56.5t27 -64t15.5 -73.5t6.5 -76.5t1.5 -79.5v-563h-208v547q0 59 -4.5 97.5t-17 71.5t-36 51t-60 28t-89.5 10q-118 0 -320 -115v-690 h-215v1163h-213z" />
<glyph unicode="&#x45c;" horiz-adv-x="1155" d="M176 0v1118h213v-1118h-213zM369 1393l415 258l86 -156l-430 -238zM397 573l437 545h243l-448 -528l215 -246q144 -166 276 -203l-35 -159q-47 3 -84.5 11t-86.5 28.5t-100.5 64t-104.5 107.5z" />
<glyph unicode="&#x45d;" horiz-adv-x="1347" d="M176 0v1118h213v-684l-4 -149l96 151l477 682h213v-1118h-213v680l5 154l-97 -156l-477 -678h-213zM362 1495l84 156l416 -260l-74 -134z" />
<glyph unicode="&#x45e;" horiz-adv-x="1118" d="M31 1118h231l227 -760l58 -194l63 192l260 762h217l-546 -1569h-205l151 451h-90zM205 1511l98 111q112 -131 254 -131t254 131l96 -111q-57 -93 -149.5 -145.5t-200.5 -52.5t-201.5 52.5t-150.5 145.5z" />
<glyph unicode="&#x45f;" horiz-adv-x="1288" d="M176 0v1118h213v-950h510v950h213v-1118h-369v-301h-198v301h-369z" />
<glyph unicode="&#x462;" horiz-adv-x="1331" d="M-78 1071v176h375v201h223v-201h441v-174h-441v-897h217q166 0 245 60t79 186q0 139 -90 192.5t-271 53.5h-141v176h146q293 0 439 -103.5t146 -324.5q0 -199 -138.5 -307.5t-395.5 -108.5h-459v1071h-375z" />
<glyph unicode="&#x463;" horiz-adv-x="1165" d="M-102 948v170h335v330h213v-330h388v-170h-388v-778h213q107 0 166.5 47t59.5 137q0 96 -72.5 140.5t-194.5 44.5h-122v170h137q224 0 347.5 -90t123.5 -269q0 -156 -105.5 -253t-275.5 -97h-490v948h-335z" />
<glyph unicode="&#x472;" horiz-adv-x="1693" d="M109 727q0 340 206.5 540.5t552.5 200.5q177 0 315.5 -56t226 -157t132.5 -235.5t45 -296.5q0 -341 -201.5 -544.5t-556.5 -203.5q-229 0 -393 95t-245.5 263t-81.5 394zM332 655q9 -107 44.5 -196t96.5 -157.5t154 -107t209 -38.5q124 0 221.5 37.5t160.5 105t98.5 157 t43.5 199.5h-1028zM334 801h1026q-21 220 -153 354.5t-357 134.5q-236 0 -368 -134t-148 -355z" />
<glyph unicode="&#x473;" horiz-adv-x="1259" d="M102 547q0 282 147.5 441t387.5 159q260 0 390 -152.5t130 -435.5q0 -282 -147.5 -433t-386.5 -151q-246 0 -383.5 151t-137.5 421zM322 489q6 -73 25 -132t55 -106.5t95 -74t138 -26.5q279 0 301 339h-614zM322 633h614q-4 54 -15.5 101t-35 92.5t-56.5 77.5t-83.5 51.5 t-114.5 19.5q-62 0 -113 -19.5t-84.5 -51.5t-57.5 -77t-36.5 -92.5t-17.5 -101.5z" />
<glyph unicode="&#x474;" horiz-adv-x="1396" d="M2 1448h238l430 -1278l350 913q64 171 132 268.5t151 149.5l157 -123q-71 -48 -127 -125.5t-110 -218.5l-410 -1034h-297z" />
<glyph unicode="&#x475;" horiz-adv-x="1128" d="M31 1118h231l221 -721l68 -233l76 237l121 355q103 297 270 407l156 -125q-147 -104 -244 -368l-244 -670h-280z" />
<glyph unicode="&#x490;" horiz-adv-x="1175" d="M209 0v1448h674v330h211v-506h-666v-1272h-219z" />
<glyph unicode="&#x491;" horiz-adv-x="980" d="M176 0v1118h535v234h200v-404h-522v-948h-213z" />
<glyph unicode="&#x4d8;" horiz-adv-x="1570" d="M88 684v125h1147q-20 219 -145 350t-347 131q-249 0 -501 -131l-78 154q265 155 612 155q170 0 302.5 -56t215.5 -157t125.5 -235.5t42.5 -296.5q0 -170 -44.5 -306.5t-130.5 -235.5t-220.5 -152.5t-308.5 -53.5q-166 0 -292.5 50.5t-207 145t-123 223t-47.5 290.5z M313 647q7 -85 25.5 -156t53.5 -134t85 -106.5t123 -69t164 -25.5q122 0 211.5 36t143 104t81 154t35.5 197h-922z" />
<glyph unicode="&#x4d9;" horiz-adv-x="1142" d="M90 539v75h735q-1 89 -21.5 154t-52.5 103t-83.5 60.5t-104 30t-123.5 7.5q-91 0 -288 -45l-35 170q162 53 372 53q104 0 186.5 -17t152 -57t115.5 -104.5t71.5 -161.5t25.5 -225q0 -133 -26 -237t-72 -173t-112.5 -113.5t-143 -64t-168.5 -19.5q-428 0 -428 564z M313 465q-2 -154 56.5 -244t173.5 -90q118 0 192 86.5t86 247.5h-508z" />
<glyph unicode="&#x2000;" horiz-adv-x="924" />
<glyph unicode="&#x2001;" horiz-adv-x="1849" />
<glyph unicode="&#x2002;" horiz-adv-x="924" />
<glyph unicode="&#x2003;" horiz-adv-x="1849" />
<glyph unicode="&#x2004;" horiz-adv-x="616" />
<glyph unicode="&#x2005;" horiz-adv-x="462" />
<glyph unicode="&#x2006;" horiz-adv-x="308" />
<glyph unicode="&#x2007;" horiz-adv-x="308" />
<glyph unicode="&#x2008;" horiz-adv-x="231" />
<glyph unicode="&#x2009;" horiz-adv-x="369" />
<glyph unicode="&#x200a;" horiz-adv-x="102" />
<glyph unicode="&#x2010;" horiz-adv-x="747" d="M68 498v178h610v-178h-610z" />
<glyph unicode="&#x2011;" horiz-adv-x="747" d="M68 498v178h610v-178h-610z" />
<glyph unicode="&#x2012;" horiz-adv-x="747" d="M68 498v178h610v-178h-610z" />
<glyph unicode="&#x2013;" horiz-adv-x="1228" d="M80 506v162h1069v-162h-1069z" />
<glyph unicode="&#x2014;" horiz-adv-x="1978" d="M106 506v162h1766v-162h-1766z" />
<glyph unicode="&#x2018;" horiz-adv-x="405" d="M72 1094v116q0 191 96 338h164q-28 -57 -44 -131t-16 -129v-194h-200z" />
<glyph unicode="&#x2019;" horiz-adv-x="405" d="M76 1094q26 55 41.5 129t15.5 129v194h201v-116q0 -193 -96 -336h-162z" />
<glyph unicode="&#x201a;" horiz-adv-x="598" d="M143 -250q25 57 40.5 131.5t15.5 126.5v197h204v-119q0 -187 -96 -336h-164z" />
<glyph unicode="&#x201c;" horiz-adv-x="757" d="M80 1094v116q0 194 98 338h162q-26 -57 -41.5 -131t-15.5 -129v-194h-203zM430 1094v116q0 191 96 338h164q-28 -57 -43.5 -131t-15.5 -129v-194h-201z" />
<glyph unicode="&#x201d;" horiz-adv-x="757" d="M80 1094q26 55 41.5 129t15.5 129v194h201v-116q0 -191 -94 -336h-164zM428 1094q28 55 43.5 128.5t15.5 129.5v194h201v-116q0 -193 -96 -336h-164z" />
<glyph unicode="&#x201e;" horiz-adv-x="757" d="M68 -250q28 56 43.5 130t15.5 128v197h197v-119q0 -191 -97 -336h-159zM410 -250q28 56 43.5 130t15.5 128v197h197v-119q0 -194 -99 -336h-157z" />
<glyph unicode="&#x2026;" horiz-adv-x="1773" d="M205 0v219h233v-219h-233zM764 0v219h233v-219h-233zM1335 0v219h234v-219h-234z" />
<glyph unicode="&#x202f;" horiz-adv-x="369" />
<glyph unicode="&#x2039;" horiz-adv-x="536" d="M68 557l231 455l164 -58l-180 -397l178 -389l-162 -68z" />
<glyph unicode="&#x203a;" horiz-adv-x="536" d="M68 954l165 58l230 -455l-230 -457l-161 70l176 387z" />
<glyph unicode="&#x205f;" horiz-adv-x="462" />
<glyph unicode="&#x20ac;" horiz-adv-x="1218" d="M61 360v121h105q-6 35 -6 70q0 49 6 92h-105v123h129q55 177 201 273t371 96q104 0 184 -16t168 -52l-57 -158q-92 27 -152 38t-139 11q-121 2 -214.5 -46t-137.5 -146h477v-123h-514q-4 -23 -4 -76q0 -59 4 -86h514v-121h-473q48 -102 148 -154t231 -52q119 0 272 43 l49 -158q-148 -59 -350 -59q-229 0 -378.5 101t-203.5 279h-125z" />
<glyph unicode="&#x2122;" horiz-adv-x="1671" d="M59 1313v135h621v-135h-234v-592h-153v592h-234zM725 721v727h188l211 -574l228 574h180v-727h-154l4 471l-184 -471h-162l-162 469v-469h-149z" />
<glyph unicode="&#x25fc;" horiz-adv-x="1116" d="M0 0v1116h1116v-1116h-1116z" />
</font>
</defs>
</svg>
