<svg width="89" height="170" viewBox="0 0 89 170" fill="none" xmlns="http://www.w3.org/2000/svg">
<path fill-rule="evenodd" clip-rule="evenodd" d="M6.03303 120.009H2.86863V111.488H0.101746V137.994H2.86863V122.777H6.03303V137.994H8.80231V111.488H6.03303V120.009Z" fill="white"/>
<path fill-rule="evenodd" clip-rule="evenodd" d="M42.9652 121.787V111.487H42.0413H35.2551H34.3309V137.994H37.0997V114.254H40.1985V121.787H42.9652Z" fill="white"/>
<path fill-rule="evenodd" clip-rule="evenodd" d="M62.1355 128.717C62.1355 129.905 61.6062 130.496 60.5525 130.496H58.9711V114.254H60.5525C61.6062 114.254 62.1355 114.849 62.1355 116.034V128.717ZM60.5525 111.489H56.202V137.994H58.9711V133.264H60.5525C61.8445 133.264 62.8898 132.857 63.6951 132.038C64.4988 131.222 64.9026 130.116 64.9026 128.717V116.034C64.9026 114.638 64.4988 113.531 63.6951 112.713C62.8898 111.897 61.8445 111.489 60.5525 111.489Z" fill="white"/>
<path fill-rule="evenodd" clip-rule="evenodd" d="M27.3969 117.589C26.8191 117.591 26.292 117.674 25.8121 117.831V114.255H29.0036V117.589H27.3969ZM27.3969 126.171H29.0036V135.278H25.8121V125.929C26.292 126.086 26.8191 126.169 27.3969 126.171ZM29.0036 111.489H23.0431V119.242V121.786V121.975V124.518V135.278V137.995H25.8121H31.6919V137.914H31.7027V126.171V123.409V123.394H28.2562V123.409H27.4142V123.392C27.4121 123.392 27.4101 123.394 27.408 123.394C26.4108 123.394 25.8904 122.884 25.8308 121.881C25.8904 120.876 26.4108 120.366 27.408 120.366C27.4101 120.366 27.4121 120.368 27.4142 120.368V120.352H28.2562V120.366H31.7027V120.352V117.589V111.487H29.0036V111.489Z" fill="white"/>
<path fill-rule="evenodd" clip-rule="evenodd" d="M51.1322 124.856V125.795V133.448C51.1322 134.634 50.6053 135.227 49.5511 135.227H47.9701V125.795V116.036C47.9701 114.848 48.4972 114.255 49.5511 114.255H51.1322V124.856ZM46.4085 112.713C45.6027 113.53 45.2037 114.637 45.2037 116.036V124.856V125.795V137.995H49.5511C50.8414 137.995 51.8915 137.585 52.6942 136.767C53.4979 135.952 53.9016 134.844 53.9016 133.448V125.795V124.856V111.489H49.5511C48.2597 111.489 47.2113 111.897 46.4085 112.713Z" fill="white"/>
<path fill-rule="evenodd" clip-rule="evenodd" d="M73.2038 124.856V133.448C73.2038 134.634 72.6767 135.227 71.6223 135.227H70.0415V125.795V124.856V116.036C70.0415 114.848 70.5681 114.255 71.6223 114.255H73.2038V124.856ZM68.4773 112.713C67.6741 113.53 67.2722 114.637 67.2722 116.036V124.856V125.795V137.995H71.6223C72.9128 137.995 73.9602 137.585 74.7656 136.767C75.5683 135.952 75.9728 134.844 75.9728 133.448V125.795V124.856V111.489H71.6223C70.3301 111.489 69.2824 111.897 68.4773 112.713Z" fill="white"/>
<path fill-rule="evenodd" clip-rule="evenodd" d="M17.7746 124.856V125.795V133.448C17.7746 134.634 17.2459 135.227 16.1917 135.227H14.6105V125.795V124.856V116.036C14.6105 114.848 15.1399 114.255 16.1944 114.255H17.7746V124.856ZM13.0486 112.713C12.2454 113.53 11.8419 114.637 11.8419 116.036V124.856V125.795V137.995H16.1917C17.4837 137.995 18.5316 137.585 19.337 136.767C20.1406 135.952 20.5418 134.844 20.5418 133.448V125.795V124.856V111.489H16.1944C14.9022 111.489 13.8545 111.897 13.0486 112.713Z" fill="white"/>
<path fill-rule="evenodd" clip-rule="evenodd" d="M24.0942 143.333C23.291 144.151 22.8877 145.258 22.8877 146.654V155.419V156.416V168.614H27.2373C28.5295 168.614 29.5772 168.206 30.3825 167.388C31.1838 166.572 31.5873 165.465 31.5873 164.067V158.22H28.8204V164.067C28.8204 165.253 28.2917 165.847 27.2373 165.847H25.656V156.416V146.654C25.656 145.469 26.1831 144.874 27.2399 144.874H28.8204V152.259H31.5873V142.109H27.2399C25.9475 142.109 24.8978 142.517 24.0942 143.333Z" fill="white"/>
<path fill-rule="evenodd" clip-rule="evenodd" d="M49.4348 165.847C48.3804 165.847 47.8533 165.254 47.8533 164.066V162.73V155.06C47.8533 153.901 48.3699 153.324 49.3965 153.324H50.8736V165.847H49.4348ZM45.9282 142.109H45.8899V148.048H48.6591V144.875H50.8736V150.625H49.3965C48.1383 150.625 47.116 151.022 46.3319 151.819C45.5458 152.616 45.1547 153.695 45.1547 155.06V158.219H45.1504V164.066C45.1504 165.464 45.5544 166.571 46.3578 167.387C47.1634 168.205 48.2106 168.616 49.5007 168.616H50.8736H53.64V162.73V155.418V150.625V142.109H53.6024H45.9282Z" fill="white"/>
<path fill-rule="evenodd" clip-rule="evenodd" d="M42.8358 168.596V156.791V154.031V154.016H39.3864V154.031H38.5449V154.014H38.5382C37.5418 154.014 37.0216 153.504 36.9637 152.501C37.0216 151.496 37.5418 150.986 38.5382 150.986H38.5449V150.971H39.3864V150.986H42.8358V150.971V148.209V142.106H40.1348V148.209H38.5296C37.9522 148.209 37.4251 148.294 36.9448 148.453V142.102H34.1757V149.864V152.405V152.594V152.597V155.138V168.596H36.9448V156.547C37.4251 156.706 37.9522 156.789 38.5296 156.791H40.1348V168.596H42.8358Z" fill="white"/>
<path fill-rule="evenodd" clip-rule="evenodd" d="M60.3739 148.21H58.767V144.819H61.959V148.452C61.4784 148.295 60.952 148.21 60.3739 148.21ZM60.3739 156.792C60.952 156.789 61.4784 156.707 61.959 156.547V168.597H64.7278V155.139V152.595V152.593V152.406V149.863V142.103H62.9856H61.959H57.1968V142.107H56.0684V148.21V150.972V150.987H59.5154V150.972H60.3569V150.987H60.3627C61.3596 150.987 61.8805 151.496 61.9374 152.5C61.8805 153.504 61.3596 154.012 60.3627 154.012H60.3569V154.03H59.5154V154.015H56.0684V154.03V156.792V168.597H58.767V156.792H60.3739Z" fill="white"/>
<path fill-rule="evenodd" clip-rule="evenodd" d="M81.6519 135.166V123.129H83.1862V123.128C83.758 123.128 84.2808 123.045 84.7569 122.887V135.166H81.6519ZM88.7458 137.882V135.166H87.5132V118.767V116.241V111.487H87.4749H79.8328H79.7966V117.403H82.5532V114.244H84.7569V116.241H84.7526V118.678C84.7526 119.806 84.2281 120.367 83.1754 120.367H83.1696V120.382H81.6519H78.9046V123.129V135.166H77.6716V137.882H84.7569H87.5132H88.7458Z" fill="white"/>
<path fill-rule="evenodd" clip-rule="evenodd" d="M25.6529 83.3827H27.2344C28.2885 83.3827 28.8173 83.9753 28.8173 85.1613V97.844C28.8173 99.0299 28.2885 99.6249 27.2344 99.6249H25.6529V83.3827ZM25.6529 102.391H27.2344C28.5263 102.391 29.5743 101.983 30.3796 101.165C31.1823 100.347 31.5844 99.2425 31.5844 97.844V85.1613C31.5844 83.7651 31.1823 82.6582 30.3796 81.8403C29.5743 81.024 28.5263 80.6139 27.2344 80.6139H22.8839V107.121H25.6529V102.391Z" fill="white"/>
<path fill-rule="evenodd" clip-rule="evenodd" d="M38.4628 107.119V107.121H38.4671H38.5049H38.5287V107.119C39.789 107.106 40.8154 106.717 41.6037 105.944C42.405 105.16 42.8071 104.1 42.8071 102.761V102.242V99.716V93.8196V80.6501L40.0503 80.6671L40.0484 93.8196V95.4662V95.5939C39.5704 95.4385 39.049 95.3561 38.4781 95.3537H36.9457V80.6501H34.198V95.3537V98.1012H36.9457H38.4628V98.1159H38.4671C39.1345 98.1159 39.5893 98.3433 39.8335 98.7958V98.8023H39.8357C39.9736 99.0614 40.046 99.3932 40.046 99.8034V101.654H40.0484V102.242V102.669C40.0484 103.785 39.5316 104.344 38.5033 104.357C37.4745 104.344 36.9563 103.785 36.9563 102.669V101.19H34.198V102.746C34.198 104.091 34.5991 105.156 35.4004 105.942C36.1887 106.715 37.2087 107.104 38.4628 107.119Z" fill="white"/>
<path fill-rule="evenodd" clip-rule="evenodd" d="M58.8176 91.4525C59.2937 91.6096 59.8167 91.6903 60.3859 91.6927H61.9837V94.8439H61.9715V102.546C61.9715 103.728 61.4444 104.321 60.3965 104.321H58.8176V91.4525ZM63.5269 105.855C64.3301 105.043 64.7295 103.938 64.7295 102.546V98.5344V94.8439V88.9476H64.6682H61.9837H60.4027V88.9306H60.3965C59.3444 88.9306 58.8176 88.3698 58.8176 87.2435V84.806V80.6544H56.0569V84.806V87.3328V107.076H60.3965C61.6846 107.076 62.7253 106.67 63.5269 105.855Z" fill="white"/>
<path fill-rule="evenodd" clip-rule="evenodd" d="M52.5352 105.894C53.3405 105.078 53.7426 103.971 53.7426 102.575V96.7257H50.975V102.575C50.975 103.761 50.4463 104.354 49.3921 104.354H47.8089V94.9218V85.1626C47.8089 83.975 48.3379 83.3821 49.3945 83.3821H50.975V90.7658H53.7426V80.6159H49.3945C48.0999 80.6159 47.0548 81.0237 46.2495 81.8416C45.4458 82.6576 45.0421 83.7647 45.0421 85.1626V93.9254V94.9218V107.12H49.3921C50.6841 107.12 51.7315 106.712 52.5352 105.894Z" fill="white"/>
<path fill-rule="evenodd" clip-rule="evenodd" d="M43.8081 3.60992C42.1306 1.7337 39.7282 0.613388 37.1577 0.57843H12.1547V62.269H37.0355C40.9773 62.269 43.8081 66.1256 43.8081 66.1256C43.8081 66.1256 46.7488 62.269 50.5783 62.269H75.4612V0.57843H50.4557C47.8878 0.613388 45.4854 1.7337 43.8081 3.60992ZM58.251 29.1253V30.4153H60.1314V29.1253C60.1314 28.6066 59.7084 28.1862 59.19 28.1862C58.6739 28.1862 58.251 28.6066 58.251 29.1253ZM64.8231 30.4146V24.814H53.5602V30.4146H57.1456V29.1253C57.1456 27.997 58.0637 27.0793 59.1917 27.0793C60.3203 27.0793 61.238 27.997 61.238 29.1253V30.4146H64.8231ZM16.0658 24.4452C17.0074 24.1579 18.8669 23.5864 20.652 23.0366C23.2876 24.2748 26.6984 25.8854 26.5686 25.8854H26.5638C26.9513 27.2327 27.5586 29.9992 27.6499 30.4158H28.8058C28.8934 29.9932 29.4203 27.4899 29.7711 26.2853C29.8092 26.1684 29.8391 25.8684 30.0772 25.8263C31.9384 25.5667 34.3906 24.8446 35.547 23.0045C36.0657 22.1421 36.3655 21.2773 36.4733 20.1402C36.7135 17.6098 34.3973 14.6393 34.0208 12.7227C33.9978 12.5867 34.0443 11.83 34.5757 11.4838C35.3707 10.9652 36.3059 11.0566 36.1864 10.6063C36.0681 10.158 34.274 9.86067 34.274 9.86067C34.0702 9.73281 34.0151 9.52092 33.9533 9.41437C33.5835 8.68959 32.88 8.63857 32.1766 8.62995H32.1537C31.4561 8.62995 30.6869 9.0425 30.3128 10.2792C29.9282 11.5391 30.6849 13.1582 29.8391 15.6529C32.1022 16.063 34.2526 17.5097 34.374 19.7559C34.4528 21.2152 33.5256 22.9727 30.6893 23.5292C30.3403 23.5974 29.9661 23.6292 29.5733 23.6292C26.4005 23.6292 22.0035 21.5832 19.9632 20.5376L14.355 21.1772V24.2774C14.8098 24.4177 15.2413 24.5044 15.6051 24.5044C15.7748 24.5044 15.9322 24.4857 16.0658 24.4452ZM61.3821 54.892C60.5428 55.5358 58.3564 56.9641 55.5231 56.9641C52.6909 56.9641 50.5083 55.5358 49.6644 54.892C48.8251 55.5358 46.6404 56.9641 43.8081 56.9641C40.9751 56.9641 38.7899 55.5358 37.9484 54.892C37.1095 55.5358 34.9246 56.9641 32.0919 56.9641C29.2572 56.9641 27.0749 55.5358 26.2334 54.892C25.3916 55.5358 23.2093 56.9641 20.3742 56.9641C17.3283 56.9641 15.0401 55.3172 14.3555 54.7651V60.0657H36.9754C39.6427 60.0657 42.1335 61.2627 43.8081 63.2701C45.482 61.2627 47.9728 60.0657 50.6396 60.0657H73.2595V54.7651C72.5754 55.3191 70.2843 56.9641 67.2408 56.9641C64.4062 56.9641 62.2236 55.5358 61.3821 54.892ZM69.6049 41.4301V51.1144H65.1742V41.4301C65.1742 39.2096 63.5247 37.4033 61.4952 37.4033C59.4635 37.4033 57.8123 39.2096 57.8123 41.4301V51.1144H53.3837V41.4301C53.3837 39.2096 51.7325 37.4033 49.7027 37.4033C47.6732 37.4033 46.0223 39.2096 46.0223 41.4301V51.1144H41.592V41.4301C41.592 39.2096 39.9425 37.4033 37.9132 37.4033C35.8834 37.4033 34.2323 39.2096 34.2323 41.4301V51.1144H29.8018V41.4301C29.8018 40.5335 29.5295 39.7072 29.073 39.0331L29.0644 39.0396C28.3736 38.0177 27.2705 37.4057 26.1103 37.4033C24.087 37.4098 22.4423 39.2137 22.4423 41.4301V50.5579H22.4214V51.1144H18.0118V41.4301C18.0118 39.218 16.375 37.4208 14.3564 37.4033V53.5303L14.4815 53.3948L14.8895 53.7681C14.9127 53.7875 17.2332 55.8552 20.3742 55.8552C23.5326 55.8552 25.838 53.7899 25.8615 53.7681L26.2336 53.4285L26.6055 53.7681C26.629 53.7875 28.9493 55.8552 32.0928 55.8552C35.2479 55.8552 37.554 53.7899 37.5775 53.7681L37.9494 53.4285L38.3234 53.7681C38.3443 53.7875 40.6653 55.8552 43.8081 55.8552C46.9488 55.8552 49.2717 53.7875 49.2925 53.7681L49.6668 53.431L50.0392 53.7681C50.0617 53.7875 52.3803 55.8552 55.5239 55.8552C58.6667 55.8552 60.9853 53.7875 61.0112 53.7681L61.3826 53.431L61.7569 53.7681C61.7763 53.7875 64.0982 55.8552 67.2418 55.8552C70.3976 55.8552 72.703 53.7899 72.7265 53.7681L73.1348 53.3948L73.2603 53.5303V37.4033C71.2434 37.4208 69.6049 39.218 69.6049 41.4301ZM14.3564 36.2902C16.9894 36.3053 19.1251 38.6043 19.1251 41.4301V50.0013H21.3072V41.4301C21.3072 38.5957 23.4579 36.2902 26.1019 36.2902H26.1146H26.123C26.1311 36.2902 26.1397 36.2902 26.1507 36.2902C26.2717 36.2921 26.3912 36.2985 26.5097 36.3096C26.5971 36.3179 26.6822 36.3282 26.7667 36.3414C26.8306 36.3498 26.8946 36.3601 26.9604 36.3732C29.204 36.8004 30.9148 38.9036 30.9148 41.4301V50.0013H33.119V41.4301C33.119 38.5957 35.2697 36.2902 37.9132 36.2902C40.5568 36.2902 42.7075 38.5957 42.7075 41.4301V50.0013H44.909V41.4301C44.909 38.5957 47.0594 36.2902 49.7027 36.2902C52.3468 36.2902 54.4999 38.5957 54.4999 41.4301V50.0013H56.699V41.4301C56.699 38.5957 58.8495 36.2902 61.4952 36.2902C64.1394 36.2902 66.2875 38.5957 66.2875 41.4301V50.0013H68.4911V41.4301C68.4911 38.6043 70.627 36.3053 73.2603 36.2902V32.6294H14.3564V36.2902ZM25.6206 26.6267C25.0896 26.3612 23.7802 25.7281 20.5696 24.2194C18.9141 24.7297 17.2589 25.2397 16.3869 25.5055C16.1513 25.5751 15.8874 25.6113 15.6051 25.6113C15.1975 25.6113 14.7702 25.5373 14.3555 25.4264V30.4153H26.5157C26.36 29.7059 25.9438 27.8464 25.6206 26.6267ZM64.8521 18.5529C64.1021 17.4314 63.0754 16.5793 62.085 15.757C60.9903 14.8453 59.8622 13.9086 59.1907 12.6293C58.5211 13.9086 57.3932 14.8453 56.2969 15.757C55.3083 16.5793 54.2815 17.4314 53.5314 18.5529C51.9947 20.846 52.7709 22.8029 53.315 23.708H65.0686C65.611 22.8029 66.3888 20.846 64.8521 18.5529ZM50.6408 2.79249C48.2901 2.79249 46.1226 4.03326 44.9157 6.0438V30.4146H52.4536V24.4146C51.7732 23.3455 50.6621 20.8472 52.6131 17.9361C53.452 16.6822 54.5382 15.7793 55.5902 14.9061C56.9375 13.7865 58.102 12.8196 58.5293 11.3277C58.5503 11.2151 58.5697 11.1026 58.593 10.9839C58.6016 10.941 58.6181 10.8989 58.6392 10.8562V8.2404H57.6533V7.13324H58.6392V6.13287H59.7446V7.13324H60.7307V8.2404H59.7446V10.8543C59.7642 10.8948 59.7808 10.9369 59.7891 10.9795C59.8129 11.1026 59.8342 11.2151 59.8552 11.3277C60.282 12.8196 61.4473 13.7865 62.7943 14.9061C63.8442 15.7793 64.9318 16.6822 65.7719 17.9361C67.7224 20.8472 66.6108 23.3438 65.9288 24.4146V30.4146H73.2603V2.79249H50.6408ZM28.4004 16.245C29.2546 14.4916 29.1822 13.2082 29.119 12.0783C29.079 11.3447 29.0403 10.6544 29.2531 9.95763C29.7163 8.43362 30.7999 7.52471 32.1537 7.52471H32.1898C32.8488 7.53094 34.2064 7.5477 34.91 8.85646C35.0798 8.89501 35.2819 8.94194 35.4861 8.99916C36.2443 9.2137 37.0478 9.53647 37.258 10.3206C37.413 10.9116 37.1708 11.5025 36.6395 11.8272C36.4084 11.9715 36.1639 12.0438 35.9064 12.1205C35.656 12.1952 35.3985 12.2716 35.1926 12.4028C35.1674 12.4389 35.1372 12.5282 35.1269 12.6029C35.2649 13.1853 35.6409 13.9689 36.0382 14.7976C36.8437 16.472 37.7533 18.3674 37.5749 20.2436C37.4532 21.5078 37.122 22.5343 36.4948 23.5749L36.4888 23.5835L36.4845 23.5924C35.2053 25.6319 32.7681 26.486 30.7664 26.8365C30.4728 27.914 30.0839 29.7203 29.9371 30.4146H42.701V6.0438C41.4938 4.03326 39.3256 2.79249 36.9754 2.79249H14.3555V20.0631L20.6721 19.3426C23.9828 18.733 27.7397 17.6026 28.4004 16.245ZM21.8694 20.2359C24.9448 21.668 28.4571 22.8391 30.474 22.4433C32.2655 22.0908 33.3366 21.0838 33.2686 19.8131C33.1963 18.483 31.8495 17.0316 29.4071 16.7004C29.4028 16.7112 29.4011 16.7196 29.3968 16.7299C28.5295 18.5084 24.8638 19.6132 21.8694 20.2359Z" fill="white"/>
</svg>
