<svg width="72" height="75" viewBox="0 0 72 75" fill="none" xmlns="http://www.w3.org/2000/svg">
<path fill-rule="evenodd" clip-rule="evenodd" d="M35.8081 3.60992C34.1306 1.7337 31.7282 0.613388 29.1577 0.57843H4.15472V62.269H29.0355C32.9773 62.269 35.8081 66.1256 35.8081 66.1256C35.8081 66.1256 38.7488 62.269 42.5783 62.269H67.4612V0.57843H42.4557C39.8878 0.613388 37.4854 1.7337 35.8081 3.60992ZM50.251 29.1253V30.4153H52.1314V29.1253C52.1314 28.6066 51.7084 28.1862 51.19 28.1862C50.6739 28.1862 50.251 28.6066 50.251 29.1253ZM56.8231 30.4146V24.814H45.5602V30.4146H49.1456V29.1253C49.1456 27.997 50.0637 27.0793 51.1917 27.0793C52.3203 27.0793 53.238 27.997 53.238 29.1253V30.4146H56.8231ZM8.06579 24.4452C9.0074 24.1579 10.8669 23.5864 12.652 23.0366C15.2876 24.2748 18.6984 25.8854 18.5686 25.8854H18.5638C18.9513 27.2327 19.5586 29.9992 19.6499 30.4158H20.8058C20.8934 29.9932 21.4203 27.4899 21.7711 26.2853C21.8092 26.1684 21.8391 25.8684 22.0772 25.8263C23.9384 25.5667 26.3906 24.8446 27.547 23.0045C28.0657 22.1421 28.3655 21.2773 28.4733 20.1402C28.7135 17.6098 26.3973 14.6393 26.0208 12.7227C25.9978 12.5867 26.0443 11.83 26.5757 11.4838C27.3707 10.9652 28.3059 11.0566 28.1864 10.6063C28.0681 10.158 26.274 9.86067 26.274 9.86067C26.0702 9.73281 26.0151 9.52092 25.9533 9.41437C25.5835 8.68959 24.88 8.63857 24.1766 8.62995H24.1537C23.4561 8.62995 22.6869 9.0425 22.3128 10.2792C21.9282 11.5391 22.6849 13.1582 21.8391 15.6529C24.1022 16.063 26.2526 17.5097 26.374 19.7559C26.4528 21.2152 25.5256 22.9727 22.6893 23.5292C22.3403 23.5974 21.9661 23.6292 21.5733 23.6292C18.4005 23.6292 14.0035 21.5832 11.9632 20.5376L6.35501 21.1772V24.2774C6.80977 24.4177 7.2413 24.5044 7.60506 24.5044C7.77485 24.5044 7.93217 24.4857 8.06579 24.4452ZM53.3821 54.892C52.5428 55.5358 50.3564 56.9641 47.5231 56.9641C44.6909 56.9641 42.5083 55.5358 41.6644 54.892C40.8251 55.5358 38.6404 56.9641 35.8081 56.9641C32.9751 56.9641 30.7899 55.5358 29.9484 54.892C29.1095 55.5358 26.9246 56.9641 24.0919 56.9641C21.2572 56.9641 19.0749 55.5358 18.2334 54.892C17.3916 55.5358 15.2093 56.9641 12.3742 56.9641C9.3283 56.9641 7.04013 55.3172 6.35547 54.7651V60.0657H28.9754C31.6427 60.0657 34.1335 61.2627 35.8081 63.2701C37.482 61.2627 39.9728 60.0657 42.6396 60.0657H65.2595V54.7651C64.5754 55.3191 62.2843 56.9641 59.2408 56.9641C56.4062 56.9641 54.2236 55.5358 53.3821 54.892ZM61.6049 41.4301V51.1144H57.1742V41.4301C57.1742 39.2096 55.5247 37.4033 53.4952 37.4033C51.4635 37.4033 49.8123 39.2096 49.8123 41.4301V51.1144H45.3837V41.4301C45.3837 39.2096 43.7325 37.4033 41.7027 37.4033C39.6732 37.4033 38.0223 39.2096 38.0223 41.4301V51.1144H33.592V41.4301C33.592 39.2096 31.9425 37.4033 29.9132 37.4033C27.8834 37.4033 26.2323 39.2096 26.2323 41.4301V51.1144H21.8018V41.4301C21.8018 40.5335 21.5295 39.7072 21.073 39.0331L21.0644 39.0396C20.3736 38.0177 19.2705 37.4057 18.1103 37.4033C16.087 37.4098 14.4423 39.2137 14.4423 41.4301V50.5579H14.4214V51.1144H10.0118V41.4301C10.0118 39.218 8.37496 37.4208 6.35643 37.4033V53.5303L6.48145 53.3948L6.88949 53.7681C6.91272 53.7875 9.23323 55.8552 12.3742 55.8552C15.5326 55.8552 17.838 53.7899 17.8615 53.7681L18.2336 53.4285L18.6055 53.7681C18.629 53.7875 20.9493 55.8552 24.0928 55.8552C27.2479 55.8552 29.554 53.7899 29.5775 53.7681L29.9494 53.4285L30.3234 53.7681C30.3443 53.7875 32.6653 55.8552 35.8081 55.8552C38.9488 55.8552 41.2717 53.7875 41.2925 53.7681L41.6668 53.431L42.0392 53.7681C42.0617 53.7875 44.3803 55.8552 47.5239 55.8552C50.6667 55.8552 52.9853 53.7875 53.0112 53.7681L53.3826 53.431L53.7569 53.7681C53.7763 53.7875 56.0982 55.8552 59.2418 55.8552C62.3976 55.8552 64.703 53.7899 64.7265 53.7681L65.1348 53.3948L65.2603 53.5303V37.4033C63.2434 37.4208 61.6049 39.218 61.6049 41.4301ZM6.35643 36.2902C8.98944 36.3053 11.1251 38.6043 11.1251 41.4301V50.0013H13.3072V41.4301C13.3072 38.5957 15.4579 36.2902 18.1019 36.2902H18.1146H18.123C18.1311 36.2902 18.1397 36.2902 18.1507 36.2902C18.2717 36.2921 18.3912 36.2985 18.5097 36.3096C18.5971 36.3179 18.6822 36.3282 18.7667 36.3414C18.8306 36.3498 18.8946 36.3601 18.9604 36.3732C21.204 36.8004 22.9148 38.9036 22.9148 41.4301V50.0013H25.119V41.4301C25.119 38.5957 27.2697 36.2902 29.9132 36.2902C32.5568 36.2902 34.7075 38.5957 34.7075 41.4301V50.0013H36.909V41.4301C36.909 38.5957 39.0594 36.2902 41.7027 36.2902C44.3468 36.2902 46.4999 38.5957 46.4999 41.4301V50.0013H48.699V41.4301C48.699 38.5957 50.8495 36.2902 53.4952 36.2902C56.1394 36.2902 58.2875 38.5957 58.2875 41.4301V50.0013H60.4911V41.4301C60.4911 38.6043 62.627 36.3053 65.2603 36.2902V32.6294H6.35643V36.2902ZM17.6206 26.6267C17.0896 26.3612 15.7802 25.7281 12.5696 24.2194C10.9141 24.7297 9.25885 25.2397 8.38693 25.5055C8.15129 25.5751 7.8874 25.6113 7.60506 25.6113C7.19748 25.6113 6.77024 25.5373 6.35547 25.4264V30.4153H18.5157C18.36 29.7059 17.9438 27.8464 17.6206 26.6267ZM56.8521 18.5529C56.1021 17.4314 55.0754 16.5793 54.085 15.757C52.9903 14.8453 51.8622 13.9086 51.1907 12.6293C50.5211 13.9086 49.3932 14.8453 48.2969 15.757C47.3083 16.5793 46.2815 17.4314 45.5314 18.5529C43.9947 20.846 44.7709 22.8029 45.315 23.708H57.0686C57.611 22.8029 58.3888 20.846 56.8521 18.5529ZM42.6408 2.79249C40.2901 2.79249 38.1226 4.03326 36.9157 6.0438V30.4146H44.4536V24.4146C43.7732 23.3455 42.6621 20.8472 44.6131 17.9361C45.452 16.6822 46.5382 15.7793 47.5902 14.9061C48.9375 13.7865 50.102 12.8196 50.5293 11.3277C50.5503 11.2151 50.5697 11.1026 50.593 10.9839C50.6016 10.941 50.6181 10.8989 50.6392 10.8562V8.2404H49.6533V7.13324H50.6392V6.13287H51.7446V7.13324H52.7307V8.2404H51.7446V10.8543C51.7642 10.8948 51.7808 10.9369 51.7891 10.9795C51.8129 11.1026 51.8342 11.2151 51.8552 11.3277C52.282 12.8196 53.4473 13.7865 54.7943 14.9061C55.8442 15.7793 56.9318 16.6822 57.7719 17.9361C59.7224 20.8472 58.6108 23.3438 57.9288 24.4146V30.4146H65.2603V2.79249H42.6408ZM20.4004 16.245C21.2546 14.4916 21.1822 13.2082 21.119 12.0783C21.079 11.3447 21.0403 10.6544 21.2531 9.95763C21.7163 8.43362 22.7999 7.52471 24.1537 7.52471H24.1898C24.8488 7.53094 26.2064 7.5477 26.91 8.85646C27.0798 8.89501 27.2819 8.94194 27.4861 8.99916C28.2443 9.2137 29.0478 9.53647 29.258 10.3206C29.413 10.9116 29.1708 11.5025 28.6395 11.8272C28.4084 11.9715 28.1639 12.0438 27.9064 12.1205C27.656 12.1952 27.3985 12.2716 27.1926 12.4028C27.1674 12.4389 27.1372 12.5282 27.1269 12.6029C27.2649 13.1853 27.6409 13.9689 28.0382 14.7976C28.8437 16.472 29.7533 18.3674 29.5749 20.2436C29.4532 21.5078 29.122 22.5343 28.4948 23.5749L28.4888 23.5835L28.4845 23.5924C27.2053 25.6319 24.7681 26.486 22.7664 26.8365C22.4728 27.914 22.0839 29.7203 21.9371 30.4146H34.701V6.0438C33.4938 4.03326 31.3256 2.79249 28.9754 2.79249H6.35547V20.0631L12.6721 19.3426C15.9828 18.733 19.7397 17.6026 20.4004 16.245ZM13.8694 20.2359C16.9448 21.668 20.4571 22.8391 22.474 22.4433C24.2655 22.0908 25.3366 21.0838 25.2686 19.8131C25.1963 18.483 23.8495 17.0316 21.4071 16.7004C21.4028 16.7112 21.4011 16.7196 21.3968 16.7299C20.5295 18.5084 16.8638 19.6132 13.8694 20.2359Z" fill="#2F4E82"/>
</svg>
